<?xml version="1.0" encoding="utf-8"?>
<!-- Generator: Adobe Illustrator 16.0.0, SVG Export Plug-In . SVG Version: 6.00 Build 0)  -->
<!DOCTYPE svg PUBLIC "-//W3C//DTD SVG 1.1//EN" "http://www.w3.org/Graphics/SVG/1.1/DTD/svg11.dtd">
<svg version="1.1" id="Layer_1" xmlns="http://www.w3.org/2000/svg" xmlns:xlink="http://www.w3.org/1999/xlink" x="0px" y="0px"
	 width="254.444px" height="49.403px" viewBox="0 0 254.444 49.403" enable-background="new 0 0 254.444 49.403"
	 xml:space="preserve">
<g>
	<path fill-rule="evenodd" clip-rule="evenodd" fill="#FFFFFF" d="M140.862,42.959c-2.094,1.349-3.896,2.687-5.854,3.744
		c-7.583,4.103-16.733,3.676-21.248-2.285c-3.156-4.166-6.852-1.936-10.194-2.909c-0.424-0.122-1.194,0.764-1.735,1.259
		c-6.333,5.785-14.918,6.174-21.516,1.088c-2.494,1.03-4.833,2.229-7.309,2.963c-3.191,0.946-5.8-0.421-5.991-3.703
		c-0.27-4.641,0.434-9.331,0.521-14.005c0.022-1.199-0.7-2.414-1.081-3.622c-1.201,0.499-2.78,0.672-3.539,1.552
		c-3.282,3.808-4.954,8.11-3.45,13.29c1.145,3.944-2.355,7.791-6.488,7.382c-2.205-0.217-2.424-1.995-2.443-3.539
		c-0.047-4.053,0.12-8.111,0.251-12.163c0.067-2.073,0.344-4.146,0.322-6.217c-0.01-0.828-0.614-2.369-0.872-2.354
		c-1.112,0.069-2.619,0.255-3.222,1.009c-3.62,4.53-6.166,9.403-4.318,15.563c1.272,4.241-1.193,7.54-5.722,7.558
		c-1.201,0.004-2.41-1.354-4.115-2.393c-1.611,0.459-4.07,1.564-6.604,1.779c-3.429,0.29-3.693-3.109-4.981-5.458
		c-3.306,4.875-7.929,6.25-13.391,5.58c-3.962-0.485-7.508-3.8-7.799-7.755c-0.468-6.339,0.958-12.193,5.308-17.053
		c4.446-4.971,9.996-6.793,16.562-5.602c0.562,0.104,1.417,0.125,1.729-0.203c2.233-2.338,3.998-0.642,5.62,0.696
		c1.786,1.472,3.233,3.178,1.452,5.738c-3.099,4.454-2.312,9.55-2.124,14.512c0.027,0.77,0.535,1.519,0.862,2.386
		c2.892-1,4.524-2.39,4.45-5.549c-0.134-5.634,0.87-11.101,3.959-15.943c0.853-1.339,2.403-3.377,3.361-3.236
		c1.405,0.207,2.58,2.069,3.814,3.266c0.313,0.301,0.485,0.747,0.854,1.339c2.484-2.201,5.005-3.901,8.419-3.296
		c3.474,0.616,5.43,2.663,6.119,6.446c2.854-2.928,5.998-4.495,9.943-4.267c4.193,0.242,6.505,2.2,6.201,6.337
		c-0.305,4.102-1.25,8.157-1.914,12.231c-0.126,0.765-0.253,1.527-0.412,2.482c2.378-0.106,2.944-1.081,2.749-2.959
		c-0.506-4.843,0.427-9.36,3.325-13.396c4.838-6.739,14.399-9.239,21.322-5.476c0.83,0.452,1.504,1.194,2.25,1.803
		c-0.065,0.285-0.129,0.57-0.194,0.854c-1.977,0.188-3.952,0.48-5.934,0.542c-6.815,0.212-12.56,7.036-11.5,13.742
		c0.848,5.358,5.572,7.358,11.375,4.496c-2.877-2.502-4.487-5.498-4.262-9.356c0.314-5.355,5.599-9.016,10.637-7.233
		c2.874,1.017,4.402,3.822,3.962,7.57c-0.206,1.759-0.673,3.486-1.042,5.333c2.104,0.492,2.617-0.487,2.651-2.378
		c0.173-9.734,2.926-18.554,9.614-25.865c3.056-3.34,6.765-5.666,11.202-6.765c6.658-1.647,9.619,0.581,9.773,7.374
		c0.007,0.244,0.148,0.481,0.248,0.788C148.811-1.707,163.681-2.28,173.3,4.475c8.933-6.975,14.61-5.778,17.309,3.924
		c3.703-5.309,7.773-9.809,15.018-7.814c5.907,1.627,5.575,6.85,6.263,11.789c2.859-2.949,5.673-5.188,9.699-5.133
		c4.912,0.066,7.616,2.677,7.95,7.605c0.41,6.035-1.205,11.738-2.582,17.494c-0.459,1.924-0.912,3.865-1.109,5.824
		c-0.084,0.822,0.294,2.219,0.841,2.45c0.753,0.315,2.099,0.072,2.784-0.458c1.935-1.491,3.66-3.256,5.471-4.91
		c0.738-0.675,1.485-1.342,3.001-1.796c0,1.478,0.331,3.053-0.06,4.418c-1.494,5.22-8.528,10.027-13.975,10.426
		c-4.802,0.354-7.56-3.979-6.684-7.93c0.69-3.111,1.605-6.171,2.338-9.271c0.889-3.757,1.838-7.511,2.434-11.315
		c0.186-1.178-0.365-3.242-1.166-3.602c-0.93-0.42-2.843,0.217-3.74,1.038c-4.969,4.552-7.6,10.496-9.019,16.937
		c-0.599,2.716-0.548,5.599-0.579,8.408c-0.038,3.465-1.623,5.562-5.038,6.442c-1.807,0.468-3.308-0.114-3.469-1.83
		c-0.249-2.651-0.28-5.44,0.269-8.027c1.487-6.982,3.411-13.871,4.978-20.84c0.427-1.896,0.411-3.959,0.228-5.909
		c-0.342-3.642-2.977-4.953-5.985-2.839c-1.801,1.266-3.456,3.003-4.61,4.876c-3.654,5.933-5.617,12.569-6.645,19.383
		c-0.392,2.588,0.678,5.38,0.948,8.092c0.239,2.396-0.344,4.455-2.689,5.751c-4.593,2.533-5.889,2.132-7.7-2.357
		c-2.709,0.969-5.338,2.416-8.112,2.788c-4.524,0.607-6.645-1.164-7.534-5.639c-0.73-3.69-1.213-7.432-1.725-11.162
		c-0.241-1.771-0.753-3.049-2.6-3.923c-0.979-0.466-1.886-2.165-1.857-3.282c0.018-0.715,1.787-1.417,2.814-2.051
		c0.289-0.178,0.737-0.104,1.111-0.131c1.385-0.099,3.531,0.325,4.007-0.38c1.417-2.103,2.702-4.567,3.081-7.039
		c0.679-4.431-2.505-7.865-6.994-8.222c-5.382-0.429-10.502,0.34-15.283,3.098c-1.311,0.756-2.99,0.867-5.04,1.421
		c-2.261,3.846-2.622,3.93-7.149,1.071c-2.063-1.303-5.13-1.088-6.962,1.057c-4.909,5.747-6.994,12.65-5.583,19.964
		c1.329,6.898,8.366,9.315,13.795,4.827c5.043-4.17,9.752-8.847,11.969-15.41c0.988-2.926,2.428-5.715,3.858-8.465
		c0.589-1.128,1.567-2.151,2.595-2.925c1.848-1.396,3.152-0.772,2.975,1.538c-0.236,3.074-0.604,6.199-1.434,9.158
		c-1.871,6.668-3.143,13.348-2.771,20.327c0.221,4.185-2.477,7.021-6.629,7.132c-0.893,0.025-2.165-1.017-2.639-1.901
		C141.083,46.052,141.143,44.604,140.862,42.959z M166.579,27.68c1.137,3.656,2.195,7.537,3.614,11.278
		c0.335,0.888,1.905,1.88,2.866,1.841c2.097-0.085,5.212-3.864,5.564-6.056c0.676-4.171,1.416-8.331,2.094-12.503
		c0.613-3.784,1.391-7.562,1.693-11.373c0.221-2.774-1.259-4.313-3.117-4.063c-2.232,0.298-3.165,1.846-2.849,4.496
		c0.542,4.54-0.503,8.65-3.899,11.841C170.796,24.785,168.713,26.077,166.579,27.68z M21.832,20.979
		C15.579,21.461,7.998,28.575,9.58,37.36c0.448,2.478,1.867,3.301,4.185,3.063c3.413-0.353,6.974-4.47,7.236-8.319
		C21.25,28.47,21.542,24.839,21.832,20.979z M102.411,33.364c1.661-2.926,1.623-4.262-0.169-6.021
		C100.273,29.343,100.325,31.117,102.411,33.364z"/>
	<path fill-rule="evenodd" clip-rule="evenodd" fill="#FFFFFF" d="M248.124,35.028c3.527-0.02,6.303,2.716,6.32,6.224
		c0.016,3.41-2.863,6.352-6.238,6.37c-3.448,0.019-6.254-2.796-6.275-6.297C241.907,37.716,244.531,35.049,248.124,35.028z"/>
</g>
</svg>
