<?xml version="1.0" encoding="utf-8"?>
<!-- Generator: Adobe Illustrator 16.0.0, SVG Export Plug-In . SVG Version: 6.00 Build 0)  -->
<!DOCTYPE svg PUBLIC "-//W3C//DTD SVG 1.1//EN" "http://www.w3.org/Graphics/SVG/1.1/DTD/svg11.dtd">
<svg version="1.1" id="Layer_1" xmlns="http://www.w3.org/2000/svg" xmlns:xlink="http://www.w3.org/1999/xlink" x="0px" y="0px"
	 width="260px" height="72.449px" viewBox="0 0 260 72.449" enable-background="new 0 0 260 72.449" xml:space="preserve">
<g>
	<g>
		<path fill="#5E8BCE" d="M51.315,19.964l-36.556,14.34c0,0-1.73,0.591-1.594,1.686c0.138,1.091,1.549,1.593,1.549,1.593
			l9.197,3.095c0,0,2.777,9.104,3.323,10.834c0.545,1.73,0.984,1.771,0.984,1.771c0.508,0.222,0.973-0.131,0.973-0.131l5.941-5.418
			l9.264,7.102c2.503,1.094,3.414-1.184,3.414-1.184l6.511-32.824C54.32,18.644,51.315,19.964,51.315,19.964z M46.762,27.431
			c-0.683,0.637-17.345,15.614-17.345,15.614l-0.872,7.441l-3.237-10.697l20.679-13.133c0,0,1.275-0.772,1.229,0
			C47.217,26.655,47.445,26.792,46.762,27.431z"/>
		<path fill="#5E8BCE" d="M36.224,72.449C16.25,72.449,0,56.199,0,36.224C0,16.251,16.25,0,36.224,0
			c19.975,0,36.224,16.251,36.224,36.224C72.448,56.199,56.199,72.449,36.224,72.449z M36.224,4.83
			C18.914,4.83,4.83,18.913,4.83,36.224c0,17.312,14.083,31.395,31.394,31.395s31.394-14.083,31.394-31.395
			C67.618,18.913,53.535,4.83,36.224,4.83z"/>
	</g>
	<g>
		<path fill="#5E8BCE" d="M99.61,57.229h-3.812V30.104h-9.846v-3.431h23.503v3.431H99.61V57.229z"/>
		<path fill="#5E8BCE" d="M128.173,50.707h3.642c-0.311,1.962-1.354,3.575-3.132,4.838c-1.778,1.264-3.889,1.896-6.331,1.896
			c-3.204,0-5.748-1.039-7.633-3.112c-1.885-2.075-2.827-4.884-2.827-8.429c0-3.543,0.938-6.379,2.816-8.512
			c1.877-2.132,4.369-3.198,7.475-3.198c3.049,0,5.463,1.005,7.241,3.018c1.778,2.014,2.668,4.739,2.668,8.186v1.438h-16.389v0.212
			c0,2.174,0.614,3.91,1.842,5.209s2.859,1.948,4.891,1.948c1.426,0,2.657-0.313,3.695-0.942
			C127.167,52.632,127.848,51.78,128.173,50.707z M122.118,37.432c-1.793,0-3.279,0.592-4.457,1.777
			c-1.179,1.186-1.832,2.745-1.959,4.68h12.556c-0.042-1.935-0.625-3.494-1.747-4.68C125.389,38.023,123.924,37.432,122.118,37.432z
			"/>
		<path fill="#5E8BCE" d="M136.177,57.229V25.34h3.685v31.889H136.177z"/>
		<path fill="#5E8BCE" d="M160.229,50.707h3.645c-0.313,1.962-1.354,3.575-3.137,4.838c-1.775,1.264-3.889,1.896-6.328,1.896
			c-3.205,0-5.748-1.039-7.635-3.112c-1.885-2.075-2.825-4.884-2.825-8.429c0-3.543,0.938-6.379,2.813-8.512
			c1.879-2.132,4.369-3.198,7.475-3.198c3.051,0,5.465,1.005,7.242,3.018c1.778,2.014,2.668,4.739,2.668,8.186v1.438h-16.389v0.212
			c0,2.174,0.613,3.91,1.842,5.209c1.229,1.299,2.859,1.948,4.893,1.948c1.426,0,2.656-0.313,3.693-0.942
			C159.223,52.632,159.904,51.78,160.229,50.707z M154.175,37.432c-1.793,0-3.278,0.592-4.457,1.777
			c-1.18,1.186-1.832,2.745-1.959,4.68h12.556c-0.041-1.935-0.623-3.494-1.746-4.68S155.98,37.432,154.175,37.432z"/>
		<path fill="#5E8BCE" d="M177.316,65.379c-2.584,0-4.735-0.574-6.459-1.727c-1.723-1.149-2.717-2.67-2.983-4.563h3.832
			c0.269,0.945,0.928,1.697,1.979,2.255c1.051,0.559,2.332,0.838,3.842,0.838c1.978,0,3.543-0.478,4.701-1.431
			c1.155-0.953,1.735-2.241,1.735-3.862v-3.578h-0.085c-0.72,1.24-1.722,2.205-3.007,2.89c-1.285,0.686-2.726,1.026-4.317,1.026
			c-2.896,0-5.229-1.056-6.998-3.164c-1.771-2.11-2.658-4.89-2.658-8.332c0-3.486,0.891-6.281,2.668-8.387
			c1.778-2.104,4.137-3.155,7.072-3.155c1.608,0,3.061,0.338,4.353,1.016c1.291,0.678,2.317,1.646,3.079,2.9h0.063v-3.707h3.516
			V56.59c0,2.725-0.92,4.869-2.764,6.438C183.044,64.596,180.521,65.379,177.316,65.379z M177.253,53.945
			c2.005,0,3.625-0.758,4.858-2.274c1.236-1.519,1.854-3.497,1.854-5.938c0-2.457-0.617-4.445-1.854-5.973
			c-1.233-1.523-2.854-2.285-4.858-2.285c-1.989,0-3.586,0.752-4.785,2.254c-1.198,1.504-1.799,3.504-1.799,6.004
			c0,2.483,0.601,4.476,1.799,5.972C173.667,53.199,175.264,53.945,177.253,53.945z"/>
		<path fill="#5E8BCE" d="M192.646,57.229V34.402h3.473v3.706h0.085c0.338-1.197,1.009-2.15,2.012-2.856
			c1.002-0.706,2.175-1.059,3.515-1.059c0.58,0,1.054,0.049,1.42,0.148v3.643c-0.396-0.168-1.03-0.254-1.905-0.254
			c-1.481,0-2.672,0.494-3.568,1.481c-0.896,0.988-1.344,2.286-1.344,3.896v14.123H192.646z"/>
		<path fill="#5E8BCE" d="M213.059,57.439c-2.313,0-4.179-0.613-5.591-1.842c-1.411-1.229-2.116-2.853-2.116-4.869
			c0-1.963,0.733-3.506,2.203-4.627c1.467-1.123,3.584-1.77,6.353-1.938l6.395-0.381v-1.905c0-1.412-0.45-2.499-1.354-3.261
			c-0.903-0.763-2.195-1.144-3.875-1.144c-1.326,0-2.445,0.315-3.355,0.951c-0.909,0.637-1.479,1.489-1.704,2.563h-3.535
			c0.057-1.92,0.91-3.531,2.563-4.837s3.677-1.958,6.077-1.958c2.694,0,4.848,0.667,6.457,2c1.608,1.334,2.414,3.124,2.414,5.368
			v15.67h-3.493V53.27h-0.085c-0.647,1.271-1.638,2.282-2.965,3.037C216.114,57.063,214.652,57.439,213.059,57.439z M213.842,54.243
			c1.863,0,3.405-0.54,4.626-1.62c1.222-1.08,1.832-2.438,1.832-4.075v-1.843l-5.971,0.381c-3.474,0.212-5.209,1.434-5.209,3.663
			c0,1.06,0.427,1.906,1.28,2.541C211.255,53.925,212.4,54.243,213.842,54.243z"/>
		<path fill="#5E8BCE" d="M228.874,57.229V34.402h3.474v3.706h0.086c0.534-1.213,1.379-2.168,2.528-2.867
			c1.149-0.699,2.468-1.048,3.949-1.048c1.539,0,2.864,0.374,3.979,1.122c1.114,0.749,1.92,1.814,2.414,3.197h0.084
			c0.649-1.354,1.608-2.414,2.881-3.176c1.271-0.762,2.703-1.143,4.299-1.143c2.259,0,4.062,0.677,5.408,2.033
			c1.349,1.355,2.021,3.164,2.021,5.419v15.584h-3.686V42.491c0-1.58-0.42-2.813-1.26-3.694c-0.841-0.881-2.021-1.322-3.547-1.322
			c-1.525,0-2.777,0.508-3.759,1.523s-1.472,2.309-1.472,3.875v14.355h-3.687V42.046c0-1.383-0.435-2.491-1.301-3.323
			c-0.869-0.834-2.017-1.25-3.44-1.25c-1.523,0-2.787,0.533-3.789,1.601c-1.004,1.065-1.504,2.396-1.504,3.989v14.166H228.874z"/>
	</g>
</g>
</svg>
