<?xml version="1.0" encoding="utf-8"?>
<!-- Generator: Adobe Illustrator 16.0.0, SVG Export Plug-In . SVG Version: 6.00 Build 0)  -->
<!DOCTYPE svg PUBLIC "-//W3C//DTD SVG 1.1//EN" "http://www.w3.org/Graphics/SVG/1.1/DTD/svg11.dtd">
<svg version="1.1" id="Layer_1" xmlns="http://www.w3.org/2000/svg" xmlns:xlink="http://www.w3.org/1999/xlink" x="0px" y="0px"
	 width="552.215px" height="166.797px" viewBox="0 0 552.215 166.797" enable-background="new 0 0 552.215 166.797"
	 xml:space="preserve">
<g>
	<g>
		<path fill="#FFFFFF" d="M157.762,40.103l-0.045-0.193c-3.895-15.74-21.445-32.627-37.564-36.143l-0.184-0.037
			C93.9-1.243,67.465-1.243,41.4,3.729l-0.188,0.037C25.102,7.282,7.551,24.169,3.65,39.909l-0.043,0.193
			c-4.811,21.977-4.811,44.268,0,66.248l0.043,0.191c3.732,15.065,19.977,31.182,35.496,35.61v17.567
			c0,6.359,7.748,9.48,12.154,4.895l17.8-18.504c3.863,0.217,7.723,0.338,11.588,0.338c13.123,0,26.25-1.242,39.281-3.727
			l0.184-0.039c16.119-3.512,33.67-20.4,37.564-36.139l0.045-0.193C162.578,84.37,162.578,62.079,157.762,40.103L157.762,40.103z
			 M143.68,103.163c-2.602,10.269-15.926,23.033-26.518,25.392c-13.861,2.637-27.834,3.764-41.789,3.377
			c-0.277-0.009-0.547,0.101-0.738,0.299l-12.996,13.343L47.813,159.76c-1.01,1.055-2.785,0.338-2.785-1.119v-29.104
			c0-0.479-0.344-0.89-0.814-0.982h-0.01c-10.588-2.357-23.912-15.123-26.512-25.391c-4.336-19.87-4.336-40.008,0-59.875
			c2.6-10.268,15.924-23.033,26.512-25.391c24.209-4.605,48.756-4.605,72.959,0c10.596,2.357,23.916,15.123,26.518,25.391
			C148.014,63.155,148.014,83.296,143.68,103.163z"/>
		<path fill="#FFFFFF" d="M103.721,116.597c-1.631-0.494-3.18-0.826-4.623-1.423C84.17,108.98,70.43,100.989,59.549,88.739
			c-6.189-6.965-11.033-14.83-15.127-23.15c-1.943-3.947-3.58-8.049-5.246-12.123c-1.521-3.715,0.715-7.555,3.076-10.354
			c2.213-2.629,5.063-4.639,8.146-6.121c2.408-1.156,4.781-0.49,6.541,1.551c3.801,4.414,7.293,9.051,10.121,14.164
			c1.738,3.145,1.262,6.99-1.889,9.131c-0.768,0.521-1.465,1.133-2.178,1.721c-0.627,0.514-1.215,1.035-1.645,1.732
			c-0.785,1.275-0.82,2.779-0.316,4.168C64.92,80.136,71.469,88.44,82.217,92.911c1.721,0.715,3.445,1.549,5.426,1.316
			c3.32-0.385,4.395-4.027,6.721-5.928c2.271-1.859,5.178-1.883,7.623-0.334c2.449,1.551,4.824,3.215,7.184,4.896
			c2.316,1.647,4.623,3.265,6.76,5.146c2.055,1.811,2.76,4.184,1.605,6.639c-2.121,4.496-5.201,8.238-9.646,10.625
			C106.637,115.944,105.137,116.161,103.721,116.597C102.09,116.103,105.137,116.161,103.721,116.597L103.721,116.597z
			 M80.725,31.853c19.527,0.547,35.57,13.506,39.004,32.809c0.586,3.291,0.797,6.654,1.057,9.994
			c0.107,1.402-0.686,2.738-2.205,2.756c-1.563,0.018-2.266-1.293-2.367-2.697c-0.201-2.777-0.34-5.568-0.727-8.324
			c-2.018-14.545-13.617-26.58-28.1-29.162c-2.176-0.389-4.406-0.492-6.611-0.725c-1.398-0.145-3.227-0.229-3.533-1.965
			c-0.262-1.455,0.967-2.611,2.352-2.686C79.971,31.831,80.348,31.851,80.725,31.853C100.252,32.399,80.348,31.851,80.725,31.853z"
			/>
		<path fill="#FFFFFF" d="M110.404,70.319c-0.035,0.244-0.053,0.816-0.191,1.357c-0.518,1.961-3.492,2.207-4.178,0.227
			c-0.203-0.586-0.234-1.254-0.234-1.887c-0.006-4.137-0.908-8.268-2.992-11.865c-2.143-3.697-5.418-6.809-9.26-8.689
			c-2.322-1.139-4.836-1.844-7.383-2.266c-1.115-0.184-2.238-0.295-3.355-0.451c-1.354-0.188-2.076-1.051-2.014-2.387
			c0.061-1.252,0.975-2.152,2.336-2.076c4.484,0.256,8.813,1.227,12.797,3.334c8.102,4.289,12.729,11.063,14.08,20.105
			c0.059,0.41,0.158,0.816,0.189,1.229C110.275,67.964,110.324,68.981,110.404,70.319C110.369,70.563,110.324,68.981,110.404,70.319
			z"/>
		<path fill="#FFFFFF" d="M98.256,69.849c-1.633,0.029-2.508-0.875-2.676-2.373c-0.117-1.045-0.211-2.105-0.457-3.119
			c-0.492-2.002-1.557-3.857-3.238-5.082c-0.797-0.578-1.695-1-2.641-1.271c-1.197-0.35-2.441-0.254-3.641-0.545
			c-1.295-0.32-2.012-1.371-1.811-2.588c0.186-1.109,1.268-1.977,2.477-1.887c7.57,0.545,12.982,4.461,13.754,13.373
			c0.055,0.629,0.117,1.293-0.021,1.895C99.764,69.28,99,69.798,98.256,69.849C96.623,69.878,99,69.798,98.256,69.849L98.256,69.849
			z"/>
	</g>
	<g>
		<path fill="#FFFFFF" d="M327.846,75.552c-0.008-13.803,0.064-27.607-0.035-41.412c-0.063-8.311,2.74-14.904,11.908-14.83
			c8.678,0.072,11.392,6.445,11.031,14.377c-0.078,1.723-0.014,3.449-0.01,5.176c0.014,12.488,0.014,12.488,11.479,9.088
			c16.209-4.809,31.701,1.234,39.572,16.227c9.078,17.295,10.098,34.922-0.07,52.309c-10.354,17.705-29.457,22.676-46.928,11.99
			c-2.801-1.717-4.029-2.691-6.42,0.451c-3.547,4.668-8.594,5.559-13.873,3.047c-5.371-2.559-6.699-7.395-6.674-12.941
			C327.896,104.542,327.85,90.047,327.846,75.552z M385.709,90.905c0.16-12.947-7.115-22.854-16.977-23.115
			c-10.277-0.271-17.812,8.971-18.009,22.087c-0.186,12.623,7.394,22.951,17.058,23.238
			C377.902,113.42,385.547,103.942,385.709,90.905z"/>
		<path fill="#FFFFFF" d="M240.684,91.323c7.555-20.186,14.027-37.479,20.506-54.764c1.088-2.898,2.076-5.848,3.369-8.65
			c3.082-6.672,7.764-10.801,15.539-7.859c8.166,3.086,9.465,9.447,6.613,16.871c-7.91,20.555-16.018,41.033-24.057,61.541
			c-3.391,8.65-6.721,17.328-10.244,25.924c-2.074,5.064-5.389,8.896-11.408,9.021c-6.561,0.137-10.021-4.07-12.154-9.48
			c-11.361-28.813-22.619-57.666-33.867-86.52c-3.123-8.006-1.438-14.525,7.082-17.553c8.604-3.055,12.871,2.566,15.518,9.512
			C225.033,48.933,232.23,68.597,240.684,91.323z"/>
		<path fill="#FFFFFF" d="M463.127,98.149c-6.891,0.006-13.783,0.1-20.672-0.025c-5.473-0.102-5.598,2.349-3.504,6.39
			c4.186,8.09,16.902,11.879,27.479,7.813c3.839-1.476,7.47-3.529,11.101-5.498c5.387-2.918,10.002-2.283,13.479,2.897
			c3.978,5.922,1.351,10.774-3.553,14.239c-15.393,10.855-32.359,14.035-49.854,6.564c-17.011-7.27-24.24-21.742-24.445-39.756
			c-0.262-23.252,15.438-41.941,36.586-44.043c21.318-2.125,40.17,12.555,44.451,34.615c2.396,12.34-1.021,16.621-13.5,16.783
			C474.84,98.204,468.98,98.144,463.127,98.149z M453,82.456c2.055,0,4.15,0.258,6.156-0.055c3.791-0.586,9.848,2.297,10.93-1.979
			c1.424-5.623-3.213-10.176-8.387-12.723c-6.75-3.324-13.326-2.73-19.06,2.471c-3.084,2.797-6.512,6.326-4.987,10.479
			c1.41,3.832,6.037,1.264,9.19,1.764C448.852,82.728,450.945,82.472,453,82.456z"/>
		<path fill="#FFFFFF" d="M501.967,89.099c-0.004-9.652,0.064-19.309-0.031-28.963c-0.049-5.346,1.81-9.359,6.939-11.541
			c5.285-2.248,10.787-2.146,14.072,2.521c2.957,4.197,4.354,2.451,6.83,0.24c3.506-3.141,7.739-4.598,12.424-3.854
			c5.27,0.836,8.582,3.852,9.709,9.299c1.088,5.252-0.732,9.59-5.574,10.73c-19.994,4.707-23.08,18.592-21.055,36.078
			c0.707,6.106,0.358,12.433-0.287,18.574c-0.75,7.127-5.203,11.521-12.498,10.978c-6.811-0.511-10.32-5.32-10.465-11.998
			C501.801,110.478,501.969,99.788,501.967,89.099z"/>
		<path fill="#FFFFFF" d="M294.697,93.351c0.01-9.289-0.035-18.584,0.021-27.875c0.052-7.783,3.638-12.475,11.814-12.396
			c7.836,0.076,10.955,4.998,11.006,12.111c0.133,18.584,0.08,37.168,0.039,55.752c-0.017,7.82-4.01,12.832-11.813,12.563
			c-7.762-0.271-11.274-5.48-11.117-13.309C294.832,111.25,294.693,102.301,294.697,93.351z"/>
		<path fill="#FFFFFF" d="M319.543,32.298c-0.873,7.381-4.396,12.295-12.273,12.785c-7.297,0.451-13.188-5.408-13.231-12.787
			c-0.045-7.16,6.201-13.703,13.139-12.939C314.553,20.171,318.883,24.597,319.543,32.298z"/>
	</g>
</g>
</svg>
