<svg id="Слой_1" data-name="Слой 1" xmlns="http://www.w3.org/2000/svg" viewBox="0 0 46.43 46.43"><defs><style>.cls-1{fill:#fff;}.cls-2{fill:#b2b2b2;}</style></defs><title>bot-mini</title><circle class="cls-1" cx="23.21" cy="23.21" r="23.21"/><path class="cls-2" d="M25,12.18a4.79,4.79,0,0,0,3.9-1.8l-1.48-1a3.26,3.26,0,0,1-4.84,0l-1.48,1A4.79,4.79,0,0,0,25,12.18Zm0-2.34A2.24,2.24,0,0,0,26.84,9l-1-.67H24.26l-1,.67A2.24,2.24,0,0,0,25,9.85ZM42.13,20.24H40.48v-.6a8.8,8.8,0,0,0-8.79-8.79H29.76a6.38,6.38,0,0,1-4.72,2,6.39,6.39,0,0,1-4.73-2H18.39A8.8,8.8,0,0,0,9.6,19.63v.6H7.95a1.36,1.36,0,0,0-1.35,1.35v9.48a1.36,1.36,0,0,0,1.35,1.35H9.6v.51a8.8,8.8,0,0,0,8.79,8.79h13.3a8.8,8.8,0,0,0,8.79-8.79v-.51h1.65a1.36,1.36,0,0,0,1.35-1.35V21.59A1.36,1.36,0,0,0,42.13,20.24Zm-4,12.7a6.42,6.42,0,0,1-6.41,6.41H18.39A6.42,6.42,0,0,1,12,32.94V19.63a6.42,6.42,0,0,1,6.41-6.41h13.3a6.42,6.42,0,0,1,6.41,6.41ZM33.28,16.38A1.66,1.66,0,1,0,34.94,18,1.66,1.66,0,0,0,33.28,16.38ZM25,18.6a7.69,7.69,0,1,0,7.69,7.69A7.7,7.7,0,0,0,25,18.6Zm0,13a5.31,5.31,0,1,1,5.31-5.31A5.32,5.32,0,0,1,25,31.6Z" transform="translate(-1.82 -1.82)"/></svg>