<svg id="Слой_1" data-name="Слой 1" xmlns="http://www.w3.org/2000/svg" viewBox="0 0 133.21 27.22"><defs><style>.cls-1{fill:#fff;}</style></defs><title>directbot_logo</title><path class="cls-1" d="M13,1.82H5.88A2.11,2.11,0,0,0,3.79,3.66L.91,26.24A2.11,2.11,0,0,0,3,28.61h7.11c6,0,11.5-4.66,12.23-10.38l.7-5.49A9.43,9.43,0,0,0,20.79,5.2,10.31,10.31,0,0,0,13,1.82ZM18.86,12.2l-.7,5.49c-.46,3.63-4.15,6.7-8.05,6.7H5.39L7.74,6H13a6,6,0,0,1,4.63,2A5.26,5.26,0,0,1,18.86,12.2ZM26.4,8.11a3.49,3.49,0,0,0,2.38.73,3.57,3.57,0,0,0,1.49-.27,2.56,2.56,0,0,0,1-.72,2.31,2.31,0,0,0,.48-1,3.48,3.48,0,0,0,0-1.17,2.79,2.79,0,0,0-.4-1.13,2.5,2.5,0,0,0-.75-.77,3.29,3.29,0,0,0-1-.43,4.76,4.76,0,0,0-1.18-.14,3.53,3.53,0,0,0-1.6.31,2.57,2.57,0,0,0-.94.76,2.4,2.4,0,0,0-.44,1,2.68,2.68,0,0,0,0,.92A3,3,0,0,0,26.4,8.11ZM133.77,24.55a2.13,2.13,0,0,0-2.94-.66,4.74,4.74,0,0,1-3.41.24,2.28,2.28,0,0,1-1.48-1.55c-.58-1.73.47-7.22,1.54-12.17l3.34-.11a1.82,1.82,0,0,0-.12-3.65l-2.42.08c.23-1,.44-2,.6-2.8a2.13,2.13,0,1,0-4.17-.85c-.12.61-.46,2-.88,3.78L121.12,7a1.82,1.82,0,0,0,.06,3.65h.06l1.77-.06c-1,4.91-2,10.79-1.11,13.38a6.5,6.5,0,0,0,4.1,4.22,8.83,8.83,0,0,0,7.12-.66A2.13,2.13,0,0,0,133.77,24.55ZM113.5,11a7.5,7.5,0,0,0-4.65,1.25h0l-.22.16-.37.27c-2.34,1.69-2.43,1.85-4.31,2.5a5.16,5.16,0,0,1-1.68.19,7,7,0,0,0-4.38-3c1.82-1.78,3.48-4,3.9-6.26.49-2.6-1.49-5.37-5.57-4.3-3.32.87-4.44,6.24-4.88,8.83-.24,1.39-.42,2.28-.58,3.08,0,0,0,.08,0,.13l0,.24c-.12.65-.23,1.29-.32,2.13-.07.51-.15,1.07-.23,1.64a9.91,9.91,0,0,1-4.22,6.08,4.74,4.74,0,0,1-3.41.24A2.28,2.28,0,0,1,81,22.59c-.58-1.73.48-7.22,1.54-12.17l3.33-.1a1.82,1.82,0,0,0-.12-3.65l-2.42.08c.23-1,.44-2,.6-2.8a2.13,2.13,0,0,0-4.17-.85c-.12.61-.47,2-.88,3.78L76.2,7a1.82,1.82,0,0,0,.06,3.65h.06l1.77-.06a62.59,62.59,0,0,0-1.44,10,2.46,2.46,0,0,0-1.31.81,16.4,16.4,0,0,1-1.8,1.73,11.55,11.55,0,0,1-1.92,1.31,3.92,3.92,0,0,1-1.81.52,2.54,2.54,0,0,1-1.43-.38,3.45,3.45,0,0,1-1-.94,3.87,3.87,0,0,1-.56-1.25A8.44,8.44,0,0,1,66.62,21c0-.28,0-.63-.06-1a8.19,8.19,0,0,1,.07-1.31A14,14,0,0,1,67,17a6.72,6.72,0,0,1,.57-1.56,2.71,2.71,0,0,1,.78-.89,2,2,0,0,1,1.19-.34.41.41,0,0,1,.41.28,2.44,2.44,0,0,1,.15.7,2.83,2.83,0,0,1,0,.63c-.11.68-.18,1.11-.2,1.29a1.58,1.58,0,0,0,.37,1.21,1.34,1.34,0,0,0,1.19.44,1.86,1.86,0,0,0,1-.28,2.86,2.86,0,0,0,.86-1.06A5,5,0,0,0,73.92,16,3.94,3.94,0,0,0,74,14.87a3.85,3.85,0,0,0-.5-1.6A4.48,4.48,0,0,0,72.36,12a5.23,5.23,0,0,0-1.62-.85,6.31,6.31,0,0,0-2-.31,5.11,5.11,0,0,0-2.13.43,5.82,5.82,0,0,0-1.69,1.16,7.08,7.08,0,0,0-1.26,1.69,10.62,10.62,0,0,0-.84,2,18.86,18.86,0,0,0-.55,2.48A10.09,10.09,0,0,0,62.15,21c0,.18,0,.36.07.54a17,17,0,0,1-2,1.33,12.91,12.91,0,0,1-2.18,1,6.32,6.32,0,0,1-2.18.41,2.79,2.79,0,0,1-.63-.07A1.92,1.92,0,0,1,54.7,24a2.64,2.64,0,0,1-.56-.48,6.31,6.31,0,0,1-.59-.77,11.13,11.13,0,0,0,2.73-1.15A9.21,9.21,0,0,0,58.39,20a8.44,8.44,0,0,0,1.46-2.26,4.8,4.8,0,0,0,.5-2.38,4.7,4.7,0,0,0-.51-1.8,4.55,4.55,0,0,0-1.09-1.37,5,5,0,0,0-1.54-.88,5.37,5.37,0,0,0-1.85-.31,5.22,5.22,0,0,0-2.15.42,5.7,5.7,0,0,0-1.68,1.14,7,7,0,0,0-1.24,1.66,9.93,9.93,0,0,0-.81,2q-.3,1-.55,2.38c0,.07,0,.14,0,.2l-.46.22a4,4,0,0,1-1.6.35,1.47,1.47,0,0,1-.54-.11,1.25,1.25,0,0,1-.49-.36,2.19,2.19,0,0,1-.38-.67,4,4,0,0,1-.22-1.05,6.24,6.24,0,0,1,0-.92c0-.37.08-.84.16-1.41s.13-1,.16-1.39a5.48,5.48,0,0,0,0-.83,1.74,1.74,0,0,0-.2-.69,1.72,1.72,0,0,0-.42-.51,1.83,1.83,0,0,0-.58-.32,2,2,0,0,0-.66-.12,2.69,2.69,0,0,0-1.65.52,5.26,5.26,0,0,0-1.2,1.27,8.9,8.9,0,0,0-.94,1.89q-.43,1.14-.71,1.84H39a18.78,18.78,0,0,1-.13-2.08c0-.8,0-1.41-.07-1.84s-.07-.65-.1-.86a1,1,0,0,0-.19-.48.63.63,0,0,0-.39-.21,5.41,5.41,0,0,0-1.38,0,1,1,0,0,0-.44.18,1.06,1.06,0,0,0-.29.36,3.16,3.16,0,0,0-.23.61,11.51,11.51,0,0,0-.33,1.47c-.1.6-.22,1.34-.35,2.23s-.23,1.73-.3,2.52-.12,1.56-.15,2.32c0,.34,0,.66,0,1l-.5.49q-.66.66-1.36,1.29a10.58,10.58,0,0,1-1.41,1.06A2.57,2.57,0,0,1,30,24.9a.82.82,0,0,1-.78-.46,3.94,3.94,0,0,1-.35-1.25,7.27,7.27,0,0,1,0-1.79c.08-.66.12-1.32.14-2A16.74,16.74,0,0,1,29.3,17c.17-.94.29-1.71.36-2.31s.13-1.13.19-1.6a4.65,4.65,0,0,0,0-1.09,1.17,1.17,0,0,0-.36-.73,1.5,1.5,0,0,0-1-.27,4.44,4.44,0,0,0-.87.1,3.91,3.91,0,0,0-.9.3,2.58,2.58,0,0,0-.74.52,1.22,1.22,0,0,0-.37.8q-.07.63-.44,2.72-.36,2.56-.49,3.31a34.09,34.09,0,0,0-.17,3.42,15.92,15.92,0,0,0,.12,2.57A6.35,6.35,0,0,0,25,26.19a3.25,3.25,0,0,0,.71,1.11A3.06,3.06,0,0,0,26.8,28a4.34,4.34,0,0,0,1.57.25,6.45,6.45,0,0,0,2.09-.37A13.18,13.18,0,0,0,32.54,27a13.75,13.75,0,0,0,1.85-1.21l.39-.31c0,.17.05.34.09.5a4.26,4.26,0,0,0,.42,1.17A2.26,2.26,0,0,0,36,28a2.1,2.1,0,0,0,1.18.3,1.39,1.39,0,0,0,.57-.11,1.17,1.17,0,0,0,.46-.39,3.49,3.49,0,0,0,.38-.73A10.09,10.09,0,0,0,39,25.9l2.37-8.74h.28c.16.73.34,1.46.56,2.18a7.84,7.84,0,0,0,.87,1.94,4.44,4.44,0,0,0,1.4,1.4,4,4,0,0,0,2.17.53A4.7,4.7,0,0,0,48.06,23a9.1,9.1,0,0,0,1-.41,9.85,9.85,0,0,0,.34,1.06A7.84,7.84,0,0,0,50.86,26,6.57,6.57,0,0,0,56,28.27,8.67,8.67,0,0,0,58,28a11.16,11.16,0,0,0,1.92-.65,13,13,0,0,0,1.74-.93c.55-.35,1.05-.7,1.53-1.06l.32-.26a7.89,7.89,0,0,0,.74,1,7,7,0,0,0,2.19,1.6,6.81,6.81,0,0,0,2.9.59,5.72,5.72,0,0,0,1.8-.29,8.63,8.63,0,0,0,1.67-.75A13.63,13.63,0,0,0,76.9,23.6c0,.11.06.22.09.33a6.49,6.49,0,0,0,4.1,4.22,8.37,8.37,0,0,0,2.79.46,5.19,5.19,0,0,0,3.58-1.13,9.24,9.24,0,0,0,2.54-3A5.51,5.51,0,0,0,91.65,27a5.85,5.85,0,0,0,3.94,1.37,9,9,0,0,0,1.54-.14,8.09,8.09,0,0,0,5.63-4.8,8.76,8.76,0,0,0,.76-4.41,7.83,7.83,0,0,0,1.3-.71c0,.2-.08.4-.1.6a8.81,8.81,0,0,0,1.8,6.68,7.12,7.12,0,0,0,5,2.65l.54,0c4.06,0,7.68-3.5,8.25-8a8.81,8.81,0,0,0-1.8-6.68A7.14,7.14,0,0,0,113.5,11ZM52.89,19.93c0-.25,0-.55,0-.91a5,5,0,0,1,.2-1.35c.15-.55.28-1,.39-1.38a3.21,3.21,0,0,1,.49-1,2.47,2.47,0,0,1,.83-.71A2.67,2.67,0,0,1,56,14.31a.93.93,0,0,1,.76.49,2.68,2.68,0,0,1,.4,1.27,2.39,2.39,0,0,1-.5,1.39,5.87,5.87,0,0,1-1.14,1.33,5.49,5.49,0,0,1-1.32.81A3.37,3.37,0,0,1,52.89,19.93Zm41.76-9.74c1.4-3.41,1.81-4.82,2.7-5.09,1.39-.42,1.31,3.08-2.2,5.92C94.18,11.81,93.81,12.22,94.65,10.18Zm4.87,9.69c0,.07,0,.34-.05.4A3.92,3.92,0,0,1,99,21.68a4.52,4.52,0,0,1-2.83,2.65,2.49,2.49,0,0,1-2-.24,2.38,2.38,0,0,1-.5-1.87c0-.92.32-2.77.62-4.82.13-.66.4-1,.71-1.12a3.76,3.76,0,0,1,1.57-.17h0a2.54,2.54,0,0,1,1.64.62A3.84,3.84,0,0,1,99.52,19.87Zm16.58-.09c-.31,2.43-2.23,4.38-4.25,4.23a2.9,2.9,0,0,1-2-1.1,4.55,4.55,0,0,1-.87-3.45c.3-2.34,2.11-4.24,4-4.24h.22a2.88,2.88,0,0,1,2,1.1A4.55,4.55,0,0,1,116.09,19.78Z" transform="translate(-0.9 -1.39)"/></svg>