<?xml version="1.0" encoding="utf-8"?>
<!-- Generator: Adobe Illustrator 16.0.0, SVG Export Plug-In . SVG Version: 6.00 Build 0)  -->
<!DOCTYPE svg PUBLIC "-//W3C//DTD SVG 1.1//EN" "http://www.w3.org/Graphics/SVG/1.1/DTD/svg11.dtd">
<svg version="1.1" id="Layer_1" xmlns="http://www.w3.org/2000/svg" xmlns:xlink="http://www.w3.org/1999/xlink" x="0px" y="0px"
	 width="196.153px" height="66.436px" viewBox="1.25 0 196.153 66.436" enable-background="new 1.25 0 196.153 66.436"
	 xml:space="preserve">
<g>
	<g>
		<g enable-background="new    ">
			<path fill="#5E8BCE" d="M2.617,21.567c0.008-0.075,0.045-0.141,0.111-0.2c0.068-0.059,0.144-0.094,0.229-0.104
				c-0.235,0.004-0.457,0.024-0.667,0.06c-0.077,0.021-0.143,0.028-0.199,0.022c-0.093-0.009-0.176-0.051-0.248-0.123
				c-0.073-0.073-0.103-0.169-0.091-0.287c0.011-0.109,0.097-0.195,0.258-0.258s0.353-0.104,0.576-0.129
				c0.222-0.023,0.453-0.032,0.692-0.027c0.238,0.006,0.445,0.018,0.622,0.035c0.297,0.03,0.589,0.09,0.875,0.18
				c0.286,0.089,0.552,0.221,0.797,0.396c0.165,0.222,0.279,0.446,0.34,0.673c0.062,0.227,0.082,0.45,0.059,0.673
				c-0.042,0.418-0.2,0.803-0.475,1.155c-0.275,0.351-0.603,0.647-0.983,0.892c0.532,0.212,0.933,0.499,1.201,0.857
				c0.269,0.359,0.37,0.868,0.304,1.527c-0.019,0.186-0.06,0.356-0.122,0.515c-0.063,0.157-0.167,0.309-0.313,0.453
				c-0.499,0.484-1.024,0.902-1.576,1.254c-0.551,0.353-1.15,0.659-1.794,0.922l-0.08,0.372c-0.03,0.109-0.087,0.19-0.172,0.243
				c-0.085,0.052-0.179,0.073-0.281,0.063c-0.12-0.012-0.211-0.062-0.273-0.146c-0.062-0.086-0.087-0.18-0.077-0.282
				c0.021-0.026,0.028-0.054,0.022-0.082c-0.006-0.029,0.001-0.057,0.022-0.082c-0.095-0.085-0.136-0.184-0.125-0.294
				c0.004-0.047,0.032-0.112,0.083-0.196c0.051-0.084,0.113-0.122,0.187-0.114c0.215-0.926,0.401-1.846,0.559-2.758
				c0.158-0.914,0.283-1.839,0.377-2.777c0.041-0.408,0.068-0.811,0.08-1.209C2.549,22.392,2.575,21.985,2.617,21.567z
				 M5.133,25.942c-0.096-0.158-0.214-0.295-0.353-0.408c-0.139-0.112-0.289-0.205-0.45-0.277C4.168,25.184,4,25.126,3.826,25.08
				s-0.343-0.087-0.508-0.122c-0.056-0.006-0.105-0.029-0.148-0.07c-0.091,0.722-0.197,1.429-0.319,2.12
				c-0.121,0.691-0.259,1.395-0.416,2.111c0.276-0.132,0.575-0.283,0.896-0.452c0.322-0.17,0.623-0.358,0.902-0.57
				c0.279-0.211,0.515-0.441,0.709-0.688c0.193-0.248,0.304-0.511,0.332-0.79C5.298,26.395,5.251,26.17,5.133,25.942z M3.523,24.177
				c0.181-0.113,0.365-0.224,0.554-0.331c0.189-0.107,0.36-0.227,0.514-0.356s0.284-0.285,0.392-0.467s0.174-0.407,0.201-0.677
				c0.022-0.223-0.011-0.399-0.101-0.53s-0.211-0.234-0.363-0.312c-0.151-0.076-0.318-0.128-0.498-0.155
				c-0.18-0.027-0.354-0.05-0.521-0.066c-0.223-0.022-0.448-0.03-0.674-0.025l0.028,0.003c0.111,0.011,0.2,0.058,0.267,0.139
				c0.067,0.083,0.1,0.175,0.099,0.278c-0.02,0.383-0.04,0.756-0.063,1.118c-0.022,0.364-0.053,0.737-0.091,1.117L3.233,24.26
				L3.523,24.177z"/>
			<path fill="#5E8BCE" d="M10.479,25.522c0.049,0.081,0.069,0.153,0.063,0.219c-0.01,0.103-0.063,0.189-0.16,0.265
				c-0.097,0.074-0.196,0.106-0.298,0.097c-0.111-0.012-0.195-0.07-0.25-0.18c-0.06-0.147-0.152-0.259-0.275-0.338
				c-0.124-0.078-0.26-0.124-0.408-0.139C8.9,25.421,8.671,25.459,8.464,25.56c-0.207,0.102-0.383,0.237-0.526,0.407
				c-0.144,0.169-0.259,0.359-0.346,0.571c-0.087,0.213-0.141,0.422-0.162,0.627c-0.019,0.187-0.011,0.389,0.023,0.609
				c0.034,0.221,0.097,0.429,0.19,0.627c0.093,0.197,0.221,0.367,0.385,0.512c0.164,0.143,0.371,0.228,0.622,0.253
				c0.307,0.03,0.592-0.052,0.855-0.248s0.461-0.439,0.594-0.73c0.091-0.151,0.209-0.22,0.358-0.205
				c0.13,0.013,0.224,0.063,0.281,0.147c0.057,0.086,0.082,0.171,0.073,0.254c-0.003,0.028-0.008,0.055-0.016,0.083
				c-0.007,0.027-0.018,0.059-0.031,0.095c-0.212,0.43-0.527,0.771-0.947,1.024c-0.42,0.253-0.866,0.356-1.34,0.309
				c-0.316-0.032-0.593-0.145-0.832-0.337c-0.239-0.193-0.436-0.429-0.59-0.707c-0.155-0.277-0.266-0.577-0.332-0.898
				c-0.066-0.321-0.085-0.626-0.056-0.913c0.032-0.315,0.116-0.621,0.254-0.918c0.138-0.295,0.318-0.554,0.542-0.775
				c0.224-0.221,0.485-0.393,0.784-0.512c0.298-0.12,0.619-0.163,0.963-0.129c0.26,0.026,0.503,0.104,0.729,0.235
				S10.346,25.265,10.479,25.522z"/>
			<path fill="#5E8BCE" d="M16.47,29.615c-0.2,0.308-0.47,0.526-0.811,0.656c-0.342,0.131-0.689,0.177-1.042,0.142
				c-0.214-0.021-0.431-0.05-0.652-0.086c-0.222-0.037-0.434-0.093-0.638-0.17c-0.203-0.076-0.393-0.178-0.567-0.304
				c-0.175-0.124-0.327-0.288-0.453-0.488c-0.185-0.281-0.314-0.58-0.388-0.897c-0.074-0.317-0.095-0.638-0.063-0.963
				c0.032-0.325,0.122-0.637,0.267-0.938c0.146-0.3,0.336-0.561,0.572-0.787c0.236-0.224,0.512-0.397,0.829-0.521
				c0.317-0.123,0.662-0.166,1.033-0.129c0.176,0.018,0.351,0.057,0.523,0.116c0.172,0.06,0.33,0.139,0.475,0.237
				c0.145,0.1,0.269,0.222,0.371,0.368s0.177,0.312,0.225,0.494l0.05,0.201c0.015,0.04,0.021,0.078,0.017,0.115
				c-0.002,0.028-0.016,0.068-0.04,0.123l-0.042,0.136c-0.073,0.076-0.125,0.168-0.154,0.272c-0.029,0.105-0.08,0.196-0.154,0.273
				l-0.159,0.182c-0.033,0.044-0.069,0.075-0.108,0.094c-0.04,0.02-0.083,0.037-0.132,0.051l-0.273,0.057
				c-0.219,0.025-0.438,0.05-0.662,0.074s-0.446,0.025-0.668,0.004c-0.093-0.01-0.19-0.024-0.292-0.044s-0.194-0.052-0.278-0.097
				c-0.085-0.046-0.152-0.104-0.201-0.173c-0.05-0.069-0.069-0.155-0.059-0.255c0.013-0.129,0.065-0.228,0.156-0.297
				c0.092-0.069,0.188-0.099,0.29-0.089c0.075,0.008,0.152,0.025,0.234,0.053c0.082,0.026,0.165,0.043,0.248,0.052
				c0.186,0.019,0.368,0.019,0.549-0.002c0.18-0.019,0.356-0.039,0.527-0.061l0.086-0.02l0.117-0.188
				c0.022-0.026,0.041-0.055,0.058-0.087c0.017-0.031,0.037-0.06,0.058-0.087l-0.043-0.132c-0.087-0.161-0.201-0.285-0.343-0.369
				c-0.142-0.086-0.295-0.137-0.463-0.154c-0.195-0.02-0.393,0.009-0.592,0.081c-0.2,0.074-0.382,0.185-0.547,0.332
				c-0.165,0.148-0.304,0.319-0.417,0.515c-0.114,0.194-0.182,0.403-0.204,0.626c-0.02,0.195-0.018,0.404,0.007,0.627
				c0.024,0.224,0.092,0.432,0.205,0.626c0.112,0.194,0.273,0.36,0.484,0.498c0.211,0.14,0.494,0.226,0.847,0.262
				c0.297,0.029,0.592,0.008,0.886-0.065c0.293-0.074,0.531-0.224,0.713-0.449c0.077-0.114,0.185-0.164,0.325-0.15
				c0.111,0.011,0.213,0.065,0.307,0.164s0.134,0.209,0.123,0.33C16.598,29.468,16.552,29.548,16.47,29.615z"/>
			<path fill="#5E8BCE" d="M22.586,27.416c0.237-0.023,0.462-0.024,0.676-0.003c0.213,0.021,0.429,0.078,0.644,0.17
				c0.216,0.092,0.407,0.225,0.572,0.396c0.167,0.172,0.294,0.384,0.387,0.637c0.091,0.253,0.12,0.556,0.084,0.909
				c-0.027,0.27-0.097,0.527-0.211,0.773c-0.114,0.246-0.263,0.465-0.445,0.652s-0.399,0.331-0.648,0.428
				c-0.249,0.096-0.517,0.13-0.805,0.102c-0.13-0.014-0.264-0.039-0.4-0.076s-0.277-0.096-0.418-0.176
				c-0.063-0.034-0.144-0.11-0.245-0.229c-0.1-0.117-0.206-0.257-0.317-0.418c-0.11-0.161-0.212-0.334-0.307-0.518
				c-0.094-0.182-0.167-0.351-0.216-0.506c-0.121-0.388-0.188-0.789-0.203-1.203s-0.006-0.821,0.025-1.222
				c0.064-0.64,0.179-1.229,0.346-1.767c0.166-0.536,0.321-0.957,0.464-1.261c0.152-0.304,0.303-0.567,0.453-0.792
				s0.312-0.423,0.489-0.598s0.381-0.34,0.613-0.495c0.231-0.154,0.501-0.319,0.81-0.496c0.159-0.087,0.35-0.161,0.571-0.223
				c0.222-0.063,0.44-0.083,0.654-0.062c0.241,0.024,0.44,0.104,0.596,0.236c0.155,0.133,0.274,0.292,0.358,0.479
				c0.084,0.186,0.141,0.386,0.166,0.6c0.024,0.214,0.028,0.409,0.011,0.585c-0.019,0.187-0.061,0.397-0.126,0.635
				c-0.066,0.238-0.159,0.475-0.276,0.712c-0.118,0.236-0.263,0.463-0.435,0.681c-0.172,0.217-0.368,0.398-0.59,0.545
				c-0.512,0.344-1.03,0.641-1.552,0.893c-0.523,0.253-1.066,0.481-1.631,0.688c-0.007,0.074-0.007,0.116,0.001,0.127
				c0.008,0.01,0.014,0.052,0.015,0.128c0.101-0.065,0.243-0.133,0.429-0.203S22.463,27.43,22.586,27.416z M23.822,30.387
				c0.181-0.214,0.285-0.455,0.312-0.727c0.025-0.252,0.009-0.471-0.047-0.656c-0.056-0.184-0.135-0.338-0.234-0.462
				c-0.101-0.123-0.214-0.217-0.338-0.281c-0.125-0.064-0.243-0.102-0.355-0.113c-0.222-0.022-0.426,0.019-0.61,0.122
				c-0.184,0.104-0.349,0.188-0.496,0.248c-0.12,0.072-0.202,0.163-0.246,0.272c-0.043,0.108-0.068,0.191-0.074,0.247
				c-0.035,0.346,0.008,0.626,0.127,0.84c0.118,0.215,0.259,0.382,0.42,0.503c0.162,0.12,0.384,0.222,0.666,0.308
				C23.349,30.7,23.64,30.599,23.822,30.387z M25.49,23.176c0.011-0.018,0.018-0.044,0.022-0.082
				c0.008-0.083-0.01-0.174-0.058-0.272c-0.046-0.098-0.105-0.187-0.177-0.265c-0.072-0.077-0.149-0.144-0.233-0.199
				c-0.083-0.056-0.158-0.086-0.222-0.093c-0.25-0.025-0.501,0.034-0.75,0.178s-0.489,0.334-0.718,0.569
				c-0.23,0.234-0.444,0.499-0.643,0.793c-0.198,0.294-0.363,0.581-0.494,0.858c-0.047,0.099-0.094,0.233-0.14,0.407
				c-0.045,0.173-0.087,0.355-0.125,0.544s-0.074,0.37-0.111,0.544c-0.037,0.175-0.069,0.313-0.098,0.412
				c0.215-0.09,0.443-0.181,0.682-0.27c0.238-0.088,0.476-0.188,0.713-0.301c0.236-0.112,0.464-0.232,0.684-0.36
				c0.219-0.128,0.417-0.277,0.594-0.447c0.258-0.235,0.447-0.438,0.567-0.604c0.12-0.165,0.208-0.323,0.265-0.473
				c0.058-0.148,0.098-0.294,0.122-0.437C25.392,23.535,25.433,23.367,25.49,23.176z"/>
			<path fill="#5E8BCE" d="M34.878,31.535c0.029-0.006,0.067-0.007,0.113-0.003c0.102,0.011,0.181,0.059,0.239,0.144
				c0.056,0.086,0.08,0.18,0.07,0.282c-0.011,0.111-0.067,0.196-0.167,0.257c-0.1,0.061-0.214,0.104-0.343,0.128
				s-0.26,0.035-0.391,0.031c-0.131-0.005-0.237-0.011-0.321-0.019c-0.316-0.032-0.576-0.126-0.781-0.283
				c-0.205-0.155-0.363-0.352-0.475-0.589c-0.112-0.236-0.186-0.507-0.221-0.811c-0.036-0.303-0.041-0.617-0.017-0.943
				c-0.392-0.031-0.781-0.056-1.167-0.076c-0.388-0.02-0.778-0.026-1.173-0.02c-0.003,0.028-0.009,0.112-0.018,0.252
				c-0.01,0.14-0.027,0.307-0.051,0.501c-0.024,0.194-0.057,0.402-0.098,0.623c-0.041,0.222-0.09,0.423-0.145,0.605
				c-0.056,0.183-0.125,0.331-0.208,0.451c-0.083,0.118-0.174,0.172-0.276,0.161c-0.102-0.01-0.193-0.055-0.275-0.133
				s-0.116-0.173-0.105-0.285c0.002-0.019,0.005-0.035,0.012-0.048c0.006-0.015,0.01-0.029,0.012-0.048
				c0.11-0.354,0.196-0.71,0.255-1.064c0.058-0.355,0.105-0.71,0.141-1.063c-0.062-0.035-0.103-0.083-0.125-0.146
				c-0.022-0.063-0.03-0.128-0.023-0.192c0.015-0.148,0.077-0.255,0.188-0.319c0.014-0.326,0.03-0.648,0.048-0.966
				c0.017-0.317,0.042-0.639,0.075-0.963c0.021-0.204,0.061-0.354,0.123-0.445c0.06-0.093,0.17-0.131,0.327-0.115
				c0.093,0.01,0.176,0.046,0.25,0.109c0.073,0.064,0.103,0.161,0.09,0.291c-0.035,0.344-0.064,0.681-0.088,1.011
				c-0.024,0.331-0.043,0.669-0.06,1.015c0.393,0.002,0.789,0.014,1.185,0.035c0.396,0.021,0.791,0.042,1.184,0.062
				c0.056-0.378,0.13-0.743,0.222-1.096c0.092-0.352,0.18-0.664,0.263-0.937c0.029-0.101,0.078-0.17,0.147-0.204
				c0.069-0.036,0.141-0.049,0.215-0.041c0.103,0.01,0.194,0.054,0.275,0.132c0.082,0.079,0.116,0.184,0.103,0.313
				c-0.004,0.037-0.011,0.065-0.023,0.083c-0.069,0.217-0.15,0.488-0.244,0.813c-0.094,0.323-0.171,0.659-0.235,1.01
				c0.195,0.02,0.338,0.063,0.431,0.128c0.092,0.065,0.13,0.173,0.115,0.321c-0.016,0.157-0.074,0.255-0.176,0.291
				c-0.103,0.037-0.256,0.046-0.46,0.025c-0.014,0.223-0.009,0.439,0.013,0.647c0.021,0.209,0.067,0.392,0.141,0.55
				c0.073,0.157,0.175,0.287,0.306,0.39c0.13,0.103,0.302,0.164,0.516,0.186c0.083,0.008,0.177,0.011,0.281,0.006
				C34.654,31.576,34.763,31.561,34.878,31.535z"/>
			<path fill="#5E8BCE" d="M40.073,32.902c0.068,0.072,0.097,0.158,0.086,0.262c-0.011,0.11-0.07,0.208-0.177,0.291
				c-0.107,0.084-0.216,0.119-0.328,0.107c-0.112-0.011-0.199-0.071-0.263-0.181l0.044-0.023c-0.14-0.193-0.25-0.392-0.327-0.596
				c-0.078-0.205-0.134-0.417-0.169-0.636c-0.307,0.166-0.638,0.292-0.994,0.378c-0.356,0.087-0.706,0.112-1.049,0.078
				c-0.261-0.026-0.514-0.097-0.76-0.211c-0.247-0.113-0.463-0.262-0.652-0.445c-0.188-0.183-0.332-0.396-0.434-0.642
				c-0.102-0.244-0.139-0.511-0.11-0.799c0.034-0.334,0.161-0.641,0.381-0.919c0.22-0.277,0.487-0.516,0.803-0.715
				c0.315-0.197,0.66-0.351,1.031-0.458c0.373-0.108,0.728-0.164,1.065-0.168c0.112,0.012,0.205,0.063,0.28,0.154
				c0.075,0.093,0.106,0.194,0.095,0.307c-0.012,0.12-0.063,0.216-0.155,0.286c-0.092,0.07-0.193,0.101-0.305,0.09
				c-0.225,0.005-0.476,0.048-0.752,0.127c-0.275,0.081-0.532,0.193-0.772,0.338c-0.24,0.145-0.447,0.316-0.622,0.515
				c-0.175,0.198-0.275,0.423-0.301,0.674c-0.033,0.325,0.063,0.602,0.283,0.83c0.222,0.229,0.494,0.359,0.82,0.393
				c0.288,0.028,0.616-0.019,0.984-0.141c0.194-0.064,0.391-0.155,0.59-0.271s0.355-0.22,0.468-0.313
				c-0.065-0.653-0.111-1.271-0.138-1.85c-0.026-0.579-0.009-1.171,0.052-1.774c0.013-0.131,0.066-0.233,0.158-0.309
				c0.092-0.074,0.203-0.105,0.333-0.093c0.102,0.01,0.186,0.062,0.252,0.152c0.066,0.091,0.099,0.188,0.097,0.291
				c-0.006,0.44-0.013,0.883-0.021,1.328c-0.007,0.444,0,0.889,0.022,1.331c0.02,0.443,0.067,0.884,0.141,1.323
				C39.805,32.053,39.919,32.483,40.073,32.902z"/>
			<path fill="#5E8BCE" d="M46.719,28.237c-0.004,0.131-0.013,0.266-0.026,0.4s-0.027,0.267-0.04,0.396
				c-0.066,0.756-0.146,1.508-0.24,2.255s-0.179,1.497-0.255,2.251c-0.013,0.13-0.063,0.225-0.149,0.281
				c-0.087,0.057-0.182,0.081-0.286,0.07c-0.105-0.01-0.194-0.05-0.269-0.118c-0.074-0.069-0.104-0.169-0.091-0.298
				c0.083-0.826,0.17-1.646,0.26-2.458c0.091-0.812,0.179-1.63,0.262-2.457c-0.195-0.02-0.36-0.036-0.495-0.05
				c-0.135-0.013-0.262-0.027-0.383-0.045c-0.12-0.017-0.247-0.035-0.382-0.052c-0.133-0.019-0.293-0.038-0.479-0.057
				c-0.001,0.104-0.007,0.204-0.017,0.302s-0.02,0.197-0.03,0.3c-0.051,0.501-0.149,1.005-0.295,1.511s-0.357,0.965-0.631,1.379
				c-0.274,0.413-0.615,0.758-1.023,1.036s-0.899,0.435-1.476,0.472c-0.02-0.002-0.033-0.002-0.042,0.002
				c-0.01,0.004-0.024,0.005-0.042,0.003c-0.13-0.013-0.227-0.072-0.292-0.177c-0.064-0.105-0.091-0.209-0.081-0.312
				c0.008-0.074,0.038-0.142,0.09-0.202s0.131-0.095,0.236-0.104c0.453-0.029,0.846-0.152,1.177-0.368
				c0.331-0.217,0.604-0.487,0.821-0.813c0.215-0.327,0.383-0.691,0.503-1.092c0.12-0.402,0.2-0.808,0.242-1.218
				c0.016-0.158,0.028-0.314,0.04-0.468c0.011-0.154,0.019-0.307,0.024-0.456c-0.075-0.092-0.106-0.203-0.093-0.333
				c0.011-0.104,0.05-0.188,0.118-0.257c0.067-0.068,0.162-0.096,0.283-0.084c0.271,0.027,0.513,0.054,0.728,0.08
				c0.213,0.026,0.422,0.055,0.626,0.084s0.412,0.058,0.621,0.083c0.209,0.026,0.449,0.052,0.719,0.079
				c0.113,0.012,0.201,0.061,0.268,0.147C46.688,28.04,46.72,28.135,46.719,28.237z"/>
			<path fill="#5E8BCE" d="M51.975,33.07c0.069-0.049,0.142-0.07,0.217-0.063c0.102,0.011,0.183,0.063,0.244,0.158
				c0.061,0.096,0.085,0.199,0.074,0.311c-0.007,0.074-0.053,0.153-0.136,0.239c-0.084,0.085-0.183,0.159-0.297,0.224
				c-0.114,0.063-0.234,0.115-0.36,0.153c-0.125,0.039-0.234,0.054-0.328,0.045c-0.111-0.012-0.21-0.076-0.297-0.191
				c-0.087-0.117-0.165-0.257-0.233-0.418c-0.069-0.162-0.124-0.331-0.167-0.509c-0.043-0.179-0.077-0.329-0.103-0.454
				c-0.229,0.409-0.497,0.741-0.803,0.996c-0.307,0.255-0.669,0.361-1.088,0.319c-0.39-0.039-0.699-0.154-0.929-0.347
				c-0.229-0.191-0.397-0.429-0.504-0.712c-0.108-0.283-0.168-0.594-0.181-0.933s-0.003-0.676,0.031-1.011
				c0.005-0.056,0.023-0.185,0.054-0.388c0.029-0.203,0.063-0.421,0.101-0.652c0.037-0.23,0.07-0.441,0.099-0.637
				c0.029-0.193,0.045-0.309,0.049-0.347c0.021-0.129,0.076-0.22,0.161-0.271c0.085-0.054,0.178-0.074,0.28-0.063
				c0.103,0.01,0.19,0.047,0.264,0.11c0.073,0.064,0.104,0.16,0.09,0.291c-0.024,0.241-0.082,0.559-0.173,0.953
				c-0.092,0.394-0.158,0.801-0.2,1.218c-0.024,0.241-0.031,0.476-0.021,0.702c0.011,0.226,0.049,0.432,0.115,0.616
				c0.065,0.186,0.162,0.338,0.291,0.458c0.128,0.121,0.304,0.192,0.527,0.215c0.204,0.021,0.393-0.04,0.567-0.183
				c0.173-0.142,0.333-0.329,0.479-0.563c0.145-0.234,0.274-0.498,0.388-0.792c0.114-0.293,0.214-0.583,0.298-0.87
				c0.086-0.288,0.155-0.553,0.207-0.795c0.053-0.244,0.091-0.436,0.114-0.573c0.031-0.128,0.092-0.221,0.182-0.276
				c0.09-0.058,0.187-0.08,0.289-0.069c0.093,0.009,0.174,0.047,0.241,0.115c0.069,0.067,0.097,0.161,0.084,0.282
				c-0.025,0.25-0.065,0.51-0.12,0.776c-0.056,0.267-0.096,0.534-0.124,0.804c-0.04,0.399-0.047,0.795-0.021,1.187
				c0.026,0.393,0.12,0.771,0.281,1.133c0.06-0.032,0.118-0.06,0.178-0.088C51.854,33.145,51.913,33.111,51.975,33.07z"/>
			<path fill="#5E8BCE" d="M57.119,28.086c0.029-0.101,0.075-0.166,0.14-0.196c0.064-0.031,0.133-0.044,0.208-0.036
				c0.102,0.01,0.192,0.055,0.274,0.133c0.082,0.079,0.117,0.179,0.104,0.3c-0.001,0.009-0.005,0.018-0.01,0.026
				c-0.006,0.009-0.009,0.022-0.011,0.041c-0.146,0.521-0.257,1.044-0.333,1.571c-0.077,0.527-0.146,1.054-0.208,1.583
				c0.076,0.083,0.108,0.185,0.096,0.305c-0.014,0.139-0.072,0.246-0.173,0.32c-0.05,0.398-0.103,0.796-0.162,1.194
				c-0.06,0.396-0.138,0.798-0.234,1.199c-0.029,0.102-0.071,0.17-0.126,0.207c-0.055,0.037-0.12,0.051-0.194,0.043
				c-0.13-0.013-0.231-0.067-0.301-0.163c-0.07-0.097-0.098-0.215-0.084-0.354c0.083-0.349,0.15-0.695,0.204-1.042
				c0.053-0.347,0.107-0.695,0.161-1.046c-0.437-0.044-0.859-0.134-1.268-0.269s-0.777-0.351-1.103-0.646
				c-0.31-0.284-0.512-0.603-0.608-0.955c-0.095-0.351-0.124-0.718-0.086-1.099c0.012-0.121,0.03-0.258,0.055-0.41
				c0.025-0.151,0.06-0.296,0.107-0.432c0.046-0.137,0.106-0.247,0.181-0.334c0.074-0.086,0.167-0.124,0.279-0.112
				c0.102,0.01,0.193,0.055,0.274,0.134c0.082,0.077,0.117,0.172,0.106,0.284c-0.016,0.158-0.052,0.316-0.105,0.476
				c-0.053,0.158-0.087,0.316-0.104,0.474c-0.03,0.298-0.003,0.587,0.082,0.867c0.085,0.28,0.272,0.516,0.563,0.704
				c0.255,0.166,0.532,0.288,0.829,0.364c0.296,0.077,0.594,0.13,0.891,0.16c0.065-0.557,0.134-1.106,0.208-1.653
				C56.844,29.179,56.96,28.633,57.119,28.086z"/>
			<path fill="#5E8BCE" d="M63.007,34.178c0.069-0.049,0.143-0.069,0.217-0.063c0.102,0.011,0.183,0.064,0.244,0.158
				c0.062,0.096,0.085,0.199,0.074,0.312c-0.007,0.073-0.052,0.153-0.136,0.239c-0.084,0.084-0.183,0.159-0.297,0.224
				c-0.114,0.063-0.234,0.114-0.36,0.153s-0.235,0.054-0.328,0.044c-0.111-0.011-0.21-0.075-0.297-0.191
				c-0.087-0.117-0.165-0.257-0.233-0.417c-0.068-0.162-0.124-0.332-0.167-0.51c-0.042-0.178-0.077-0.328-0.102-0.454
				c-0.229,0.409-0.497,0.741-0.803,0.996c-0.307,0.256-0.669,0.362-1.088,0.319c-0.39-0.039-0.699-0.154-0.929-0.347
				c-0.229-0.191-0.397-0.429-0.505-0.712c-0.107-0.282-0.167-0.593-0.181-0.932c-0.013-0.339-0.002-0.676,0.031-1.011
				c0.005-0.056,0.023-0.186,0.054-0.389c0.029-0.203,0.063-0.421,0.101-0.651c0.037-0.23,0.07-0.442,0.099-0.637
				c0.029-0.194,0.046-0.31,0.05-0.348c0.021-0.128,0.076-0.219,0.161-0.271s0.178-0.074,0.28-0.063
				c0.103,0.011,0.19,0.047,0.264,0.11c0.073,0.064,0.104,0.161,0.09,0.291c-0.024,0.242-0.083,0.559-0.173,0.953
				c-0.092,0.395-0.159,0.801-0.201,1.219c-0.024,0.241-0.031,0.475-0.021,0.701c0.01,0.227,0.049,0.433,0.115,0.616
				c0.065,0.186,0.162,0.339,0.292,0.459c0.128,0.12,0.303,0.192,0.527,0.215c0.204,0.021,0.393-0.04,0.567-0.183
				c0.173-0.142,0.333-0.33,0.479-0.563c0.145-0.234,0.275-0.498,0.389-0.792c0.114-0.292,0.213-0.583,0.298-0.869
				c0.086-0.288,0.155-0.553,0.207-0.796c0.053-0.243,0.091-0.435,0.115-0.572c0.031-0.129,0.091-0.221,0.182-0.277
				c0.09-0.058,0.187-0.079,0.289-0.069c0.094,0.01,0.174,0.048,0.242,0.115c0.069,0.068,0.097,0.162,0.084,0.282
				c-0.025,0.251-0.065,0.511-0.12,0.776c-0.056,0.268-0.096,0.535-0.123,0.804c-0.04,0.399-0.048,0.796-0.021,1.187
				c0.026,0.393,0.12,0.771,0.281,1.133c0.059-0.031,0.118-0.06,0.178-0.087C62.886,34.254,62.946,34.22,63.007,34.178z"/>
			<path fill="#5E8BCE" d="M68.927,34.774c0.07-0.049,0.142-0.07,0.217-0.063c0.103,0.01,0.183,0.063,0.245,0.158
				c0.061,0.095,0.084,0.198,0.073,0.311c-0.007,0.073-0.053,0.153-0.135,0.239c-0.084,0.085-0.183,0.159-0.298,0.224
				c-0.114,0.063-0.234,0.114-0.36,0.153c-0.125,0.039-0.235,0.054-0.328,0.044c-0.111-0.011-0.21-0.075-0.297-0.191
				c-0.087-0.117-0.165-0.256-0.232-0.417c-0.069-0.162-0.125-0.331-0.167-0.51c-0.043-0.178-0.077-0.328-0.103-0.454
				c-0.229,0.409-0.496,0.741-0.803,0.996c-0.308,0.256-0.669,0.362-1.088,0.32c-0.39-0.039-0.699-0.155-0.929-0.348
				c-0.229-0.191-0.397-0.428-0.504-0.712c-0.107-0.282-0.167-0.593-0.181-0.932c-0.013-0.339-0.002-0.676,0.031-1.011
				c0.005-0.056,0.023-0.186,0.054-0.389c0.029-0.203,0.063-0.42,0.101-0.651c0.037-0.23,0.07-0.442,0.099-0.637
				c0.029-0.194,0.046-0.31,0.05-0.347c0.021-0.129,0.076-0.22,0.161-0.271c0.085-0.054,0.178-0.074,0.28-0.064
				c0.103,0.011,0.19,0.047,0.264,0.111c0.073,0.063,0.103,0.16,0.09,0.29c-0.024,0.242-0.082,0.56-0.172,0.953
				c-0.092,0.395-0.159,0.802-0.201,1.219c-0.024,0.241-0.031,0.475-0.021,0.702c0.011,0.226,0.048,0.432,0.115,0.615
				c0.066,0.186,0.162,0.339,0.291,0.459s0.304,0.192,0.528,0.215c0.203,0.021,0.393-0.04,0.567-0.183
				c0.173-0.142,0.333-0.33,0.479-0.563c0.145-0.233,0.274-0.497,0.388-0.791c0.114-0.293,0.213-0.584,0.298-0.87
				c0.086-0.288,0.154-0.553,0.207-0.796c0.053-0.243,0.091-0.435,0.115-0.572c0.031-0.129,0.092-0.221,0.182-0.277
				c0.09-0.057,0.187-0.079,0.289-0.069c0.093,0.01,0.174,0.048,0.241,0.116c0.069,0.067,0.097,0.161,0.085,0.282
				c-0.025,0.25-0.065,0.51-0.12,0.775c-0.056,0.268-0.096,0.535-0.124,0.804c-0.04,0.4-0.047,0.796-0.021,1.188
				s0.12,0.77,0.281,1.132c0.06-0.031,0.118-0.06,0.178-0.087C68.806,34.849,68.865,34.815,68.927,34.774z"/>
		</g>
	</g>
	<g>
		<g enable-background="new    ">
			<path fill="#5E8BCE" d="M21.569,45.79c0.006,0.173,0.013,0.349,0.019,0.525c0.04,1.175,0.051,2.322,0.032,3.438
				c-0.018,1.117-0.044,2.278-0.078,3.484c-0.005,0.121-0.054,0.214-0.145,0.278c-0.091,0.063-0.188,0.098-0.291,0.101
				c-0.131,0.005-0.238-0.027-0.325-0.094c-0.086-0.066-0.132-0.166-0.136-0.297c0.039-1.318,0.051-2.621,0.035-3.91
				c-0.016-1.288-0.031-2.595-0.049-3.92l-0.308,0.011c-0.447,0.015-0.892,0.017-1.331,0.004c-0.438-0.013-0.883-0.034-1.333-0.065
				c0.21,0.955,0.35,1.914,0.42,2.878s0.122,1.936,0.155,2.914l0.085,2.49c0.004,0.121-0.04,0.218-0.131,0.292
				c-0.091,0.072-0.192,0.111-0.304,0.115c-0.159,0.005-0.275-0.047-0.349-0.156c-0.074-0.11-0.121-0.248-0.141-0.416
				s-0.025-0.342-0.018-0.525c0.008-0.182,0.01-0.344,0.005-0.483l-0.052-1.511c-0.032-0.961-0.086-1.913-0.16-2.859
				c-0.073-0.944-0.215-1.887-0.425-2.821c-0.14-0.005-0.299-0.012-0.477-0.019c-0.178-0.008-0.349-0.025-0.514-0.054
				c-0.164-0.026-0.303-0.069-0.417-0.126s-0.173-0.146-0.177-0.268c-0.004-0.103,0.03-0.196,0.103-0.283
				c0.071-0.086,0.177-0.132,0.316-0.137c0.206-0.007,0.407,0.01,0.604,0.049c0.197,0.041,0.395,0.07,0.592,0.093
				c0.072-0.067,0.173-0.104,0.304-0.108c0.159-0.006,0.282,0.053,0.371,0.176c0.449,0.034,0.891,0.061,1.326,0.08
				c0.435,0.02,0.876,0.021,1.324,0.006c0.111-0.004,0.221-0.01,0.328-0.019c0.106-0.009,0.217-0.015,0.328-0.018
				c0.092-0.069,0.193-0.104,0.305-0.108l0.112-0.004c0.037-0.001,0.061,0.003,0.07,0.012l0.141,0.009
				c0.131,0.015,0.233,0.052,0.305,0.114c0.072,0.062,0.11,0.139,0.113,0.23c0.004,0.129-0.062,0.236-0.199,0.323l-0.068,0.044
				C21.552,45.44,21.564,45.619,21.569,45.79z"/>
			<path fill="#5E8BCE" d="M27.327,52.032c-0.234,0.278-0.505,0.515-0.813,0.707c-0.308,0.191-0.639,0.295-0.994,0.307
				c-0.374,0.014-0.704-0.046-0.988-0.176c-0.286-0.131-0.524-0.305-0.714-0.523c-0.19-0.217-0.334-0.464-0.433-0.741
				c-0.099-0.276-0.153-0.556-0.162-0.835c-0.009-0.252,0.026-0.537,0.104-0.857s0.194-0.629,0.348-0.923
				c0.154-0.294,0.345-0.544,0.572-0.748c0.227-0.203,0.485-0.311,0.776-0.32c0.178-0.007,0.306,0.073,0.387,0.239
				c0.064-0.049,0.143-0.092,0.235-0.127c0.093-0.036,0.181-0.056,0.265-0.059c0.168-0.006,0.328,0.012,0.479,0.055
				c0.15,0.041,0.251,0.085,0.3,0.129c0.354,0.24,0.611,0.555,0.77,0.941s0.246,0.846,0.265,1.377c0.01,0.28-0.014,0.559-0.07,0.836
				C27.597,51.592,27.489,51.831,27.327,52.032z M26.039,48.7c-0.02-0.009-0.063-0.021-0.134-0.037
				c-0.071-0.016-0.146-0.03-0.226-0.041c-0.08-0.012-0.155-0.025-0.227-0.043c-0.07-0.016-0.11-0.033-0.121-0.051l-0.082,0.045
				c-0.192,0.09-0.366,0.217-0.519,0.381c-0.154,0.164-0.285,0.346-0.396,0.547c-0.109,0.199-0.191,0.412-0.244,0.639
				c-0.053,0.226-0.076,0.449-0.068,0.674c0.009,0.252,0.053,0.467,0.134,0.646s0.187,0.331,0.317,0.453
				c0.13,0.121,0.274,0.209,0.436,0.265c0.161,0.055,0.32,0.079,0.479,0.073c0.43-0.014,0.787-0.191,1.074-0.531
				c0.288-0.343,0.423-0.788,0.403-1.338c-0.011-0.317-0.067-0.621-0.171-0.912S26.373,48.922,26.039,48.7z"/>
			<path fill="#5E8BCE" d="M32.995,50.606c0.044,0.477,0.069,0.956,0.077,1.441c0.007,0.485-0.029,0.963-0.108,1.433
				c-0.079,0.469-0.206,0.926-0.381,1.372c-0.175,0.443-0.414,0.858-0.719,1.242c-0.609,0.758-1.303,1.234-2.081,1.43
				c-0.777,0.194-1.612,0.097-2.503-0.295c-0.114-0.051-0.182-0.127-0.203-0.224c-0.022-0.096-0.009-0.19,0.039-0.28
				c0.048-0.091,0.123-0.159,0.225-0.205c0.101-0.045,0.208-0.041,0.322,0.012c0.436,0.189,0.861,0.283,1.277,0.279
				c0.415-0.006,0.802-0.092,1.16-0.257c0.358-0.167,0.683-0.409,0.971-0.728c0.287-0.318,0.522-0.693,0.703-1.131
				c0.173-0.397,0.296-0.801,0.365-1.209c0.07-0.408,0.108-0.823,0.112-1.244c-0.252,0.271-0.554,0.463-0.905,0.577
				c-0.351,0.114-0.725,0.104-1.121-0.032c-0.406-0.135-0.738-0.347-0.995-0.632c-0.257-0.284-0.443-0.601-0.558-0.947
				s-0.159-0.709-0.135-1.087c0.024-0.38,0.12-0.73,0.286-1.055c0.167-0.322,0.397-0.599,0.693-0.828
				c0.296-0.23,0.662-0.375,1.099-0.438c0.028-0.01,0.054-0.013,0.077-0.009s0.044,0.005,0.063,0.005
				c0.1-0.088,0.22-0.11,0.361-0.068c0.312,0.102,0.588,0.249,0.829,0.441c0.241,0.193,0.444,0.417,0.61,0.672
				c0.165,0.256,0.286,0.534,0.362,0.836C32.996,49.979,33.021,50.288,32.995,50.606z M30.409,52.025
				c0.292,0.073,0.55,0.077,0.771,0.009c0.223-0.068,0.408-0.182,0.557-0.34c0.148-0.159,0.258-0.353,0.33-0.579
				c0.071-0.228,0.104-0.462,0.096-0.704c-0.002-0.047-0.008-0.084-0.019-0.111c-0.001-0.037,0.003-0.07,0.012-0.098
				c-0.041-0.363-0.162-0.707-0.365-1.031c-0.202-0.325-0.487-0.551-0.856-0.678c-0.009,0-0.018-0.002-0.027-0.006
				c-0.01-0.006-0.02-0.008-0.028-0.008c-0.063,0.068-0.142,0.104-0.234,0.107c-0.271,0.036-0.5,0.138-0.69,0.303
				c-0.19,0.164-0.34,0.363-0.449,0.596c-0.108,0.233-0.172,0.485-0.191,0.756c-0.019,0.271,0.006,0.528,0.075,0.769
				c0.068,0.241,0.188,0.454,0.357,0.64S30.136,51.961,30.409,52.025z"/>
			<path fill="#5E8BCE" d="M40.582,49.635c0.227,0.067,0.422,0.176,0.585,0.323c0.165,0.147,0.304,0.325,0.418,0.531
				c0.113,0.206,0.201,0.436,0.261,0.686s0.094,0.505,0.103,0.767c0.014,0.383-0.022,0.76-0.107,1.133
				c-0.087,0.37-0.227,0.709-0.421,1.015c-0.125,0.191-0.274,0.385-0.45,0.583c-0.175,0.197-0.367,0.377-0.577,0.544
				c-0.209,0.165-0.435,0.302-0.679,0.408c-0.245,0.106-0.491,0.165-0.744,0.173c-0.308,0.011-0.585-0.045-0.832-0.168
				s-0.458-0.281-0.632-0.477c-0.175-0.194-0.313-0.412-0.415-0.65c-0.102-0.24-0.156-0.471-0.163-0.695
				c-0.004-0.111,0.005-0.253,0.026-0.42c0.022-0.17,0.063-0.332,0.121-0.488c0.06-0.156,0.131-0.289,0.215-0.4
				c0.083-0.109,0.189-0.167,0.317-0.172c0.11-0.004,0.216,0.031,0.317,0.102c0.1,0.072,0.152,0.164,0.156,0.275
				c0.002,0.074-0.019,0.141-0.063,0.198c-0.169,0.276-0.248,0.545-0.239,0.807c0.006,0.168,0.046,0.32,0.121,0.458
				s0.176,0.258,0.301,0.361c0.125,0.103,0.269,0.18,0.43,0.23s0.33,0.072,0.509,0.066c0.29-0.01,0.56-0.104,0.807-0.279
				c0.247-0.177,0.459-0.406,0.637-0.688c0.179-0.281,0.314-0.596,0.411-0.945c0.096-0.348,0.138-0.7,0.126-1.055
				c-0.007-0.196-0.033-0.383-0.082-0.564c-0.048-0.18-0.119-0.339-0.212-0.476c-0.094-0.138-0.212-0.245-0.354-0.324
				c-0.142-0.079-0.316-0.116-0.521-0.108c-0.225,0.008-0.471,0.066-0.737,0.178c-0.056,0.021-0.106,0.033-0.153,0.034
				c-0.112,0.004-0.204-0.037-0.276-0.124c-0.073-0.086-0.112-0.181-0.115-0.283c-0.005-0.14,0.093-0.277,0.294-0.416
				c0.201-0.138,0.422-0.283,0.665-0.436c0.242-0.153,0.463-0.324,0.661-0.514c0.199-0.188,0.295-0.4,0.287-0.633
				c-0.006-0.158-0.082-0.263-0.228-0.313c-0.146-0.052-0.317-0.073-0.514-0.066c-0.14,0.005-0.288,0.021-0.447,0.05
				c-0.157,0.029-0.304,0.06-0.437,0.092c-0.136,0.033-0.254,0.064-0.355,0.096s-0.171,0.053-0.208,0.064
				c-0.027,0.01-0.053,0.018-0.076,0.022c-0.023,0.006-0.049,0.009-0.076,0.009c-0.103,0.004-0.188-0.032-0.256-0.109
				c-0.068-0.076-0.104-0.167-0.107-0.27c-0.004-0.121,0.051-0.229,0.164-0.321c0.114-0.092,0.263-0.173,0.447-0.239
				s0.393-0.118,0.625-0.154s0.465-0.058,0.698-0.065c0.205-0.007,0.404,0.005,0.597,0.035c0.192,0.032,0.364,0.091,0.517,0.179
				c0.152,0.09,0.274,0.208,0.363,0.359c0.089,0.152,0.138,0.344,0.146,0.577c0.011,0.298-0.069,0.571-0.239,0.819
				C41.02,49.206,40.817,49.43,40.582,49.635z"/>
			<path fill="#5E8BCE" d="M47.718,52.294c0.077,0.063,0.117,0.145,0.12,0.248c0.004,0.111-0.041,0.215-0.135,0.313
				c-0.096,0.097-0.198,0.146-0.311,0.15s-0.207-0.044-0.286-0.145l0.041-0.029c-0.164-0.172-0.299-0.354-0.403-0.547
				c-0.104-0.193-0.188-0.395-0.252-0.607c-0.283,0.205-0.594,0.375-0.935,0.508c-0.342,0.133-0.686,0.205-1.03,0.217
				c-0.261,0.01-0.521-0.027-0.78-0.107c-0.26-0.079-0.494-0.197-0.706-0.354c-0.211-0.156-0.382-0.35-0.517-0.578
				c-0.133-0.229-0.205-0.487-0.215-0.777c-0.012-0.336,0.073-0.655,0.254-0.961c0.182-0.305,0.415-0.576,0.7-0.815
				c0.286-0.238,0.607-0.437,0.962-0.592c0.354-0.157,0.698-0.259,1.032-0.309c0.112-0.004,0.212,0.034,0.299,0.116
				c0.087,0.08,0.132,0.178,0.136,0.289c0.004,0.121-0.034,0.223-0.116,0.305c-0.081,0.082-0.177,0.126-0.29,0.13
				c-0.223,0.034-0.465,0.111-0.728,0.228c-0.262,0.115-0.502,0.262-0.72,0.438c-0.219,0.176-0.401,0.373-0.548,0.592
				c-0.146,0.221-0.216,0.457-0.207,0.709c0.011,0.326,0.142,0.588,0.391,0.785c0.25,0.195,0.538,0.289,0.864,0.278
				c0.289-0.01,0.608-0.101,0.957-0.271c0.184-0.09,0.367-0.205,0.549-0.348c0.182-0.142,0.321-0.265,0.421-0.372
				c-0.152-0.64-0.279-1.243-0.383-1.815c-0.104-0.57-0.165-1.158-0.186-1.766c-0.005-0.131,0.033-0.239,0.114-0.326
				c0.081-0.086,0.187-0.133,0.317-0.137c0.103-0.004,0.192,0.035,0.27,0.117c0.078,0.082,0.124,0.174,0.136,0.275
				c0.052,0.438,0.105,0.878,0.157,1.318c0.052,0.443,0.119,0.881,0.199,1.318c0.079,0.436,0.185,0.866,0.316,1.292
				C47.339,51.488,47.509,51.899,47.718,52.294z"/>
			<path fill="#5E8BCE" d="M52.811,52.973c-0.072,0.078-0.168,0.119-0.289,0.123c-0.159,0.006-0.331-0.106-0.516-0.332
				c-0.186-0.229-0.365-0.5-0.54-0.816c-0.174-0.315-0.332-0.64-0.474-0.971s-0.248-0.594-0.32-0.787
				c-0.232,0.334-0.442,0.691-0.63,1.072c-0.188,0.379-0.393,0.74-0.615,1.084l-0.051,0.114c-0.034,0.075-0.084,0.142-0.147,0.194
				c-0.064,0.054-0.133,0.081-0.208,0.084c-0.131,0.004-0.231-0.036-0.305-0.123c-0.073-0.086-0.112-0.181-0.115-0.283l-0.007-0.21
				c-0.011-0.289-0.004-0.583,0.02-0.883c0.021-0.3,0.049-0.597,0.081-0.892c0.032-0.296,0.063-0.592,0.089-0.886
				c0.027-0.295,0.037-0.593,0.027-0.892c-0.008-0.213-0.027-0.426-0.058-0.635s-0.082-0.419-0.155-0.632
				c-0.021-0.074-0.031-0.12-0.032-0.14c-0.003-0.111,0.038-0.201,0.124-0.27c0.087-0.068,0.182-0.104,0.284-0.107
				c0.149-0.006,0.268,0.072,0.356,0.232c0.09,0.16,0.16,0.345,0.209,0.554c0.049,0.208,0.081,0.415,0.098,0.619
				c0.017,0.205,0.025,0.345,0.028,0.419c0.007,0.197,0.001,0.379-0.017,0.548s-0.037,0.337-0.061,0.507
				c-0.021,0.168-0.044,0.342-0.066,0.52c-0.021,0.178-0.034,0.37-0.036,0.576c0.329-0.496,0.662-1.022,0.998-1.575
				c0.336-0.554,0.658-1.087,0.968-1.601c-0.001-0.047,0.016-0.113,0.05-0.199l0.039-0.085c0.079-0.152,0.148-0.274,0.211-0.364
				c0.063-0.091,0.202-0.141,0.416-0.148c0.243-0.008,0.366,0.077,0.372,0.255c0.004,0.111-0.045,0.271-0.145,0.474
				c-0.101,0.205-0.221,0.422-0.363,0.649c-0.142,0.229-0.288,0.45-0.439,0.66c-0.152,0.21-0.272,0.383-0.361,0.517
				c0.151,0.32,0.273,0.609,0.366,0.863s0.189,0.498,0.29,0.732c0.103,0.234,0.223,0.468,0.36,0.701
				c0.139,0.233,0.33,0.487,0.572,0.758c0.077,0.092,0.118,0.184,0.121,0.277C52.945,52.789,52.901,52.887,52.811,52.973z"/>
			<path fill="#5E8BCE" d="M58.938,51.913c0.078,0.063,0.118,0.145,0.121,0.248c0.004,0.111-0.041,0.215-0.136,0.313
				c-0.096,0.098-0.198,0.146-0.311,0.15s-0.207-0.044-0.286-0.145l0.041-0.029c-0.164-0.172-0.299-0.354-0.403-0.547
				s-0.188-0.395-0.252-0.607c-0.282,0.205-0.594,0.375-0.935,0.508c-0.342,0.133-0.686,0.205-1.029,0.217
				c-0.262,0.01-0.521-0.027-0.781-0.107c-0.26-0.078-0.495-0.197-0.706-0.354c-0.21-0.156-0.382-0.35-0.516-0.577
				c-0.134-0.229-0.206-0.487-0.216-0.778c-0.012-0.336,0.073-0.655,0.255-0.961c0.181-0.304,0.413-0.576,0.699-0.815
				c0.286-0.238,0.607-0.437,0.962-0.592c0.354-0.157,0.698-0.259,1.032-0.309c0.112-0.004,0.212,0.034,0.299,0.116
				c0.087,0.081,0.132,0.178,0.136,0.289c0.004,0.121-0.034,0.224-0.116,0.306c-0.081,0.081-0.177,0.125-0.29,0.129
				c-0.223,0.035-0.465,0.112-0.728,0.228c-0.262,0.116-0.502,0.262-0.72,0.438c-0.219,0.176-0.401,0.373-0.548,0.592
				c-0.147,0.221-0.217,0.457-0.208,0.709c0.011,0.327,0.143,0.588,0.392,0.785c0.25,0.195,0.538,0.29,0.864,0.279
				c0.289-0.01,0.608-0.102,0.957-0.271c0.184-0.09,0.367-0.205,0.549-0.348c0.182-0.142,0.322-0.265,0.421-0.371
				c-0.151-0.64-0.279-1.244-0.383-1.816c-0.104-0.57-0.165-1.158-0.186-1.765c-0.005-0.131,0.033-0.239,0.114-0.327
				c0.081-0.086,0.188-0.132,0.317-0.137c0.103-0.003,0.192,0.036,0.27,0.117c0.078,0.082,0.124,0.174,0.136,0.276
				c0.052,0.437,0.105,0.877,0.157,1.318c0.052,0.442,0.119,0.881,0.199,1.317c0.079,0.436,0.185,0.866,0.316,1.292
				C58.559,51.107,58.729,51.518,58.938,51.913z"/>
			<path fill="#5E8BCE" d="M62.8,48.882c0.227,0.068,0.422,0.176,0.586,0.324c0.164,0.147,0.303,0.324,0.418,0.531
				c0.113,0.206,0.2,0.435,0.26,0.685c0.06,0.251,0.094,0.505,0.103,0.767c0.014,0.383-0.022,0.76-0.107,1.133
				c-0.086,0.37-0.226,0.709-0.421,1.016c-0.124,0.19-0.274,0.385-0.449,0.582c-0.176,0.197-0.368,0.378-0.578,0.545
				c-0.208,0.165-0.435,0.302-0.678,0.408c-0.245,0.105-0.492,0.164-0.744,0.172c-0.309,0.011-0.586-0.045-0.832-0.168
				c-0.248-0.123-0.458-0.281-0.633-0.477c-0.175-0.193-0.313-0.411-0.414-0.65c-0.103-0.24-0.156-0.471-0.164-0.695
				c-0.004-0.111,0.005-0.252,0.027-0.42c0.021-0.17,0.062-0.332,0.121-0.487c0.059-0.157,0.13-0.29,0.213-0.4
				c0.085-0.11,0.19-0.168,0.319-0.173c0.11-0.003,0.216,0.031,0.316,0.103s0.152,0.163,0.156,0.274
				c0.003,0.074-0.019,0.141-0.063,0.198c-0.168,0.276-0.247,0.546-0.238,0.808c0.006,0.168,0.046,0.319,0.121,0.457
				s0.175,0.259,0.301,0.361c0.125,0.104,0.269,0.18,0.429,0.23c0.161,0.051,0.331,0.072,0.509,0.066
				c0.29-0.01,0.56-0.103,0.807-0.279c0.248-0.176,0.459-0.405,0.637-0.688c0.179-0.281,0.315-0.596,0.412-0.944
				c0.096-0.349,0.138-0.701,0.126-1.056c-0.007-0.196-0.034-0.383-0.082-0.564c-0.048-0.18-0.119-0.339-0.213-0.476
				c-0.094-0.138-0.212-0.245-0.354-0.324s-0.316-0.115-0.521-0.108c-0.225,0.008-0.47,0.066-0.737,0.179
				c-0.056,0.021-0.106,0.032-0.153,0.033c-0.112,0.004-0.204-0.036-0.276-0.124c-0.073-0.086-0.112-0.18-0.115-0.283
				c-0.005-0.139,0.093-0.277,0.294-0.416c0.201-0.137,0.422-0.283,0.665-0.436c0.242-0.152,0.463-0.324,0.661-0.514
				c0.199-0.188,0.295-0.399,0.287-0.632c-0.006-0.158-0.082-0.263-0.228-0.313c-0.146-0.053-0.317-0.074-0.513-0.067
				c-0.14,0.005-0.289,0.021-0.447,0.05c-0.157,0.029-0.304,0.061-0.438,0.092c-0.135,0.033-0.253,0.065-0.354,0.096
				c-0.102,0.032-0.171,0.053-0.207,0.064c-0.027,0.01-0.053,0.018-0.076,0.023c-0.023,0.005-0.049,0.008-0.077,0.009
				c-0.103,0.003-0.188-0.032-0.256-0.109s-0.104-0.168-0.106-0.271c-0.004-0.121,0.05-0.229,0.164-0.321
				c0.113-0.092,0.263-0.172,0.446-0.239c0.185-0.066,0.393-0.117,0.625-0.154c0.232-0.035,0.466-0.058,0.699-0.065
				c0.204-0.007,0.403,0.005,0.596,0.036s0.364,0.091,0.518,0.178c0.152,0.09,0.273,0.209,0.363,0.359
				c0.089,0.152,0.138,0.344,0.146,0.577c0.01,0.298-0.069,0.571-0.239,0.819C63.238,48.452,63.036,48.677,62.8,48.882z"/>
			<path fill="#5E8BCE" d="M66.598,49.76c-0.054,0.086-0.15,0.132-0.29,0.137c-0.122,0.004-0.221-0.025-0.297-0.088
				c-0.078-0.063-0.117-0.131-0.12-0.206c0-0.019,0.008-0.056,0.025-0.113l0.039-0.085c0.007-0.057,0.022-0.123,0.049-0.197
				c0.025-0.076,0.054-0.154,0.083-0.234c0.03-0.08,0.06-0.158,0.091-0.234c0.029-0.075,0.058-0.137,0.084-0.185
				c0.157-0.323,0.305-0.589,0.442-0.8s0.269-0.41,0.394-0.602c0.123-0.191,0.25-0.392,0.377-0.602
				c0.129-0.209,0.263-0.477,0.401-0.797c0.164-0.379,0.241-0.732,0.23-1.06c-0.005-0.149-0.036-0.318-0.095-0.507
				c-0.058-0.189-0.144-0.367-0.256-0.531c-0.113-0.164-0.255-0.303-0.428-0.412c-0.172-0.111-0.374-0.164-0.607-0.156
				c-0.205,0.008-0.383,0.065-0.533,0.173c-0.15,0.108-0.279,0.246-0.385,0.413c-0.107,0.167-0.201,0.35-0.284,0.549
				c-0.082,0.197-0.155,0.389-0.224,0.567c-0.071,0.124-0.186,0.188-0.345,0.193c-0.112,0.004-0.209-0.022-0.29-0.081
				c-0.081-0.058-0.124-0.124-0.126-0.199c-0.002-0.046,0.012-0.094,0.037-0.141c0.086-0.227,0.192-0.461,0.32-0.704
				c0.127-0.242,0.278-0.466,0.453-0.667c0.175-0.202,0.372-0.372,0.592-0.511c0.22-0.138,0.465-0.211,0.735-0.22
				c0.271-0.01,0.535,0.04,0.796,0.146c0.261,0.108,0.496,0.255,0.706,0.439c0.209,0.185,0.38,0.391,0.51,0.62
				c0.132,0.229,0.201,0.46,0.209,0.692c0.008,0.234,0.01,0.426,0.006,0.574c-0.005,0.15-0.021,0.293-0.05,0.43
				s-0.074,0.275-0.136,0.418c-0.061,0.142-0.146,0.317-0.253,0.526c-0.204,0.399-0.404,0.759-0.599,1.078s-0.393,0.675-0.595,1.063
				L66.598,49.76z M66,50.706c0.043-0.075,0.093-0.143,0.146-0.2c0.045-0.048,0.098-0.095,0.156-0.138
				c0.06-0.045,0.117-0.068,0.173-0.07c0.121-0.004,0.215,0.03,0.277,0.104c0.063,0.072,0.108,0.162,0.136,0.268
				c0.026,0.106,0.042,0.211,0.046,0.314c0.003,0.102,0.006,0.182,0.008,0.238c0.005,0.139-0.059,0.211-0.189,0.216
				c-0.094,0.003-0.179,0.024-0.257,0.064s-0.154,0.062-0.229,0.063c-0.056,0.002-0.101-0.023-0.136-0.079
				c-0.034-0.055-0.06-0.12-0.077-0.193c-0.016-0.075-0.028-0.153-0.035-0.237c-0.008-0.084-0.012-0.154-0.014-0.209L66,50.706z"/>
		</g>
	</g>
	<path fill="#5E8BCE" d="M131.939,31.573h-2.678v-0.98c0-7.862-6.396-14.26-14.262-14.26h-3.125
		c-1.805,1.978-4.593,3.172-7.666,3.172c-3.095,0-5.879-1.215-7.669-3.172h-3.122c-7.861,0-14.26,6.397-14.26,14.26v0.98h-2.677
		c-1.208,0-2.196,0.989-2.196,2.196v15.375c0,1.207,0.988,2.194,2.196,2.194h2.677v0.836c0,7.862,6.397,14.261,14.26,14.261H115
		c7.864,0,14.262-6.397,14.262-14.261v-0.836h2.678c1.208,0,2.195-0.987,2.195-2.194V33.769
		C134.136,32.562,133.147,31.573,131.939,31.573z M125.407,52.175c0,5.737-4.668,10.406-10.406,10.406H93.419
		c-5.736,0-10.403-4.669-10.403-10.406V30.593c0-5.737,4.667-10.405,10.403-10.405h21.582c5.738,0,10.406,4.668,10.406,10.405
		V52.175z M117.587,25.31c-1.488,0-2.696,1.208-2.696,2.697s1.208,2.697,2.696,2.697c1.491,0,2.698-1.208,2.698-2.697
		S119.078,25.31,117.587,25.31z M104.212,18.499c2.848,0,4.925-1.164,6.331-2.915l-2.406-1.564
		c-0.805,1.045-2.258,1.747-3.927,1.747c-1.667,0-3.12-0.702-3.925-1.747l-2.405,1.564C99.288,17.335,101.364,18.499,104.212,18.499
		z M104.212,14.708c1.235,0,2.315-0.54,2.918-1.345l-1.664-1.083V1.255c0-0.689-0.563-1.255-1.256-1.255
		c-0.688,0-1.255,0.565-1.255,1.255v11.024l-1.663,1.083C101.896,14.168,102.975,14.708,104.212,14.708z M104.21,28.91
		c-6.877,0-12.474,5.595-12.474,12.474s5.597,12.475,12.474,12.475c6.879,0,12.476-5.596,12.476-12.475S111.089,28.91,104.21,28.91z
		 M104.21,50.003c-4.753,0-8.619-3.867-8.619-8.619c0-4.753,3.866-8.619,8.619-8.619c4.755,0,8.621,3.866,8.621,8.619
		C112.831,46.135,108.965,50.003,104.21,50.003z"/>
	<g>
		<g enable-background="new    ">
			<path fill="#5E8BCE" d="M144.016,44.454c-0.482,0.419-0.973,0.812-1.467,1.18c-0.494,0.366-0.957,0.78-1.386,1.24l-0.042,4.809
				c0.002,0.103-0.041,0.198-0.131,0.286c-0.089,0.088-0.193,0.129-0.314,0.121c-0.122-0.008-0.225-0.049-0.309-0.124
				s-0.127-0.174-0.129-0.296l0.082-8.929c0.009-0.14,0.057-0.242,0.145-0.307c0.088-0.065,0.197-0.093,0.328-0.085
				c0.104,0.006,0.196,0.04,0.281,0.102c0.086,0.061,0.129,0.157,0.131,0.288l-0.04,2.942c0.276-0.245,0.551-0.474,0.82-0.686
				c0.271-0.213,0.534-0.424,0.796-0.632c0.26-0.209,0.516-0.418,0.768-0.627s0.49-0.438,0.722-0.685
				c0.081-0.099,0.2-0.142,0.358-0.132c0.131,0.008,0.235,0.056,0.314,0.145c0.078,0.089,0.115,0.181,0.109,0.273
				c-0.004,0.075-0.044,0.161-0.121,0.259c-0.076,0.099-0.168,0.198-0.277,0.299c-0.11,0.101-0.221,0.199-0.334,0.295
				S144.106,44.375,144.016,44.454z M144.899,52.515c-0.057,0.024-0.119,0.035-0.184,0.031c-0.188-0.012-0.312-0.104-0.377-0.275
				c-0.396-1.016-0.73-2.041-1.004-3.077c-0.272-1.036-0.557-2.072-0.848-3.109c-0.025-0.058-0.035-0.114-0.031-0.17
				c0.006-0.112,0.061-0.202,0.164-0.271c0.103-0.068,0.213-0.099,0.335-0.092c0.074,0.005,0.147,0.025,0.221,0.063
				c0.072,0.037,0.12,0.104,0.143,0.198c0.292,1.036,0.573,2.073,0.847,3.109s0.609,2.062,1.004,3.076
				c0.025,0.059,0.036,0.11,0.033,0.157C145.191,52.333,145.09,52.453,144.899,52.515z"/>
			<path fill="#5E8BCE" d="M149.798,47.191c-0.021,0.035-0.033,0.072-0.035,0.109c-0.002,0.038-0.004,0.075-0.007,0.112
				l-0.015,0.252c-0.021,0.344-0.053,0.658-0.092,0.94c-0.041,0.283-0.09,0.561-0.144,0.833s-0.111,0.553-0.17,0.838
				c-0.06,0.287-0.118,0.601-0.177,0.943c-0.086,0.472-0.174,0.925-0.266,1.358s-0.235,0.859-0.428,1.278
				c-0.248,0.518-0.564,0.966-0.953,1.345c-0.388,0.377-0.839,0.654-1.354,0.828l-0.337,0.008l-0.041-0.003
				c-0.094-0.006-0.172-0.044-0.232-0.112l-0.549-0.664c-0.086-0.146-0.188-0.316-0.313-0.511s-0.182-0.357-0.174-0.488
				c0.006-0.102,0.049-0.186,0.129-0.251c0.078-0.064,0.169-0.095,0.271-0.088c0.083,0.005,0.164,0.052,0.243,0.141
				s0.155,0.196,0.227,0.322c0.07,0.126,0.142,0.259,0.214,0.398c0.07,0.14,0.145,0.26,0.223,0.357l0.158,0.164
				c0.104-0.012,0.199-0.041,0.286-0.088c0.087-0.046,0.17-0.1,0.248-0.159c0.538-0.388,0.934-0.841,1.185-1.359
				c0.252-0.518,0.441-1.066,0.57-1.647c-0.02,0.008-0.053,0.011-0.098,0.008c-0.158-0.01-0.262-0.086-0.311-0.229
				c-0.158-0.449-0.344-0.886-0.558-1.311c-0.212-0.424-0.425-0.846-0.638-1.266s-0.41-0.846-0.595-1.278
				c-0.185-0.432-0.322-0.885-0.415-1.357c-0.008-0.028-0.01-0.062-0.008-0.099c0.008-0.111,0.051-0.195,0.135-0.251
				c0.083-0.057,0.175-0.08,0.277-0.074c0.074,0.005,0.146,0.034,0.213,0.09s0.105,0.136,0.118,0.238
				c0.096,0.418,0.226,0.82,0.39,1.209c0.162,0.389,0.34,0.776,0.531,1.162s0.386,0.77,0.582,1.15
				c0.196,0.382,0.371,0.769,0.525,1.161c0.012-0.046,0.034-0.175,0.065-0.389c0.032-0.213,0.071-0.468,0.117-0.765
				c0.046-0.296,0.095-0.61,0.149-0.944c0.053-0.334,0.104-0.65,0.156-0.951c0.051-0.3,0.093-0.56,0.123-0.777
				c0.033-0.218,0.055-0.354,0.068-0.41c0.023-0.092,0.07-0.159,0.139-0.202c0.068-0.042,0.139-0.062,0.214-0.057
				c0.121,0.007,0.214,0.046,0.28,0.115s0.096,0.155,0.089,0.258C149.815,47.127,149.808,47.164,149.798,47.191z"/>
			<path fill="#5E8BCE" d="M154.044,47.478c0.316,0.31,0.57,0.68,0.759,1.112s0.271,0.863,0.244,1.292
				c-0.019,0.307-0.106,0.594-0.265,0.859c-0.156,0.267-0.355,0.495-0.598,0.687c-0.242,0.19-0.516,0.34-0.822,0.448
				c-0.309,0.106-0.621,0.16-0.94,0.159h-0.239l-0.057-0.004c-0.057-0.003-0.116-0.021-0.18-0.053l-0.258-0.153l-0.053-0.072
				c-0.002,0.354-0.01,0.705-0.021,1.05s-0.028,0.689-0.049,1.034c-0.046,0.745-0.125,1.485-0.235,2.222
				c-0.112,0.735-0.198,1.476-0.261,2.22c-0.008,0.121-0.057,0.221-0.145,0.3c-0.089,0.078-0.193,0.114-0.314,0.106
				c-0.131-0.008-0.235-0.059-0.313-0.152c-0.079-0.094-0.114-0.196-0.108-0.308c0.021-0.346,0.057-0.691,0.105-1.038
				c0.049-0.349,0.102-0.696,0.156-1.043c0.053-0.348,0.103-0.695,0.147-1.043c0.045-0.349,0.078-0.699,0.1-1.053
				c0.005-0.094,0.011-0.299,0.017-0.616c0.005-0.318,0.006-0.687,0.004-1.108c-0.002-0.42,0-0.869,0.006-1.346
				c0.005-0.477,0.007-0.925,0.004-1.346c-0.002-0.421,0-0.786,0.004-1.094c0.005-0.309,0.01-0.505,0.016-0.589
				c0.006-0.103,0.043-0.187,0.113-0.252c0.069-0.066,0.146-0.106,0.232-0.119c-0.014-0.075-0.021-0.137-0.018-0.184
				c0.008-0.131,0.062-0.246,0.162-0.348c0.099-0.102,0.217-0.184,0.352-0.245c0.133-0.062,0.272-0.107,0.414-0.136
				c0.143-0.029,0.264-0.04,0.367-0.034c0.307,0.019,0.607,0.11,0.901,0.273C153.565,47.068,153.822,47.26,154.044,47.478z
				 M151.624,48.034c0.006,0.207-0.001,0.483-0.021,0.829c-0.021,0.346-0.023,0.688-0.008,1.027
				c0.018,0.339,0.076,0.634,0.179,0.884c0.102,0.251,0.282,0.384,0.544,0.399c0.186,0.012,0.387-0.009,0.6-0.062
				c0.213-0.052,0.409-0.132,0.59-0.238c0.179-0.106,0.33-0.241,0.453-0.402c0.121-0.161,0.188-0.345,0.201-0.551
				c0.02-0.318-0.019-0.62-0.113-0.907c-0.095-0.288-0.229-0.54-0.402-0.758c-0.174-0.217-0.379-0.391-0.613-0.522
				c-0.235-0.132-0.482-0.206-0.744-0.222c-0.074-0.005-0.139,0.01-0.191,0.045c-0.055,0.034-0.105,0.07-0.154,0.11
				c-0.05,0.039-0.102,0.081-0.155,0.124c-0.054,0.044-0.114,0.068-0.179,0.073C151.62,47.959,151.626,48.015,151.624,48.034z"/>
			<path fill="#5E8BCE" d="M160.642,49.878c0.022,0.104,0.029,0.208,0.022,0.312c-0.02,0.327-0.157,0.642-0.414,0.945
				c-0.258,0.303-0.563,0.565-0.918,0.788s-0.73,0.396-1.127,0.522c-0.396,0.126-0.736,0.18-1.025,0.162
				c-0.326-0.02-0.592-0.113-0.797-0.28s-0.361-0.382-0.473-0.646c-0.109-0.265-0.181-0.567-0.211-0.911
				c-0.031-0.343-0.033-0.701-0.011-1.073c0.026-0.42,0.076-0.844,0.154-1.274c0.077-0.43,0.157-0.841,0.236-1.233
				c0.081-0.393,0.157-0.752,0.228-1.08c0.072-0.327,0.123-0.588,0.154-0.783c0.026-0.129,0.085-0.224,0.178-0.284
				c0.092-0.059,0.186-0.086,0.278-0.081c0.103,0.007,0.187,0.045,0.252,0.114c0.066,0.069,0.096,0.169,0.088,0.299
				c-0.081,0.556-0.19,1.121-0.328,1.696s-0.248,1.154-0.331,1.737c0.307-0.114,0.645-0.206,1.013-0.274
				c0.368-0.066,0.729-0.091,1.085-0.068c0.232,0.014,0.454,0.051,0.666,0.111c0.211,0.059,0.402,0.144,0.574,0.253
				c0.17,0.108,0.318,0.252,0.443,0.428C160.504,49.433,160.591,49.64,160.642,49.878z M158.751,51.245
				c0.242-0.153,0.469-0.343,0.68-0.569c0.209-0.225,0.322-0.445,0.335-0.659c0.011-0.187-0.083-0.354-0.279-0.501
				s-0.546-0.236-1.05-0.268c-0.65-0.04-1.291,0.117-1.922,0.472c-0.02,0.644,0.041,1.141,0.182,1.491
				c0.143,0.35,0.364,0.533,0.662,0.552c0.205,0.013,0.43-0.035,0.675-0.141C158.276,51.515,158.516,51.389,158.751,51.245z"/>
			<path fill="#5E8BCE" d="M166.339,51.919c-0.188,0.315-0.449,0.545-0.785,0.688c-0.337,0.144-0.682,0.204-1.036,0.183
				c-0.214-0.014-0.433-0.034-0.655-0.062s-0.438-0.076-0.643-0.145c-0.207-0.069-0.398-0.162-0.579-0.281
				c-0.181-0.118-0.337-0.275-0.473-0.471c-0.195-0.273-0.335-0.567-0.422-0.881c-0.087-0.314-0.121-0.635-0.101-0.96
				c0.02-0.326,0.097-0.642,0.23-0.947c0.134-0.305,0.313-0.574,0.54-0.808c0.228-0.234,0.496-0.419,0.808-0.554
				c0.313-0.136,0.655-0.191,1.027-0.169c0.178,0.011,0.354,0.043,0.527,0.096c0.174,0.052,0.336,0.125,0.486,0.219
				c0.146,0.093,0.275,0.211,0.383,0.354c0.109,0.142,0.189,0.304,0.244,0.484l0.059,0.2c0.017,0.038,0.023,0.076,0.021,0.113
				c-0.001,0.027-0.013,0.068-0.034,0.124l-0.037,0.138c-0.07,0.08-0.119,0.173-0.145,0.278c-0.024,0.106-0.071,0.199-0.143,0.279
				l-0.15,0.188c-0.031,0.045-0.066,0.077-0.105,0.099c-0.039,0.021-0.082,0.039-0.13,0.055l-0.271,0.068
				c-0.217,0.033-0.436,0.066-0.658,0.1c-0.222,0.033-0.443,0.043-0.668,0.029c-0.092-0.006-0.19-0.017-0.293-0.031
				c-0.102-0.016-0.195-0.045-0.282-0.087c-0.085-0.042-0.154-0.097-0.207-0.164c-0.052-0.068-0.075-0.152-0.068-0.253
				c0.008-0.129,0.056-0.229,0.145-0.303s0.185-0.106,0.286-0.1c0.074,0.004,0.154,0.019,0.236,0.043
				c0.084,0.023,0.166,0.038,0.25,0.043c0.187,0.011,0.369,0.003,0.549-0.023c0.179-0.027,0.354-0.054,0.523-0.081l0.086-0.023
				l0.11-0.192c0.021-0.026,0.038-0.057,0.054-0.089s0.035-0.062,0.055-0.089l-0.048-0.131c-0.095-0.157-0.214-0.275-0.356-0.355
				c-0.145-0.08-0.303-0.125-0.471-0.135c-0.195-0.012-0.391,0.022-0.587,0.104c-0.197,0.081-0.375,0.199-0.533,0.353
				c-0.159,0.154-0.292,0.33-0.397,0.529c-0.105,0.2-0.165,0.411-0.179,0.635c-0.012,0.195-0.002,0.404,0.031,0.626
				c0.032,0.223,0.109,0.428,0.229,0.617c0.119,0.189,0.286,0.35,0.504,0.479c0.215,0.13,0.5,0.206,0.854,0.228
				c0.299,0.019,0.594-0.015,0.885-0.101c0.289-0.084,0.521-0.243,0.693-0.477c0.073-0.116,0.18-0.171,0.32-0.162
				c0.11,0.007,0.215,0.058,0.313,0.152s0.143,0.202,0.135,0.323C166.46,51.767,166.418,51.849,166.339,51.919z"/>
			<path fill="#5E8BCE" d="M170.952,48.511c0.316,0.31,0.569,0.681,0.759,1.112c0.188,0.433,0.27,0.863,0.243,1.292
				c-0.019,0.307-0.105,0.594-0.264,0.86c-0.156,0.266-0.357,0.495-0.598,0.686c-0.242,0.19-0.516,0.34-0.824,0.448
				c-0.307,0.106-0.619,0.16-0.938,0.159h-0.239l-0.057-0.004c-0.057-0.003-0.116-0.021-0.18-0.053l-0.258-0.153l-0.053-0.072
				c-0.002,0.354-0.01,0.705-0.021,1.05s-0.028,0.689-0.049,1.034c-0.046,0.745-0.125,1.485-0.235,2.222
				c-0.112,0.735-0.198,1.476-0.261,2.22c-0.008,0.121-0.057,0.221-0.145,0.3c-0.09,0.078-0.193,0.114-0.314,0.106
				c-0.131-0.008-0.236-0.059-0.314-0.152s-0.113-0.196-0.107-0.308c0.021-0.345,0.057-0.691,0.105-1.038
				c0.049-0.349,0.102-0.696,0.154-1.043c0.054-0.348,0.104-0.695,0.148-1.043s0.078-0.699,0.1-1.053
				c0.006-0.094,0.012-0.299,0.016-0.616c0.006-0.317,0.007-0.687,0.006-1.107c-0.004-0.421-0.002-0.87,0.006-1.347
				c0.005-0.477,0.007-0.925,0.004-1.346c-0.002-0.421,0-0.786,0.004-1.094c0.005-0.309,0.01-0.505,0.016-0.589
				c0.006-0.103,0.043-0.187,0.113-0.252c0.069-0.066,0.146-0.105,0.231-0.119c-0.015-0.075-0.021-0.137-0.018-0.184
				c0.009-0.13,0.063-0.246,0.163-0.348c0.099-0.102,0.217-0.184,0.351-0.245s0.273-0.107,0.415-0.136
				c0.143-0.029,0.264-0.04,0.367-0.034c0.307,0.02,0.607,0.11,0.901,0.273S170.73,48.293,170.952,48.511z M168.532,49.067
				c0.006,0.207-0.001,0.484-0.021,0.83c-0.021,0.346-0.023,0.688-0.008,1.027c0.018,0.338,0.076,0.633,0.179,0.883
				c0.101,0.251,0.282,0.384,0.542,0.399c0.188,0.012,0.389-0.009,0.602-0.062c0.213-0.052,0.409-0.132,0.588-0.238
				c0.181-0.106,0.332-0.24,0.453-0.401c0.122-0.161,0.189-0.346,0.203-0.552c0.02-0.317-0.02-0.62-0.113-0.907
				c-0.095-0.287-0.229-0.54-0.402-0.757c-0.174-0.218-0.379-0.392-0.613-0.523c-0.235-0.132-0.484-0.206-0.744-0.222
				c-0.074-0.004-0.139,0.011-0.192,0.045s-0.104,0.071-0.153,0.11c-0.05,0.039-0.102,0.081-0.155,0.124
				c-0.054,0.044-0.114,0.068-0.18,0.073C168.528,48.992,168.534,49.049,168.532,49.067z"/>
			<path fill="#5E8BCE" d="M176.722,52.511c-0.26,0.255-0.552,0.464-0.876,0.626c-0.324,0.163-0.664,0.233-1.018,0.212
				c-0.375-0.023-0.697-0.113-0.969-0.27c-0.271-0.157-0.492-0.353-0.662-0.588c-0.168-0.234-0.289-0.494-0.359-0.779
				c-0.072-0.285-0.099-0.566-0.082-0.846c0.016-0.252,0.077-0.533,0.186-0.845c0.107-0.312,0.252-0.606,0.434-0.885
				c0.182-0.279,0.395-0.509,0.641-0.691c0.244-0.181,0.514-0.263,0.803-0.245c0.178,0.012,0.299,0.103,0.363,0.275
				c0.066-0.043,0.149-0.077,0.245-0.104s0.186-0.038,0.27-0.033c0.167,0.011,0.325,0.044,0.473,0.1
				c0.146,0.056,0.241,0.108,0.285,0.157c0.331,0.273,0.556,0.609,0.677,1.01c0.12,0.399,0.166,0.865,0.133,1.396
				c-0.018,0.279-0.066,0.555-0.148,0.825S176.902,52.326,176.722,52.511z M175.755,49.072c-0.018-0.01-0.061-0.027-0.129-0.05
				c-0.068-0.023-0.143-0.044-0.221-0.063c-0.079-0.02-0.152-0.04-0.221-0.063c-0.068-0.022-0.107-0.044-0.115-0.063l-0.086,0.037
				c-0.202,0.071-0.385,0.182-0.555,0.33c-0.168,0.149-0.316,0.317-0.443,0.507c-0.129,0.188-0.23,0.392-0.305,0.612
				c-0.074,0.219-0.118,0.441-0.132,0.665c-0.016,0.251,0.009,0.47,0.073,0.656c0.063,0.187,0.154,0.346,0.271,0.479
				s0.254,0.235,0.409,0.306c0.153,0.07,0.312,0.11,0.47,0.12c0.428,0.025,0.801-0.117,1.121-0.43
				c0.316-0.313,0.492-0.743,0.526-1.293c0.02-0.317-0.009-0.625-0.084-0.924S176.067,49.325,175.755,49.072z"/>
			<path fill="#5E8BCE" d="M177.959,52.937c0.059-0.024,0.111-0.059,0.16-0.103c0.269-0.254,0.503-0.569,0.704-0.945
				c0.2-0.376,0.377-0.778,0.528-1.209c0.153-0.431,0.282-0.868,0.39-1.316c0.107-0.446,0.205-0.863,0.294-1.251
				c0.024-0.101,0.069-0.171,0.132-0.209c0.063-0.038,0.132-0.056,0.207-0.051c0.093,0.006,0.178,0.037,0.254,0.093
				c0.075,0.057,0.13,0.127,0.162,0.214c0.183,0.534,0.329,1.076,0.44,1.625c0.111,0.55,0.243,1.096,0.397,1.638l0.014,0.001
				c0.298-0.581,0.574-1.165,0.831-1.752c0.255-0.588,0.53-1.167,0.827-1.737c0.032-0.073,0.08-0.122,0.143-0.146
				c0.063-0.024,0.131-0.034,0.205-0.03c0.092,0.006,0.175,0.034,0.247,0.085c0.071,0.052,0.114,0.13,0.126,0.232
				c0.038,0.452,0.08,0.92,0.124,1.403c0.046,0.484,0.108,0.965,0.187,1.441c0.078,0.479,0.182,0.947,0.313,1.408
				c0.132,0.462,0.301,0.9,0.51,1.314c0.033,0.067,0.048,0.135,0.044,0.2c-0.007,0.111-0.058,0.201-0.149,0.271
				c-0.094,0.069-0.191,0.101-0.293,0.094c-0.141-0.008-0.244-0.08-0.311-0.215c-0.333-0.666-0.576-1.38-0.732-2.142
				c-0.154-0.762-0.268-1.523-0.343-2.286l-0.017,0.055c-0.239,0.519-0.476,1.035-0.713,1.549c-0.238,0.514-0.492,1.015-0.766,1.503
				c-0.031,0.063-0.082,0.11-0.148,0.139c-0.066,0.029-0.137,0.04-0.213,0.036c-0.074-0.005-0.141-0.024-0.199-0.062
				c-0.059-0.036-0.1-0.088-0.123-0.155c-0.16-0.449-0.299-0.913-0.413-1.393c-0.116-0.479-0.23-0.946-0.343-1.402l-0.031,0.041
				c-0.108,0.413-0.243,0.852-0.401,1.313c-0.159,0.463-0.34,0.892-0.542,1.286s-0.42,0.718-0.656,0.97
				c-0.233,0.252-0.482,0.37-0.744,0.354c-0.158-0.01-0.283-0.057-0.376-0.142c-0.094-0.085-0.136-0.193-0.128-0.323
				c0.008-0.121,0.039-0.208,0.094-0.261s0.119-0.086,0.195-0.101L177.959,52.937z"/>
			<path fill="#5E8BCE" d="M187.106,52.206c-0.061,0.081-0.16,0.117-0.301,0.108c-0.121-0.008-0.217-0.046-0.286-0.116
				c-0.071-0.069-0.104-0.142-0.1-0.216c0.001-0.019,0.013-0.056,0.035-0.11l0.047-0.081c0.013-0.056,0.034-0.12,0.067-0.192
				c0.032-0.073,0.066-0.147,0.104-0.226c0.036-0.076,0.075-0.151,0.111-0.225c0.038-0.072,0.071-0.131,0.103-0.176
				c0.188-0.306,0.359-0.558,0.516-0.754c0.158-0.195,0.307-0.384,0.449-0.562c0.141-0.179,0.286-0.365,0.434-0.563
				c0.147-0.196,0.306-0.448,0.475-0.756c0.199-0.361,0.309-0.705,0.328-1.031c0.01-0.149-0.006-0.32-0.045-0.516
				c-0.041-0.193-0.107-0.378-0.205-0.552c-0.098-0.175-0.227-0.324-0.386-0.451c-0.161-0.127-0.357-0.197-0.59-0.212
				c-0.205-0.013-0.388,0.028-0.548,0.121s-0.301,0.218-0.422,0.374c-0.122,0.156-0.233,0.329-0.334,0.52
				c-0.102,0.19-0.193,0.372-0.279,0.544c-0.081,0.116-0.202,0.17-0.36,0.16c-0.112-0.007-0.205-0.043-0.28-0.108
				c-0.076-0.065-0.111-0.136-0.107-0.21c0.004-0.046,0.021-0.092,0.051-0.138c0.107-0.217,0.236-0.44,0.385-0.67
				c0.15-0.229,0.322-0.437,0.516-0.621s0.406-0.335,0.638-0.451c0.231-0.117,0.481-0.167,0.752-0.151
				c0.27,0.017,0.53,0.092,0.778,0.224c0.25,0.132,0.469,0.3,0.662,0.503c0.189,0.204,0.34,0.426,0.449,0.666
				s0.156,0.477,0.143,0.71c-0.015,0.233-0.031,0.424-0.05,0.571c-0.019,0.149-0.048,0.29-0.089,0.423
				c-0.042,0.133-0.101,0.268-0.176,0.403c-0.074,0.136-0.176,0.303-0.302,0.5c-0.241,0.378-0.476,0.717-0.698,1.017
				c-0.225,0.3-0.454,0.634-0.692,1.002L187.106,52.206z M186.423,53.091c0.051-0.072,0.105-0.135,0.164-0.187
				c0.05-0.044,0.105-0.085,0.17-0.123c0.063-0.039,0.123-0.056,0.178-0.053c0.121,0.008,0.21,0.051,0.266,0.129
				c0.057,0.078,0.093,0.172,0.109,0.28c0.018,0.108,0.022,0.214,0.016,0.316c-0.006,0.103-0.011,0.182-0.014,0.237
				c-0.009,0.14-0.078,0.206-0.209,0.197c-0.094-0.005-0.18,0.009-0.262,0.041s-0.16,0.046-0.234,0.041
				c-0.057-0.003-0.1-0.034-0.128-0.091c-0.028-0.059-0.048-0.125-0.058-0.201c-0.01-0.075-0.014-0.154-0.013-0.239
				c0-0.083,0.003-0.153,0.006-0.209L186.423,53.091z"/>
		</g>
	</g>
	<g>
		<g enable-background="new    ">
			<path fill="#5E8BCE" d="M141.873,31.393c-0.275-0.052-0.563-0.115-0.863-0.192c-0.302-0.077-0.577-0.188-0.828-0.335
				s-0.463-0.335-0.637-0.563c-0.175-0.229-0.277-0.524-0.309-0.887c-0.029-0.335,0.025-0.642,0.165-0.921
				c0.14-0.279,0.327-0.518,0.563-0.717c0.235-0.198,0.505-0.358,0.809-0.478c0.303-0.12,0.603-0.194,0.9-0.22
				c0.168-0.015,0.332-0.007,0.494,0.021c0.161,0.028,0.251,0.145,0.27,0.349c0.01,0.111-0.021,0.213-0.094,0.304
				c-0.071,0.09-0.168,0.141-0.288,0.151c-0.066-0.004-0.132-0.005-0.197-0.004c-0.065,0.002-0.132,0.004-0.196,0.01
				c-0.205,0.018-0.407,0.062-0.607,0.13c-0.199,0.069-0.376,0.166-0.528,0.292c-0.153,0.125-0.273,0.279-0.36,0.46
				c-0.088,0.181-0.121,0.393-0.1,0.634c0.021,0.251,0.123,0.446,0.304,0.585c0.181,0.138,0.398,0.249,0.654,0.329
				c0.255,0.081,0.527,0.143,0.817,0.188c0.289,0.045,0.559,0.099,0.808,0.162l0.055-0.005c-0.035-0.513-0.068-1.022-0.099-1.53
				c-0.03-0.509-0.045-1.02-0.044-1.536c0.007-0.132,0.042-0.228,0.105-0.29c0.064-0.062,0.146-0.098,0.247-0.106
				c0.119-0.01,0.221,0.02,0.306,0.086c0.086,0.068,0.134,0.181,0.147,0.338c0.009,0.628,0.03,1.249,0.065,1.864
				c0.034,0.615,0.079,1.235,0.133,1.858c0.052,0.585,0.104,1.162,0.158,1.728c0.055,0.568,0.106,1.139,0.157,1.715
				c0.012,0.141,0.029,0.295,0.055,0.467c0.024,0.171,0.036,0.337,0.036,0.495c0,0.16-0.025,0.296-0.075,0.407
				c-0.051,0.111-0.145,0.174-0.281,0.186c-0.119,0.011-0.221-0.023-0.305-0.1c-0.086-0.076-0.134-0.176-0.145-0.297
				c-0.021-0.24-0.039-0.482-0.057-0.726c-0.016-0.241-0.034-0.483-0.056-0.726c-0.041-0.475-0.085-0.95-0.132-1.428
				c-0.046-0.479-0.091-0.96-0.133-1.443c-0.632,0.767-1.203,1.574-1.716,2.418c-0.511,0.846-1.05,1.678-1.615,2.495
				c-0.066,0.108-0.159,0.169-0.279,0.179c-0.103,0.01-0.202-0.024-0.298-0.1c-0.096-0.076-0.148-0.175-0.159-0.295
				c-0.009-0.103,0.017-0.193,0.074-0.275c0.257-0.387,0.504-0.783,0.74-1.188s0.478-0.808,0.724-1.208s0.5-0.793,0.762-1.177
				C141.282,32.117,141.567,31.747,141.873,31.393z"/>
			<path fill="#5E8BCE" d="M152.069,30.588c-0.015,0.039-0.021,0.076-0.018,0.113c0.003,0.038,0.006,0.075,0.01,0.112l0.021,0.251
				c0.03,0.345,0.046,0.659,0.047,0.945s-0.004,0.567-0.018,0.845s-0.028,0.562-0.045,0.854c-0.017,0.293-0.028,0.611-0.035,0.959
				c-0.015,0.479-0.036,0.939-0.063,1.383c-0.026,0.441-0.105,0.885-0.235,1.327c-0.168,0.549-0.415,1.038-0.743,1.47
				c-0.327,0.432-0.733,0.771-1.218,1.021l-0.333,0.056l-0.041,0.004c-0.094,0.008-0.175-0.017-0.246-0.076l-0.641-0.576
				c-0.104-0.131-0.233-0.285-0.384-0.459c-0.151-0.174-0.232-0.326-0.243-0.456c-0.009-0.103,0.02-0.192,0.089-0.268
				c0.067-0.077,0.153-0.12,0.256-0.128c0.083-0.008,0.171,0.027,0.262,0.104s0.181,0.172,0.271,0.285
				c0.09,0.114,0.18,0.234,0.271,0.363c0.091,0.127,0.183,0.234,0.274,0.32l0.181,0.139c0.101-0.028,0.19-0.07,0.27-0.129
				c0.08-0.059,0.153-0.123,0.223-0.195c0.475-0.463,0.798-0.969,0.97-1.518c0.173-0.549,0.279-1.121,0.321-1.715
				c-0.018,0.012-0.05,0.02-0.096,0.023c-0.159,0.014-0.271-0.047-0.34-0.182c-0.225-0.42-0.472-0.825-0.744-1.215
				c-0.273-0.387-0.546-0.774-0.818-1.157c-0.272-0.384-0.531-0.776-0.777-1.177s-0.449-0.827-0.611-1.281
				c-0.012-0.028-0.019-0.06-0.022-0.097c-0.01-0.112,0.023-0.201,0.097-0.269c0.073-0.067,0.162-0.105,0.264-0.114
				c0.075-0.006,0.148,0.014,0.224,0.058c0.074,0.045,0.125,0.118,0.152,0.219c0.156,0.398,0.344,0.777,0.563,1.138
				s0.451,0.718,0.698,1.071c0.246,0.353,0.494,0.704,0.745,1.052c0.25,0.348,0.48,0.705,0.69,1.07
				c0.006-0.047,0.008-0.178,0.008-0.395c0-0.215,0.001-0.473,0.003-0.772s0.004-0.619,0.008-0.956
				c0.003-0.338,0.009-0.659,0.015-0.964c0.006-0.304,0.009-0.567,0.009-0.788c-0.001-0.22,0.001-0.358,0.005-0.416
				c0.011-0.094,0.047-0.167,0.107-0.22c0.062-0.052,0.129-0.081,0.204-0.087c0.12-0.01,0.219,0.013,0.294,0.072
				s0.118,0.14,0.127,0.242C152.078,30.522,152.076,30.559,152.069,30.588z"/>
			<path fill="#5E8BCE" d="M155.199,35.135c-0.063,0.07-0.143,0.109-0.235,0.118c-0.121,0.011-0.216-0.03-0.284-0.122
				c-0.069-0.094-0.109-0.203-0.121-0.334l-0.011-0.125c-0.022-0.261-0.059-0.566-0.107-0.919c-0.05-0.352-0.114-0.704-0.191-1.058
				c-0.078-0.354-0.175-0.689-0.292-1.008c-0.116-0.317-0.254-0.577-0.411-0.778c-0.147-0.073-0.305-0.101-0.472-0.086
				c-0.131,0.011-0.249,0.057-0.354,0.137c-0.105,0.079-0.2,0.123-0.284,0.13c-0.102,0.009-0.192-0.036-0.271-0.131
				c-0.078-0.096-0.123-0.205-0.134-0.325c-0.01-0.112,0.015-0.21,0.072-0.295c0.059-0.084,0.137-0.157,0.234-0.218
				c0.098-0.059,0.204-0.106,0.318-0.14c0.114-0.032,0.222-0.053,0.324-0.063c0.484-0.042,0.859,0.093,1.125,0.408
				c0.267,0.314,0.503,0.799,0.71,1.456c0.058-0.211,0.106-0.413,0.151-0.603c0.044-0.191,0.094-0.375,0.149-0.547
				c0.055-0.174,0.122-0.336,0.203-0.489s0.194-0.292,0.343-0.416l0.446-0.039c0.074-0.006,0.159,0.028,0.255,0.104
				s0.171,0.154,0.225,0.233l0.426,0.694c0.03-0.19,0.074-0.381,0.133-0.574l0.208-0.355c0.033-0.05,0.113-0.093,0.241-0.127
				c0.128-0.034,0.234-0.055,0.318-0.063l0.056-0.005l0.725,0.26c0.224,0.197,0.398,0.424,0.524,0.686
				c0.126,0.26,0.227,0.535,0.304,0.823c0.076,0.289,0.136,0.588,0.177,0.898s0.088,0.608,0.141,0.894
				c0.088,0.471,0.161,0.929,0.219,1.373c0.057,0.444,0.115,0.902,0.176,1.376c0.014,0.157-0.014,0.279-0.081,0.365
				s-0.157,0.133-0.269,0.143c-0.093,0.008-0.179-0.02-0.26-0.083c-0.08-0.063-0.126-0.164-0.139-0.304
				c-0.059-0.454-0.109-0.901-0.152-1.344c-0.044-0.44-0.123-0.896-0.238-1.362c-0.059-0.239-0.102-0.495-0.131-0.769
				c-0.028-0.274-0.067-0.54-0.118-0.797c-0.051-0.258-0.13-0.495-0.238-0.71c-0.107-0.215-0.265-0.384-0.472-0.507
				c-0.212,0.16-0.361,0.407-0.449,0.742c-0.088,0.336-0.139,0.696-0.15,1.082c-0.014,0.386-0.007,0.771,0.022,1.157
				c0.029,0.386,0.051,0.72,0.066,1l-0.023,0.381c-0.023,0.265-0.138,0.406-0.342,0.424c-0.103,0.009-0.195-0.028-0.276-0.109
				c-0.083-0.082-0.129-0.189-0.141-0.318l-0.01-0.111c-0.013-0.149-0.024-0.305-0.033-0.468c-0.01-0.163-0.022-0.333-0.037-0.511
				c-0.044-0.501-0.115-1.015-0.213-1.541c-0.097-0.526-0.272-1.002-0.525-1.43c-0.157,0.229-0.274,0.498-0.351,0.803
				c-0.077,0.307-0.136,0.629-0.176,0.964c-0.041,0.336-0.068,0.672-0.081,1.005c-0.014,0.334-0.036,0.634-0.069,0.897l-0.038,0.37
				C155.301,34.976,155.263,35.063,155.199,35.135z"/>
			<path fill="#5E8BCE" d="M165.093,33.134c-0.22,0.291-0.478,0.541-0.774,0.749c-0.296,0.208-0.622,0.329-0.976,0.36
				c-0.373,0.031-0.706-0.01-0.998-0.124c-0.291-0.116-0.539-0.276-0.739-0.485c-0.202-0.207-0.359-0.446-0.472-0.717
				c-0.113-0.271-0.183-0.546-0.207-0.825c-0.021-0.251-0.002-0.538,0.06-0.862c0.061-0.324,0.16-0.637,0.298-0.939
				c0.139-0.303,0.315-0.562,0.532-0.778c0.217-0.215,0.469-0.336,0.758-0.361c0.177-0.016,0.311,0.057,0.398,0.218
				c0.063-0.052,0.138-0.098,0.229-0.139c0.091-0.041,0.178-0.065,0.262-0.073c0.167-0.015,0.329-0.005,0.481,0.029
				c0.153,0.034,0.256,0.072,0.306,0.113c0.368,0.221,0.64,0.521,0.819,0.899c0.179,0.377,0.291,0.832,0.337,1.362
				c0.024,0.279,0.016,0.559-0.025,0.838C165.339,32.679,165.243,32.924,165.093,33.134z M163.629,29.875
				c-0.02-0.008-0.065-0.018-0.136-0.031c-0.072-0.012-0.147-0.022-0.229-0.029c-0.08-0.007-0.154-0.016-0.227-0.03
				c-0.071-0.013-0.112-0.027-0.124-0.045l-0.079,0.049c-0.188,0.101-0.354,0.236-0.499,0.409c-0.144,0.171-0.266,0.36-0.365,0.566
				c-0.099,0.205-0.169,0.422-0.21,0.651c-0.041,0.228-0.052,0.454-0.032,0.677c0.022,0.251,0.078,0.463,0.169,0.638
				c0.089,0.175,0.203,0.32,0.34,0.435c0.136,0.115,0.285,0.195,0.449,0.241c0.163,0.048,0.324,0.063,0.481,0.049
				c0.428-0.038,0.777-0.233,1.046-0.589c0.268-0.356,0.378-0.808,0.33-1.357c-0.027-0.316-0.101-0.617-0.219-0.901
				C164.207,30.323,163.974,30.079,163.629,29.875z"/>
			<path fill="#5E8BCE" d="M169.619,27.175c0.01-0.104,0.042-0.177,0.101-0.22c0.057-0.042,0.122-0.067,0.197-0.074
				c0.103-0.009,0.199,0.017,0.294,0.08c0.095,0.062,0.148,0.154,0.158,0.274c0.001,0.009-0.001,0.019-0.005,0.027
				c-0.004,0.01-0.005,0.024-0.003,0.042c-0.047,0.539-0.059,1.074-0.036,1.606c0.023,0.533,0.053,1.063,0.091,1.594
				c0.09,0.068,0.141,0.162,0.15,0.282c0.013,0.139-0.024,0.255-0.109,0.347c0.024,0.4,0.046,0.802,0.063,1.203
				c0.016,0.401,0.014,0.81-0.006,1.223c-0.01,0.104-0.039,0.179-0.086,0.226c-0.048,0.047-0.108,0.072-0.183,0.078
				c-0.131,0.012-0.239-0.022-0.326-0.104c-0.087-0.083-0.137-0.192-0.148-0.332c0.016-0.358,0.018-0.711,0.007-1.063
				c-0.012-0.35-0.024-0.702-0.037-1.057c-0.437,0.038-0.868,0.029-1.295-0.028c-0.426-0.057-0.828-0.2-1.204-0.429
				c-0.356-0.222-0.614-0.497-0.774-0.825c-0.159-0.328-0.256-0.683-0.289-1.064c-0.011-0.121-0.019-0.258-0.022-0.413
				c-0.004-0.153,0.004-0.302,0.025-0.444c0.02-0.143,0.058-0.263,0.115-0.362c0.057-0.098,0.142-0.152,0.254-0.162
				c0.102-0.009,0.199,0.018,0.294,0.08c0.095,0.062,0.146,0.148,0.156,0.26c0.014,0.158,0.009,0.32-0.014,0.486
				c-0.023,0.166-0.027,0.328-0.014,0.485c0.025,0.298,0.106,0.577,0.241,0.836c0.136,0.26,0.363,0.456,0.684,0.586
				c0.282,0.117,0.576,0.184,0.882,0.204c0.307,0.021,0.608,0.018,0.905-0.008c-0.039-0.56-0.073-1.113-0.103-1.664
				S169.564,27.74,169.619,27.175z"/>
			<path fill="#5E8BCE" d="M177.265,32.184c0.026-0.011,0.063-0.02,0.11-0.023c0.102-0.009,0.188,0.023,0.261,0.097
				c0.071,0.073,0.112,0.161,0.121,0.264c0.01,0.11-0.029,0.205-0.115,0.283c-0.087,0.078-0.191,0.142-0.313,0.189
				c-0.122,0.048-0.249,0.083-0.378,0.104c-0.13,0.02-0.236,0.034-0.319,0.042c-0.316,0.027-0.59-0.017-0.82-0.133
				c-0.229-0.115-0.423-0.278-0.576-0.491c-0.154-0.211-0.278-0.463-0.369-0.755c-0.091-0.291-0.154-0.599-0.192-0.924
				c-0.39,0.043-0.776,0.091-1.16,0.144c-0.385,0.052-0.771,0.118-1.156,0.199c0.002,0.028,0.012,0.112,0.028,0.25
				c0.017,0.14,0.031,0.307,0.044,0.502c0.013,0.196,0.019,0.406,0.02,0.63c0.001,0.226-0.009,0.433-0.029,0.621
				c-0.021,0.19-0.062,0.349-0.12,0.482c-0.059,0.131-0.14,0.201-0.241,0.21c-0.103,0.008-0.201-0.019-0.296-0.08
				c-0.094-0.063-0.146-0.148-0.155-0.26c-0.002-0.019-0.002-0.036,0.002-0.05c0.004-0.015,0.004-0.03,0.003-0.049
				c0.042-0.369,0.061-0.734,0.053-1.094c-0.009-0.36-0.028-0.717-0.06-1.07c-0.067-0.022-0.117-0.063-0.15-0.12
				c-0.033-0.058-0.053-0.12-0.059-0.186c-0.013-0.149,0.028-0.264,0.125-0.348c-0.047-0.324-0.092-0.643-0.133-0.958
				c-0.042-0.314-0.076-0.635-0.105-0.96c-0.018-0.205-0.006-0.358,0.037-0.46c0.043-0.103,0.144-0.161,0.301-0.174
				c0.094-0.008,0.182,0.013,0.266,0.061c0.084,0.049,0.133,0.139,0.144,0.269c0.03,0.344,0.063,0.68,0.102,1.01
				s0.082,0.665,0.13,1.008c0.388-0.071,0.778-0.134,1.172-0.187c0.393-0.053,0.784-0.105,1.174-0.159
				c-0.015-0.382-0.011-0.755,0.014-1.118c0.025-0.363,0.053-0.687,0.085-0.969c0.009-0.104,0.044-0.181,0.106-0.228
				c0.061-0.048,0.13-0.074,0.203-0.081c0.104-0.009,0.2,0.018,0.295,0.079c0.095,0.063,0.148,0.159,0.16,0.289
				c0.003,0.037,0.001,0.065-0.008,0.084c-0.027,0.228-0.057,0.509-0.088,0.844c-0.032,0.335-0.046,0.681-0.043,1.036
				c0.195-0.017,0.344-0.001,0.447,0.045c0.102,0.048,0.159,0.146,0.172,0.295c0.014,0.158-0.025,0.264-0.118,0.319
				c-0.095,0.056-0.243,0.092-0.448,0.11c0.028,0.222,0.074,0.434,0.134,0.634c0.06,0.202,0.139,0.373,0.24,0.514
				s0.226,0.25,0.373,0.326c0.147,0.077,0.327,0.105,0.541,0.086c0.084-0.007,0.177-0.022,0.277-0.046
				C177.052,32.266,177.156,32.232,177.265,32.184z"/>
			<path fill="#5E8BCE" d="M183.106,31.97c0.027-0.012,0.063-0.021,0.11-0.024c0.12-0.011,0.22,0.023,0.297,0.101
				c0.076,0.078,0.119,0.168,0.129,0.27c0.009,0.102-0.015,0.184-0.07,0.245c-0.056,0.061-0.126,0.111-0.211,0.152
				c-0.086,0.04-0.178,0.07-0.273,0.087c-0.097,0.018-0.184,0.031-0.257,0.037c-0.354,0.031-0.645-0.035-0.871-0.199
				c-0.228-0.163-0.412-0.388-0.558-0.674c-0.144-0.288-0.251-0.625-0.323-1.012s-0.126-0.785-0.161-1.194
				c-0.018,0.011-0.041,0.022-0.067,0.034c-0.027,0.011-0.038,0.04-0.034,0.087c-0.235,0.742-0.603,1.364-1.103,1.867
				s-1.084,0.938-1.755,1.306c-0.054,0.032-0.107,0.052-0.164,0.057c-0.121,0.011-0.228-0.027-0.319-0.113
				c-0.092-0.085-0.142-0.179-0.151-0.282c-0.011-0.129,0.051-0.233,0.185-0.311c0.25-0.144,0.494-0.296,0.734-0.457
				c0.239-0.163,0.466-0.339,0.68-0.53c0.214-0.192,0.404-0.401,0.573-0.626c0.168-0.225,0.312-0.475,0.429-0.747
				c-0.243,0.021-0.495,0.008-0.759-0.04c-0.263-0.046-0.508-0.136-0.734-0.266c-0.228-0.129-0.42-0.308-0.576-0.533
				c-0.155-0.225-0.248-0.505-0.277-0.839c-0.028-0.316,0.025-0.585,0.161-0.808s0.313-0.407,0.535-0.553
				c0.222-0.146,0.467-0.256,0.736-0.332c0.271-0.074,0.53-0.124,0.781-0.146c0.261-0.023,0.47-0.018,0.627,0.016
				c0.158,0.034,0.245,0.152,0.264,0.356c0.008,0.094-0.013,0.18-0.062,0.258c-0.05,0.08-0.136,0.125-0.256,0.135
				c-0.047,0.004-0.093,0.006-0.14,0.006c-0.047-0.001-0.104,0.002-0.168,0.008c-0.168,0.015-0.353,0.042-0.555,0.083
				c-0.203,0.041-0.396,0.097-0.576,0.168c-0.182,0.072-0.33,0.164-0.446,0.277c-0.117,0.112-0.167,0.251-0.153,0.417
				c0.018,0.194,0.077,0.358,0.184,0.493c0.104,0.135,0.231,0.24,0.378,0.316c0.148,0.075,0.305,0.129,0.471,0.162
				c0.167,0.032,0.316,0.042,0.446,0.031c0.074-0.006,0.164-0.02,0.271-0.038c0.106-0.019,0.211-0.047,0.315-0.084
				c0.104-0.037,0.203-0.077,0.292-0.123c0.09-0.045,0.16-0.098,0.211-0.158c0.005-0.494,0.029-0.953,0.073-1.376
				c0.045-0.423,0.083-0.763,0.119-1.019c0.01-0.103,0.049-0.178,0.115-0.227c0.067-0.048,0.14-0.075,0.216-0.081
				c0.102-0.009,0.2,0.018,0.295,0.079c0.095,0.062,0.147,0.159,0.158,0.288c0.008,0.084-0.001,0.251-0.026,0.502
				c-0.025,0.251-0.049,0.543-0.07,0.877c-0.023,0.335-0.041,0.693-0.055,1.073s-0.004,0.752,0.027,1.114
				c0.024,0.279,0.061,0.539,0.11,0.778c0.048,0.24,0.118,0.449,0.209,0.629c0.091,0.179,0.199,0.317,0.324,0.414
				c0.126,0.097,0.281,0.137,0.467,0.121c0.037-0.003,0.077-0.007,0.119-0.011C183.018,32.006,183.06,31.993,183.106,31.97z"/>
			<path fill="#5E8BCE" d="M190.382,26.769c0.391,0.191,0.686,0.474,0.882,0.846c0.196,0.373,0.313,0.77,0.35,1.188
				c0.031,0.363-0.004,0.74-0.105,1.129c-0.103,0.39-0.259,0.748-0.468,1.076c-0.211,0.33-0.47,0.603-0.779,0.822
				c-0.309,0.22-0.658,0.346-1.049,0.38c-0.344,0.03-0.646-0.019-0.905-0.146c-0.259-0.127-0.48-0.3-0.663-0.518
				c-0.184-0.219-0.326-0.469-0.431-0.75s-0.169-0.562-0.193-0.84c-0.017-0.195-0.02-0.388-0.008-0.576
				c-0.279,0.23-0.493,0.497-0.64,0.801c-0.146,0.303-0.253,0.614-0.319,0.934c-0.066,0.321-0.106,0.635-0.121,0.946
				c-0.016,0.31-0.033,0.586-0.055,0.829c-0.021,0.242-0.055,0.442-0.102,0.599c-0.048,0.157-0.141,0.242-0.28,0.253
				c-0.111,0.01-0.213-0.017-0.302-0.078c-0.09-0.063-0.141-0.155-0.15-0.275c0.001-0.551,0.02-1.096,0.056-1.638
				c0.035-0.541,0.028-1.107-0.023-1.701c-0.025-0.288-0.061-0.561-0.107-0.818c-0.047-0.257-0.106-0.481-0.179-0.671
				c-0.073-0.19-0.165-0.339-0.273-0.446c-0.109-0.107-0.239-0.154-0.389-0.141c-0.02,0.001-0.044,0.007-0.077,0.014
				c-0.033,0.008-0.058,0.012-0.077,0.014c-0.131,0.011-0.241-0.025-0.329-0.112c-0.088-0.085-0.137-0.18-0.146-0.282
				c-0.021-0.232,0.17-0.366,0.569-0.4c0.279-0.024,0.52,0.022,0.723,0.141c0.202,0.118,0.373,0.283,0.514,0.495
				c0.14,0.213,0.252,0.468,0.333,0.765c0.083,0.297,0.147,0.612,0.195,0.945c0.164-0.267,0.365-0.507,0.604-0.72
				c0.239-0.212,0.517-0.393,0.831-0.543c0.121-0.216,0.256-0.425,0.402-0.625c0.146-0.2,0.307-0.378,0.481-0.535
				c0.173-0.155,0.361-0.286,0.563-0.393c0.201-0.107,0.413-0.169,0.637-0.189c0.158-0.014,0.323-0.005,0.494,0.028
				C190.015,26.609,190.195,26.673,190.382,26.769z M190.835,29.392c0.012-0.077,0.016-0.149,0.01-0.219
				c-0.007-0.069-0.013-0.141-0.02-0.215c-0.016-0.186-0.057-0.378-0.12-0.578c-0.064-0.2-0.152-0.379-0.265-0.538
				c-0.112-0.158-0.258-0.285-0.435-0.381c-0.177-0.097-0.382-0.136-0.614-0.115c-0.177,0.015-0.338,0.07-0.484,0.162
				c-0.146,0.092-0.28,0.206-0.398,0.343c-0.12,0.136-0.229,0.284-0.327,0.441c-0.099,0.159-0.188,0.311-0.269,0.458
				c-0.046,0.135-0.078,0.299-0.099,0.492c-0.021,0.194-0.021,0.397-0.003,0.61c0.018,0.194,0.053,0.389,0.107,0.585
				c0.054,0.195,0.135,0.371,0.242,0.525c0.107,0.154,0.24,0.272,0.397,0.357c0.156,0.084,0.343,0.117,0.557,0.099
				c0.231-0.021,0.448-0.097,0.647-0.232c0.198-0.134,0.376-0.298,0.532-0.495c0.156-0.195,0.28-0.41,0.373-0.641
				C190.76,29.818,190.816,29.598,190.835,29.392z"/>
			<path fill="#5E8BCE" d="M192.429,26.884c0.074-0.006,0.154-0.005,0.238,0.001c0.085,0.006,0.164,0.026,0.237,0.057
				c0.072,0.031,0.133,0.075,0.181,0.132c0.047,0.057,0.068,0.131,0.068,0.226c0.008,0.299-0.063,0.521-0.208,0.664
				c-0.148,0.144-0.354,0.209-0.617,0.195c-0.047-0.005-0.087-0.035-0.119-0.089c-0.033-0.053-0.06-0.118-0.081-0.196
				c-0.021-0.078-0.037-0.154-0.047-0.228c-0.012-0.075-0.02-0.129-0.022-0.167c-0.01-0.112,0.021-0.236,0.094-0.374
				c0.032-0.068,0.068-0.137,0.108-0.207L192.429,26.884z M192.546,29.025c0.09-0.036,0.196-0.059,0.317-0.07
				c0.168-0.015,0.284,0.006,0.35,0.061c0.065,0.055,0.101,0.162,0.105,0.321c0.003,0.14,0.006,0.254,0.009,0.343
				s-0.006,0.176-0.026,0.262c-0.021,0.086-0.055,0.183-0.102,0.29c-0.046,0.107-0.114,0.25-0.202,0.426
				c-0.071,0.146-0.14,0.277-0.204,0.39c-0.066,0.113-0.22,0.227-0.462,0.342l0.151-0.829l-0.012-0.139
				c-0.023-0.27-0.07-0.486-0.141-0.648s-0.129-0.292-0.175-0.392c-0.011-0.009,0.006-0.033,0.05-0.075
				c0.043-0.041,0.091-0.083,0.145-0.125C192.411,29.139,192.476,29.087,192.546,29.025z"/>
			<path fill="#5E8BCE" d="M193.867,22.586c-0.012-0.13,0.013-0.227,0.073-0.288c0.061-0.061,0.136-0.103,0.229-0.125
				c0.09-0.022,0.188-0.039,0.29-0.053c0.102-0.014,0.188-0.043,0.26-0.086c0.764,0.486,1.371,1.092,1.823,1.815
				c0.452,0.724,0.728,1.654,0.826,2.789c0.039,0.446,0.045,0.899,0.021,1.36c-0.024,0.462-0.094,0.91-0.205,1.346
				c-0.113,0.437-0.275,0.847-0.49,1.23c-0.216,0.384-0.489,0.713-0.821,0.985c-0.106-0.047-0.193-0.1-0.26-0.16
				c-0.065-0.06-0.103-0.141-0.112-0.243c-0.013-0.149,0.063-0.395,0.229-0.736c0.291-0.588,0.515-1.139,0.668-1.653
				c0.156-0.516,0.209-1.047,0.161-1.596c-0.043-0.493-0.111-0.934-0.206-1.323c-0.095-0.39-0.22-0.748-0.373-1.072
				c-0.153-0.324-0.341-0.627-0.562-0.913c-0.221-0.285-0.474-0.574-0.761-0.868c-0.074-0.012-0.157-0.023-0.247-0.034
				c-0.089-0.011-0.173-0.03-0.249-0.056c-0.077-0.027-0.143-0.065-0.198-0.116C193.906,22.737,193.875,22.67,193.867,22.586z"/>
		</g>
	</g>
</g>
</svg>
