<?xml version="1.0" encoding="utf-8"?>
<!-- Generator: Adobe Illustrator 16.0.0, SVG Export Plug-In . SVG Version: 6.00 Build 0)  -->
<!DOCTYPE svg PUBLIC "-//W3C//DTD SVG 1.1//EN" "http://www.w3.org/Graphics/SVG/1.1/DTD/svg11.dtd">
<svg version="1.1" id="Layer_1" xmlns="http://www.w3.org/2000/svg" xmlns:xlink="http://www.w3.org/1999/xlink" x="0px" y="0px"
	 width="690px" height="876.617px" viewBox="0 0 690 876.617" enable-background="new 0 0 690 876.617" xml:space="preserve">
<g>
	<linearGradient id="SVGID_1_" gradientUnits="userSpaceOnUse" x1="172.3337" y1="551.7974" x2="172.3337" y2="777.186">
		<stop  offset="0" style="stop-color:#F4A44E"/>
		<stop  offset="0.35" style="stop-color:#E6483B"/>
		<stop  offset="0.6989" style="stop-color:#C30F7A"/>
		<stop  offset="1" style="stop-color:#A7178C"/>
	</linearGradient>
	<path fill="none" stroke="url(#SVGID_1_)" stroke-width="6" stroke-miterlimit="10" d="M308.583,551.797v30.5v10.723v3.434
		c0,6.555-5.363,11.916-11.916,11.916l0,0c-6.555,0-11.918-5.361-11.918-11.916v-14.49c0-5.055-5.361-10.418-11.916-10.418l0,0
		c-6.555,0-11.917,5.363-11.917,11.918v55.934v6.898c0,6.555-5.363,11.918-11.918,11.918l0,0H241h-4.167h-12.258
		c-6.555,0-11.916-5.363-11.916-11.918l0,0v-13.332v-26.568c0-6.553-5.363-11.914-11.916-11.914l0,0H190H85.809
		c-6.555,0-11.917,5.361-11.917,11.914l0,0c0,6.555,5.362,11.918,10.417,11.918h58.556h3.803h5.754
		c5.055,0,10.416,5.361,10.416,11.916l0,0c0,6.555-5.361,11.916-11.916,11.916H57.334H48l0,0c-6.555,0-11.916,5.361-11.916,11.916
		v123.125"/>
	<linearGradient id="SVGID_2_" gradientUnits="userSpaceOnUse" x1="598.4407" y1="465.1079" x2="598.4407" y2="226.9067">
		<stop  offset="0" style="stop-color:#F4A44E"/>
		<stop  offset="0.35" style="stop-color:#E6483B"/>
		<stop  offset="0.6989" style="stop-color:#C30F7A"/>
		<stop  offset="1" style="stop-color:#A7178C"/>
	</linearGradient>
	<path fill="none" stroke="url(#SVGID_2_)" stroke-width="11" stroke-miterlimit="10" d="M671.364,229.801c13,21,12,31.509,12,41
		v101.665v12.223l0,0c0,11.374-9.307,20.68-20.682,20.68h-12.893h-19.122h-43.763c-7.457,0-13.559,6.104-13.559,13.561l0,0
		c0,7.459,6.102,13.561,13.559,13.561h45.763h7.485h3.246c7.459,0,13.561,6.102,13.561,13.56l0,0
		c0,7.458-6.102,13.559-13.561,13.559H508"/>
	<linearGradient id="SVGID_3_" gradientUnits="userSpaceOnUse" x1="515.803" y1="555.2974" x2="515.803" y2="773.8638">
		<stop  offset="0" style="stop-color:#F4A44E"/>
		<stop  offset="0.35" style="stop-color:#E6483B"/>
		<stop  offset="0.6989" style="stop-color:#C30F7A"/>
		<stop  offset="1" style="stop-color:#A7178C"/>
	</linearGradient>
	<path fill="none" stroke="url(#SVGID_3_)" stroke-width="6" stroke-miterlimit="10" d="M381.415,555.297v25.064
		c0,6.555,5.363,11.918,11.918,11.918h95.171h12.663h92.759c6.555,0,11.916,5.361,11.916,11.916l0,0
		c0,6.553-5.361,11.916-11.916,11.916H492.834H478.99h-6.898c-6.555,0-11.918,5.363-11.918,11.916l0,0
		c0,6.555,5.363,11.918,11.918,11.918h4.039h27.37h134.772c6.555,0,11.916,5.361,11.916,11.916l0,0v11.434v110.568"/>
	<g>
		
			<rect x="658.318" y="218.912" transform="matrix(-0.471 -0.8821 0.8821 -0.471 784.84 926.8317)" fill="#FFFFFF" stroke="#5E8BCE" stroke-width="2.4979" stroke-linecap="round" stroke-linejoin="round" stroke-miterlimit="10" width="24.023" height="18.341"/>
		
			<rect x="642.184" y="188.074" transform="matrix(-0.471 -0.8822 0.8822 -0.471 787.1535 880.0698)" fill="#FFFFFF" stroke="#5E8BCE" stroke-width="2.4979" stroke-linecap="round" stroke-linejoin="round" stroke-miterlimit="10" width="30.577" height="31.854"/>
	</g>
	<g>
		
			<rect x="491.641" y="451.795" fill="#FFFFFF" stroke="#5E8BCE" stroke-width="2.4979" stroke-linecap="round" stroke-linejoin="round" stroke-miterlimit="10" width="20.586" height="15.625"/>
		
			<rect x="465.438" y="446.036" fill="#FFFFFF" stroke="#5E8BCE" stroke-width="2.4979" stroke-linecap="round" stroke-linejoin="round" stroke-miterlimit="10" width="26.203" height="27.142"/>
	</g>
	<linearGradient id="SVGID_4_" gradientUnits="userSpaceOnUse" x1="390.425" y1="553.7974" x2="390.425" y2="785.9634">
		<stop  offset="0.1935" style="stop-color:#F4A44E"/>
		<stop  offset="0.35" style="stop-color:#E6483B"/>
		<stop  offset="0.6989" style="stop-color:#C30F7A"/>
		<stop  offset="1" style="stop-color:#A7178C"/>
	</linearGradient>
	<path fill="none" stroke="url(#SVGID_4_)" stroke-width="6" stroke-miterlimit="10" d="M417.696,785.963v-57.166v-28.5v-8.189l0,0
		c0-6.553-5.361-11.918-11.916-11.918h-6.9h-4.546h-18.388c-6.555,0-11.918-5.361-11.918-11.916l0,0
		c0-6.553,5.363-11.916,10.418-11.916H393h6h24.936c6.555,0,11.916-5.363,11.916-11.918l0,0c0-6.553-5.361-11.916-11.916-11.916
		h-67.02c-6.555,0-11.918-5.363-11.918-11.916l0,0L345,608.629v-54.832"/>
	
		<linearGradient id="SVGID_5_" gradientUnits="userSpaceOnUse" x1="3457.6077" y1="189.501" x2="3584.0615" y2="63.0471" gradientTransform="matrix(1 0 0 1 -3429.4883 0)">
		<stop  offset="0" style="stop-color:#F4A44E"/>
		<stop  offset="0.35" style="stop-color:#E6483B"/>
		<stop  offset="0.6989" style="stop-color:#C30F7A"/>
		<stop  offset="1" style="stop-color:#A7178C"/>
	</linearGradient>
	<path fill="url(#SVGID_5_)" d="M91.347,88.212c-20.689,0-37.52,17.072-37.52,38.058c0,20.994,16.83,38.071,37.52,38.071
		s37.518-17.077,37.518-38.071C128.865,105.284,112.036,88.212,91.347,88.212z M91.347,152.581c-14.298,0-25.93-11.805-25.93-26.312
		c0-14.498,11.631-26.301,25.93-26.301c14.292,0,25.927,11.803,25.927,26.301C117.274,140.776,105.639,152.581,91.347,152.581z
		 M131.577,77.223c-4.481,0-8.114,3.689-8.114,8.235c0,4.546,3.633,8.233,8.114,8.233c4.481,0,8.113-3.688,8.113-8.233
		C139.69,80.912,136.059,77.223,131.577,77.223z M123.803,49.832h-6.117l0,0h-55.89l0,0H58.89C35.24,49.832,16,69.355,16,93.343
		v65.864c0,23.988,19.24,43.509,42.89,43.509h64.913c23.651,0,42.887-19.521,42.887-43.509V93.343
		C166.69,69.355,147.454,49.832,123.803,49.832z M93.565,59.433c-0.734,0.046-1.473,0.079-2.218,0.079
		c-0.747,0-1.486-0.033-2.22-0.079H93.565z M155.099,159.207c0,17.503-14.042,31.751-31.296,31.751H58.89
		c-17.26,0-31.297-14.248-31.297-31.751V93.343c0-17.506,14.037-31.751,31.297-31.751h64.913c17.254,0,31.296,14.245,31.296,31.751
		V159.207z"/>
	<g>
		<g>
			
				<rect x="303.751" y="547.149" fill="#FFFFFF" stroke="#5E8BCE" stroke-width="2.4979" stroke-linecap="round" stroke-linejoin="round" stroke-miterlimit="10" width="9.664" height="12.1"/>
			
				<rect x="300.191" y="532.249" fill="#FFFFFF" stroke="#5E8BCE" stroke-width="2.4979" stroke-linecap="round" stroke-linejoin="round" stroke-miterlimit="10" width="16.785" height="14.9"/>
		</g>
		<g>
			
				<rect x="340.167" y="547.149" fill="#FFFFFF" stroke="#5E8BCE" stroke-width="2.4979" stroke-linecap="round" stroke-linejoin="round" stroke-miterlimit="10" width="9.666" height="12.1"/>
			
				<rect x="336.607" y="532.249" fill="#FFFFFF" stroke="#5E8BCE" stroke-width="2.4979" stroke-linecap="round" stroke-linejoin="round" stroke-miterlimit="10" width="16.787" height="14.9"/>
		</g>
		<g>
			
				<rect x="376.583" y="547.149" fill="#FFFFFF" stroke="#5E8BCE" stroke-width="2.4979" stroke-linecap="round" stroke-linejoin="round" stroke-miterlimit="10" width="9.664" height="12.1"/>
			
				<rect x="373.023" y="532.249" fill="#FFFFFF" stroke="#5E8BCE" stroke-width="2.4979" stroke-linecap="round" stroke-linejoin="round" stroke-miterlimit="10" width="16.787" height="14.9"/>
		</g>
	</g>
	<g>
		<path fill="none" d="M632.457,61.597h-64.911c-17.26,0-31.296,14.243-31.296,31.749v65.861c0,17.504,14.036,31.749,31.296,31.749
			h64.911c17.253,0,31.295-14.245,31.295-31.749V93.346C663.752,75.84,649.71,61.597,632.457,61.597z M600,164.341
			c-20.686,0-37.516-17.076-37.516-38.07c0-20.984,16.83-38.057,37.516-38.057c20.689,0,37.518,17.072,37.518,38.057
			C637.518,147.265,620.69,164.341,600,164.341z M640.231,93.695c-4.48,0-8.113-3.687-8.113-8.234c0-4.545,3.633-8.234,8.113-8.234
			s8.111,3.689,8.111,8.234C648.342,90.008,644.711,93.695,640.231,93.695z"/>
		<path fill="none" d="M600,99.972c-14.298,0-25.928,11.803-25.928,26.3c0,14.507,11.63,26.312,25.928,26.312
			c14.293,0,25.928-11.805,25.928-26.312C625.928,111.775,614.293,99.972,600,99.972z"/>
		<path fill="#5E8BCE" d="M600.004,56.448c8.561,0,14.808-3.553,19.039-8.891l-7.236-4.779c-2.42,3.191-6.79,5.327-11.807,5.327
			c-5.015,0-9.388-2.136-11.809-5.327l-7.23,4.779C585.196,52.896,591.44,56.448,600.004,56.448z"/>
		<path fill="#5E8BCE" d="M591.224,40.777c1.811,2.458,5.057,4.102,8.78,4.102c3.716,0,6.959-1.645,8.777-4.102l-5.007-3.31h-7.547
			L591.224,40.777z"/>
		<path fill="#5E8BCE" d="M683.397,96.34h-8.054v-2.995c0-23.987-19.236-43.51-42.886-43.51h-9.405
			c-5.424,6.032-13.811,9.68-23.052,9.68c-9.311,0-17.684-3.705-23.067-9.68h-9.387c-23.651,0-42.889,19.523-42.889,43.51v2.995
			h-8.053c-3.632,0-6.604,3.017-6.604,6.703v46.91c0,3.688,2.973,6.706,6.604,6.706h8.053v2.548
			c0,23.988,19.237,43.509,42.889,43.509h64.911c23.649,0,42.886-19.521,42.886-43.509v-2.548h8.054
			c3.631,0,6.604-3.018,6.604-6.706v-46.91C690,99.357,687.028,96.34,683.397,96.34z M663.752,159.207
			c0,17.504-14.042,31.749-31.295,31.749h-64.911c-17.26,0-31.296-14.245-31.296-31.749V93.346
			c0-17.506,14.036-31.749,31.296-31.749h64.911c17.253,0,31.295,14.243,31.295,31.749V159.207z"/>
		<ellipse fill="#5E8BCE" cx="640.231" cy="85.461" rx="8.113" ry="8.234"/>
		<path fill="#5E8BCE" d="M600,88.215c-20.686,0-37.516,17.072-37.516,38.057c0,20.994,16.83,38.07,37.516,38.07
			c20.689,0,37.518-17.076,37.518-38.07C637.518,105.287,620.69,88.215,600,88.215z M600,152.583
			c-14.298,0-25.928-11.805-25.928-26.312c0-14.497,11.63-26.3,25.928-26.3c14.293,0,25.928,11.803,25.928,26.3
			C625.928,140.778,614.293,152.583,600,152.583z"/>
		<path fill="#5E8BCE" d="M600,0c-2.073,0-3.772,1.726-3.772,3.831v33.636h7.547V3.831C603.775,1.726,602.075,0,600,0z"/>
	</g>
	<g>
		<g>
			<g>
				
					<path fill="#FFFFFF" stroke="#5E8BCE" stroke-width="2.4979" stroke-linecap="round" stroke-linejoin="round" stroke-miterlimit="10" d="
					M211.412,859.907v-98.525c0-4.566-3.736-8.301-8.301-8.301H21.365c-4.564,0-8.301,3.734-8.301,8.301v98.525H211.412z"/>
				
					<path fill="#FFFFFF" stroke="#5E8BCE" stroke-width="2.4979" stroke-linecap="round" stroke-linejoin="round" stroke-miterlimit="10" d="
					M0.078,854.354C0.031,854.805,0,855.262,0,855.733c0,4.814,2.526,8.717,5.641,8.717h213.195c3.115,0,5.641-3.902,5.641-8.717
					c0-0.471-0.031-0.928-0.076-1.379H0.078z"/>
				
					<rect x="20.637" y="761.12" fill="#FFFFFF" stroke="#5E8BCE" stroke-width="2.4979" stroke-linecap="round" stroke-linejoin="round" stroke-miterlimit="10" width="183.203" height="88.781"/>
			</g>
			
				<path fill="none" stroke="#5E8BCE" stroke-width="2.4979" stroke-linecap="round" stroke-linejoin="round" stroke-miterlimit="10" d="
				M70.53,720.032c-1.785,5.168-3.539,9.02-4.211,18.727c-0.117,1.688,0.083,6.268,0.244,7.916"/>
			
				<path fill="none" stroke="#5E8BCE" stroke-width="2.4979" stroke-linecap="round" stroke-linejoin="round" stroke-miterlimit="10" d="
				M153.008,711.901c-8.433-13.344-22.97-22.156-39.49-22.156c-10.667,0-20.508,3.674-28.412,9.871"/>
			
				<path fill="none" stroke="#5E8BCE" stroke-width="2.4979" stroke-linecap="round" stroke-linejoin="round" stroke-miterlimit="10" d="
				M160.474,745.221c0.16-1.646,0.242-4.771,0.242-6.463c0-9.916-2.834-19.143-7.709-26.857"/>
			
				<path fill="none" stroke="#5E8BCE" stroke-width="2.4979" stroke-linecap="round" stroke-linejoin="round" stroke-miterlimit="10" d="
				M91.465,774.954c-11.038,0-13.268-5.9-17.4-10.66"/>
			
				<path fill="#FFFFFF" stroke="#5E8BCE" stroke-width="2.4979" stroke-linecap="round" stroke-linejoin="round" stroke-miterlimit="10" d="
				M148.572,734.627l1.24-26.428c0,0-2.596-3.326-8.782-6.717c-8.007-4.391-23.198-8.418-42.302-5.504
				c-14.941,2.281-21.523,8.104-21.523,8.104c8.266-2.066,2.279,2.279-3.072,5.15c-6.515,3.496-9.813,0.518-9.813,0.518
				s0.475,6.994,6.301,10.287c8.195,4.631,8.522,4.117,8.527,4.02c0.005,0.131,0.248,7.211,0.465,12.908l-3.047,5.225l6.257,21.938
				c4.288,9.676,17.06,19.195,31.379,19.195c14.591,0,26.86-9.232,30.923-19.195l3.611-24.787L148.572,734.627z"/>
			<g>
				
					<path fill="#FFFFFF" stroke="#5E8BCE" stroke-width="2.4979" stroke-linecap="round" stroke-linejoin="round" stroke-miterlimit="10" d="
					M148.49,736.292l5.398,0.652c3.281,0.396,5.641,3.404,5.242,6.686l-0.271,2.25l1.137,0.137c1.344,0.162,2.313,1.396,2.148,2.74
					l-0.787,6.52c-0.164,1.346-1.396,2.313-2.74,2.15l-1.137-0.139l-0.271,2.25c-0.398,3.281-3.406,5.641-6.688,5.244l-5.396-0.654
					L148.49,736.292z"/>
				
					<path fill="#FFFFFF" stroke="#5E8BCE" stroke-width="2.4979" stroke-linecap="round" stroke-linejoin="round" stroke-miterlimit="10" d="
					M79.457,736.292l-5.396,0.652c-3.281,0.396-5.641,3.404-5.244,6.686l0.273,2.25l-1.139,0.137
					c-1.342,0.162-2.311,1.396-2.147,2.74l0.788,6.52c0.162,1.346,1.396,2.313,2.74,2.15l1.137-0.139l0.271,2.25
					c0.396,3.281,3.405,5.641,6.686,5.244l5.397-0.654L79.457,736.292z"/>
			</g>
			
				<path fill="#FFFFFF" stroke="#5E8BCE" stroke-width="2.4979" stroke-linecap="round" stroke-linejoin="round" stroke-miterlimit="10" d="
				M147.445,868.542l4.455-36.818c0,0,12.471,34.443,23.457,36.521c6.715,1.271,12.766-2.078,14.549-8.314
				c1.781-6.234-2.969-18.111-7.424-29.99c-4.453-11.875-14.549-33.848-22.566-38.006c-8.016-4.156-28.208-8.906-28.208-8.906
				c-3.69,2.539-12.438,4.785-16.839,4.785c-4.715,0-15.119-1.895-19.002-4.785c0,0-20.191,4.75-28.208,8.906
				c-8.017,4.158-18.112,26.131-22.565,38.006c-4.455,11.879-9.206,23.756-7.424,29.99c1.781,6.236,7.833,9.586,14.549,8.314
				c10.986-2.078,23.457-36.521,23.457-36.521l4.454,36.818"/>
			
				<path fill="none" stroke="#5E8BCE" stroke-width="2.4979" stroke-linecap="round" stroke-linejoin="round" stroke-miterlimit="10" d="
				M66.805,870.36c13.699-1.383,29.39-2.168,46.065-2.168c18.062,0,34.967,0.922,49.44,2.525"/>
		</g>
		<g>
			<g>
				
					<path fill="#FFFFFF" stroke="#5E8BCE" stroke-width="2.4979" stroke-linecap="round" stroke-linejoin="round" stroke-miterlimit="10" d="
					M444.172,859.907v-98.525c0-4.566-3.732-8.301-8.299-8.301H254.129c-4.566,0-8.303,3.734-8.303,8.301v98.525H444.172z"/>
				
					<path fill="#FFFFFF" stroke="#5E8BCE" stroke-width="2.4979" stroke-linecap="round" stroke-linejoin="round" stroke-miterlimit="10" d="
					M232.84,854.354c-0.047,0.451-0.078,0.908-0.078,1.379c0,4.814,2.527,8.717,5.643,8.717h213.194
					c3.115,0,5.641-3.902,5.641-8.717c0-0.471-0.031-0.928-0.076-1.379H232.84z"/>
				
					<rect x="253.398" y="761.12" fill="#FFFFFF" stroke="#5E8BCE" stroke-width="2.4979" stroke-linecap="round" stroke-linejoin="round" stroke-miterlimit="10" width="183.204" height="88.781"/>
			</g>
			
				<path fill="none" stroke="#5E8BCE" stroke-width="2.4979" stroke-linecap="round" stroke-linejoin="round" stroke-miterlimit="10" d="
				M303.291,720.032c-1.785,5.168-3.537,9.02-4.209,18.727c-0.117,1.688,0.082,6.268,0.242,7.916"/>
			
				<path fill="none" stroke="#5E8BCE" stroke-width="2.4979" stroke-linecap="round" stroke-linejoin="round" stroke-miterlimit="10" d="
				M385.77,711.901c-8.434-13.344-22.971-22.156-39.49-22.156c-10.666,0-20.506,3.674-28.412,9.871"/>
			
				<path fill="none" stroke="#5E8BCE" stroke-width="2.4979" stroke-linecap="round" stroke-linejoin="round" stroke-miterlimit="10" d="
				M393.237,745.221c0.16-1.646,0.242-4.771,0.242-6.463c0-9.916-2.834-19.143-7.709-26.857"/>
			
				<path fill="none" stroke="#5E8BCE" stroke-width="2.4979" stroke-linecap="round" stroke-linejoin="round" stroke-miterlimit="10" d="
				M324.227,774.954c-11.038,0-13.268-5.9-17.401-10.66"/>
			
				<path fill="#FFFFFF" stroke="#5E8BCE" stroke-width="2.4979" stroke-linecap="round" stroke-linejoin="round" stroke-miterlimit="10" d="
				M381.334,734.627l1.24-26.428c0,0-2.596-3.326-8.781-6.717c-8.008-4.391-23.199-8.418-42.303-5.504
				c-14.939,2.281-21.524,8.104-21.524,8.104c8.266-2.066,2.279,2.279-3.072,5.15c-6.514,3.496-9.813,0.518-9.813,0.518
				s0.477,6.994,6.301,10.287c8.195,4.631,8.523,4.117,8.527,4.02c0.006,0.131,0.248,7.211,0.467,12.908l-3.049,5.225l6.258,21.938
				c4.287,9.676,17.059,19.195,31.379,19.195c14.592,0,26.859-9.232,30.922-19.195l3.613-24.787L381.334,734.627z"/>
			<g>
				
					<path fill="#FFFFFF" stroke="#5E8BCE" stroke-width="2.4979" stroke-linecap="round" stroke-linejoin="round" stroke-miterlimit="10" d="
					M381.254,736.292l5.396,0.652c3.281,0.396,5.641,3.404,5.244,6.686l-0.271,2.25l1.135,0.137c1.344,0.162,2.313,1.396,2.148,2.74
					l-0.787,6.52c-0.164,1.346-1.396,2.313-2.74,2.15l-1.137-0.139l-0.271,2.25c-0.396,3.281-3.404,5.641-6.686,5.244l-5.398-0.654
					L381.254,736.292z"/>
				
					<path fill="#FFFFFF" stroke="#5E8BCE" stroke-width="2.4979" stroke-linecap="round" stroke-linejoin="round" stroke-miterlimit="10" d="
					M312.219,736.292l-5.396,0.652c-3.281,0.396-5.641,3.404-5.244,6.686l0.273,2.25l-1.137,0.137
					c-1.344,0.162-2.311,1.396-2.148,2.74l0.787,6.52c0.162,1.346,1.396,2.313,2.742,2.15l1.135-0.139l0.271,2.25
					c0.398,3.281,3.406,5.641,6.688,5.244l5.397-0.654L312.219,736.292z"/>
			</g>
			
				<path fill="#FFFFFF" stroke="#5E8BCE" stroke-width="2.4979" stroke-linecap="round" stroke-linejoin="round" stroke-miterlimit="10" d="
				M380.207,868.542l4.455-36.818c0,0,12.471,34.443,23.457,36.521c6.717,1.271,12.768-2.078,14.549-8.314
				c1.781-6.234-2.969-18.111-7.424-29.99c-4.453-11.875-14.549-33.848-22.566-38.006c-8.016-4.156-28.207-8.906-28.207-8.906
				c-3.691,2.539-12.439,4.785-16.84,4.785c-4.715,0-15.119-1.895-19.002-4.785c0,0-20.19,4.75-28.208,8.906
				c-8.018,4.158-18.113,26.131-22.566,38.006c-4.453,11.879-9.205,23.756-7.424,29.99c1.781,6.236,7.834,9.586,14.549,8.314
				c10.986-2.078,23.459-36.521,23.459-36.521l4.453,36.818"/>
			
				<path fill="none" stroke="#5E8BCE" stroke-width="2.4979" stroke-linecap="round" stroke-linejoin="round" stroke-miterlimit="10" d="
				M299.568,870.36c13.699-1.383,29.389-2.168,46.065-2.168c18.061,0,34.967,0.922,49.439,2.525"/>
		</g>
		<g>
			<g>
				
					<path fill="#FFFFFF" stroke="#5E8BCE" stroke-width="2.4979" stroke-linecap="round" stroke-linejoin="round" stroke-miterlimit="10" d="
					M676.936,859.907v-98.525c0-4.566-3.734-8.301-8.301-8.301H486.891c-4.566,0-8.301,3.734-8.301,8.301v98.525H676.936z"/>
				
					<path fill="#FFFFFF" stroke="#5E8BCE" stroke-width="2.4979" stroke-linecap="round" stroke-linejoin="round" stroke-miterlimit="10" d="
					M465.602,854.354c-0.047,0.451-0.078,0.908-0.078,1.379c0,4.814,2.527,8.717,5.643,8.717H684.36
					c3.115,0,5.641-3.902,5.641-8.717c0-0.471-0.031-0.928-0.076-1.379H465.602z"/>
				
					<rect x="486.16" y="761.12" fill="#FFFFFF" stroke="#5E8BCE" stroke-width="2.4979" stroke-linecap="round" stroke-linejoin="round" stroke-miterlimit="10" width="183.203" height="88.781"/>
			</g>
			
				<path fill="none" stroke="#5E8BCE" stroke-width="2.4979" stroke-linecap="round" stroke-linejoin="round" stroke-miterlimit="10" d="
				M536.055,720.032c-1.787,5.168-3.541,9.02-4.211,18.727c-0.117,1.688,0.082,6.268,0.242,7.916"/>
			
				<path fill="none" stroke="#5E8BCE" stroke-width="2.4979" stroke-linecap="round" stroke-linejoin="round" stroke-miterlimit="10" d="
				M618.531,711.901c-8.432-13.344-22.971-22.156-39.488-22.156c-10.668,0-20.508,3.674-28.414,9.871"/>
			
				<path fill="none" stroke="#5E8BCE" stroke-width="2.4979" stroke-linecap="round" stroke-linejoin="round" stroke-miterlimit="10" d="
				M625.998,745.221c0.16-1.646,0.244-4.771,0.244-6.463c0-9.916-2.836-19.143-7.711-26.857"/>
			
				<path fill="none" stroke="#5E8BCE" stroke-width="2.4979" stroke-linecap="round" stroke-linejoin="round" stroke-miterlimit="10" d="
				M556.99,774.954c-11.039,0-13.27-5.9-17.4-10.66"/>
			
				<path fill="#FFFFFF" stroke="#5E8BCE" stroke-width="2.4979" stroke-linecap="round" stroke-linejoin="round" stroke-miterlimit="10" d="
				M614.096,734.627l1.24-26.428c0,0-2.596-3.326-8.781-6.717c-8.008-4.391-23.199-8.418-42.301-5.504
				c-14.943,2.281-21.525,8.104-21.525,8.104c8.266-2.066,2.279,2.279-3.07,5.15c-6.516,3.496-9.814,0.518-9.814,0.518
				s0.475,6.994,6.303,10.287c8.193,4.631,8.521,4.117,8.527,4.02c0.004,0.131,0.248,7.211,0.465,12.908l-3.047,5.225l6.256,21.938
				c4.287,9.676,17.061,19.195,31.379,19.195c14.592,0,26.859-9.232,30.924-19.195l3.611-24.787L614.096,734.627z"/>
			<g>
				
					<path fill="#FFFFFF" stroke="#5E8BCE" stroke-width="2.4979" stroke-linecap="round" stroke-linejoin="round" stroke-miterlimit="10" d="
					M614.016,736.292l5.398,0.652c3.279,0.396,5.639,3.404,5.242,6.686l-0.271,2.25l1.137,0.137c1.342,0.162,2.311,1.396,2.146,2.74
					l-0.787,6.52c-0.162,1.346-1.396,2.313-2.74,2.15l-1.137-0.139l-0.271,2.25c-0.396,3.281-3.404,5.641-6.686,5.244l-5.396-0.654
					L614.016,736.292z"/>
				
					<path fill="#FFFFFF" stroke="#5E8BCE" stroke-width="2.4979" stroke-linecap="round" stroke-linejoin="round" stroke-miterlimit="10" d="
					M544.983,736.292l-5.398,0.652c-3.281,0.396-5.641,3.404-5.242,6.686l0.271,2.25l-1.137,0.137
					c-1.344,0.162-2.313,1.396-2.148,2.74l0.787,6.52c0.164,1.346,1.396,2.313,2.742,2.15l1.135-0.139l0.273,2.25
					c0.396,3.281,3.404,5.641,6.686,5.244l5.396-0.654L544.983,736.292z"/>
			</g>
			
				<path fill="#FFFFFF" stroke="#5E8BCE" stroke-width="2.4979" stroke-linecap="round" stroke-linejoin="round" stroke-miterlimit="10" d="
				M612.969,868.542l4.455-36.818c0,0,12.471,34.443,23.457,36.521c6.717,1.271,12.768-2.078,14.549-8.314
				c1.781-6.234-2.969-18.111-7.424-29.99c-4.453-11.875-14.549-33.848-22.566-38.006c-8.016-4.156-28.207-8.906-28.207-8.906
				c-3.689,2.539-12.439,4.785-16.838,4.785c-4.715,0-15.119-1.895-19.004-4.785c0,0-20.191,4.75-28.207,8.906
				c-8.016,4.158-18.111,26.131-22.566,38.006c-4.453,11.879-9.205,23.756-7.424,29.99c1.783,6.236,7.834,9.586,14.551,8.314
				c10.986-2.078,23.455-36.521,23.455-36.521l4.455,36.818"/>
			
				<path fill="none" stroke="#5E8BCE" stroke-width="2.4979" stroke-linecap="round" stroke-linejoin="round" stroke-miterlimit="10" d="
				M532.33,870.36c13.699-1.383,29.389-2.168,46.064-2.168c18.063,0,34.969,0.922,49.439,2.525"/>
		</g>
	</g>
	<g>
		<linearGradient id="SVGID_6_" gradientUnits="userSpaceOnUse" x1="214.6423" y1="126.2729" x2="325.9348" y2="126.2729">
			<stop  offset="0" style="stop-color:#F4A44E"/>
			<stop  offset="0.35" style="stop-color:#E6483B"/>
			<stop  offset="0.6989" style="stop-color:#5E8BCE"/>
			<stop  offset="1" style="stop-color:#5E8BCE"/>
		</linearGradient>
		<path fill="url(#SVGID_6_)" d="M235.919,100.173c-1.744,1.309-2.094,3.773-0.791,5.513c4.48,5.979,6.846,13.097,6.848,20.587
			c0,7.49-2.367,14.608-6.848,20.586c-1.305,1.742-0.951,4.209,0.789,5.514c1.588,1.189,3.781,1,5.145-0.362
			c0.131-0.131,0.254-0.274,0.369-0.427c5.51-7.352,8.422-16.104,8.422-25.31c0-9.207-2.912-17.959-8.422-25.311
			C240.128,99.223,237.659,98.868,235.919,100.173z M216.195,114.833c-1.736,1.321-2.063,3.791-0.742,5.519
			c1.313,1.721,2.006,3.768,2.006,5.921c0,2.152-0.693,4.199-2.006,5.918c-1.32,1.73-0.988,4.202,0.742,5.521
			c1.586,1.211,3.797,1.031,5.17-0.343c0.125-0.124,0.242-0.257,0.35-0.399c2.369-3.104,3.621-6.804,3.621-10.697
			c0-3.895-1.252-7.593-3.621-10.698C220.396,113.847,217.923,113.515,216.195,114.833z M261.257,87.226
			c-1.305-1.74-3.773-2.094-5.514-0.79c-1.742,1.307-2.094,3.775-0.789,5.514c7.469,9.965,11.416,21.833,11.416,34.323
			c0,12.488-3.947,24.357-11.418,34.323c-1.303,1.74-0.951,4.209,0.791,5.513c1.588,1.19,3.781,1.001,5.143-0.362
			c0.133-0.131,0.256-0.274,0.369-0.427c8.5-11.339,12.992-24.842,12.992-39.047C274.247,112.067,269.755,98.564,261.257,87.226z
			 M281.029,73.176c-1.305-1.741-3.773-2.095-5.514-0.791c-1.74,1.305-2.094,3.773-0.789,5.514
			c10.523,14.047,16.088,30.774,16.09,48.375c0,17.601-5.564,34.329-16.092,48.375c-1.303,1.741-0.951,4.208,0.791,5.513
			c1.588,1.189,3.781,1,5.145-0.363c0.131-0.131,0.254-0.275,0.369-0.427c11.555-15.42,17.664-33.781,17.664-53.098
			C298.691,106.956,292.583,88.595,281.029,73.176z M301.241,60.148c-0.877,0-1.711,0.279-2.412,0.805
			c-1.781,1.333-2.143,3.867-0.811,5.647c12.984,17.325,19.85,37.961,19.852,59.673c0,21.713-6.865,42.347-19.852,59.674
			c-1.334,1.779-0.971,4.311,0.809,5.645c0.703,0.527,1.537,0.806,2.414,0.806c1.08,0,2.094-0.418,2.852-1.177
			c0.135-0.134,0.262-0.282,0.381-0.438c14.039-18.734,21.461-41.04,21.461-64.51c-0.002-23.471-7.424-45.778-21.463-64.511
			C303.704,60.737,302.525,60.148,301.241,60.148z"/>
		<linearGradient id="SVGID_7_" gradientUnits="userSpaceOnUse" x1="351.136" y1="126.2729" x2="462.428" y2="126.2729">
			<stop  offset="0" style="stop-color:#F4A44E"/>
			<stop  offset="0.35" style="stop-color:#E6483B"/>
			<stop  offset="0.6989" style="stop-color:#5E8BCE"/>
			<stop  offset="1" style="stop-color:#5E8BCE"/>
		</linearGradient>
		<path fill="url(#SVGID_7_)" d="M359.201,126.272c0.002-21.711,6.865-42.347,19.85-59.672c1.334-1.781,0.971-4.313-0.809-5.647
			c-0.703-0.527-1.537-0.805-2.414-0.805c-1.283,0-2.461,0.588-3.23,1.614c-14.04,18.732-21.46,41.039-21.462,64.511
			c0,23.47,7.422,45.776,21.462,64.509c0.119,0.157,0.246,0.304,0.379,0.438c0.76,0.759,1.771,1.177,2.852,1.177
			c0.877,0,1.713-0.279,2.416-0.806c1.777-1.334,2.141-3.866,0.809-5.645C366.067,168.62,359.201,147.986,359.201,126.272z
			 M386.254,126.273c0.002-17.601,5.566-34.328,16.092-48.375c1.305-1.74,0.951-4.209-0.789-5.514
			c-1.74-1.304-4.209-0.951-5.514,0.791c-11.557,15.419-17.664,33.78-17.666,53.098c0,19.317,6.109,37.678,17.666,53.098
			c0.115,0.152,0.238,0.295,0.369,0.427c1.363,1.362,3.557,1.552,5.145,0.362c1.742-1.304,2.094-3.771,0.791-5.512
			C391.819,160.602,386.254,143.874,386.254,126.273z M441.153,100.172c-1.742-1.304-4.211-0.95-5.514,0.791
			c-5.51,7.352-8.42,16.104-8.42,25.31c-0.002,9.207,2.91,17.959,8.42,25.311c0.115,0.153,0.238,0.297,0.369,0.428
			c1.363,1.363,3.557,1.552,5.145,0.362c1.74-1.304,2.094-3.771,0.789-5.514c-4.48-5.978-6.848-13.096-6.848-20.587
			c0.002-7.49,2.369-14.607,6.848-20.586C443.246,103.945,442.897,101.481,441.153,100.172z M421.328,86.436
			c-1.742-1.304-4.209-0.951-5.514,0.79c-8.498,11.338-12.99,24.841-12.99,39.046s4.492,27.709,12.99,39.048
			c0.115,0.153,0.238,0.296,0.369,0.427c1.363,1.363,3.557,1.552,5.145,0.362c1.74-1.304,2.094-3.773,0.789-5.513
			c-7.469-9.966-11.418-21.835-11.418-34.324s3.949-24.357,11.418-34.323C423.422,90.211,423.071,87.743,421.328,86.436z
			 M459.614,126.273c0-2.153,0.693-4.201,2.006-5.921c1.318-1.729,0.994-4.198-0.744-5.52c-1.729-1.318-4.199-0.985-5.52,0.744
			c-2.367,3.105-3.619,6.803-3.619,10.698c0,3.894,1.252,7.593,3.619,10.697c0.109,0.142,0.227,0.275,0.35,0.399
			c1.373,1.374,3.584,1.554,5.17,0.343c1.73-1.32,2.063-3.791,0.744-5.521C460.307,130.473,459.612,128.425,459.614,126.273z"/>
	</g>
	
		<rect x="222.063" y="433.371" fill="#FFFFFF" stroke="#5E8BCE" stroke-width="2.5298" stroke-linecap="round" stroke-linejoin="round" stroke-miterlimit="10" width="245.875" height="100"/>
	
		<circle fill="#00FF00" stroke="#5E8BCE" stroke-width="2.4979" stroke-linecap="round" stroke-linejoin="round" stroke-miterlimit="10" cx="449" cy="452.131" r="5"/>
	
		<line fill="none" stroke="#5E8BCE" stroke-width="2.5298" stroke-linejoin="round" stroke-miterlimit="10" x1="223.03" y1="451.66" x2="235.467" y2="451.66"/>
	
		<line fill="none" stroke="#5E8BCE" stroke-width="2.5298" stroke-linejoin="round" stroke-miterlimit="10" x1="223.03" y1="459.608" x2="235.467" y2="459.608"/>
	
		<line fill="none" stroke="#5E8BCE" stroke-width="2.5298" stroke-linejoin="round" stroke-miterlimit="10" x1="223.03" y1="467.555" x2="235.467" y2="467.555"/>
</g>
</svg>
