<?xml version="1.0" encoding="utf-8"?>
<!-- Generator: Adobe Illustrator 16.0.0, SVG Export Plug-In . SVG Version: 6.00 Build 0)  -->
<!DOCTYPE svg PUBLIC "-//W3C//DTD SVG 1.1//EN" "http://www.w3.org/Graphics/SVG/1.1/DTD/svg11.dtd">
<svg version="1.1" id="Layer_1" xmlns="http://www.w3.org/2000/svg" xmlns:xlink="http://www.w3.org/1999/xlink" x="0px" y="0px"
	 width="887.865px" height="250px" viewBox="0 0 887.865 250" enable-background="new 0 0 887.865 250" xml:space="preserve">
<g>
	<linearGradient id="SVGID_1_" gradientUnits="userSpaceOnUse" x1="558.5625" y1="87.3579" x2="337.6572" y2="87.3579">
		<stop  offset="0" style="stop-color:#F4A44E"/>
		<stop  offset="0.35" style="stop-color:#E6483B"/>
		<stop  offset="0.6989" style="stop-color:#C30F7A"/>
		<stop  offset="1" style="stop-color:#A7178C"/>
	</linearGradient>
	<path fill="none" stroke="url(#SVGID_1_)" stroke-width="8" stroke-miterlimit="10" d="M558.563,47.503H409.951h-6.986
		c-6.162,0-11.205-5.037-11.205-11.192l0,0V33.75V7.348c0-4.041-3.301-7.348-7.336-7.348l0,0l0,0c-4.035,0-7.336,3.308-7.336,7.347
		v140.74v11v4.404c0,6.162-5.037,11.205-11.191,11.205l0,0h0.332c-16.791,0.47-18.129-8.206-25.172-19.57"/>
	<linearGradient id="SVGID_2_" gradientUnits="userSpaceOnUse" x1="546.2178" y1="79.6074" x2="546.2178" y2="195.2739">
		<stop  offset="0" style="stop-color:#F4A44E"/>
		<stop  offset="0.35" style="stop-color:#E6483B"/>
		<stop  offset="0.6989" style="stop-color:#C30F7A"/>
		<stop  offset="1" style="stop-color:#A7178C"/>
	</linearGradient>
	<path fill="none" stroke="url(#SVGID_2_)" stroke-width="3.5" stroke-miterlimit="10" d="M640.861,79.607v19.125v9.677
		c0,3.546-2.906,6.448-6.457,6.448l0,0c-3.551,0-6.459-2.902-6.459-6.448v-7.841c0-2.735-2.904-5.636-6.457-5.636l0,0
		c-3.551,0-6.455,2.901-6.455,6.448v34c0,3.547-2.906,6.449-6.457,6.449l0,0h-2.85h-58.436h-3.395h-3.738
		c-3.553,0-6.457-2.902-6.457-6.449l0,0v-6.584v-15.007c0-3.546-2.906-6.447-6.455-6.447l0,0h-4.893h-42.211
		c-3.551,0-6.457,2.901-6.457,6.447l0,0c0,3.547,2.906,6.449,5.643,6.449h20.891h2.447h2.732c2.738,0,5.641,2.901,5.641,6.447l0,0
		c0,3.547-2.902,6.448-6.455,6.448h-41.543h-5.01l0,0c-3.553,0-6.457,2.901-6.457,6.448v55.691"/>
	<linearGradient id="SVGID_3_" gradientUnits="userSpaceOnUse" x1="775.7471" y1="78.7466" x2="775.7471" y2="198.8872">
		<stop  offset="0.1935" style="stop-color:#F4A44E"/>
		<stop  offset="0.4038" style="stop-color:#E6483B"/>
		<stop  offset="0.6989" style="stop-color:#C30F7A"/>
		<stop  offset="1" style="stop-color:#A7178C"/>
	</linearGradient>
	<path fill="none" stroke="url(#SVGID_3_)" stroke-width="3.5" stroke-miterlimit="10" d="M871.172,198.887v-63.085l0,0
		c0-3.545-2.904-6.446-6.455-6.446H728.553c-3.551,0-6.457-2.902-6.457-6.449l0,0c0-3.546,2.906-6.448,6.457-6.448h86.127
		c3.553,0,6.457-2.901,6.457-6.449l0,0c0-3.545-2.904-6.447-6.457-6.447H686.781c-3.553,0-6.459-2.901-6.459-6.448l0,0V78.747"/>
	<g>
		
			<polygon fill="#FFFFFF" stroke="#5E8BCE" stroke-width="2.4979" stroke-linecap="round" stroke-linejoin="round" stroke-miterlimit="10" points="
			333.248,150.802 339.377,162.268 348.145,157.595 342.014,146.128 		"/>
		
			<polygon fill="#FFFFFF" stroke="#5E8BCE" stroke-width="2.4979" stroke-linecap="round" stroke-linejoin="round" stroke-miterlimit="10" points="
			322.215,137.927 330.02,152.522 345.242,144.405 337.439,129.81 		"/>
	</g>
	<g>
		
			<rect x="553.979" y="43.274" fill="#FFFFFF" stroke="#5E8BCE" stroke-width="1.5" stroke-linecap="round" stroke-linejoin="round" stroke-miterlimit="10" width="11.152" height="8.458"/>
		
			<rect x="565.131" y="40.159" fill="#FFFFFF" stroke="#5E8BCE" stroke-width="1.5" stroke-linecap="round" stroke-linejoin="round" stroke-miterlimit="10" width="14.199" height="14.688"/>
	</g>
	<linearGradient id="SVGID_4_" gradientUnits="userSpaceOnUse" x1="672.3643" y1="78.0176" x2="672.3643" y2="200.4741">
		<stop  offset="0.1935" style="stop-color:#F4A44E"/>
		<stop  offset="0.4038" style="stop-color:#E6483B"/>
		<stop  offset="0.6989" style="stop-color:#C30F7A"/>
		<stop  offset="1" style="stop-color:#A7178C"/>
	</linearGradient>
	<path fill="none" stroke="url(#SVGID_4_)" stroke-width="3.5" stroke-miterlimit="10" d="M660.592,78.018v24.278v2.301l0,0
		c0,3.545,2.906,6.448,6.457,6.448h3.721c3.551,0,6.455,2.901,6.455,6.449l0,0c0,3.546-2.904,6.447-6.455,6.447h-2.674h-3.217
		h-10.088c-2.738,0-5.645,2.901-5.645,6.448l0,0c0,3.547,2.906,6.448,6.457,6.448h33.523c3.549,0,6.455,2.902,6.455,6.449l0,0v4.092
		v13.596v39.5"/>
	
		<linearGradient id="SVGID_5_" gradientUnits="userSpaceOnUse" x1="3436.4072" y1="131.2646" x2="3508.2949" y2="59.377" gradientTransform="matrix(1 0 0 1 -3429.4883 0)">
		<stop  offset="0" style="stop-color:#F4A44E"/>
		<stop  offset="0.35" style="stop-color:#E6483B"/>
		<stop  offset="0.6989" style="stop-color:#C30F7A"/>
		<stop  offset="1" style="stop-color:#A7178C"/>
	</linearGradient>
	<path fill="url(#SVGID_5_)" d="M42.861,73.695c-11.768,0-21.344,9.7-21.344,21.623c0,11.927,9.576,21.627,21.344,21.627
		c11.77,0,21.344-9.701,21.344-21.627C64.205,83.395,54.631,73.695,42.861,73.695z M42.861,110.265
		c-8.133,0-14.75-6.706-14.75-14.947c0-8.237,6.617-14.943,14.75-14.943s14.75,6.706,14.75,14.943
		C57.611,103.559,50.994,110.265,42.861,110.265z M65.748,67.453c-2.549,0-4.615,2.097-4.615,4.679c0,2.581,2.066,4.677,4.615,4.677
		s4.615-2.096,4.615-4.677C70.363,69.549,68.297,67.453,65.748,67.453z M61.324,51.892h-3.477l0,0H26.051l0,0h-1.652
		C10.945,51.892,0,62.982,0,76.61v37.42c0,13.628,10.945,24.717,24.398,24.717h36.926c13.457,0,24.398-11.089,24.398-24.717V76.61
		C85.723,62.982,74.781,51.892,61.324,51.892z M44.123,57.346c-0.418,0.026-0.838,0.044-1.262,0.044
		c-0.422,0-0.844-0.019-1.262-0.044H44.123z M79.129,114.03c0,9.943-7.988,18.037-17.805,18.037H24.398
		c-9.82,0-17.805-8.094-17.805-18.037V76.61c0-9.945,7.984-18.038,17.805-18.038h36.926c9.816,0,17.805,8.093,17.805,18.038V114.03z
		"/>
	<g>
		<g>
			
				<rect x="638.242" y="75.473" fill="#FFFFFF" stroke="#5E8BCE" stroke-width="1.5" stroke-linecap="round" stroke-linejoin="round" stroke-miterlimit="10" width="5.236" height="6.547"/>
			
				<rect x="636.313" y="67.411" fill="#FFFFFF" stroke="#5E8BCE" stroke-width="1.5" stroke-linecap="round" stroke-linejoin="round" stroke-miterlimit="10" width="9.096" height="8.062"/>
		</g>
		<g>
			
				<rect x="657.973" y="75.473" fill="#FFFFFF" stroke="#5E8BCE" stroke-width="1.5" stroke-linecap="round" stroke-linejoin="round" stroke-miterlimit="10" width="5.238" height="6.547"/>
			
				<rect x="656.043" y="67.411" fill="#FFFFFF" stroke="#5E8BCE" stroke-width="1.5" stroke-linecap="round" stroke-linejoin="round" stroke-miterlimit="10" width="9.098" height="8.062"/>
		</g>
		<g>
			
				<rect x="677.703" y="75.473" fill="#FFFFFF" stroke="#5E8BCE" stroke-width="1.5" stroke-linecap="round" stroke-linejoin="round" stroke-miterlimit="10" width="5.236" height="6.547"/>
			
				<rect x="675.775" y="67.411" fill="#FFFFFF" stroke="#5E8BCE" stroke-width="1.5" stroke-linecap="round" stroke-linejoin="round" stroke-miterlimit="10" width="9.096" height="8.062"/>
		</g>
	</g>
	<g>
		<path fill="none" d="M320.393,58.579h-36.924c-9.818,0-17.803,8.091-17.803,18.038v37.415c0,9.944,7.984,18.037,17.803,18.037
			h36.924c9.813,0,17.801-8.093,17.801-18.037V76.616C338.193,66.669,330.205,58.579,320.393,58.579z M301.928,116.947
			c-11.766,0-21.34-9.7-21.34-21.627c0-11.92,9.574-21.619,21.34-21.619c11.77,0,21.344,9.699,21.344,21.619
			C323.271,107.247,313.697,116.947,301.928,116.947z M324.814,76.813c-2.549,0-4.615-2.095-4.615-4.677
			c0-2.583,2.066-4.678,4.615-4.678c2.547,0,4.613,2.095,4.613,4.678C329.428,74.718,327.361,76.813,324.814,76.813z"/>
		<path fill="none" d="M301.928,80.378c-8.131,0-14.748,6.707-14.748,14.941c0,8.241,6.617,14.948,14.748,14.948
			c8.133,0,14.752-6.707,14.752-14.948C316.68,87.085,310.061,80.378,301.928,80.378z"/>
		<path fill="#5E8BCE" d="M301.93,55.654c4.871,0,8.426-2.018,10.832-5.051l-4.115-2.714c-1.377,1.814-3.863,3.025-6.719,3.025
			c-2.852,0-5.34-1.211-6.713-3.025l-4.115,2.714C293.508,53.636,297.061,55.654,301.93,55.654z"/>
		<path fill="#5E8BCE" d="M296.936,46.751c1.031,1.396,2.877,2.33,4.994,2.33c2.115,0,3.959-0.934,4.994-2.33l-2.848-1.88h-4.295
			L296.936,46.751z"/>
		<path fill="#5E8BCE" d="M349.371,78.316h-4.584v-1.7c0-13.628-10.941-24.719-24.395-24.719h-5.35
			c-3.086,3.427-7.857,5.5-13.115,5.5c-5.293,0-10.057-2.106-13.121-5.5h-5.338c-13.453,0-24.396,11.091-24.396,24.719v1.7h-4.582
			c-2.066,0-3.756,1.714-3.756,3.808v26.65c0,2.095,1.689,3.809,3.756,3.809h4.582v1.448c0,13.627,10.943,24.716,24.396,24.716
			h36.924c13.453,0,24.395-11.089,24.395-24.716v-1.448h4.584c2.064,0,3.754-1.714,3.754-3.809v-26.65
			C353.125,80.03,351.436,78.316,349.371,78.316z M338.193,114.031c0,9.944-7.988,18.037-17.801,18.037h-36.924
			c-9.818,0-17.803-8.093-17.803-18.037V76.616c0-9.947,7.984-18.038,17.803-18.038h36.924c9.813,0,17.801,8.091,17.801,18.038
			V114.031z"/>
		<ellipse fill="#5E8BCE" cx="324.814" cy="72.136" rx="4.615" ry="4.678"/>
		<path fill="#5E8BCE" d="M301.928,73.701c-11.766,0-21.34,9.699-21.34,21.619c0,11.927,9.574,21.627,21.34,21.627
			c11.77,0,21.344-9.7,21.344-21.627C323.271,83.399,313.697,73.701,301.928,73.701z M301.928,110.268
			c-8.131,0-14.748-6.707-14.748-14.948c0-8.235,6.617-14.941,14.748-14.941c8.133,0,14.752,6.707,14.752,14.941
			C316.68,103.561,310.061,110.268,301.928,110.268z"/>
		<path fill="#5E8BCE" d="M301.928,23.586c-1.178,0-2.146,0.98-2.146,2.176v19.109h4.295V25.762
			C304.076,24.566,303.109,23.586,301.928,23.586z"/>
	</g>
	<g>
		<g>
			<g>
				
					<path fill="#FFFFFF" stroke="#5E8BCE" stroke-width="1.5" stroke-linecap="round" stroke-linejoin="round" stroke-miterlimit="10" d="
					M547.652,240.035v-53.313c0-2.472-2.023-4.493-4.496-4.493h-98.473c-2.475,0-4.498,2.021-4.498,4.493v53.313H547.652z"/>
				
					<path fill="#FFFFFF" stroke="#5E8BCE" stroke-width="1.5" stroke-linecap="round" stroke-linejoin="round" stroke-miterlimit="10" d="
					M433.15,237.03c-0.027,0.243-0.043,0.49-0.043,0.745c0,2.606,1.369,4.718,3.057,4.718h115.514c1.688,0,3.055-2.111,3.055-4.718
					c0-0.255-0.016-0.502-0.041-0.745H433.15z"/>
				
					<rect x="444.289" y="186.581" fill="#FFFFFF" stroke="#5E8BCE" stroke-width="1.5" stroke-linecap="round" stroke-linejoin="round" stroke-miterlimit="10" width="99.262" height="48.039"/>
			</g>
			
				<path fill="none" stroke="#5E8BCE" stroke-width="1.5" stroke-linecap="round" stroke-linejoin="round" stroke-miterlimit="10" d="
				M471.32,164.347c-0.967,2.797-1.918,4.881-2.281,10.135c-0.063,0.912,0.045,3.39,0.133,4.281"/>
			
				<path fill="none" stroke="#5E8BCE" stroke-width="1.5" stroke-linecap="round" stroke-linejoin="round" stroke-miterlimit="10" d="
				M516.01,159.947c-4.57-7.22-12.445-11.989-21.398-11.987c-5.777,0-11.109,1.986-15.393,5.34"/>
			
				<path fill="none" stroke="#5E8BCE" stroke-width="1.5" stroke-linecap="round" stroke-linejoin="round" stroke-miterlimit="10" d="
				M520.055,177.978c0.088-0.891,0.133-2.582,0.133-3.496c0-5.367-1.537-10.359-4.178-14.534"/>
			
				<path fill="none" stroke="#5E8BCE" stroke-width="1.5" stroke-linecap="round" stroke-linejoin="round" stroke-miterlimit="10" d="
				M482.666,194.065c-5.98,0-7.189-3.192-9.43-5.768"/>
			
				<path fill="#FFFFFF" stroke="#5E8BCE" stroke-width="1.5" stroke-linecap="round" stroke-linejoin="round" stroke-miterlimit="10" d="
				M513.605,172.245l0.672-14.301c0,0-1.406-1.799-4.756-3.633c-4.34-2.377-12.57-4.557-22.922-2.979
				c-8.094,1.234-11.66,4.385-11.66,4.385c4.477-1.118,1.232,1.233-1.666,2.786c-3.529,1.893-5.316,0.28-5.316,0.28
				s0.26,3.786,3.414,5.567c4.439,2.506,4.617,2.229,4.619,2.175c0.004,0.071,0.135,3.903,0.254,6.985l-1.652,2.826l3.391,11.871
				c2.324,5.234,9.242,10.387,17,10.387c7.908,0,14.555-4.996,16.756-10.387l1.957-13.412L513.605,172.245z"/>
			<g>
				
					<path fill="#FFFFFF" stroke="#5E8BCE" stroke-width="1.5" stroke-linecap="round" stroke-linejoin="round" stroke-miterlimit="10" d="
					M513.561,173.146l2.928,0.354c1.775,0.214,3.055,1.842,2.838,3.617l-0.146,1.218l0.615,0.074
					c0.729,0.087,1.254,0.755,1.164,1.482l-0.426,3.526c-0.088,0.73-0.756,1.253-1.484,1.164l-0.615-0.074l-0.148,1.217
					c-0.215,1.775-1.846,3.053-3.623,2.838l-2.924-0.354L513.561,173.146z"/>
				
					<path fill="#FFFFFF" stroke="#5E8BCE" stroke-width="1.5" stroke-linecap="round" stroke-linejoin="round" stroke-miterlimit="10" d="
					M476.158,173.146l-2.924,0.354c-1.779,0.214-3.055,1.842-2.842,3.617l0.148,1.218l-0.617,0.074
					c-0.727,0.087-1.252,0.755-1.164,1.482l0.428,3.526c0.088,0.73,0.756,1.253,1.484,1.164l0.617-0.074l0.148,1.217
					c0.213,1.775,1.844,3.053,3.621,2.838l2.924-0.354L476.158,173.146z"/>
			</g>
			
				<path fill="#FFFFFF" stroke="#5E8BCE" stroke-width="1.5" stroke-linecap="round" stroke-linejoin="round" stroke-miterlimit="10" d="
				M512.996,244.707l2.414-19.923c0,0,6.756,18.638,12.709,19.762c3.637,0.688,6.916-1.124,7.883-4.498
				c0.965-3.374-1.607-9.801-4.021-16.229c-2.414-6.426-7.885-18.315-12.229-20.565c-4.342-2.248-15.281-4.819-15.281-4.819
				c-2.002,1.374-6.74,2.59-9.127,2.59c-2.553,0-8.188-1.025-10.293-2.59c0,0-10.941,2.571-15.285,4.819
				c-4.344,2.25-9.813,14.14-12.225,20.565c-2.416,6.428-4.99,12.854-4.023,16.229c0.965,3.374,4.244,5.187,7.881,4.498
				c5.955-1.124,12.711-19.762,12.711-19.762l2.414,19.923"/>
			
				<path fill="none" stroke="#5E8BCE" stroke-width="1.5" stroke-linecap="round" stroke-linejoin="round" stroke-miterlimit="10" d="
				M469.303,245.69c7.422-0.747,15.924-1.173,24.959-1.173c9.787,0,18.947,0.499,26.789,1.366"/>
		</g>
		<g>
			<g>
				
					<path fill="#FFFFFF" stroke="#5E8BCE" stroke-width="1.5" stroke-linecap="round" stroke-linejoin="round" stroke-miterlimit="10" d="
					M713.719,240.035v-53.313c0-2.472-2.02-4.493-4.494-4.493H610.75c-2.475,0-4.5,2.021-4.5,4.493v53.313H713.719z"/>
				
					<path fill="#FFFFFF" stroke="#5E8BCE" stroke-width="1.5" stroke-linecap="round" stroke-linejoin="round" stroke-miterlimit="10" d="
					M599.215,237.03c-0.025,0.243-0.043,0.49-0.043,0.745c0,2.606,1.371,4.718,3.059,4.718h115.514c1.688,0,3.057-2.111,3.057-4.718
					c0-0.255-0.018-0.502-0.041-0.745H599.215z"/>
				
					<rect x="610.355" y="186.581" fill="#FFFFFF" stroke="#5E8BCE" stroke-width="1.5" stroke-linecap="round" stroke-linejoin="round" stroke-miterlimit="10" width="99.262" height="48.039"/>
			</g>
			
				<path fill="none" stroke="#5E8BCE" stroke-width="1.5" stroke-linecap="round" stroke-linejoin="round" stroke-miterlimit="10" d="
				M637.387,164.347c-0.967,2.797-1.916,4.881-2.279,10.135c-0.064,0.912,0.043,3.39,0.131,4.281"/>
			
				<path fill="none" stroke="#5E8BCE" stroke-width="1.5" stroke-linecap="round" stroke-linejoin="round" stroke-miterlimit="10" d="
				M682.076,159.947c-4.568-7.22-12.445-11.989-21.396-11.987c-5.779,0-11.111,1.986-15.395,5.34"/>
			
				<path fill="none" stroke="#5E8BCE" stroke-width="1.5" stroke-linecap="round" stroke-linejoin="round" stroke-miterlimit="10" d="
				M686.123,177.978c0.086-0.891,0.133-2.582,0.133-3.496c0-5.367-1.537-10.359-4.18-14.534"/>
			
				<path fill="none" stroke="#5E8BCE" stroke-width="1.5" stroke-linecap="round" stroke-linejoin="round" stroke-miterlimit="10" d="
				M648.73,194.065c-5.98,0-7.188-3.192-9.428-5.768"/>
			
				<path fill="#FFFFFF" stroke="#5E8BCE" stroke-width="1.5" stroke-linecap="round" stroke-linejoin="round" stroke-miterlimit="10" d="
				M679.672,172.245l0.674-14.301c0,0-1.406-1.799-4.76-3.633c-4.338-2.377-12.57-4.557-22.922-2.979
				c-8.094,1.234-11.66,4.385-11.66,4.385c4.479-1.118,1.234,1.233-1.664,2.786c-3.529,1.893-5.316,0.28-5.316,0.28
				s0.258,3.786,3.414,5.567c4.441,2.506,4.617,2.229,4.619,2.175c0.004,0.071,0.135,3.903,0.254,6.985l-1.652,2.826l3.391,11.871
				c2.322,5.234,9.242,10.387,17.002,10.387c7.906,0,14.553-4.996,16.756-10.387l1.955-13.412L679.672,172.245z"/>
			<g>
				
					<path fill="#FFFFFF" stroke="#5E8BCE" stroke-width="1.5" stroke-linecap="round" stroke-linejoin="round" stroke-miterlimit="10" d="
					M679.629,173.146l2.926,0.354c1.777,0.214,3.055,1.842,2.84,3.617l-0.146,1.218l0.615,0.074
					c0.727,0.087,1.252,0.755,1.164,1.482l-0.428,3.526c-0.09,0.73-0.756,1.253-1.484,1.164l-0.615-0.074l-0.146,1.217
					c-0.215,1.775-1.846,3.053-3.623,2.838l-2.924-0.354L679.629,173.146z"/>
				
					<path fill="#FFFFFF" stroke="#5E8BCE" stroke-width="1.5" stroke-linecap="round" stroke-linejoin="round" stroke-miterlimit="10" d="
					M642.225,173.146l-2.924,0.354c-1.777,0.214-3.057,1.842-2.842,3.617l0.148,1.218l-0.615,0.074
					c-0.729,0.087-1.252,0.755-1.164,1.482l0.426,3.526c0.088,0.73,0.756,1.253,1.484,1.164l0.615-0.074l0.15,1.217
					c0.213,1.775,1.844,3.053,3.619,2.838l2.926-0.354L642.225,173.146z"/>
			</g>
			
				<path fill="#FFFFFF" stroke="#5E8BCE" stroke-width="1.5" stroke-linecap="round" stroke-linejoin="round" stroke-miterlimit="10" d="
				M679.063,244.707l2.414-19.923c0,0,6.758,18.638,12.709,19.762c3.641,0.688,6.918-1.124,7.883-4.498
				c0.967-3.374-1.607-9.801-4.021-16.229c-2.412-6.426-7.883-18.315-12.229-20.565c-4.342-2.248-15.281-4.819-15.281-4.819
				c-2.002,1.374-6.74,2.59-9.125,2.59c-2.557,0-8.191-1.025-10.297-2.59c0,0-10.939,2.571-15.283,4.819
				c-4.346,2.25-9.813,14.14-12.225,20.565c-2.414,6.428-4.99,12.854-4.023,16.229c0.965,3.374,4.244,5.187,7.881,4.498
				c5.955-1.124,12.711-19.762,12.711-19.762l2.414,19.923"/>
			
				<path fill="none" stroke="#5E8BCE" stroke-width="1.5" stroke-linecap="round" stroke-linejoin="round" stroke-miterlimit="10" d="
				M635.369,245.69c7.424-0.747,15.926-1.173,24.959-1.173c9.787,0,18.947,0.499,26.787,1.366"/>
		</g>
		<g>
			<g>
				
					<path fill="#FFFFFF" stroke="#5E8BCE" stroke-width="1.5" stroke-linecap="round" stroke-linejoin="round" stroke-miterlimit="10" d="
					M880.787,240.035v-53.313c0-2.472-2.023-4.493-4.498-4.493h-98.473c-2.473,0-4.496,2.021-4.496,4.493v53.313H880.787z"/>
				
					<path fill="#FFFFFF" stroke="#5E8BCE" stroke-width="1.5" stroke-linecap="round" stroke-linejoin="round" stroke-miterlimit="10" d="
					M766.281,237.03c-0.025,0.243-0.041,0.49-0.041,0.745c0,2.606,1.369,4.718,3.057,4.718h115.512c1.689,0,3.057-2.111,3.057-4.718
					c0-0.255-0.016-0.502-0.041-0.745H766.281z"/>
				
					<rect x="777.422" y="186.581" fill="#FFFFFF" stroke="#5E8BCE" stroke-width="1.5" stroke-linecap="round" stroke-linejoin="round" stroke-miterlimit="10" width="99.262" height="48.039"/>
			</g>
			
				<path fill="none" stroke="#5E8BCE" stroke-width="1.5" stroke-linecap="round" stroke-linejoin="round" stroke-miterlimit="10" d="
				M804.455,164.347c-0.969,2.797-1.918,4.881-2.281,10.135c-0.064,0.912,0.045,3.39,0.131,4.281"/>
			
				<path fill="none" stroke="#5E8BCE" stroke-width="1.5" stroke-linecap="round" stroke-linejoin="round" stroke-miterlimit="10" d="
				M849.143,159.947c-4.568-7.22-12.447-11.989-21.396-11.987c-5.779,0-11.111,1.986-15.395,5.34"/>
			
				<path fill="none" stroke="#5E8BCE" stroke-width="1.5" stroke-linecap="round" stroke-linejoin="round" stroke-miterlimit="10" d="
				M853.188,177.978c0.088-0.891,0.133-2.582,0.133-3.496c0-5.367-1.537-10.359-4.178-14.534"/>
			
				<path fill="none" stroke="#5E8BCE" stroke-width="1.5" stroke-linecap="round" stroke-linejoin="round" stroke-miterlimit="10" d="
				M815.799,194.065c-5.982,0-7.191-3.192-9.43-5.768"/>
			
				<path fill="#FFFFFF" stroke="#5E8BCE" stroke-width="1.5" stroke-linecap="round" stroke-linejoin="round" stroke-miterlimit="10" d="
				M846.74,172.245l0.67-14.301c0,0-1.404-1.799-4.756-3.633c-4.34-2.377-12.57-4.557-22.922-2.979
				c-8.094,1.234-11.662,4.385-11.662,4.385c4.48-1.118,1.236,1.233-1.662,2.786c-3.531,1.893-5.318,0.28-5.318,0.28
				s0.258,3.786,3.416,5.567c4.438,2.506,4.615,2.229,4.619,2.175c0.002,0.071,0.135,3.903,0.252,6.985l-1.65,2.826l3.389,11.871
				c2.324,5.234,9.244,10.387,17,10.387c7.908,0,14.557-4.996,16.758-10.387l1.957-13.412L846.74,172.245z"/>
			<g>
				
					<path fill="#FFFFFF" stroke="#5E8BCE" stroke-width="1.5" stroke-linecap="round" stroke-linejoin="round" stroke-miterlimit="10" d="
					M846.695,173.146l2.926,0.354c1.777,0.214,3.055,1.842,2.842,3.617l-0.15,1.218l0.617,0.074
					c0.727,0.087,1.252,0.755,1.164,1.482l-0.428,3.526c-0.088,0.73-0.756,1.253-1.484,1.164l-0.615-0.074l-0.148,1.217
					c-0.213,1.775-1.844,3.053-3.621,2.838l-2.924-0.354L846.695,173.146z"/>
				
					<path fill="#FFFFFF" stroke="#5E8BCE" stroke-width="1.5" stroke-linecap="round" stroke-linejoin="round" stroke-miterlimit="10" d="
					M809.293,173.146l-2.926,0.354c-1.777,0.214-3.057,1.842-2.842,3.617l0.148,1.218l-0.615,0.074
					c-0.729,0.087-1.254,0.755-1.164,1.482l0.424,3.526c0.092,0.73,0.758,1.253,1.488,1.164l0.615-0.074l0.146,1.217
					c0.215,1.775,1.846,3.053,3.623,2.838l2.924-0.354L809.293,173.146z"/>
			</g>
			
				<path fill="#FFFFFF" stroke="#5E8BCE" stroke-width="1.5" stroke-linecap="round" stroke-linejoin="round" stroke-miterlimit="10" d="
				M846.129,244.707l2.414-19.923c0,0,6.756,18.638,12.709,19.762c3.639,0.688,6.918-1.124,7.883-4.498s-1.607-9.801-4.021-16.229
				c-2.414-6.426-7.883-18.315-12.229-20.565c-4.342-2.248-15.283-4.819-15.283-4.819c-1.998,1.374-6.74,2.59-9.123,2.59
				c-2.555,0-8.189-1.025-10.295-2.59c0,0-10.941,2.571-15.283,4.819c-4.344,2.25-9.814,14.14-12.229,20.565
				c-2.412,6.428-4.988,12.854-4.023,16.229c0.967,3.374,4.246,5.187,7.885,4.498c5.953-1.124,12.709-19.762,12.709-19.762
				l2.414,19.923"/>
			
				<path fill="none" stroke="#5E8BCE" stroke-width="1.5" stroke-linecap="round" stroke-linejoin="round" stroke-miterlimit="10" d="
				M802.438,245.69c7.422-0.747,15.922-1.173,24.957-1.173c9.787,0,18.947,0.499,26.789,1.366"/>
		</g>
	</g>
	<linearGradient id="SVGID_6_" gradientUnits="userSpaceOnUse" x1="101.9077" y1="95.3193" x2="160.3809" y2="95.3193">
		<stop  offset="0" style="stop-color:#F4A44E"/>
		<stop  offset="0.35" style="stop-color:#E6483B"/>
		<stop  offset="0.6989" style="stop-color:#5E8BCE"/>
		<stop  offset="1" style="stop-color:#5E8BCE"/>
	</linearGradient>
	<path fill="url(#SVGID_6_)" d="M113.086,81.625c-0.916,0.686-1.1,1.98-0.414,2.892c2.354,3.139,3.596,6.872,3.598,10.803
		c0,3.929-1.244,7.665-3.598,10.801c-0.686,0.914-0.5,2.208,0.412,2.893c0.836,0.625,1.986,0.525,2.703-0.189
		c0.07-0.07,0.135-0.144,0.195-0.225c2.896-3.857,4.422-8.45,4.422-13.28c0-4.831-1.525-9.422-4.422-13.281
		C115.299,81.126,114.002,80.94,113.086,81.625z M102.723,89.316c-0.91,0.694-1.084,1.989-0.389,2.896
		c0.689,0.903,1.055,1.978,1.055,3.107c0,1.129-0.365,2.204-1.055,3.104c-0.695,0.908-0.518,2.206,0.389,2.897
		c0.834,0.635,1.994,0.542,2.717-0.18c0.064-0.064,0.127-0.134,0.184-0.209c1.244-1.628,1.902-3.57,1.902-5.612
		c0-2.044-0.658-3.984-1.902-5.614C104.93,88.8,103.631,88.625,102.723,89.316z M126.396,74.832
		c-0.684-0.913-1.98-1.099-2.895-0.415c-0.916,0.684-1.1,1.98-0.416,2.894c3.926,5.228,6,11.455,6,18.009
		c0,6.551-2.074,12.779-6,18.009c-0.684,0.913-0.5,2.208,0.416,2.893c0.834,0.624,1.986,0.524,2.701-0.19
		c0.07-0.069,0.135-0.143,0.193-0.224c4.467-5.95,6.828-13.035,6.828-20.487C133.225,87.866,130.863,80.781,126.396,74.832z
		 M136.785,67.46c-0.684-0.914-1.982-1.1-2.895-0.415c-0.916,0.684-1.102,1.979-0.416,2.893c5.529,7.369,8.455,16.146,8.455,25.382
		c0,9.234-2.924,18.011-8.455,25.381c-0.686,0.913-0.5,2.207,0.416,2.894c0.832,0.623,1.986,0.523,2.701-0.191
		c0.07-0.069,0.133-0.143,0.193-0.225c6.072-8.09,9.283-17.724,9.283-27.859C146.064,85.184,142.857,75.55,136.785,67.46z
		 M147.406,60.625c-0.463,0-0.898,0.146-1.268,0.423c-0.938,0.7-1.127,2.028-0.426,2.962c6.822,9.091,10.428,19.918,10.428,31.31
		s-3.605,22.218-10.428,31.31c-0.701,0.932-0.512,2.261,0.426,2.961c0.369,0.277,0.805,0.423,1.268,0.423
		c0.566,0,1.1-0.218,1.498-0.618c0.072-0.068,0.137-0.146,0.201-0.229c7.375-9.829,11.275-21.534,11.275-33.847
		c-0.002-12.315-3.902-24.02-11.275-33.848C148.699,60.933,148.082,60.625,147.406,60.625z"/>
	<linearGradient id="SVGID_7_" gradientUnits="userSpaceOnUse" x1="174.834" y1="95.3193" x2="233.3052" y2="95.3193">
		<stop  offset="0" style="stop-color:#F4A44E"/>
		<stop  offset="0.35" style="stop-color:#E6483B"/>
		<stop  offset="0.6989" style="stop-color:#5E8BCE"/>
		<stop  offset="1" style="stop-color:#5E8BCE"/>
	</linearGradient>
	<path fill="url(#SVGID_7_)" d="M179.072,95.318c0-11.391,3.605-22.217,10.43-31.308c0.701-0.934,0.51-2.263-0.426-2.962
		c-0.369-0.276-0.807-0.423-1.27-0.423c-0.674,0-1.291,0.308-1.697,0.847c-7.375,9.828-11.273,21.532-11.275,33.848
		c0,12.313,3.9,24.019,11.275,33.847c0.064,0.082,0.129,0.16,0.199,0.229c0.398,0.4,0.934,0.618,1.498,0.618
		c0.463,0,0.9-0.146,1.271-0.423c0.934-0.7,1.125-2.029,0.424-2.961C182.678,117.538,179.072,106.711,179.072,95.318z
		 M193.285,95.32c0-9.236,2.926-18.013,8.453-25.382c0.688-0.913,0.502-2.209-0.412-2.893c-0.916-0.685-2.213-0.5-2.898,0.415
		c-6.07,8.09-9.279,17.724-9.281,27.86c0,10.135,3.211,19.769,9.281,27.859c0.061,0.082,0.125,0.155,0.193,0.225
		c0.717,0.715,1.869,0.814,2.705,0.189c0.916-0.685,1.1-1.979,0.412-2.892C196.207,113.331,193.285,104.553,193.285,95.32z
		 M222.127,81.624c-0.916-0.683-2.211-0.498-2.896,0.416c-2.895,3.858-4.424,8.45-4.424,13.279
		c-0.002,4.832,1.529,9.424,4.424,13.281c0.061,0.082,0.125,0.156,0.195,0.226c0.715,0.715,1.867,0.814,2.701,0.189
		c0.914-0.685,1.102-1.979,0.416-2.893c-2.355-3.138-3.6-6.872-3.6-10.803c0.002-3.929,1.244-7.662,3.6-10.801
		C223.229,83.604,223.043,82.311,222.127,81.624z M211.713,74.417c-0.916-0.685-2.211-0.498-2.896,0.415
		c-4.465,5.948-6.824,13.034-6.824,20.486c0,7.454,2.359,14.539,6.824,20.489c0.061,0.081,0.123,0.155,0.193,0.224
		c0.715,0.715,1.867,0.814,2.703,0.19c0.914-0.685,1.1-1.98,0.412-2.893c-3.922-5.23-5.998-11.458-5.998-18.011
		c0-6.552,2.076-12.779,5.998-18.008C212.813,76.398,212.627,75.102,211.713,74.417z M231.826,95.32
		c0-1.129,0.363-2.205,1.055-3.107c0.691-0.908,0.521-2.203-0.391-2.897c-0.91-0.69-2.207-0.516-2.902,0.391
		c-1.242,1.63-1.898,3.57-1.898,5.614c0,2.042,0.656,3.983,1.898,5.612c0.059,0.075,0.121,0.145,0.186,0.209
		c0.721,0.721,1.883,0.815,2.717,0.18c0.908-0.692,1.082-1.989,0.391-2.897C232.189,97.523,231.824,96.448,231.826,95.32z"/>
	
		<rect x="578.885" y="0.976" fill="#FFFFFF" stroke="#5E8BCE" stroke-width="1.5" stroke-linecap="round" stroke-linejoin="round" stroke-miterlimit="10" width="163.412" height="66.461"/>
	
		<circle fill="#00FF00" stroke="#5E8BCE" stroke-width="1.5" stroke-linecap="round" stroke-linejoin="round" stroke-miterlimit="10" cx="729.712" cy="13.444" r="3.323"/>
	
		<line fill="none" stroke="#5E8BCE" stroke-width="1.5" stroke-linejoin="round" stroke-miterlimit="10" x1="579.527" y1="13.131" x2="587.795" y2="13.131"/>
	
		<line fill="none" stroke="#5E8BCE" stroke-width="1.5" stroke-linejoin="round" stroke-miterlimit="10" x1="579.527" y1="18.414" x2="587.795" y2="18.414"/>
	
		<line fill="none" stroke="#5E8BCE" stroke-width="1.5" stroke-linejoin="round" stroke-miterlimit="10" x1="579.527" y1="23.695" x2="587.795" y2="23.695"/>
</g>
</svg>
