<?xml version="1.0" encoding="utf-8"?>
<!-- Generator: Adobe Illustrator 19.0.0, SVG Export Plug-In . SVG Version: 6.00 Build 0)  -->
<svg version="1.1" id="Layer_1" xmlns="http://www.w3.org/2000/svg" xmlns:xlink="http://www.w3.org/1999/xlink" x="0px" y="0px"
	 viewBox="0 0 690 877.4" style="enable-background:new 0 0 690 877.4;" xml:space="preserve">
<style type="text/css">
	.st0{fill:none;stroke:url(#XMLID_9_);stroke-width:6;stroke-miterlimit:10;}
	.st1{fill:none;stroke:url(#XMLID_15_);stroke-width:11;stroke-miterlimit:10;}
	.st2{fill:none;stroke:url(#XMLID_17_);stroke-width:6;stroke-miterlimit:10;}
	.st3{fill:#FFFFFF;stroke:#618BC8;stroke-width:2.4979;stroke-linecap:round;stroke-linejoin:round;stroke-miterlimit:10;}
	.st4{fill:none;stroke:url(#XMLID_18_);stroke-width:6;stroke-miterlimit:10;}
	.st5{fill:url(#XMLID_19_);}
	.st6{fill:none;}
	.st7{fill:#618BC8;}
	.st8{fill:none;stroke:#618BC8;stroke-width:2.4979;stroke-linecap:round;stroke-linejoin:round;stroke-miterlimit:10;}
	.st9{fill:url(#XMLID_20_);}
	.st10{fill:#FFFFFF;stroke:#618BC8;stroke-width:2.5298;stroke-linecap:round;stroke-linejoin:round;stroke-miterlimit:10;}
	.st11{fill:#6ABD45;stroke:#618BC8;stroke-width:2.4979;stroke-linecap:round;stroke-linejoin:round;stroke-miterlimit:10;}
	.st12{fill:none;stroke:#618BC8;stroke-width:2.5298;stroke-linejoin:round;stroke-miterlimit:10;}
</style>
<linearGradient id="XMLID_9_" gradientUnits="userSpaceOnUse" x1="172.3335" y1="554.7981" x2="172.3335" y2="780.1868">
	<stop  offset="0" style="stop-color:#F4A44F"/>
	<stop  offset="0.35" style="stop-color:#E5493B"/>
	<stop  offset="0.6989" style="stop-color:#C21A7A"/>
	<stop  offset="1" style="stop-color:#A5228B"/>
</linearGradient>
<path id="XMLID_121_" class="st0" d="M308.6,554.8v30.5V596v3.4c0,6.6-5.4,11.9-11.9,11.9l0,0c-6.6,0-11.9-5.4-11.9-11.9V585
	c0-5.1-5.4-10.4-11.9-10.4l0,0c-6.6,0-11.9,5.4-11.9,11.9v55.9v6.9c0,6.6-5.4,11.9-11.9,11.9l0,0h-8h-4.2h-12.3
	c-6.6,0-11.9-5.4-11.9-11.9l0,0V636v-26.6c0-6.6-5.4-11.9-11.9-11.9l0,0H190H85.8c-6.6,0-11.9,5.4-11.9,11.9l0,0
	c0,6.6,5.4,11.9,10.4,11.9h58.6h3.8h5.8c5.1,0,10.4,5.4,10.4,11.9l0,0c0,6.6-5.4,11.9-11.9,11.9H57.3H48l0,0
	c-6.6,0-11.9,5.4-11.9,11.9v123.1"/>
<linearGradient id="XMLID_15_" gradientUnits="userSpaceOnUse" x1="598.4406" y1="468.1096" x2="598.4406" y2="229.9071">
	<stop  offset="0" style="stop-color:#F4A44F"/>
	<stop  offset="0.35" style="stop-color:#E5493B"/>
	<stop  offset="0.6989" style="stop-color:#C21A7A"/>
	<stop  offset="1" style="stop-color:#A5228B"/>
</linearGradient>
<path id="XMLID_120_" class="st1" d="M671.4,232.8c13,21,12,31.5,12,41v101.7v12.2l0,0c0,11.4-9.3,20.7-20.7,20.7h-12.9h-19.1h-43.8
	c-7.5,0-13.6,6.1-13.6,13.6l0,0c0,7.5,6.1,13.6,13.6,13.6h45.8h7.5h3.2c7.5,0,13.6,6.1,13.6,13.6l0,0c0,7.5-6.1,13.6-13.6,13.6H508"
	/>
<linearGradient id="XMLID_17_" gradientUnits="userSpaceOnUse" x1="515.8022" y1="558.2981" x2="515.8022" y2="776.8635">
	<stop  offset="0" style="stop-color:#F4A44F"/>
	<stop  offset="0.35" style="stop-color:#E5493B"/>
	<stop  offset="0.6989" style="stop-color:#C21A7A"/>
	<stop  offset="1" style="stop-color:#A5228B"/>
</linearGradient>
<path id="XMLID_119_" class="st2" d="M381.4,558.3v25.1c0,6.6,5.4,11.9,11.9,11.9h95.2h12.7h92.8c6.6,0,11.9,5.4,11.9,11.9l0,0
	c0,6.6-5.4,11.9-11.9,11.9H492.8H479h-6.9c-6.6,0-11.9,5.4-11.9,11.9l0,0c0,6.6,5.4,11.9,11.9,11.9h4h27.4h134.8
	c6.6,0,11.9,5.4,11.9,11.9l0,0v11.4v110.6"/>
<g id="XMLID_116_">
	
		<rect id="XMLID_118_" x="658.3" y="221.9" transform="matrix(-0.471 -0.8821 0.8821 -0.471 782.2003 931.2439)" class="st3" width="24" height="18.3"/>
	
		<rect id="XMLID_117_" x="642.2" y="191.1" transform="matrix(-0.471 -0.8822 0.8822 -0.471 784.5053 884.4831)" class="st3" width="30.6" height="31.9"/>
</g>
<g id="XMLID_113_">
	<rect id="XMLID_115_" x="491.6" y="454.8" class="st3" width="20.6" height="15.6"/>
	<rect id="XMLID_114_" x="465.4" y="449" class="st3" width="26.2" height="27.1"/>
</g>
<linearGradient id="XMLID_18_" gradientUnits="userSpaceOnUse" x1="390.425" y1="556.7981" x2="390.425" y2="788.9646">
	<stop  offset="0.1935" style="stop-color:#F4A44F"/>
	<stop  offset="0.35" style="stop-color:#E5493B"/>
	<stop  offset="0.6989" style="stop-color:#C21A7A"/>
	<stop  offset="1" style="stop-color:#A5228B"/>
</linearGradient>
<path id="XMLID_112_" class="st4" d="M417.7,789v-57.2v-28.5v-8.2l0,0c0-6.6-5.4-11.9-11.9-11.9h-6.9h-4.5h-18.4
	c-6.6,0-11.9-5.4-11.9-11.9l0,0c0-6.6,5.4-11.9,10.4-11.9H393h6h24.9c6.6,0,11.9-5.4,11.9-11.9l0,0c0-6.6-5.4-11.9-11.9-11.9h-67
	c-6.6,0-11.9-5.4-11.9-11.9l0,0l0-12v-54.8"/>
<linearGradient id="XMLID_19_" gradientUnits="userSpaceOnUse" x1="3457.6072" y1="192.5019" x2="3584.061" y2="66.048" gradientTransform="matrix(1 0 0 1 -3429.4883 0)">
	<stop  offset="0" style="stop-color:#F4A44F"/>
	<stop  offset="0.35" style="stop-color:#E5493B"/>
	<stop  offset="0.6989" style="stop-color:#C21A7A"/>
	<stop  offset="1" style="stop-color:#A5228B"/>
</linearGradient>
<path id="XMLID_103_" class="st5" d="M91.3,91.2c-20.7,0-37.5,17.1-37.5,38.1c0,21,16.8,38.1,37.5,38.1c20.7,0,37.5-17.1,37.5-38.1
	C128.9,108.3,112,91.2,91.3,91.2z M91.3,155.6c-14.3,0-25.9-11.8-25.9-26.3c0-14.5,11.6-26.3,25.9-26.3c14.3,0,25.9,11.8,25.9,26.3
	C117.3,143.8,105.6,155.6,91.3,155.6z M131.6,80.2c-4.5,0-8.1,3.7-8.1,8.2c0,4.5,3.6,8.2,8.1,8.2c4.5,0,8.1-3.7,8.1-8.2
	C139.7,83.9,136.1,80.2,131.6,80.2z M123.8,52.8h-6.1l0,0H61.8l0,0h-2.9C35.2,52.8,16,72.4,16,96.3v65.9c0,24,19.2,43.5,42.9,43.5
	h64.9c23.7,0,42.9-19.5,42.9-43.5V96.3C166.7,72.4,147.5,52.8,123.8,52.8z M93.6,62.4c-0.7,0-1.5,0.1-2.2,0.1c-0.7,0-1.5,0-2.2-0.1
	H93.6z M155.1,162.2c0,17.5-14,31.8-31.3,31.8H58.9c-17.3,0-31.3-14.2-31.3-31.8V96.3c0-17.5,14-31.8,31.3-31.8h64.9
	c17.3,0,31.3,14.2,31.3,31.8V162.2z"/>
<g id="XMLID_93_">
	<g id="XMLID_100_">
		<rect id="XMLID_102_" x="303.8" y="550.1" class="st3" width="9.7" height="12.1"/>
		<rect id="XMLID_101_" x="300.2" y="535.2" class="st3" width="16.8" height="14.9"/>
	</g>
	<g id="XMLID_97_">
		<rect id="XMLID_99_" x="340.2" y="550.1" class="st3" width="9.7" height="12.1"/>
		<rect id="XMLID_98_" x="336.6" y="535.2" class="st3" width="16.8" height="14.9"/>
	</g>
	<g id="XMLID_94_">
		<rect id="XMLID_96_" x="376.6" y="550.1" class="st3" width="9.7" height="12.1"/>
		<rect id="XMLID_95_" x="373" y="535.2" class="st3" width="16.8" height="14.9"/>
	</g>
</g>
<g id="XMLID_77_">
	<path id="XMLID_89_" class="st6" d="M632.5,64.6h-64.9c-17.3,0-31.3,14.2-31.3,31.7v65.9c0,17.5,14,31.7,31.3,31.7h64.9
		c17.3,0,31.3-14.2,31.3-31.7V96.3C663.8,78.8,649.7,64.6,632.5,64.6z M600,167.3c-20.7,0-37.5-17.1-37.5-38.1
		c0-21,16.8-38.1,37.5-38.1c20.7,0,37.5,17.1,37.5,38.1C637.5,150.3,620.7,167.3,600,167.3z M640.2,96.7c-4.5,0-8.1-3.7-8.1-8.2
		c0-4.5,3.6-8.2,8.1-8.2c4.5,0,8.1,3.7,8.1,8.2C648.3,93,644.7,96.7,640.2,96.7z"/>
	<path id="XMLID_88_" class="st6" d="M600,103c-14.3,0-25.9,11.8-25.9,26.3c0,14.5,11.6,26.3,25.9,26.3c14.3,0,25.9-11.8,25.9-26.3
		C625.9,114.8,614.3,103,600,103z"/>
	<path id="XMLID_87_" class="st7" d="M600,59.4c8.6,0,14.8-3.6,19-8.9l-7.2-4.8c-2.4,3.2-6.8,5.3-11.8,5.3c-5,0-9.4-2.1-11.8-5.3
		l-7.2,4.8C585.2,55.9,591.4,59.4,600,59.4z"/>
	<path id="XMLID_86_" class="st7" d="M591.2,43.8c1.8,2.5,5.1,4.1,8.8,4.1c3.7,0,7-1.6,8.8-4.1l-5-3.3h-7.5L591.2,43.8z"/>
	<path id="XMLID_83_" class="st7" d="M683.4,99.3h-8.1v-3c0-24-19.2-43.5-42.9-43.5h-9.4c-5.4,6-13.8,9.7-23.1,9.7
		c-9.3,0-17.7-3.7-23.1-9.7h-9.4c-23.7,0-42.9,19.5-42.9,43.5v3h-8.1c-3.6,0-6.6,3-6.6,6.7V153c0,3.7,3,6.7,6.6,6.7h8.1v2.5
		c0,24,19.2,43.5,42.9,43.5h64.9c23.6,0,42.9-19.5,42.9-43.5v-2.5h8.1c3.6,0,6.6-3,6.6-6.7V106C690,102.4,687,99.3,683.4,99.3z
		 M663.8,162.2c0,17.5-14,31.7-31.3,31.7h-64.9c-17.3,0-31.3-14.2-31.3-31.7V96.3c0-17.5,14-31.7,31.3-31.7h64.9
		c17.3,0,31.3,14.2,31.3,31.7V162.2z"/>
	<ellipse id="XMLID_82_" class="st7" cx="640.2" cy="88.5" rx="8.1" ry="8.2"/>
	<path id="XMLID_79_" class="st7" d="M600,91.2c-20.7,0-37.5,17.1-37.5,38.1c0,21,16.8,38.1,37.5,38.1c20.7,0,37.5-17.1,37.5-38.1
		C637.5,108.3,620.7,91.2,600,91.2z M600,155.6c-14.3,0-25.9-11.8-25.9-26.3c0-14.5,11.6-26.3,25.9-26.3c14.3,0,25.9,11.8,25.9,26.3
		C625.9,143.8,614.3,155.6,600,155.6z"/>
	<path id="XMLID_78_" class="st7" d="M600,3c-2.1,0-3.8,1.7-3.8,3.8v33.6h7.5V6.8C603.8,4.7,602.1,3,600,3z"/>
</g>
<g id="XMLID_31_">
	<g id="XMLID_62_">
		<g id="XMLID_73_">
			<path id="XMLID_76_" class="st3" d="M211.4,862.9v-98.5c0-4.6-3.7-8.3-8.3-8.3H21.4c-4.6,0-8.3,3.7-8.3,8.3v98.5H211.4z"/>
			<path id="XMLID_75_" class="st3" d="M0.1,857.4c0,0.5-0.1,0.9-0.1,1.4c0,4.8,2.5,8.7,5.6,8.7h213.2c3.1,0,5.6-3.9,5.6-8.7
				c0-0.5,0-0.9-0.1-1.4H0.1z"/>
			<rect id="XMLID_74_" x="20.6" y="764.1" class="st3" width="183.2" height="88.8"/>
		</g>
		<path id="XMLID_72_" class="st8" d="M70.5,723c-1.8,5.2-3.5,9-4.2,18.7c-0.1,1.7,0.1,6.3,0.2,7.9"/>
		<path id="XMLID_71_" class="st8" d="M153,714.9c-8.4-13.3-23-22.2-39.5-22.2c-10.7,0-20.5,3.7-28.4,9.9"/>
		<path id="XMLID_70_" class="st8" d="M160.5,748.2c0.2-1.6,0.2-4.8,0.2-6.5c0-9.9-2.8-19.1-7.7-26.9"/>
		<path id="XMLID_69_" class="st8" d="M91.5,778c-11,0-13.3-5.9-17.4-10.7"/>
		<path id="XMLID_68_" class="st3" d="M148.6,737.6l1.2-26.4c0,0-2.6-3.3-8.8-6.7c-8-4.4-23.2-8.4-42.3-5.5
			c-14.9,2.3-21.5,8.1-21.5,8.1c8.3-2.1,2.3,2.3-3.1,5.2c-6.5,3.5-9.8,0.5-9.8,0.5s0.5,7,6.3,10.3c8.2,4.6,8.5,4.1,8.5,4
			c0,0.1,0.2,7.2,0.5,12.9l-3,5.2l6.3,21.9c4.3,9.7,17.1,19.2,31.4,19.2c14.6,0,26.9-9.2,30.9-19.2l3.6-24.8L148.6,737.6z"/>
		<g id="XMLID_65_">
			<path id="XMLID_67_" class="st3" d="M148.5,739.3l5.4,0.7c3.3,0.4,5.6,3.4,5.2,6.7l-0.3,2.2l1.1,0.1c1.3,0.2,2.3,1.4,2.1,2.7
				l-0.8,6.5c-0.2,1.3-1.4,2.3-2.7,2.2l-1.1-0.1l-0.3,2.2c-0.4,3.3-3.4,5.6-6.7,5.2l-5.4-0.7L148.5,739.3z"/>
			<path id="XMLID_66_" class="st3" d="M79.5,739.3l-5.4,0.7c-3.3,0.4-5.6,3.4-5.2,6.7l0.3,2.2L68,749c-1.3,0.2-2.3,1.4-2.1,2.7
				l0.8,6.5c0.2,1.3,1.4,2.3,2.7,2.2l1.1-0.1l0.3,2.2c0.4,3.3,3.4,5.6,6.7,5.2l5.4-0.7L79.5,739.3z"/>
		</g>
		<path id="XMLID_64_" class="st3" d="M147.4,871.5l4.5-36.8c0,0,12.5,34.4,23.5,36.5c6.7,1.3,12.8-2.1,14.5-8.3
			c1.8-6.2-3-18.1-7.4-30c-4.5-11.9-14.5-33.8-22.6-38c-8-4.2-28.2-8.9-28.2-8.9c-3.7,2.5-12.4,4.8-16.8,4.8c-4.7,0-15.1-1.9-19-4.8
			c0,0-20.2,4.8-28.2,8.9c-8,4.2-18.1,26.1-22.6,38c-4.5,11.9-9.2,23.8-7.4,30c1.8,6.2,7.8,9.6,14.5,8.3c11-2.1,23.5-36.5,23.5-36.5
			l4.5,36.8"/>
		<path id="XMLID_63_" class="st8" d="M66.8,873.4c13.7-1.4,29.4-2.2,46.1-2.2c18.1,0,35,0.9,49.4,2.5"/>
	</g>
	<g id="XMLID_47_">
		<g id="XMLID_58_">
			<path id="XMLID_61_" class="st3" d="M444.2,862.9v-98.5c0-4.6-3.7-8.3-8.3-8.3H254.1c-4.6,0-8.3,3.7-8.3,8.3v98.5H444.2z"/>
			<path id="XMLID_60_" class="st3" d="M232.8,857.4c0,0.5-0.1,0.9-0.1,1.4c0,4.8,2.5,8.7,5.6,8.7h213.2c3.1,0,5.6-3.9,5.6-8.7
				c0-0.5,0-0.9-0.1-1.4H232.8z"/>
			<rect id="XMLID_59_" x="253.4" y="764.1" class="st3" width="183.2" height="88.8"/>
		</g>
		<path id="XMLID_57_" class="st8" d="M303.3,723c-1.8,5.2-3.5,9-4.2,18.7c-0.1,1.7,0.1,6.3,0.2,7.9"/>
		<path id="XMLID_56_" class="st8" d="M385.8,714.9c-8.4-13.3-23-22.2-39.5-22.2c-10.7,0-20.5,3.7-28.4,9.9"/>
		<path id="XMLID_55_" class="st8" d="M393.2,748.2c0.2-1.6,0.2-4.8,0.2-6.5c0-9.9-2.8-19.1-7.7-26.9"/>
		<path id="XMLID_54_" class="st8" d="M324.2,778c-11,0-13.3-5.9-17.4-10.7"/>
		<path id="XMLID_53_" class="st3" d="M381.3,737.6l1.2-26.4c0,0-2.6-3.3-8.8-6.7c-8-4.4-23.2-8.4-42.3-5.5
			c-14.9,2.3-21.5,8.1-21.5,8.1c8.3-2.1,2.3,2.3-3.1,5.2c-6.5,3.5-9.8,0.5-9.8,0.5s0.5,7,6.3,10.3c8.2,4.6,8.5,4.1,8.5,4
			c0,0.1,0.2,7.2,0.5,12.9l-3,5.2l6.3,21.9c4.3,9.7,17.1,19.2,31.4,19.2c14.6,0,26.9-9.2,30.9-19.2l3.6-24.8L381.3,737.6z"/>
		<g id="XMLID_50_">
			<path id="XMLID_52_" class="st3" d="M381.3,739.3l5.4,0.7c3.3,0.4,5.6,3.4,5.2,6.7l-0.3,2.2l1.1,0.1c1.3,0.2,2.3,1.4,2.1,2.7
				l-0.8,6.5c-0.2,1.3-1.4,2.3-2.7,2.2l-1.1-0.1l-0.3,2.2c-0.4,3.3-3.4,5.6-6.7,5.2l-5.4-0.7L381.3,739.3z"/>
			<path id="XMLID_51_" class="st3" d="M312.2,739.3l-5.4,0.7c-3.3,0.4-5.6,3.4-5.2,6.7l0.3,2.2l-1.1,0.1c-1.3,0.2-2.3,1.4-2.1,2.7
				l0.8,6.5c0.2,1.3,1.4,2.3,2.7,2.2l1.1-0.1l0.3,2.2c0.4,3.3,3.4,5.6,6.7,5.2l5.4-0.7L312.2,739.3z"/>
		</g>
		<path id="XMLID_49_" class="st3" d="M380.2,871.5l4.5-36.8c0,0,12.5,34.4,23.5,36.5c6.7,1.3,12.8-2.1,14.5-8.3
			c1.8-6.2-3-18.1-7.4-30c-4.5-11.9-14.5-33.8-22.6-38c-8-4.2-28.2-8.9-28.2-8.9c-3.7,2.5-12.4,4.8-16.8,4.8c-4.7,0-15.1-1.9-19-4.8
			c0,0-20.2,4.8-28.2,8.9c-8,4.2-18.1,26.1-22.6,38c-4.5,11.9-9.2,23.8-7.4,30c1.8,6.2,7.8,9.6,14.5,8.3c11-2.1,23.5-36.5,23.5-36.5
			l4.5,36.8"/>
		<path id="XMLID_48_" class="st8" d="M299.6,873.4c13.7-1.4,29.4-2.2,46.1-2.2c18.1,0,35,0.9,49.4,2.5"/>
	</g>
	<g id="XMLID_32_">
		<g id="XMLID_43_">
			<path id="XMLID_46_" class="st3" d="M676.9,862.9v-98.5c0-4.6-3.7-8.3-8.3-8.3H486.9c-4.6,0-8.3,3.7-8.3,8.3v98.5H676.9z"/>
			<path id="XMLID_45_" class="st3" d="M465.6,857.4c0,0.5-0.1,0.9-0.1,1.4c0,4.8,2.5,8.7,5.6,8.7h213.2c3.1,0,5.6-3.9,5.6-8.7
				c0-0.5,0-0.9-0.1-1.4H465.6z"/>
			<rect id="XMLID_44_" x="486.2" y="764.1" class="st3" width="183.2" height="88.8"/>
		</g>
		<path id="XMLID_42_" class="st8" d="M536.1,723c-1.8,5.2-3.5,9-4.2,18.7c-0.1,1.7,0.1,6.3,0.2,7.9"/>
		<path id="XMLID_41_" class="st8" d="M618.5,714.9c-8.4-13.3-23-22.2-39.5-22.2c-10.7,0-20.5,3.7-28.4,9.9"/>
		<path id="XMLID_40_" class="st8" d="M626,748.2c0.2-1.6,0.2-4.8,0.2-6.5c0-9.9-2.8-19.1-7.7-26.9"/>
		<path id="XMLID_39_" class="st8" d="M557,778c-11,0-13.3-5.9-17.4-10.7"/>
		<path id="XMLID_38_" class="st3" d="M614.1,737.6l1.2-26.4c0,0-2.6-3.3-8.8-6.7c-8-4.4-23.2-8.4-42.3-5.5
			c-14.9,2.3-21.5,8.1-21.5,8.1c8.3-2.1,2.3,2.3-3.1,5.2c-6.5,3.5-9.8,0.5-9.8,0.5s0.5,7,6.3,10.3c8.2,4.6,8.5,4.1,8.5,4
			c0,0.1,0.2,7.2,0.5,12.9l-3,5.2l6.3,21.9c4.3,9.7,17.1,19.2,31.4,19.2c14.6,0,26.9-9.2,30.9-19.2l3.6-24.8L614.1,737.6z"/>
		<g id="XMLID_35_">
			<path id="XMLID_37_" class="st3" d="M614,739.3l5.4,0.7c3.3,0.4,5.6,3.4,5.2,6.7l-0.3,2.2l1.1,0.1c1.3,0.2,2.3,1.4,2.1,2.7
				l-0.8,6.5c-0.2,1.3-1.4,2.3-2.7,2.2l-1.1-0.1l-0.3,2.2c-0.4,3.3-3.4,5.6-6.7,5.2l-5.4-0.7L614,739.3z"/>
			<path id="XMLID_36_" class="st3" d="M545,739.3l-5.4,0.7c-3.3,0.4-5.6,3.4-5.2,6.7l0.3,2.2l-1.1,0.1c-1.3,0.2-2.3,1.4-2.1,2.7
				l0.8,6.5c0.2,1.3,1.4,2.3,2.7,2.2l1.1-0.1l0.3,2.2c0.4,3.3,3.4,5.6,6.7,5.2l5.4-0.7L545,739.3z"/>
		</g>
		<path id="XMLID_34_" class="st3" d="M613,871.5l4.5-36.8c0,0,12.5,34.4,23.5,36.5c6.7,1.3,12.8-2.1,14.5-8.3
			c1.8-6.2-3-18.1-7.4-30c-4.5-11.9-14.5-33.8-22.6-38c-8-4.2-28.2-8.9-28.2-8.9c-3.7,2.5-12.4,4.8-16.8,4.8c-4.7,0-15.1-1.9-19-4.8
			c0,0-20.2,4.8-28.2,8.9c-8,4.2-18.1,26.1-22.6,38c-4.5,11.9-9.2,23.8-7.4,30c1.8,6.2,7.8,9.6,14.6,8.3c11-2.1,23.5-36.5,23.5-36.5
			l4.5,36.8"/>
		<path id="XMLID_33_" class="st8" d="M532.3,873.4c13.7-1.4,29.4-2.2,46.1-2.2c18.1,0,35,0.9,49.4,2.5"/>
	</g>
</g>
<g id="XMLID_24_">
	<linearGradient id="XMLID_20_" gradientUnits="userSpaceOnUse" x1="279.3541" y1="129.2737" x2="390.6465" y2="129.2737">
		<stop  offset="0" style="stop-color:#F4A44F"/>
		<stop  offset="0.35" style="stop-color:#E5493B"/>
		<stop  offset="0.6989" style="stop-color:#618BC8"/>
		<stop  offset="1" style="stop-color:#618BC8"/>
	</linearGradient>
	<path id="XMLID_25_" class="st9" d="M300.6,103.2c-1.7,1.3-2.1,3.8-0.8,5.5c4.5,6,6.8,13.1,6.8,20.6c0,7.5-2.4,14.6-6.8,20.6
		c-1.3,1.7-1,4.2,0.8,5.5c1.6,1.2,3.8,1,5.1-0.4c0.1-0.1,0.3-0.3,0.4-0.4c5.5-7.4,8.4-16.1,8.4-25.3c0-9.2-2.9-18-8.4-25.3
		C304.8,102.2,302.4,101.9,300.6,103.2z M280.9,117.8c-1.7,1.3-2.1,3.8-0.7,5.5c1.3,1.7,2,3.8,2,5.9c0,2.2-0.7,4.2-2,5.9
		c-1.3,1.7-1,4.2,0.7,5.5c1.6,1.2,3.8,1,5.2-0.3c0.1-0.1,0.2-0.3,0.3-0.4c2.4-3.1,3.6-6.8,3.6-10.7c0-3.9-1.3-7.6-3.6-10.7
		C285.1,116.8,282.6,116.5,280.9,117.8z M326,90.2c-1.3-1.7-3.8-2.1-5.5-0.8c-1.7,1.3-2.1,3.8-0.8,5.5c7.5,10,11.4,21.8,11.4,34.3
		c0,12.5-3.9,24.4-11.4,34.3c-1.3,1.7-1,4.2,0.8,5.5c1.6,1.2,3.8,1,5.1-0.4c0.1-0.1,0.3-0.3,0.4-0.4c8.5-11.3,13-24.8,13-39
		C339,115.1,334.5,101.6,326,90.2z M345.7,76.2c-1.3-1.7-3.8-2.1-5.5-0.8c-1.7,1.3-2.1,3.8-0.8,5.5c10.5,14,16.1,30.8,16.1,48.4
		c0,17.6-5.6,34.3-16.1,48.4c-1.3,1.7-1,4.2,0.8,5.5c1.6,1.2,3.8,1,5.1-0.4c0.1-0.1,0.3-0.3,0.4-0.4c11.6-15.4,17.7-33.8,17.7-53.1
		C363.4,110,357.3,91.6,345.7,76.2z M366,63.1c-0.9,0-1.7,0.3-2.4,0.8c-1.8,1.3-2.1,3.9-0.8,5.6c13,17.3,19.8,38,19.9,59.7
		c0,21.7-6.9,42.3-19.9,59.7c-1.3,1.8-1,4.3,0.8,5.6c0.7,0.5,1.5,0.8,2.4,0.8c1.1,0,2.1-0.4,2.9-1.2c0.1-0.1,0.3-0.3,0.4-0.4
		c14-18.7,21.5-41,21.5-64.5c0-23.5-7.4-45.8-21.5-64.5C368.4,63.7,367.2,63.1,366,63.1z"/>
</g>
<g id="XMLID_2_">
	<rect id="XMLID_23_" x="222.1" y="436.4" class="st10" width="245.9" height="100"/>
	<circle id="XMLID_22_" class="st11" cx="449" cy="455.1" r="5"/>
	<line id="XMLID_5_" class="st12" x1="223" y1="454.7" x2="235.5" y2="454.7"/>
	<line id="XMLID_4_" class="st12" x1="223" y1="462.6" x2="235.5" y2="462.6"/>
	<line id="XMLID_3_" class="st12" x1="223" y1="470.6" x2="235.5" y2="470.6"/>
</g>
</svg>
