<?xml version="1.0" encoding="utf-8"?>
<!-- Generator: Adobe Illustrator 19.0.0, SVG Export Plug-In . SVG Version: 6.00 Build 0)  -->
<svg version="1.1" id="Layer_1" xmlns="http://www.w3.org/2000/svg" xmlns:xlink="http://www.w3.org/1999/xlink" x="0px" y="0px"
	 viewBox="0 0 888 251.9" style="enable-background:new 0 0 888 251.9;" xml:space="preserve">
<style type="text/css">
	.st0{fill:none;stroke:url(#XMLID_117_);stroke-width:8;stroke-miterlimit:10;}
	.st1{fill:none;stroke:url(#XMLID_118_);stroke-width:3.5;stroke-miterlimit:10;}
	.st2{fill:none;stroke:url(#XMLID_119_);stroke-width:3.5;stroke-miterlimit:10;}
	.st3{fill:#FFFFFF;stroke:#618BC8;stroke-width:2.4979;stroke-linecap:round;stroke-linejoin:round;stroke-miterlimit:10;}
	.st4{fill:#FFFFFF;stroke:#618BC8;stroke-width:1.5;stroke-linecap:round;stroke-linejoin:round;stroke-miterlimit:10;}
	.st5{fill:none;stroke:url(#XMLID_120_);stroke-width:3.5;stroke-miterlimit:10;}
	.st6{fill:url(#XMLID_121_);}
	.st7{fill:none;}
	.st8{fill:#618BC8;}
	.st9{fill:none;stroke:#618BC8;stroke-width:1.5;stroke-linecap:round;stroke-linejoin:round;stroke-miterlimit:10;}
	.st10{fill:url(#XMLID_122_);}
	.st11{fill:#6ABD45;stroke:#618BC8;stroke-width:1.5;stroke-linecap:round;stroke-linejoin:round;stroke-miterlimit:10;}
	.st12{fill:none;stroke:#618BC8;stroke-width:1.5;stroke-linejoin:round;stroke-miterlimit:10;}
</style>
<linearGradient id="XMLID_117_" gradientUnits="userSpaceOnUse" x1="534.6299" y1="92.2902" x2="313.724" y2="92.2902">
	<stop  offset="0" style="stop-color:#F4A44F"/>
	<stop  offset="0.35" style="stop-color:#E5493B"/>
	<stop  offset="0.6989" style="stop-color:#C21A7A"/>
	<stop  offset="1" style="stop-color:#A5228B"/>
</linearGradient>
<path id="XMLID_102_" class="st0" d="M534.6,52.4H386h-7c-6.2,0-11.2-5-11.2-11.2l0,0v-2.6V12.3c0-4-3.3-7.3-7.3-7.3l0,0l0,0
	c-4,0-7.3,3.3-7.3,7.3V153v11v4.4c0,6.2-5,11.2-11.2,11.2l0,0h0.3c-16.8,0.5-18.1-8.2-25.2-19.6"/>
<linearGradient id="XMLID_118_" gradientUnits="userSpaceOnUse" x1="522.2852" y1="84.5406" x2="522.2852" y2="200.2059">
	<stop  offset="0" style="stop-color:#F4A44F"/>
	<stop  offset="0.35" style="stop-color:#E5493B"/>
	<stop  offset="0.6989" style="stop-color:#C21A7A"/>
	<stop  offset="1" style="stop-color:#A5228B"/>
</linearGradient>
<path id="XMLID_101_" class="st1" d="M616.9,84.5v19.1v9.7c0,3.5-2.9,6.4-6.5,6.4l0,0c-3.6,0-6.5-2.9-6.5-6.4v-7.8
	c0-2.7-2.9-5.6-6.5-5.6l0,0c-3.6,0-6.5,2.9-6.5,6.4v34c0,3.5-2.9,6.4-6.5,6.4l0,0h-2.8h-58.4H520h-3.7c-3.6,0-6.5-2.9-6.5-6.4l0,0
	v-6.6v-15c0-3.5-2.9-6.4-6.5-6.4l0,0h-4.9h-42.2c-3.6,0-6.5,2.9-6.5,6.4l0,0c0,3.5,2.9,6.4,5.6,6.4h20.9h2.4h2.7
	c2.7,0,5.6,2.9,5.6,6.4l0,0c0,3.5-2.9,6.4-6.5,6.4h-41.5h-5l0,0c-3.6,0-6.5,2.9-6.5,6.4v55.7"/>
<linearGradient id="XMLID_119_" gradientUnits="userSpaceOnUse" x1="751.8145" y1="83.6805" x2="751.8145" y2="203.8199">
	<stop  offset="0.1935" style="stop-color:#F4A44F"/>
	<stop  offset="0.4038" style="stop-color:#E5493B"/>
	<stop  offset="0.6989" style="stop-color:#C21A7A"/>
	<stop  offset="1" style="stop-color:#A5228B"/>
</linearGradient>
<path id="XMLID_100_" class="st2" d="M847.2,203.8v-63.1l0,0c0-3.5-2.9-6.4-6.5-6.4H704.6c-3.6,0-6.5-2.9-6.5-6.4l0,0
	c0-3.5,2.9-6.4,6.5-6.4h86.1c3.6,0,6.5-2.9,6.5-6.4l0,0c0-3.5-2.9-6.4-6.5-6.4H662.8c-3.6,0-6.5-2.9-6.5-6.4l0,0V83.7"/>
<g id="XMLID_97_">
	<polygon id="XMLID_99_" class="st3" points="309.3,155.7 315.4,167.2 324.2,162.5 318.1,151.1 	"/>
	<polygon id="XMLID_98_" class="st3" points="298.3,142.9 306.1,157.5 321.3,149.3 313.5,134.7 	"/>
</g>
<g id="XMLID_94_">
	<rect id="XMLID_96_" x="530" y="48.2" class="st4" width="11.2" height="8.5"/>
	<rect id="XMLID_95_" x="541.2" y="45.1" class="st4" width="14.2" height="14.7"/>
</g>
<linearGradient id="XMLID_120_" gradientUnits="userSpaceOnUse" x1="648.4316" y1="82.9505" x2="648.4316" y2="205.4068">
	<stop  offset="0.1935" style="stop-color:#F4A44F"/>
	<stop  offset="0.4038" style="stop-color:#E5493B"/>
	<stop  offset="0.6989" style="stop-color:#C21A7A"/>
	<stop  offset="1" style="stop-color:#A5228B"/>
</linearGradient>
<path id="XMLID_93_" class="st5" d="M636.7,83v24.3v2.3l0,0c0,3.5,2.9,6.4,6.5,6.4h3.7c3.6,0,6.5,2.9,6.5,6.4l0,0
	c0,3.5-2.9,6.4-6.5,6.4h-2.7h-3.2h-10.1c-2.7,0-5.6,2.9-5.6,6.4l0,0c0,3.5,2.9,6.4,6.5,6.4h33.5c3.5,0,6.5,2.9,6.5,6.4l0,0v4.1v13.6
	v39.5"/>
<linearGradient id="XMLID_121_" gradientUnits="userSpaceOnUse" x1="3460.4736" y1="136.1968" x2="3532.3618" y2="64.3087" gradientTransform="matrix(1 0 0 1 -3429.4883 0)">
	<stop  offset="0" style="stop-color:#F4A44F"/>
	<stop  offset="0.35" style="stop-color:#E5493B"/>
	<stop  offset="0.6989" style="stop-color:#C21A7A"/>
	<stop  offset="1" style="stop-color:#A5228B"/>
</linearGradient>
<path id="XMLID_84_" class="st6" d="M66.9,78.6c-11.8,0-21.3,9.7-21.3,21.6c0,11.9,9.6,21.6,21.3,21.6c11.8,0,21.3-9.7,21.3-21.6
	C88.3,88.3,78.7,78.6,66.9,78.6z M66.9,115.2c-8.1,0-14.8-6.7-14.8-14.9c0-8.2,6.6-14.9,14.8-14.9s14.8,6.7,14.8,14.9
	C81.7,108.5,75.1,115.2,66.9,115.2z M89.8,72.4c-2.5,0-4.6,2.1-4.6,4.7c0,2.6,2.1,4.7,4.6,4.7c2.5,0,4.6-2.1,4.6-4.7
	C94.4,74.5,92.4,72.4,89.8,72.4z M85.4,56.8h-3.5l0,0H50.1l0,0h-1.7c-13.5,0-24.4,11.1-24.4,24.7V119c0,13.6,10.9,24.7,24.4,24.7
	h36.9c13.5,0,24.4-11.1,24.4-24.7V81.5C109.8,67.9,98.8,56.8,85.4,56.8z M68.2,62.3c-0.4,0-0.8,0-1.3,0c-0.4,0-0.8,0-1.3,0H68.2z
	 M103.2,119c0,9.9-8,18-17.8,18H48.5c-9.8,0-17.8-8.1-17.8-18V81.5c0-9.9,8-18,17.8-18h36.9c9.8,0,17.8,8.1,17.8,18V119z"/>
<g id="XMLID_74_">
	<g id="XMLID_81_">
		<rect id="XMLID_83_" x="614.3" y="80.4" class="st4" width="5.2" height="6.5"/>
		<rect id="XMLID_82_" x="612.4" y="72.3" class="st4" width="9.1" height="8.1"/>
	</g>
	<g id="XMLID_78_">
		<rect id="XMLID_80_" x="634" y="80.4" class="st4" width="5.2" height="6.5"/>
		<rect id="XMLID_79_" x="632.1" y="72.3" class="st4" width="9.1" height="8.1"/>
	</g>
	<g id="XMLID_75_">
		<rect id="XMLID_77_" x="653.8" y="80.4" class="st4" width="5.2" height="6.5"/>
		<rect id="XMLID_76_" x="651.8" y="72.3" class="st4" width="9.1" height="8.1"/>
	</g>
</g>
<g id="XMLID_58_">
	<path id="XMLID_70_" class="st7" d="M296.5,63.5h-36.9c-9.8,0-17.8,8.1-17.8,18V119c0,9.9,8,18,17.8,18h36.9
		c9.8,0,17.8-8.1,17.8-18V81.5C314.3,71.6,306.3,63.5,296.5,63.5z M278,121.9c-11.8,0-21.3-9.7-21.3-21.6c0-11.9,9.6-21.6,21.3-21.6
		c11.8,0,21.3,9.7,21.3,21.6C299.3,112.2,289.8,121.9,278,121.9z M300.9,81.7c-2.5,0-4.6-2.1-4.6-4.7c0-2.6,2.1-4.7,4.6-4.7
		c2.5,0,4.6,2.1,4.6,4.7C305.5,79.7,303.4,81.7,300.9,81.7z"/>
	<path id="XMLID_69_" class="st7" d="M278,85.3c-8.1,0-14.7,6.7-14.7,14.9c0,8.2,6.6,14.9,14.7,14.9c8.1,0,14.8-6.7,14.8-14.9
		C292.7,92,286.1,85.3,278,85.3z"/>
	<path id="XMLID_68_" class="st8" d="M278,60.6c4.9,0,8.4-2,10.8-5.1l-4.1-2.7c-1.4,1.8-3.9,3-6.7,3c-2.9,0-5.3-1.2-6.7-3l-4.1,2.7
		C269.6,58.6,273.1,60.6,278,60.6z"/>
	<path id="XMLID_67_" class="st8" d="M273,51.7c1,1.4,2.9,2.3,5,2.3c2.1,0,4-0.9,5-2.3l-2.8-1.9h-4.3L273,51.7z"/>
	<path id="XMLID_64_" class="st8" d="M325.4,83.2h-4.6v-1.7c0-13.6-10.9-24.7-24.4-24.7h-5.3c-3.1,3.4-7.9,5.5-13.1,5.5
		c-5.3,0-10.1-2.1-13.1-5.5h-5.3c-13.5,0-24.4,11.1-24.4,24.7v1.7h-4.6c-2.1,0-3.8,1.7-3.8,3.8v26.7c0,2.1,1.7,3.8,3.8,3.8h4.6v1.4
		c0,13.6,10.9,24.7,24.4,24.7h36.9c13.5,0,24.4-11.1,24.4-24.7v-1.4h4.6c2.1,0,3.8-1.7,3.8-3.8V87.1C329.2,85,327.5,83.2,325.4,83.2
		z M314.3,119c0,9.9-8,18-17.8,18h-36.9c-9.8,0-17.8-8.1-17.8-18V81.5c0-9.9,8-18,17.8-18h36.9c9.8,0,17.8,8.1,17.8,18V119z"/>
	<ellipse id="XMLID_63_" class="st8" cx="300.9" cy="77.1" rx="4.6" ry="4.7"/>
	<path id="XMLID_60_" class="st8" d="M278,78.6c-11.8,0-21.3,9.7-21.3,21.6c0,11.9,9.6,21.6,21.3,21.6c11.8,0,21.3-9.7,21.3-21.6
		C299.3,88.3,289.8,78.6,278,78.6z M278,115.2c-8.1,0-14.7-6.7-14.7-14.9c0-8.2,6.6-14.9,14.7-14.9c8.1,0,14.8,6.7,14.8,14.9
		C292.7,108.5,286.1,115.2,278,115.2z"/>
	<path id="XMLID_59_" class="st8" d="M278,28.5c-1.2,0-2.1,1-2.1,2.2v19.1h4.3V30.7C280.1,29.5,279.2,28.5,278,28.5z"/>
</g>
<g id="XMLID_12_">
	<g id="XMLID_43_">
		<g id="XMLID_54_">
			<path id="XMLID_57_" class="st4" d="M523.7,245v-53.3c0-2.5-2-4.5-4.5-4.5h-98.5c-2.5,0-4.5,2-4.5,4.5V245H523.7z"/>
			<path id="XMLID_56_" class="st4" d="M409.2,242c0,0.2,0,0.5,0,0.7c0,2.6,1.4,4.7,3.1,4.7h115.5c1.7,0,3.1-2.1,3.1-4.7
				c0-0.3,0-0.5,0-0.7H409.2z"/>
			<rect id="XMLID_55_" x="420.4" y="191.5" class="st4" width="99.3" height="48"/>
		</g>
		<path id="XMLID_53_" class="st9" d="M447.4,169.3c-1,2.8-1.9,4.9-2.3,10.1c-0.1,0.9,0,3.4,0.1,4.3"/>
		<path id="XMLID_52_" class="st9" d="M492.1,164.9c-4.6-7.2-12.4-12-21.4-12c-5.8,0-11.1,2-15.4,5.3"/>
		<path id="XMLID_51_" class="st9" d="M496.1,182.9c0.1-0.9,0.1-2.6,0.1-3.5c0-5.4-1.5-10.4-4.2-14.5"/>
		<path id="XMLID_50_" class="st9" d="M458.7,199c-6,0-7.2-3.2-9.4-5.8"/>
		<path id="XMLID_49_" class="st4" d="M489.7,177.2l0.7-14.3c0,0-1.4-1.8-4.8-3.6c-4.3-2.4-12.6-4.6-22.9-3
			c-8.1,1.2-11.7,4.4-11.7,4.4c4.5-1.1,1.2,1.2-1.7,2.8c-3.5,1.9-5.3,0.3-5.3,0.3s0.3,3.8,3.4,5.6c4.4,2.5,4.6,2.2,4.6,2.2
			c0,0.1,0.1,3.9,0.3,7l-1.7,2.8l3.4,11.9c2.3,5.2,9.2,10.4,17,10.4c7.9,0,14.6-5,16.8-10.4l2-13.4L489.7,177.2z"/>
		<g id="XMLID_46_">
			<path id="XMLID_48_" class="st4" d="M489.6,178.1l2.9,0.4c1.8,0.2,3.1,1.8,2.8,3.6l-0.1,1.2l0.6,0.1c0.7,0.1,1.3,0.8,1.2,1.5
				l-0.4,3.5c-0.1,0.7-0.8,1.3-1.5,1.2l-0.6-0.1l-0.1,1.2c-0.2,1.8-1.8,3.1-3.6,2.8l-2.9-0.4L489.6,178.1z"/>
			<path id="XMLID_47_" class="st4" d="M452.2,178.1l-2.9,0.4c-1.8,0.2-3.1,1.8-2.8,3.6l0.1,1.2l-0.6,0.1c-0.7,0.1-1.3,0.8-1.2,1.5
				l0.4,3.5c0.1,0.7,0.8,1.3,1.5,1.2l0.6-0.1l0.1,1.2c0.2,1.8,1.8,3.1,3.6,2.8l2.9-0.4L452.2,178.1z"/>
		</g>
		<path id="XMLID_45_" class="st4" d="M489.1,249.6l2.4-19.9c0,0,6.8,18.6,12.7,19.8c3.6,0.7,6.9-1.1,7.9-4.5c1-3.4-1.6-9.8-4-16.2
			c-2.4-6.4-7.9-18.3-12.2-20.6c-4.3-2.2-15.3-4.8-15.3-4.8c-2,1.4-6.7,2.6-9.1,2.6c-2.6,0-8.2-1-10.3-2.6c0,0-10.9,2.6-15.3,4.8
			c-4.3,2.2-9.8,14.1-12.2,20.6c-2.4,6.4-5,12.9-4,16.2c1,3.4,4.2,5.2,7.9,4.5c6-1.1,12.7-19.8,12.7-19.8l2.4,19.9"/>
		<path id="XMLID_44_" class="st9" d="M445.4,250.6c7.4-0.7,15.9-1.2,25-1.2c9.8,0,18.9,0.5,26.8,1.4"/>
	</g>
	<g id="XMLID_28_">
		<g id="XMLID_39_">
			<path id="XMLID_42_" class="st4" d="M689.8,245v-53.3c0-2.5-2-4.5-4.5-4.5h-98.5c-2.5,0-4.5,2-4.5,4.5V245H689.8z"/>
			<path id="XMLID_41_" class="st4" d="M575.3,242c0,0.2,0,0.5,0,0.7c0,2.6,1.4,4.7,3.1,4.7h115.5c1.7,0,3.1-2.1,3.1-4.7
				c0-0.3,0-0.5,0-0.7H575.3z"/>
			<rect id="XMLID_40_" x="586.4" y="191.5" class="st4" width="99.3" height="48"/>
		</g>
		<path id="XMLID_38_" class="st9" d="M613.5,169.3c-1,2.8-1.9,4.9-2.3,10.1c-0.1,0.9,0,3.4,0.1,4.3"/>
		<path id="XMLID_37_" class="st9" d="M658.1,164.9c-4.6-7.2-12.4-12-21.4-12c-5.8,0-11.1,2-15.4,5.3"/>
		<path id="XMLID_36_" class="st9" d="M662.2,182.9c0.1-0.9,0.1-2.6,0.1-3.5c0-5.4-1.5-10.4-4.2-14.5"/>
		<path id="XMLID_35_" class="st9" d="M624.8,199c-6,0-7.2-3.2-9.4-5.8"/>
		<path id="XMLID_34_" class="st4" d="M655.7,177.2l0.7-14.3c0,0-1.4-1.8-4.8-3.6c-4.3-2.4-12.6-4.6-22.9-3
			c-8.1,1.2-11.7,4.4-11.7,4.4c4.5-1.1,1.2,1.2-1.7,2.8c-3.5,1.9-5.3,0.3-5.3,0.3s0.3,3.8,3.4,5.6c4.4,2.5,4.6,2.2,4.6,2.2
			c0,0.1,0.1,3.9,0.3,7l-1.7,2.8l3.4,11.9c2.3,5.2,9.2,10.4,17,10.4c7.9,0,14.6-5,16.8-10.4l2-13.4L655.7,177.2z"/>
		<g id="XMLID_31_">
			<path id="XMLID_33_" class="st4" d="M655.7,178.1l2.9,0.4c1.8,0.2,3.1,1.8,2.8,3.6l-0.1,1.2l0.6,0.1c0.7,0.1,1.3,0.8,1.2,1.5
				l-0.4,3.5c-0.1,0.7-0.8,1.3-1.5,1.2l-0.6-0.1l-0.1,1.2c-0.2,1.8-1.8,3.1-3.6,2.8l-2.9-0.4L655.7,178.1z"/>
			<path id="XMLID_32_" class="st4" d="M618.3,178.1l-2.9,0.4c-1.8,0.2-3.1,1.8-2.8,3.6l0.1,1.2l-0.6,0.1c-0.7,0.1-1.3,0.8-1.2,1.5
				l0.4,3.5c0.1,0.7,0.8,1.3,1.5,1.2l0.6-0.1l0.2,1.2c0.2,1.8,1.8,3.1,3.6,2.8l2.9-0.4L618.3,178.1z"/>
		</g>
		<path id="XMLID_30_" class="st4" d="M655.1,249.6l2.4-19.9c0,0,6.8,18.6,12.7,19.8c3.6,0.7,6.9-1.1,7.9-4.5c1-3.4-1.6-9.8-4-16.2
			c-2.4-6.4-7.9-18.3-12.2-20.6c-4.3-2.2-15.3-4.8-15.3-4.8c-2,1.4-6.7,2.6-9.1,2.6c-2.6,0-8.2-1-10.3-2.6c0,0-10.9,2.6-15.3,4.8
			c-4.3,2.2-9.8,14.1-12.2,20.6c-2.4,6.4-5,12.9-4,16.2c1,3.4,4.2,5.2,7.9,4.5c6-1.1,12.7-19.8,12.7-19.8l2.4,19.9"/>
		<path id="XMLID_29_" class="st9" d="M611.4,250.6c7.4-0.7,15.9-1.2,25-1.2c9.8,0,18.9,0.5,26.8,1.4"/>
	</g>
	<g id="XMLID_13_">
		<g id="XMLID_24_">
			<path id="XMLID_27_" class="st4" d="M856.9,245v-53.3c0-2.5-2-4.5-4.5-4.5h-98.5c-2.5,0-4.5,2-4.5,4.5V245H856.9z"/>
			<path id="XMLID_26_" class="st4" d="M742.3,242c0,0.2,0,0.5,0,0.7c0,2.6,1.4,4.7,3.1,4.7h115.5c1.7,0,3.1-2.1,3.1-4.7
				c0-0.3,0-0.5,0-0.7H742.3z"/>
			<rect id="XMLID_25_" x="753.5" y="191.5" class="st4" width="99.3" height="48"/>
		</g>
		<path id="XMLID_23_" class="st9" d="M780.5,169.3c-1,2.8-1.9,4.9-2.3,10.1c-0.1,0.9,0,3.4,0.1,4.3"/>
		<path id="XMLID_22_" class="st9" d="M825.2,164.9c-4.6-7.2-12.4-12-21.4-12c-5.8,0-11.1,2-15.4,5.3"/>
		<path id="XMLID_21_" class="st9" d="M829.3,182.9c0.1-0.9,0.1-2.6,0.1-3.5c0-5.4-1.5-10.4-4.2-14.5"/>
		<path id="XMLID_20_" class="st9" d="M791.9,199c-6,0-7.2-3.2-9.4-5.8"/>
		<path id="XMLID_19_" class="st4" d="M822.8,177.2l0.7-14.3c0,0-1.4-1.8-4.8-3.6c-4.3-2.4-12.6-4.6-22.9-3
			c-8.1,1.2-11.7,4.4-11.7,4.4c4.5-1.1,1.2,1.2-1.7,2.8c-3.5,1.9-5.3,0.3-5.3,0.3s0.3,3.8,3.4,5.6c4.4,2.5,4.6,2.2,4.6,2.2
			c0,0.1,0.1,3.9,0.3,7l-1.7,2.8l3.4,11.9c2.3,5.2,9.2,10.4,17,10.4c7.9,0,14.6-5,16.8-10.4l2-13.4L822.8,177.2z"/>
		<g id="XMLID_16_">
			<path id="XMLID_18_" class="st4" d="M822.8,178.1l2.9,0.4c1.8,0.2,3.1,1.8,2.8,3.6l-0.2,1.2l0.6,0.1c0.7,0.1,1.3,0.8,1.2,1.5
				l-0.4,3.5c-0.1,0.7-0.8,1.3-1.5,1.2l-0.6-0.1l-0.1,1.2c-0.2,1.8-1.8,3.1-3.6,2.8l-2.9-0.4L822.8,178.1z"/>
			<path id="XMLID_17_" class="st4" d="M785.4,178.1l-2.9,0.4c-1.8,0.2-3.1,1.8-2.8,3.6l0.1,1.2l-0.6,0.1c-0.7,0.1-1.3,0.8-1.2,1.5
				l0.4,3.5c0.1,0.7,0.8,1.3,1.5,1.2l0.6-0.1l0.1,1.2c0.2,1.8,1.8,3.1,3.6,2.8l2.9-0.4L785.4,178.1z"/>
		</g>
		<path id="XMLID_15_" class="st4" d="M822.2,249.6l2.4-19.9c0,0,6.8,18.6,12.7,19.8c3.6,0.7,6.9-1.1,7.9-4.5c1-3.4-1.6-9.8-4-16.2
			c-2.4-6.4-7.9-18.3-12.2-20.6c-4.3-2.2-15.3-4.8-15.3-4.8c-2,1.4-6.7,2.6-9.1,2.6c-2.6,0-8.2-1-10.3-2.6c0,0-10.9,2.6-15.3,4.8
			c-4.3,2.2-9.8,14.1-12.2,20.6c-2.4,6.4-5,12.9-4,16.2c1,3.4,4.2,5.2,7.9,4.5c6-1.1,12.7-19.8,12.7-19.8l2.4,19.9"/>
		<path id="XMLID_14_" class="st9" d="M778.5,250.6c7.4-0.7,15.9-1.2,25-1.2c9.8,0,18.9,0.5,26.8,1.4"/>
	</g>
</g>
<linearGradient id="XMLID_122_" gradientUnits="userSpaceOnUse" x1="137.7682" y1="100.2529" x2="196.2412" y2="100.2529">
	<stop  offset="0" style="stop-color:#F4A44F"/>
	<stop  offset="0.35" style="stop-color:#E5493B"/>
	<stop  offset="0.6989" style="stop-color:#618BC8"/>
	<stop  offset="1" style="stop-color:#618BC8"/>
</linearGradient>
<path id="XMLID_6_" class="st10" d="M148.9,86.6c-0.9,0.7-1.1,2-0.4,2.9c2.4,3.1,3.6,6.9,3.6,10.8c0,3.9-1.2,7.7-3.6,10.8
	c-0.7,0.9-0.5,2.2,0.4,2.9c0.8,0.6,2,0.5,2.7-0.2c0.1-0.1,0.1-0.1,0.2-0.2c2.9-3.9,4.4-8.4,4.4-13.3c0-4.8-1.5-9.4-4.4-13.3
	C151.2,86.1,149.9,85.9,148.9,86.6z M138.6,94.2c-0.9,0.7-1.1,2-0.4,2.9c0.7,0.9,1.1,2,1.1,3.1c0,1.1-0.4,2.2-1.1,3.1
	c-0.7,0.9-0.5,2.2,0.4,2.9c0.8,0.6,2,0.5,2.7-0.2c0.1-0.1,0.1-0.1,0.2-0.2c1.2-1.6,1.9-3.6,1.9-5.6c0-2-0.7-4-1.9-5.6
	C140.8,93.7,139.5,93.6,138.6,94.2z M162.3,79.8c-0.7-0.9-2-1.1-2.9-0.4c-0.9,0.7-1.1,2-0.4,2.9c3.9,5.2,6,11.5,6,18
	c0,6.6-2.1,12.8-6,18c-0.7,0.9-0.5,2.2,0.4,2.9c0.8,0.6,2,0.5,2.7-0.2c0.1-0.1,0.1-0.1,0.2-0.2c4.5-5.9,6.8-13,6.8-20.5
	C169.1,92.8,166.7,85.7,162.3,79.8z M172.6,72.4c-0.7-0.9-2-1.1-2.9-0.4c-0.9,0.7-1.1,2-0.4,2.9c5.5,7.4,8.5,16.1,8.5,25.4
	c0,9.2-2.9,18-8.5,25.4c-0.7,0.9-0.5,2.2,0.4,2.9c0.8,0.6,2,0.5,2.7-0.2c0.1-0.1,0.1-0.1,0.2-0.2c6.1-8.1,9.3-17.7,9.3-27.9
	C181.9,90.1,178.7,80.5,172.6,72.4z M183.3,65.6c-0.5,0-0.9,0.1-1.3,0.4c-0.9,0.7-1.1,2-0.4,3c6.8,9.1,10.4,19.9,10.4,31.3
	c0,11.4-3.6,22.2-10.4,31.3c-0.7,0.9-0.5,2.3,0.4,3c0.4,0.3,0.8,0.4,1.3,0.4c0.6,0,1.1-0.2,1.5-0.6c0.1-0.1,0.1-0.1,0.2-0.2
	c7.4-9.8,11.3-21.5,11.3-33.8c0-12.3-3.9-24-11.3-33.8C184.6,65.9,183.9,65.6,183.3,65.6z"/>
<rect id="XMLID_5_" x="555" y="5.9" class="st4" width="163.4" height="66.5"/>
<circle id="XMLID_4_" class="st11" cx="705.8" cy="18.4" r="3.3"/>
<line id="XMLID_3_" class="st12" x1="555.6" y1="23.3" x2="563.9" y2="23.3"/>
<line id="XMLID_2_" class="st12" x1="555.6" y1="28.6" x2="563.9" y2="28.6"/>
</svg>
