<?xml version="1.0" encoding="utf-8"?>
<!-- Generator: Adobe Illustrator 19.0.0, SVG Export Plug-In . SVG Version: 6.00 Build 0)  -->
<svg version="1.1" id="Layer_1" xmlns="http://www.w3.org/2000/svg" xmlns:xlink="http://www.w3.org/1999/xlink" x="0px" y="0px"
	 viewBox="0 0 888 252.7" style="enable-background:new 0 0 888 252.7;" xml:space="preserve">
<style type="text/css">
	.st0{fill:none;stroke:url(#XMLID_117_);stroke-width:8;stroke-miterlimit:10;}
	.st1{fill:none;stroke:url(#XMLID_118_);stroke-width:3.5;stroke-miterlimit:10;}
	.st2{fill:none;stroke:url(#XMLID_119_);stroke-width:3.5;stroke-miterlimit:10;}
	.st3{fill:#FFFFFF;stroke:#618BC8;stroke-width:2.4979;stroke-linecap:round;stroke-linejoin:round;stroke-miterlimit:10;}
	.st4{fill:#FFFFFF;stroke:#618BC8;stroke-width:1.5;stroke-linecap:round;stroke-linejoin:round;stroke-miterlimit:10;}
	.st5{fill:none;stroke:url(#XMLID_120_);stroke-width:3.5;stroke-miterlimit:10;}
	.st6{fill:url(#XMLID_121_);}
	.st7{fill:none;}
	.st8{fill:#618BC8;}
	.st9{fill:#FFFFFF;stroke:#618BC8;stroke-width:3;stroke-linecap:round;stroke-linejoin:round;stroke-miterlimit:10;}
	.st10{fill:none;stroke:#618BC8;stroke-width:3;stroke-linecap:round;stroke-linejoin:round;stroke-miterlimit:10;}
	.st11{fill:url(#XMLID_122_);}
	.st12{fill:#6ABD45;stroke:#618BC8;stroke-width:1.5;stroke-linecap:round;stroke-linejoin:round;stroke-miterlimit:10;}
	.st13{fill:none;stroke:#618BC8;stroke-width:1.5;stroke-linejoin:round;stroke-miterlimit:10;}
</style>
<linearGradient id="XMLID_117_" gradientUnits="userSpaceOnUse" x1="527.2704" y1="91.9796" x2="306.3646" y2="91.9796">
	<stop  offset="0" style="stop-color:#F4A44F"/>
	<stop  offset="0.35" style="stop-color:#E5493B"/>
	<stop  offset="0.6989" style="stop-color:#C21A7A"/>
	<stop  offset="1" style="stop-color:#A5228B"/>
</linearGradient>
<path id="XMLID_102_" class="st0" d="M527.3,52.1H378.7h-7c-6.2,0-11.2-5-11.2-11.2l0,0v-2.6V12c0-4-3.3-7.3-7.3-7.3l0,0l0,0
	c-4,0-7.3,3.3-7.3,7.3v140.7v11v4.4c0,6.2-5,11.2-11.2,11.2l0,0h0.3c-16.8,0.5-18.1-8.2-25.2-19.6"/>
<linearGradient id="XMLID_118_" gradientUnits="userSpaceOnUse" x1="514.9257" y1="84.23" x2="514.9257" y2="199.8955">
	<stop  offset="0" style="stop-color:#F4A44F"/>
	<stop  offset="0.35" style="stop-color:#E5493B"/>
	<stop  offset="0.6989" style="stop-color:#C21A7A"/>
	<stop  offset="1" style="stop-color:#A5228B"/>
</linearGradient>
<path id="XMLID_101_" class="st1" d="M609.6,84.2v19.1v9.7c0,3.5-2.9,6.4-6.5,6.4l0,0c-3.6,0-6.5-2.9-6.5-6.4v-7.8
	c0-2.7-2.9-5.6-6.5-5.6l0,0c-3.6,0-6.5,2.9-6.5,6.4v34c0,3.5-2.9,6.4-6.5,6.4l0,0h-2.8H516h-3.4h-3.7c-3.6,0-6.5-2.9-6.5-6.4l0,0
	v-6.6v-15c0-3.5-2.9-6.4-6.5-6.4l0,0h-4.9h-42.2c-3.6,0-6.5,2.9-6.5,6.4l0,0c0,3.5,2.9,6.4,5.6,6.4h20.9h2.4h2.7
	c2.7,0,5.6,2.9,5.6,6.4l0,0c0,3.5-2.9,6.4-6.5,6.4h-41.5h-5l0,0c-3.6,0-6.5,2.9-6.5,6.4v55.7"/>
<linearGradient id="XMLID_119_" gradientUnits="userSpaceOnUse" x1="744.455" y1="83.3699" x2="744.455" y2="203.5093">
	<stop  offset="0.1935" style="stop-color:#F4A44F"/>
	<stop  offset="0.4038" style="stop-color:#E5493B"/>
	<stop  offset="0.6989" style="stop-color:#C21A7A"/>
	<stop  offset="1" style="stop-color:#A5228B"/>
</linearGradient>
<path id="XMLID_100_" class="st2" d="M839.9,203.5v-63.1l0,0c0-3.5-2.9-6.4-6.5-6.4H697.3c-3.6,0-6.5-2.9-6.5-6.4l0,0
	c0-3.5,2.9-6.4,6.5-6.4h86.1c3.6,0,6.5-2.9,6.5-6.4l0,0c0-3.5-2.9-6.4-6.5-6.4H655.5c-3.6,0-6.5-2.9-6.5-6.4l0,0V83.4"/>
<g id="XMLID_97_">
	<polygon id="XMLID_99_" class="st3" points="302,155.4 308.1,166.9 316.9,162.2 310.7,150.7 	"/>
	<polygon id="XMLID_98_" class="st3" points="290.9,142.6 298.7,157.1 314,149 306.1,134.4 	"/>
</g>
<g id="XMLID_94_">
	<rect id="XMLID_96_" x="522.7" y="47.9" class="st4" width="11.2" height="8.5"/>
	<rect id="XMLID_95_" x="533.8" y="44.8" class="st4" width="14.2" height="14.7"/>
</g>
<linearGradient id="XMLID_120_" gradientUnits="userSpaceOnUse" x1="641.0722" y1="82.6399" x2="641.0722" y2="205.0965">
	<stop  offset="0.1935" style="stop-color:#F4A44F"/>
	<stop  offset="0.4038" style="stop-color:#E5493B"/>
	<stop  offset="0.6989" style="stop-color:#C21A7A"/>
	<stop  offset="1" style="stop-color:#A5228B"/>
</linearGradient>
<path id="XMLID_93_" class="st5" d="M629.3,82.6v24.3v2.3l0,0c0,3.5,2.9,6.4,6.5,6.4h3.7c3.6,0,6.5,2.9,6.5,6.4l0,0
	c0,3.5-2.9,6.4-6.5,6.4h-2.7h-3.2h-10.1c-2.7,0-5.6,2.9-5.6,6.4l0,0c0,3.5,2.9,6.4,6.5,6.4h33.5c3.5,0,6.5,2.9,6.5,6.4l0,0v4.1v13.6
	v39.5"/>
<linearGradient id="XMLID_121_" gradientUnits="userSpaceOnUse" x1="3453.1143" y1="135.8862" x2="3525.0024" y2="63.9981" gradientTransform="matrix(1 0 0 1 -3429.4883 0)">
	<stop  offset="0" style="stop-color:#F4A44F"/>
	<stop  offset="0.35" style="stop-color:#E5493B"/>
	<stop  offset="0.6989" style="stop-color:#C21A7A"/>
	<stop  offset="1" style="stop-color:#A5228B"/>
</linearGradient>
<path id="XMLID_84_" class="st6" d="M59.6,78.3c-11.8,0-21.3,9.7-21.3,21.6c0,11.9,9.6,21.6,21.3,21.6c11.8,0,21.3-9.7,21.3-21.6
	C80.9,88,71.3,78.3,59.6,78.3z M59.6,114.9c-8.1,0-14.8-6.7-14.8-14.9c0-8.2,6.6-14.9,14.8-14.9c8.1,0,14.8,6.7,14.8,14.9
	C74.3,108.2,67.7,114.9,59.6,114.9z M82.5,72.1c-2.5,0-4.6,2.1-4.6,4.7c0,2.6,2.1,4.7,4.6,4.7c2.5,0,4.6-2.1,4.6-4.7
	C87.1,74.2,85,72.1,82.5,72.1z M78,56.5h-3.5l0,0H42.8l0,0h-1.7c-13.5,0-24.4,11.1-24.4,24.7v37.4c0,13.6,10.9,24.7,24.4,24.7H78
	c13.5,0,24.4-11.1,24.4-24.7V81.2C102.4,67.6,91.5,56.5,78,56.5z M60.8,62c-0.4,0-0.8,0-1.3,0c-0.4,0-0.8,0-1.3,0H60.8z M95.8,118.7
	c0,9.9-8,18-17.8,18H41.1c-9.8,0-17.8-8.1-17.8-18V81.2c0-9.9,8-18,17.8-18H78c9.8,0,17.8,8.1,17.8,18V118.7z"/>
<g id="XMLID_74_">
	<g id="XMLID_81_">
		<rect id="XMLID_83_" x="607" y="80.1" class="st4" width="5.2" height="6.5"/>
		<rect id="XMLID_82_" x="605" y="72" class="st4" width="9.1" height="8.1"/>
	</g>
	<g id="XMLID_78_">
		<rect id="XMLID_80_" x="626.7" y="80.1" class="st4" width="5.2" height="6.5"/>
		<rect id="XMLID_79_" x="624.8" y="72" class="st4" width="9.1" height="8.1"/>
	</g>
	<g id="XMLID_75_">
		<rect id="XMLID_77_" x="646.4" y="80.1" class="st4" width="5.2" height="6.5"/>
		<rect id="XMLID_76_" x="644.5" y="72" class="st4" width="9.1" height="8.1"/>
	</g>
</g>
<g id="XMLID_58_">
	<path id="XMLID_70_" class="st7" d="M289.1,63.2h-36.9c-9.8,0-17.8,8.1-17.8,18v37.4c0,9.9,8,18,17.8,18h36.9
		c9.8,0,17.8-8.1,17.8-18V81.2C306.9,71.3,298.9,63.2,289.1,63.2z M270.6,121.6c-11.8,0-21.3-9.7-21.3-21.6
		c0-11.9,9.6-21.6,21.3-21.6c11.8,0,21.3,9.7,21.3,21.6C292,111.9,282.4,121.6,270.6,121.6z M293.5,81.4c-2.5,0-4.6-2.1-4.6-4.7
		c0-2.6,2.1-4.7,4.6-4.7c2.5,0,4.6,2.1,4.6,4.7C298.1,79.3,296.1,81.4,293.5,81.4z"/>
	<path id="XMLID_69_" class="st7" d="M270.6,85c-8.1,0-14.7,6.7-14.7,14.9c0,8.2,6.6,14.9,14.7,14.9c8.1,0,14.8-6.7,14.8-14.9
		C285.4,91.7,278.8,85,270.6,85z"/>
	<path id="XMLID_68_" class="st8" d="M270.6,60.3c4.9,0,8.4-2,10.8-5.1l-4.1-2.7c-1.4,1.8-3.9,3-6.7,3c-2.9,0-5.3-1.2-6.7-3
		l-4.1,2.7C262.2,58.3,265.8,60.3,270.6,60.3z"/>
	<path id="XMLID_67_" class="st8" d="M265.6,51.4c1,1.4,2.9,2.3,5,2.3c2.1,0,4-0.9,5-2.3l-2.8-1.9h-4.3L265.6,51.4z"/>
	<path id="XMLID_64_" class="st8" d="M318.1,82.9h-4.6v-1.7c0-13.6-10.9-24.7-24.4-24.7h-5.3c-3.1,3.4-7.9,5.5-13.1,5.5
		c-5.3,0-10.1-2.1-13.1-5.5h-5.3c-13.5,0-24.4,11.1-24.4,24.7v1.7h-4.6c-2.1,0-3.8,1.7-3.8,3.8v26.7c0,2.1,1.7,3.8,3.8,3.8h4.6v1.4
		c0,13.6,10.9,24.7,24.4,24.7h36.9c13.5,0,24.4-11.1,24.4-24.7v-1.4h4.6c2.1,0,3.8-1.7,3.8-3.8V86.7
		C321.8,84.7,320.1,82.9,318.1,82.9z M306.9,118.7c0,9.9-8,18-17.8,18h-36.9c-9.8,0-17.8-8.1-17.8-18V81.2c0-9.9,8-18,17.8-18h36.9
		c9.8,0,17.8,8.1,17.8,18V118.7z"/>
	<ellipse id="XMLID_63_" class="st8" cx="293.5" cy="76.8" rx="4.6" ry="4.7"/>
	<path id="XMLID_60_" class="st8" d="M270.6,78.3c-11.8,0-21.3,9.7-21.3,21.6c0,11.9,9.6,21.6,21.3,21.6c11.8,0,21.3-9.7,21.3-21.6
		C292,88,282.4,78.3,270.6,78.3z M270.6,114.9c-8.1,0-14.7-6.7-14.7-14.9c0-8.2,6.6-14.9,14.7-14.9c8.1,0,14.8,6.7,14.8,14.9
		C285.4,108.2,278.8,114.9,270.6,114.9z"/>
	<path id="XMLID_59_" class="st8" d="M270.6,28.2c-1.2,0-2.1,1-2.1,2.2v19.1h4.3V30.4C272.8,29.2,271.8,28.2,270.6,28.2z"/>
</g>
<g id="XMLID_12_">
	<g id="XMLID_43_">
		<g id="XMLID_54_">
			<path id="XMLID_57_" class="st9" d="M516.4,244.7v-53.3c0-2.5-2-4.5-4.5-4.5h-98.5c-2.5,0-4.5,2-4.5,4.5v53.3H516.4z"/>
			<path id="XMLID_56_" class="st9" d="M401.9,241.7c0,0.2,0,0.5,0,0.7c0,2.6,1.4,4.7,3.1,4.7h115.5c1.7,0,3.1-2.1,3.1-4.7
				c0-0.3,0-0.5,0-0.7H401.9z"/>
			<rect id="XMLID_55_" x="413" y="191.2" class="st9" width="99.3" height="48"/>
		</g>
		<path id="XMLID_53_" class="st10" d="M440,169c-1,2.8-1.9,4.9-2.3,10.1c-0.1,0.9,0,3.4,0.1,4.3"/>
		<path id="XMLID_52_" class="st10" d="M484.7,164.6c-4.6-7.2-12.4-12-21.4-12c-5.8,0-11.1,2-15.4,5.3"/>
		<path id="XMLID_51_" class="st10" d="M488.8,182.6c0.1-0.9,0.1-2.6,0.1-3.5c0-5.4-1.5-10.4-4.2-14.5"/>
		<path id="XMLID_50_" class="st10" d="M451.4,198.7c-6,0-7.2-3.2-9.4-5.8"/>
		<path id="XMLID_49_" class="st9" d="M482.3,176.9l0.7-14.3c0,0-1.4-1.8-4.8-3.6c-4.3-2.4-12.6-4.6-22.9-3
			c-8.1,1.2-11.7,4.4-11.7,4.4c4.5-1.1,1.2,1.2-1.7,2.8c-3.5,1.9-5.3,0.3-5.3,0.3s0.3,3.8,3.4,5.6c4.4,2.5,4.6,2.2,4.6,2.2
			c0,0.1,0.1,3.9,0.3,7l-1.7,2.8l3.4,11.9c2.3,5.2,9.2,10.4,17,10.4c7.9,0,14.6-5,16.8-10.4l2-13.4L482.3,176.9z"/>
		<g id="XMLID_46_">
			<path id="XMLID_48_" class="st9" d="M482.3,177.8l2.9,0.4c1.8,0.2,3.1,1.8,2.8,3.6l-0.1,1.2l0.6,0.1c0.7,0.1,1.3,0.8,1.2,1.5
				l-0.4,3.5c-0.1,0.7-0.8,1.3-1.5,1.2l-0.6-0.1l-0.1,1.2c-0.2,1.8-1.8,3.1-3.6,2.8l-2.9-0.4L482.3,177.8z"/>
			<path id="XMLID_47_" class="st9" d="M444.9,177.8l-2.9,0.4c-1.8,0.2-3.1,1.8-2.8,3.6l0.1,1.2l-0.6,0.1c-0.7,0.1-1.3,0.8-1.2,1.5
				l0.4,3.5c0.1,0.7,0.8,1.3,1.5,1.2l0.6-0.1l0.1,1.2c0.2,1.8,1.8,3.1,3.6,2.8l2.9-0.4L444.9,177.8z"/>
		</g>
		<path id="XMLID_45_" class="st9" d="M481.7,249.3l2.4-19.9c0,0,6.8,18.6,12.7,19.8c3.6,0.7,6.9-1.1,7.9-4.5c1-3.4-1.6-9.8-4-16.2
			c-2.4-6.4-7.9-18.3-12.2-20.6c-4.3-2.2-15.3-4.8-15.3-4.8c-2,1.4-6.7,2.6-9.1,2.6c-2.6,0-8.2-1-10.3-2.6c0,0-10.9,2.6-15.3,4.8
			c-4.3,2.2-9.8,14.1-12.2,20.6c-2.4,6.4-5,12.9-4,16.2c1,3.4,4.2,5.2,7.9,4.5c6-1.1,12.7-19.8,12.7-19.8l2.4,19.9"/>
		<path id="XMLID_44_" class="st10" d="M438,250.3c7.4-0.7,15.9-1.2,25-1.2c9.8,0,18.9,0.5,26.8,1.4"/>
	</g>
	<g id="XMLID_28_">
		<g id="XMLID_39_">
			<path id="XMLID_42_" class="st9" d="M682.4,244.7v-53.3c0-2.5-2-4.5-4.5-4.5h-98.5c-2.5,0-4.5,2-4.5,4.5v53.3H682.4z"/>
			<path id="XMLID_41_" class="st9" d="M567.9,241.7c0,0.2,0,0.5,0,0.7c0,2.6,1.4,4.7,3.1,4.7h115.5c1.7,0,3.1-2.1,3.1-4.7
				c0-0.3,0-0.5,0-0.7H567.9z"/>
			<rect id="XMLID_40_" x="579.1" y="191.2" class="st9" width="99.3" height="48"/>
		</g>
		<path id="XMLID_38_" class="st10" d="M606.1,169c-1,2.8-1.9,4.9-2.3,10.1c-0.1,0.9,0,3.4,0.1,4.3"/>
		<path id="XMLID_37_" class="st10" d="M650.8,164.6c-4.6-7.2-12.4-12-21.4-12c-5.8,0-11.1,2-15.4,5.3"/>
		<path id="XMLID_36_" class="st10" d="M654.8,182.6c0.1-0.9,0.1-2.6,0.1-3.5c0-5.4-1.5-10.4-4.2-14.5"/>
		<path id="XMLID_35_" class="st10" d="M617.4,198.7c-6,0-7.2-3.2-9.4-5.8"/>
		<path id="XMLID_34_" class="st9" d="M648.4,176.9l0.7-14.3c0,0-1.4-1.8-4.8-3.6c-4.3-2.4-12.6-4.6-22.9-3
			c-8.1,1.2-11.7,4.4-11.7,4.4c4.5-1.1,1.2,1.2-1.7,2.8c-3.5,1.9-5.3,0.3-5.3,0.3s0.3,3.8,3.4,5.6c4.4,2.5,4.6,2.2,4.6,2.2
			c0,0.1,0.1,3.9,0.3,7l-1.7,2.8l3.4,11.9c2.3,5.2,9.2,10.4,17,10.4c7.9,0,14.6-5,16.8-10.4l2-13.4L648.4,176.9z"/>
		<g id="XMLID_31_">
			<path id="XMLID_33_" class="st9" d="M648.3,177.8l2.9,0.4c1.8,0.2,3.1,1.8,2.8,3.6L654,183l0.6,0.1c0.7,0.1,1.3,0.8,1.2,1.5
				l-0.4,3.5c-0.1,0.7-0.8,1.3-1.5,1.2l-0.6-0.1l-0.1,1.2c-0.2,1.8-1.8,3.1-3.6,2.8l-2.9-0.4L648.3,177.8z"/>
			<path id="XMLID_32_" class="st9" d="M610.9,177.8l-2.9,0.4c-1.8,0.2-3.1,1.8-2.8,3.6l0.1,1.2l-0.6,0.1c-0.7,0.1-1.3,0.8-1.2,1.5
				l0.4,3.5c0.1,0.7,0.8,1.3,1.5,1.2l0.6-0.1l0.2,1.2c0.2,1.8,1.8,3.1,3.6,2.8l2.9-0.4L610.9,177.8z"/>
		</g>
		<path id="XMLID_30_" class="st9" d="M647.8,249.3l2.4-19.9c0,0,6.8,18.6,12.7,19.8c3.6,0.7,6.9-1.1,7.9-4.5c1-3.4-1.6-9.8-4-16.2
			c-2.4-6.4-7.9-18.3-12.2-20.6c-4.3-2.2-15.3-4.8-15.3-4.8c-2,1.4-6.7,2.6-9.1,2.6c-2.6,0-8.2-1-10.3-2.6c0,0-10.9,2.6-15.3,4.8
			c-4.3,2.2-9.8,14.1-12.2,20.6c-2.4,6.4-5,12.9-4,16.2c1,3.4,4.2,5.2,7.9,4.5c6-1.1,12.7-19.8,12.7-19.8l2.4,19.9"/>
		<path id="XMLID_29_" class="st10" d="M604.1,250.3c7.4-0.7,15.9-1.2,25-1.2c9.8,0,18.9,0.5,26.8,1.4"/>
	</g>
	<g id="XMLID_13_">
		<g id="XMLID_24_">
			<path id="XMLID_27_" class="st9" d="M849.5,244.7v-53.3c0-2.5-2-4.5-4.5-4.5h-98.5c-2.5,0-4.5,2-4.5,4.5v53.3H849.5z"/>
			<path id="XMLID_26_" class="st9" d="M735,241.7c0,0.2,0,0.5,0,0.7c0,2.6,1.4,4.7,3.1,4.7h115.5c1.7,0,3.1-2.1,3.1-4.7
				c0-0.3,0-0.5,0-0.7H735z"/>
			<rect id="XMLID_25_" x="746.1" y="191.2" class="st9" width="99.3" height="48"/>
		</g>
		<path id="XMLID_23_" class="st10" d="M773.2,169c-1,2.8-1.9,4.9-2.3,10.1c-0.1,0.9,0,3.4,0.1,4.3"/>
		<path id="XMLID_22_" class="st10" d="M817.9,164.6c-4.6-7.2-12.4-12-21.4-12c-5.8,0-11.1,2-15.4,5.3"/>
		<path id="XMLID_21_" class="st10" d="M821.9,182.6c0.1-0.9,0.1-2.6,0.1-3.5c0-5.4-1.5-10.4-4.2-14.5"/>
		<path id="XMLID_20_" class="st10" d="M784.5,198.7c-6,0-7.2-3.2-9.4-5.8"/>
		<path id="XMLID_19_" class="st9" d="M815.4,176.9l0.7-14.3c0,0-1.4-1.8-4.8-3.6c-4.3-2.4-12.6-4.6-22.9-3
			c-8.1,1.2-11.7,4.4-11.7,4.4c4.5-1.1,1.2,1.2-1.7,2.8c-3.5,1.9-5.3,0.3-5.3,0.3s0.3,3.8,3.4,5.6c4.4,2.5,4.6,2.2,4.6,2.2
			c0,0.1,0.1,3.9,0.3,7l-1.7,2.8l3.4,11.9c2.3,5.2,9.2,10.4,17,10.4c7.9,0,14.6-5,16.8-10.4l2-13.4L815.4,176.9z"/>
		<g id="XMLID_16_">
			<path id="XMLID_18_" class="st9" d="M815.4,177.8l2.9,0.4c1.8,0.2,3.1,1.8,2.8,3.6L821,183l0.6,0.1c0.7,0.1,1.3,0.8,1.2,1.5
				l-0.4,3.5c-0.1,0.7-0.8,1.3-1.5,1.2l-0.6-0.1l-0.1,1.2c-0.2,1.8-1.8,3.1-3.6,2.8l-2.9-0.4L815.4,177.8z"/>
			<path id="XMLID_17_" class="st9" d="M778,177.8l-2.9,0.4c-1.8,0.2-3.1,1.8-2.8,3.6l0.1,1.2l-0.6,0.1c-0.7,0.1-1.3,0.8-1.2,1.5
				l0.4,3.5c0.1,0.7,0.8,1.3,1.5,1.2l0.6-0.1l0.1,1.2c0.2,1.8,1.8,3.1,3.6,2.8l2.9-0.4L778,177.8z"/>
		</g>
		<path id="XMLID_15_" class="st9" d="M814.8,249.3l2.4-19.9c0,0,6.8,18.6,12.7,19.8c3.6,0.7,6.9-1.1,7.9-4.5c1-3.4-1.6-9.8-4-16.2
			c-2.4-6.4-7.9-18.3-12.2-20.6c-4.3-2.2-15.3-4.8-15.3-4.8c-2,1.4-6.7,2.6-9.1,2.6c-2.6,0-8.2-1-10.3-2.6c0,0-10.9,2.6-15.3,4.8
			c-4.3,2.2-9.8,14.1-12.2,20.6c-2.4,6.4-5,12.9-4,16.2c1,3.4,4.2,5.2,7.9,4.5c6-1.1,12.7-19.8,12.7-19.8l2.4,19.9"/>
		<path id="XMLID_14_" class="st10" d="M771.1,250.3c7.4-0.7,15.9-1.2,25-1.2c9.8,0,18.9,0.5,26.8,1.4"/>
	</g>
</g>
<linearGradient id="XMLID_122_" gradientUnits="userSpaceOnUse" x1="130.4088" y1="99.9424" x2="188.8818" y2="99.9424">
	<stop  offset="0" style="stop-color:#F4A44F"/>
	<stop  offset="0.35" style="stop-color:#E5493B"/>
	<stop  offset="0.6989" style="stop-color:#618BC8"/>
	<stop  offset="1" style="stop-color:#618BC8"/>
</linearGradient>
<path id="XMLID_6_" class="st11" d="M141.6,86.2c-0.9,0.7-1.1,2-0.4,2.9c2.4,3.1,3.6,6.9,3.6,10.8c0,3.9-1.2,7.7-3.6,10.8
	c-0.7,0.9-0.5,2.2,0.4,2.9c0.8,0.6,2,0.5,2.7-0.2c0.1-0.1,0.1-0.1,0.2-0.2c2.9-3.9,4.4-8.4,4.4-13.3c0-4.8-1.5-9.4-4.4-13.3
	C143.8,85.7,142.5,85.6,141.6,86.2z M131.2,93.9c-0.9,0.7-1.1,2-0.4,2.9c0.7,0.9,1.1,2,1.1,3.1c0,1.1-0.4,2.2-1.1,3.1
	c-0.7,0.9-0.5,2.2,0.4,2.9c0.8,0.6,2,0.5,2.7-0.2c0.1-0.1,0.1-0.1,0.2-0.2c1.2-1.6,1.9-3.6,1.9-5.6c0-2-0.7-4-1.9-5.6
	C133.4,93.4,132.1,93.2,131.2,93.9z M154.9,79.5c-0.7-0.9-2-1.1-2.9-0.4c-0.9,0.7-1.1,2-0.4,2.9c3.9,5.2,6,11.5,6,18
	c0,6.6-2.1,12.8-6,18c-0.7,0.9-0.5,2.2,0.4,2.9c0.8,0.6,2,0.5,2.7-0.2c0.1-0.1,0.1-0.1,0.2-0.2c4.5-5.9,6.8-13,6.8-20.5
	C161.7,92.5,159.4,85.4,154.9,79.5z M165.3,72.1c-0.7-0.9-2-1.1-2.9-0.4c-0.9,0.7-1.1,2-0.4,2.9c5.5,7.4,8.5,16.1,8.5,25.4
	c0,9.2-2.9,18-8.5,25.4c-0.7,0.9-0.5,2.2,0.4,2.9c0.8,0.6,2,0.5,2.7-0.2c0.1-0.1,0.1-0.1,0.2-0.2c6.1-8.1,9.3-17.7,9.3-27.9
	C174.6,89.8,171.4,80.2,165.3,72.1z M175.9,65.2c-0.5,0-0.9,0.1-1.3,0.4c-0.9,0.7-1.1,2-0.4,3c6.8,9.1,10.4,19.9,10.4,31.3
	c0,11.4-3.6,22.2-10.4,31.3c-0.7,0.9-0.5,2.3,0.4,3c0.4,0.3,0.8,0.4,1.3,0.4c0.6,0,1.1-0.2,1.5-0.6c0.1-0.1,0.1-0.1,0.2-0.2
	c7.4-9.8,11.3-21.5,11.3-33.8c0-12.3-3.9-24-11.3-33.8C177.2,65.6,176.6,65.2,175.9,65.2z"/>
<rect id="XMLID_5_" x="547.6" y="5.6" class="st4" width="163.4" height="66.5"/>
<circle id="XMLID_4_" class="st12" cx="698.4" cy="18.1" r="3.3"/>
<line id="XMLID_3_" class="st13" x1="548.2" y1="23" x2="556.5" y2="23"/>
<line id="XMLID_2_" class="st13" x1="548.2" y1="28.3" x2="556.5" y2="28.3"/>
</svg>
