<?xml version="1.0" encoding="utf-8"?>
<!-- Generator: Adobe Illustrator 19.0.0, SVG Export Plug-In . SVG Version: 6.00 Build 0)  -->
<svg version="1.1" id="Layer_1" xmlns="http://www.w3.org/2000/svg" xmlns:xlink="http://www.w3.org/1999/xlink" x="0px" y="0px"
	 viewBox="0 0 887.9 255.4" style="enable-background:new 0 0 887.9 255.4;" xml:space="preserve">
<style type="text/css">
	.st0{fill:none;stroke:url(#XMLID_12_);stroke-width:8;stroke-miterlimit:10;}
	.st1{fill:none;stroke:url(#XMLID_13_);stroke-width:3.5;stroke-miterlimit:10;}
	.st2{fill:none;stroke:url(#XMLID_14_);stroke-width:3.5;stroke-miterlimit:10;}
	.st3{fill:#FFFFFF;stroke:#618BC8;stroke-width:2.4979;stroke-linecap:round;stroke-linejoin:round;stroke-miterlimit:10;}
	.st4{fill:#FFFFFF;stroke:#618BC8;stroke-width:1.5;stroke-linecap:round;stroke-linejoin:round;stroke-miterlimit:10;}
	.st5{fill:none;stroke:url(#XMLID_15_);stroke-width:3.5;stroke-miterlimit:10;}
	.st6{fill:url(#XMLID_16_);}
	.st7{fill:none;}
	.st8{fill:#618BC8;}
	.st9{fill:none;stroke:#618BC8;stroke-width:1.5;stroke-linecap:round;stroke-linejoin:round;stroke-miterlimit:10;}
	.st10{fill:url(#XMLID_17_);}
	.st11{fill:url(#XMLID_130_);}
	.st12{fill:#6ABD45;stroke:#618BC8;stroke-width:1.5;stroke-linecap:round;stroke-linejoin:round;stroke-miterlimit:10;}
	.st13{fill:none;stroke:#618BC8;stroke-width:1.5;stroke-linejoin:round;stroke-miterlimit:10;}
</style>
<g id="XMLID_2_">
	<linearGradient id="XMLID_12_" gradientUnits="userSpaceOnUse" x1="558.5625" y1="92.134" x2="337.6566" y2="92.134">
		<stop  offset="0" style="stop-color:#F4A44F"/>
		<stop  offset="0.35" style="stop-color:#E5493B"/>
		<stop  offset="0.6989" style="stop-color:#C21A7A"/>
		<stop  offset="1" style="stop-color:#A5228B"/>
	</linearGradient>
	<path id="XMLID_125_" class="st0" d="M558.6,52.3H410h-7c-6.2,0-11.2-5-11.2-11.2l0,0v-2.6V12.1c0-4-3.3-7.3-7.3-7.3l0,0l0,0
		c-4,0-7.3,3.3-7.3,7.3v140.7v11v4.4c0,6.2-5,11.2-11.2,11.2l0,0h0.3c-16.8,0.5-18.1-8.2-25.2-19.6"/>
	<linearGradient id="XMLID_13_" gradientUnits="userSpaceOnUse" x1="546.2178" y1="84.3844" x2="546.2178" y2="200.0497">
		<stop  offset="0" style="stop-color:#F4A44F"/>
		<stop  offset="0.35" style="stop-color:#E5493B"/>
		<stop  offset="0.6989" style="stop-color:#C21A7A"/>
		<stop  offset="1" style="stop-color:#A5228B"/>
	</linearGradient>
	<path id="XMLID_124_" class="st1" d="M640.9,84.4v19.1v9.7c0,3.5-2.9,6.4-6.5,6.4l0,0c-3.6,0-6.5-2.9-6.5-6.4v-7.8
		c0-2.7-2.9-5.6-6.5-5.6l0,0c-3.6,0-6.5,2.9-6.5,6.4v34c0,3.5-2.9,6.4-6.5,6.4l0,0h-2.8h-58.4h-3.4h-3.7c-3.6,0-6.5-2.9-6.5-6.4l0,0
		v-6.6v-15c0-3.5-2.9-6.4-6.5-6.4l0,0h-4.9h-42.2c-3.6,0-6.5,2.9-6.5,6.4l0,0c0,3.5,2.9,6.4,5.6,6.4h20.9h2.4h2.7
		c2.7,0,5.6,2.9,5.6,6.4l0,0c0,3.5-2.9,6.4-6.5,6.4H463h-5l0,0c-3.6,0-6.5,2.9-6.5,6.4V200"/>
	<linearGradient id="XMLID_14_" gradientUnits="userSpaceOnUse" x1="775.7471" y1="83.5241" x2="775.7471" y2="203.6637">
		<stop  offset="0.1935" style="stop-color:#F4A44F"/>
		<stop  offset="0.4038" style="stop-color:#E5493B"/>
		<stop  offset="0.6989" style="stop-color:#C21A7A"/>
		<stop  offset="1" style="stop-color:#A5228B"/>
	</linearGradient>
	<path id="XMLID_123_" class="st2" d="M871.2,203.7v-63.1l0,0c0-3.5-2.9-6.4-6.5-6.4H728.6c-3.6,0-6.5-2.9-6.5-6.4l0,0
		c0-3.5,2.9-6.4,6.5-6.4h86.1c3.6,0,6.5-2.9,6.5-6.4l0,0c0-3.5-2.9-6.4-6.5-6.4H686.8c-3.6,0-6.5-2.9-6.5-6.4l0,0V83.5"/>
	<g id="XMLID_120_">
		<polygon id="XMLID_122_" class="st3" points="333.2,155.6 339.4,167 348.1,162.4 342,150.9 		"/>
		<polygon id="XMLID_121_" class="st3" points="322.2,142.7 330,157.3 345.2,149.2 337.4,134.6 		"/>
	</g>
	<g id="XMLID_117_">
		<rect id="XMLID_119_" x="554" y="48.1" class="st4" width="11.2" height="8.5"/>
		<rect id="XMLID_118_" x="565.1" y="44.9" class="st4" width="14.2" height="14.7"/>
	</g>
	<linearGradient id="XMLID_15_" gradientUnits="userSpaceOnUse" x1="672.3643" y1="82.7943" x2="672.3643" y2="205.2506">
		<stop  offset="0.1935" style="stop-color:#F4A44F"/>
		<stop  offset="0.4038" style="stop-color:#E5493B"/>
		<stop  offset="0.6989" style="stop-color:#C21A7A"/>
		<stop  offset="1" style="stop-color:#A5228B"/>
	</linearGradient>
	<path id="XMLID_116_" class="st5" d="M660.6,82.8v24.3v2.3l0,0c0,3.5,2.9,6.4,6.5,6.4h3.7c3.6,0,6.5,2.9,6.5,6.4l0,0
		c0,3.5-2.9,6.4-6.5,6.4h-2.7h-3.2h-10.1c-2.7,0-5.6,2.9-5.6,6.4l0,0c0,3.5,2.9,6.4,6.5,6.4h33.5c3.5,0,6.5,2.9,6.5,6.4l0,0v4.1
		v13.6v39.5"/>
	
		<linearGradient id="XMLID_16_" gradientUnits="userSpaceOnUse" x1="3436.4062" y1="136.0406" x2="3508.2944" y2="64.1525" gradientTransform="matrix(1 0 0 1 -3429.4883 0)">
		<stop  offset="0" style="stop-color:#F4A44F"/>
		<stop  offset="0.35" style="stop-color:#E5493B"/>
		<stop  offset="0.6989" style="stop-color:#C21A7A"/>
		<stop  offset="1" style="stop-color:#A5228B"/>
	</linearGradient>
	<path id="XMLID_107_" class="st6" d="M42.9,78.5c-11.8,0-21.3,9.7-21.3,21.6c0,11.9,9.6,21.6,21.3,21.6c11.8,0,21.3-9.7,21.3-21.6
		C64.2,88.2,54.6,78.5,42.9,78.5z M42.9,115c-8.1,0-14.8-6.7-14.8-14.9c0-8.2,6.6-14.9,14.8-14.9s14.8,6.7,14.8,14.9
		C57.6,108.3,51,115,42.9,115z M65.7,72.2c-2.5,0-4.6,2.1-4.6,4.7c0,2.6,2.1,4.7,4.6,4.7c2.5,0,4.6-2.1,4.6-4.7
		C70.4,74.3,68.3,72.2,65.7,72.2z M61.3,56.7h-3.5l0,0H26.1l0,0h-1.7C10.9,56.7,0,67.8,0,81.4v37.4c0,13.6,10.9,24.7,24.4,24.7h36.9
		c13.5,0,24.4-11.1,24.4-24.7V81.4C85.7,67.8,74.8,56.7,61.3,56.7z M44.1,62.1c-0.4,0-0.8,0-1.3,0c-0.4,0-0.8,0-1.3,0H44.1z
		 M79.1,118.8c0,9.9-8,18-17.8,18H24.4c-9.8,0-17.8-8.1-17.8-18V81.4c0-9.9,8-18,17.8-18h36.9c9.8,0,17.8,8.1,17.8,18V118.8z"/>
	<g id="XMLID_97_">
		<g id="XMLID_104_">
			<rect id="XMLID_106_" x="638.2" y="80.2" class="st4" width="5.2" height="6.5"/>
			<rect id="XMLID_105_" x="636.3" y="72.2" class="st4" width="9.1" height="8.1"/>
		</g>
		<g id="XMLID_101_">
			<rect id="XMLID_103_" x="658" y="80.2" class="st4" width="5.2" height="6.5"/>
			<rect id="XMLID_102_" x="656" y="72.2" class="st4" width="9.1" height="8.1"/>
		</g>
		<g id="XMLID_98_">
			<rect id="XMLID_100_" x="677.7" y="80.2" class="st4" width="5.2" height="6.5"/>
			<rect id="XMLID_99_" x="675.8" y="72.2" class="st4" width="9.1" height="8.1"/>
		</g>
	</g>
	<g id="XMLID_81_">
		<path id="XMLID_93_" class="st7" d="M320.4,63.4h-36.9c-9.8,0-17.8,8.1-17.8,18v37.4c0,9.9,8,18,17.8,18h36.9
			c9.8,0,17.8-8.1,17.8-18V81.4C338.2,71.4,330.2,63.4,320.4,63.4z M301.9,121.7c-11.8,0-21.3-9.7-21.3-21.6
			c0-11.9,9.6-21.6,21.3-21.6c11.8,0,21.3,9.7,21.3,21.6C323.3,112,313.7,121.7,301.9,121.7z M324.8,81.6c-2.5,0-4.6-2.1-4.6-4.7
			c0-2.6,2.1-4.7,4.6-4.7c2.5,0,4.6,2.1,4.6,4.7C329.4,79.5,327.4,81.6,324.8,81.6z"/>
		<path id="XMLID_92_" class="st7" d="M301.9,85.2c-8.1,0-14.7,6.7-14.7,14.9c0,8.2,6.6,14.9,14.7,14.9c8.1,0,14.8-6.7,14.8-14.9
			C316.7,91.9,310.1,85.2,301.9,85.2z"/>
		<path id="XMLID_91_" class="st8" d="M301.9,60.4c4.9,0,8.4-2,10.8-5.1l-4.1-2.7c-1.4,1.8-3.9,3-6.7,3c-2.9,0-5.3-1.2-6.7-3
			l-4.1,2.7C293.5,58.4,297.1,60.4,301.9,60.4z"/>
		<path id="XMLID_90_" class="st8" d="M296.9,51.5c1,1.4,2.9,2.3,5,2.3c2.1,0,4-0.9,5-2.3l-2.8-1.9h-4.3L296.9,51.5z"/>
		<path id="XMLID_87_" class="st8" d="M349.4,83.1h-4.6v-1.7c0-13.6-10.9-24.7-24.4-24.7H315c-3.1,3.4-7.9,5.5-13.1,5.5
			c-5.3,0-10.1-2.1-13.1-5.5h-5.3c-13.5,0-24.4,11.1-24.4,24.7v1.7h-4.6c-2.1,0-3.8,1.7-3.8,3.8v26.7c0,2.1,1.7,3.8,3.8,3.8h4.6v1.4
			c0,13.6,10.9,24.7,24.4,24.7h36.9c13.5,0,24.4-11.1,24.4-24.7v-1.4h4.6c2.1,0,3.8-1.7,3.8-3.8V86.9
			C353.1,84.8,351.4,83.1,349.4,83.1z M338.2,118.8c0,9.9-8,18-17.8,18h-36.9c-9.8,0-17.8-8.1-17.8-18V81.4c0-9.9,8-18,17.8-18h36.9
			c9.8,0,17.8,8.1,17.8,18V118.8z"/>
		<ellipse id="XMLID_86_" class="st8" cx="324.8" cy="76.9" rx="4.6" ry="4.7"/>
		<path id="XMLID_83_" class="st8" d="M301.9,78.5c-11.8,0-21.3,9.7-21.3,21.6c0,11.9,9.6,21.6,21.3,21.6c11.8,0,21.3-9.7,21.3-21.6
			C323.3,88.2,313.7,78.5,301.9,78.5z M301.9,115c-8.1,0-14.7-6.7-14.7-14.9c0-8.2,6.6-14.9,14.7-14.9c8.1,0,14.8,6.7,14.8,14.9
			C316.7,108.3,310.1,115,301.9,115z"/>
		<path id="XMLID_82_" class="st8" d="M301.9,28.4c-1.2,0-2.1,1-2.1,2.2v19.1h4.3V30.5C304.1,29.3,303.1,28.4,301.9,28.4z"/>
	</g>
	<g id="XMLID_35_">
		<g id="XMLID_66_">
			<g id="XMLID_77_">
				<path id="XMLID_80_" class="st4" d="M547.7,244.8v-53.3c0-2.5-2-4.5-4.5-4.5h-98.5c-2.5,0-4.5,2-4.5,4.5v53.3H547.7z"/>
				<path id="XMLID_79_" class="st4" d="M433.2,241.8c0,0.2,0,0.5,0,0.7c0,2.6,1.4,4.7,3.1,4.7h115.5c1.7,0,3.1-2.1,3.1-4.7
					c0-0.3,0-0.5,0-0.7H433.2z"/>
				<rect id="XMLID_78_" x="444.3" y="191.4" class="st4" width="99.3" height="48"/>
			</g>
			<path id="XMLID_76_" class="st9" d="M471.3,169.1c-1,2.8-1.9,4.9-2.3,10.1c-0.1,0.9,0,3.4,0.1,4.3"/>
			<path id="XMLID_75_" class="st9" d="M516,164.7c-4.6-7.2-12.4-12-21.4-12c-5.8,0-11.1,2-15.4,5.3"/>
			<path id="XMLID_74_" class="st9" d="M520.1,182.8c0.1-0.9,0.1-2.6,0.1-3.5c0-5.4-1.5-10.4-4.2-14.5"/>
			<path id="XMLID_73_" class="st9" d="M482.7,198.8c-6,0-7.2-3.2-9.4-5.8"/>
			<path id="XMLID_72_" class="st4" d="M513.6,177l0.7-14.3c0,0-1.4-1.8-4.8-3.6c-4.3-2.4-12.6-4.6-22.9-3
				c-8.1,1.2-11.7,4.4-11.7,4.4c4.5-1.1,1.2,1.2-1.7,2.8c-3.5,1.9-5.3,0.3-5.3,0.3s0.3,3.8,3.4,5.6c4.4,2.5,4.6,2.2,4.6,2.2
				c0,0.1,0.1,3.9,0.3,7l-1.7,2.8L478,193c2.3,5.2,9.2,10.4,17,10.4c7.9,0,14.6-5,16.8-10.4l2-13.4L513.6,177z"/>
			<g id="XMLID_69_">
				<path id="XMLID_71_" class="st4" d="M513.6,177.9l2.9,0.4c1.8,0.2,3.1,1.8,2.8,3.6l-0.1,1.2l0.6,0.1c0.7,0.1,1.3,0.8,1.2,1.5
					l-0.4,3.5c-0.1,0.7-0.8,1.3-1.5,1.2l-0.6-0.1l-0.1,1.2c-0.2,1.8-1.8,3.1-3.6,2.8l-2.9-0.4L513.6,177.9z"/>
				<path id="XMLID_70_" class="st4" d="M476.2,177.9l-2.9,0.4c-1.8,0.2-3.1,1.8-2.8,3.6l0.1,1.2l-0.6,0.1c-0.7,0.1-1.3,0.8-1.2,1.5
					l0.4,3.5c0.1,0.7,0.8,1.3,1.5,1.2l0.6-0.1l0.1,1.2c0.2,1.8,1.8,3.1,3.6,2.8l2.9-0.4L476.2,177.9z"/>
			</g>
			<path id="XMLID_68_" class="st4" d="M513,249.5l2.4-19.9c0,0,6.8,18.6,12.7,19.8c3.6,0.7,6.9-1.1,7.9-4.5c1-3.4-1.6-9.8-4-16.2
				c-2.4-6.4-7.9-18.3-12.2-20.6c-4.3-2.2-15.3-4.8-15.3-4.8c-2,1.4-6.7,2.6-9.1,2.6c-2.6,0-8.2-1-10.3-2.6c0,0-10.9,2.6-15.3,4.8
				c-4.3,2.2-9.8,14.1-12.2,20.6c-2.4,6.4-5,12.9-4,16.2c1,3.4,4.2,5.2,7.9,4.5c6-1.1,12.7-19.8,12.7-19.8l2.4,19.9"/>
			<path id="XMLID_67_" class="st9" d="M469.3,250.5c7.4-0.7,15.9-1.2,25-1.2c9.8,0,18.9,0.5,26.8,1.4"/>
		</g>
		<g id="XMLID_51_">
			<g id="XMLID_62_">
				<path id="XMLID_65_" class="st4" d="M713.7,244.8v-53.3c0-2.5-2-4.5-4.5-4.5h-98.5c-2.5,0-4.5,2-4.5,4.5v53.3H713.7z"/>
				<path id="XMLID_64_" class="st4" d="M599.2,241.8c0,0.2,0,0.5,0,0.7c0,2.6,1.4,4.7,3.1,4.7h115.5c1.7,0,3.1-2.1,3.1-4.7
					c0-0.3,0-0.5,0-0.7H599.2z"/>
				<rect id="XMLID_63_" x="610.4" y="191.4" class="st4" width="99.3" height="48"/>
			</g>
			<path id="XMLID_61_" class="st9" d="M637.4,169.1c-1,2.8-1.9,4.9-2.3,10.1c-0.1,0.9,0,3.4,0.1,4.3"/>
			<path id="XMLID_60_" class="st9" d="M682.1,164.7c-4.6-7.2-12.4-12-21.4-12c-5.8,0-11.1,2-15.4,5.3"/>
			<path id="XMLID_59_" class="st9" d="M686.1,182.8c0.1-0.9,0.1-2.6,0.1-3.5c0-5.4-1.5-10.4-4.2-14.5"/>
			<path id="XMLID_58_" class="st9" d="M648.7,198.8c-6,0-7.2-3.2-9.4-5.8"/>
			<path id="XMLID_57_" class="st4" d="M679.7,177l0.7-14.3c0,0-1.4-1.8-4.8-3.6c-4.3-2.4-12.6-4.6-22.9-3
				c-8.1,1.2-11.7,4.4-11.7,4.4c4.5-1.1,1.2,1.2-1.7,2.8c-3.5,1.9-5.3,0.3-5.3,0.3s0.3,3.8,3.4,5.6c4.4,2.5,4.6,2.2,4.6,2.2
				c0,0.1,0.1,3.9,0.3,7l-1.7,2.8L644,193c2.3,5.2,9.2,10.4,17,10.4c7.9,0,14.6-5,16.8-10.4l2-13.4L679.7,177z"/>
			<g id="XMLID_54_">
				<path id="XMLID_56_" class="st4" d="M679.6,177.9l2.9,0.4c1.8,0.2,3.1,1.8,2.8,3.6l-0.1,1.2l0.6,0.1c0.7,0.1,1.3,0.8,1.2,1.5
					l-0.4,3.5c-0.1,0.7-0.8,1.3-1.5,1.2l-0.6-0.1l-0.1,1.2c-0.2,1.8-1.8,3.1-3.6,2.8l-2.9-0.4L679.6,177.9z"/>
				<path id="XMLID_55_" class="st4" d="M642.2,177.9l-2.9,0.4c-1.8,0.2-3.1,1.8-2.8,3.6l0.1,1.2l-0.6,0.1c-0.7,0.1-1.3,0.8-1.2,1.5
					l0.4,3.5c0.1,0.7,0.8,1.3,1.5,1.2l0.6-0.1l0.2,1.2c0.2,1.8,1.8,3.1,3.6,2.8l2.9-0.4L642.2,177.9z"/>
			</g>
			<path id="XMLID_53_" class="st4" d="M679.1,249.5l2.4-19.9c0,0,6.8,18.6,12.7,19.8c3.6,0.7,6.9-1.1,7.9-4.5c1-3.4-1.6-9.8-4-16.2
				c-2.4-6.4-7.9-18.3-12.2-20.6c-4.3-2.2-15.3-4.8-15.3-4.8c-2,1.4-6.7,2.6-9.1,2.6c-2.6,0-8.2-1-10.3-2.6c0,0-10.9,2.6-15.3,4.8
				c-4.3,2.2-9.8,14.1-12.2,20.6c-2.4,6.4-5,12.9-4,16.2c1,3.4,4.2,5.2,7.9,4.5c6-1.1,12.7-19.8,12.7-19.8l2.4,19.9"/>
			<path id="XMLID_52_" class="st9" d="M635.4,250.5c7.4-0.7,15.9-1.2,25-1.2c9.8,0,18.9,0.5,26.8,1.4"/>
		</g>
		<g id="XMLID_36_">
			<g id="XMLID_47_">
				<path id="XMLID_50_" class="st4" d="M880.8,244.8v-53.3c0-2.5-2-4.5-4.5-4.5h-98.5c-2.5,0-4.5,2-4.5,4.5v53.3H880.8z"/>
				<path id="XMLID_49_" class="st4" d="M766.3,241.8c0,0.2,0,0.5,0,0.7c0,2.6,1.4,4.7,3.1,4.7h115.5c1.7,0,3.1-2.1,3.1-4.7
					c0-0.3,0-0.5,0-0.7H766.3z"/>
				<rect id="XMLID_48_" x="777.4" y="191.4" class="st4" width="99.3" height="48"/>
			</g>
			<path id="XMLID_46_" class="st9" d="M804.5,169.1c-1,2.8-1.9,4.9-2.3,10.1c-0.1,0.9,0,3.4,0.1,4.3"/>
			<path id="XMLID_45_" class="st9" d="M849.1,164.7c-4.6-7.2-12.4-12-21.4-12c-5.8,0-11.1,2-15.4,5.3"/>
			<path id="XMLID_44_" class="st9" d="M853.2,182.8c0.1-0.9,0.1-2.6,0.1-3.5c0-5.4-1.5-10.4-4.2-14.5"/>
			<path id="XMLID_43_" class="st9" d="M815.8,198.8c-6,0-7.2-3.2-9.4-5.8"/>
			<path id="XMLID_42_" class="st4" d="M846.7,177l0.7-14.3c0,0-1.4-1.8-4.8-3.6c-4.3-2.4-12.6-4.6-22.9-3
				c-8.1,1.2-11.7,4.4-11.7,4.4c4.5-1.1,1.2,1.2-1.7,2.8c-3.5,1.9-5.3,0.3-5.3,0.3s0.3,3.8,3.4,5.6c4.4,2.5,4.6,2.2,4.6,2.2
				c0,0.1,0.1,3.9,0.3,7l-1.7,2.8l3.4,11.9c2.3,5.2,9.2,10.4,17,10.4c7.9,0,14.6-5,16.8-10.4l2-13.4L846.7,177z"/>
			<g id="XMLID_39_">
				<path id="XMLID_41_" class="st4" d="M846.7,177.9l2.9,0.4c1.8,0.2,3.1,1.8,2.8,3.6l-0.2,1.2l0.6,0.1c0.7,0.1,1.3,0.8,1.2,1.5
					l-0.4,3.5c-0.1,0.7-0.8,1.3-1.5,1.2l-0.6-0.1l-0.1,1.2c-0.2,1.8-1.8,3.1-3.6,2.8l-2.9-0.4L846.7,177.9z"/>
				<path id="XMLID_40_" class="st4" d="M809.3,177.9l-2.9,0.4c-1.8,0.2-3.1,1.8-2.8,3.6l0.1,1.2l-0.6,0.1c-0.7,0.1-1.3,0.8-1.2,1.5
					l0.4,3.5c0.1,0.7,0.8,1.3,1.5,1.2l0.6-0.1l0.1,1.2c0.2,1.8,1.8,3.1,3.6,2.8l2.9-0.4L809.3,177.9z"/>
			</g>
			<path id="XMLID_38_" class="st4" d="M846.1,249.5l2.4-19.9c0,0,6.8,18.6,12.7,19.8c3.6,0.7,6.9-1.1,7.9-4.5c1-3.4-1.6-9.8-4-16.2
				c-2.4-6.4-7.9-18.3-12.2-20.6c-4.3-2.2-15.3-4.8-15.3-4.8c-2,1.4-6.7,2.6-9.1,2.6c-2.6,0-8.2-1-10.3-2.6c0,0-10.9,2.6-15.3,4.8
				c-4.3,2.2-9.8,14.1-12.2,20.6c-2.4,6.4-5,12.9-4,16.2c1,3.4,4.2,5.2,7.9,4.5c6-1.1,12.7-19.8,12.7-19.8l2.4,19.9"/>
			<path id="XMLID_37_" class="st9" d="M802.4,250.5c7.4-0.7,15.9-1.2,25-1.2c9.8,0,18.9,0.5,26.8,1.4"/>
		</g>
	</g>
	<linearGradient id="XMLID_17_" gradientUnits="userSpaceOnUse" x1="101.9079" y1="100.0966" x2="160.3809" y2="100.0966">
		<stop  offset="0" style="stop-color:#F4A44F"/>
		<stop  offset="0.35" style="stop-color:#E5493B"/>
		<stop  offset="0.6989" style="stop-color:#618BC8"/>
		<stop  offset="1" style="stop-color:#618BC8"/>
	</linearGradient>
	<path id="XMLID_29_" class="st10" d="M113.1,86.4c-0.9,0.7-1.1,2-0.4,2.9c2.4,3.1,3.6,6.9,3.6,10.8c0,3.9-1.2,7.7-3.6,10.8
		c-0.7,0.9-0.5,2.2,0.4,2.9c0.8,0.6,2,0.5,2.7-0.2c0.1-0.1,0.1-0.1,0.2-0.2c2.9-3.9,4.4-8.4,4.4-13.3c0-4.8-1.5-9.4-4.4-13.3
		C115.3,85.9,114,85.7,113.1,86.4z M102.7,94.1c-0.9,0.7-1.1,2-0.4,2.9c0.7,0.9,1.1,2,1.1,3.1c0,1.1-0.4,2.2-1.1,3.1
		c-0.7,0.9-0.5,2.2,0.4,2.9c0.8,0.6,2,0.5,2.7-0.2c0.1-0.1,0.1-0.1,0.2-0.2c1.2-1.6,1.9-3.6,1.9-5.6c0-2-0.7-4-1.9-5.6
		C104.9,93.6,103.6,93.4,102.7,94.1z M126.4,79.6c-0.7-0.9-2-1.1-2.9-0.4c-0.9,0.7-1.1,2-0.4,2.9c3.9,5.2,6,11.5,6,18
		c0,6.6-2.1,12.8-6,18c-0.7,0.9-0.5,2.2,0.4,2.9c0.8,0.6,2,0.5,2.7-0.2c0.1-0.1,0.1-0.1,0.2-0.2c4.5-5.9,6.8-13,6.8-20.5
		C133.2,92.6,130.9,85.6,126.4,79.6z M136.8,72.2c-0.7-0.9-2-1.1-2.9-0.4c-0.9,0.7-1.1,2-0.4,2.9c5.5,7.4,8.5,16.1,8.5,25.4
		c0,9.2-2.9,18-8.5,25.4c-0.7,0.9-0.5,2.2,0.4,2.9c0.8,0.6,2,0.5,2.7-0.2c0.1-0.1,0.1-0.1,0.2-0.2c6.1-8.1,9.3-17.7,9.3-27.9
		C146.1,90,142.9,80.3,136.8,72.2z M147.4,65.4c-0.5,0-0.9,0.1-1.3,0.4c-0.9,0.7-1.1,2-0.4,3c6.8,9.1,10.4,19.9,10.4,31.3
		c0,11.4-3.6,22.2-10.4,31.3c-0.7,0.9-0.5,2.3,0.4,3c0.4,0.3,0.8,0.4,1.3,0.4c0.6,0,1.1-0.2,1.5-0.6c0.1-0.1,0.1-0.1,0.2-0.2
		c7.4-9.8,11.3-21.5,11.3-33.8c0-12.3-3.9-24-11.3-33.8C148.7,65.7,148.1,65.4,147.4,65.4z"/>
	<linearGradient id="XMLID_130_" gradientUnits="userSpaceOnUse" x1="174.834" y1="100.0966" x2="233.3052" y2="100.0966">
		<stop  offset="0" style="stop-color:#F4A44F"/>
		<stop  offset="0.35" style="stop-color:#E5493B"/>
		<stop  offset="0.6989" style="stop-color:#618BC8"/>
		<stop  offset="1" style="stop-color:#618BC8"/>
	</linearGradient>
	<path id="XMLID_21_" class="st11" d="M179.1,100.1c0-11.4,3.6-22.2,10.4-31.3c0.7-0.9,0.5-2.3-0.4-3c-0.4-0.3-0.8-0.4-1.3-0.4
		c-0.7,0-1.3,0.3-1.7,0.8c-7.4,9.8-11.3,21.5-11.3,33.8c0,12.3,3.9,24,11.3,33.8c0.1,0.1,0.1,0.2,0.2,0.2c0.4,0.4,0.9,0.6,1.5,0.6
		c0.5,0,0.9-0.1,1.3-0.4c0.9-0.7,1.1-2,0.4-3C182.7,122.3,179.1,111.5,179.1,100.1z M193.3,100.1c0-9.2,2.9-18,8.5-25.4
		c0.7-0.9,0.5-2.2-0.4-2.9c-0.9-0.7-2.2-0.5-2.9,0.4c-6.1,8.1-9.3,17.7-9.3,27.9c0,10.1,3.2,19.8,9.3,27.9c0.1,0.1,0.1,0.2,0.2,0.2
		c0.7,0.7,1.9,0.8,2.7,0.2c0.9-0.7,1.1-2,0.4-2.9C196.2,118.1,193.3,109.3,193.3,100.1z M222.1,86.4c-0.9-0.7-2.2-0.5-2.9,0.4
		c-2.9,3.9-4.4,8.4-4.4,13.3c0,4.8,1.5,9.4,4.4,13.3c0.1,0.1,0.1,0.2,0.2,0.2c0.7,0.7,1.9,0.8,2.7,0.2c0.9-0.7,1.1-2,0.4-2.9
		c-2.4-3.1-3.6-6.9-3.6-10.8c0-3.9,1.2-7.7,3.6-10.8C223.2,88.4,223,87.1,222.1,86.4z M211.7,79.2c-0.9-0.7-2.2-0.5-2.9,0.4
		c-4.5,5.9-6.8,13-6.8,20.5c0,7.5,2.4,14.5,6.8,20.5c0.1,0.1,0.1,0.2,0.2,0.2c0.7,0.7,1.9,0.8,2.7,0.2c0.9-0.7,1.1-2,0.4-2.9
		c-3.9-5.2-6-11.5-6-18c0-6.6,2.1-12.8,6-18C212.8,81.2,212.6,79.9,211.7,79.2z M231.8,100.1c0-1.1,0.4-2.2,1.1-3.1
		c0.7-0.9,0.5-2.2-0.4-2.9c-0.9-0.7-2.2-0.5-2.9,0.4c-1.2,1.6-1.9,3.6-1.9,5.6c0,2,0.7,4,1.9,5.6c0.1,0.1,0.1,0.1,0.2,0.2
		c0.7,0.7,1.9,0.8,2.7,0.2c0.9-0.7,1.1-2,0.4-2.9C232.2,102.3,231.8,101.2,231.8,100.1z"/>
	<rect id="XMLID_20_" x="578.9" y="5.8" class="st4" width="163.4" height="66.5"/>
	<circle id="XMLID_19_" class="st12" cx="729.7" cy="18.2" r="3.3"/>
	<g id="XMLID_6_">
	</g>
	<line id="XMLID_5_" class="st13" x1="579.5" y1="17.9" x2="587.8" y2="17.9"/>
	<line id="XMLID_4_" class="st13" x1="579.5" y1="23.2" x2="587.8" y2="23.2"/>
	<line id="XMLID_3_" class="st13" x1="579.5" y1="28.5" x2="587.8" y2="28.5"/>
</g>
</svg>
