<?xml version="1.0" encoding="utf-8"?>
<!-- Generator: Adobe Illustrator 19.0.0, SVG Export Plug-In . SVG Version: 6.00 Build 0)  -->
<svg version="1.1" id="Layer_1" xmlns="http://www.w3.org/2000/svg" xmlns:xlink="http://www.w3.org/1999/xlink" x="0px" y="0px"
	 viewBox="-5 0 887.9 250" style="enable-background:new -5 0 887.9 250;" xml:space="preserve">
<style type="text/css">
	.st0{fill:none;stroke:url(#SVGID_1_);stroke-width:8;stroke-miterlimit:10;}
	.st1{fill:none;stroke:url(#SVGID_2_);stroke-width:3.5;stroke-miterlimit:10;}
	.st2{fill:none;stroke:url(#SVGID_3_);stroke-width:3.5;stroke-miterlimit:10;}
	.st3{fill:#FFFFFF;stroke:#5E8BCE;stroke-width:2.4979;stroke-linecap:round;stroke-linejoin:round;stroke-miterlimit:10;}
	.st4{fill:#FFFFFF;stroke:#5E8BCE;stroke-width:1.5;stroke-linecap:round;stroke-linejoin:round;stroke-miterlimit:10;}
	.st5{fill:none;stroke:url(#SVGID_4_);stroke-width:3.5;stroke-miterlimit:10;}
	.st6{fill:url(#SVGID_5_);}
	.st7{fill:none;}
	.st8{fill:#5E8BCE;}
	.st9{fill:none;stroke:#5E8BCE;stroke-width:1.5;stroke-linecap:round;stroke-linejoin:round;stroke-miterlimit:10;}
	.st10{fill:url(#SVGID_6_);}
	.st11{fill:url(#SVGID_7_);}
	.st12{fill:#00FF00;stroke:#5E8BCE;stroke-width:1.5;stroke-linecap:round;stroke-linejoin:round;stroke-miterlimit:10;}
	.st13{fill:none;stroke:#5E8BCE;stroke-width:1.5;stroke-linejoin:round;stroke-miterlimit:10;}
</style>
<g>
	
		<linearGradient id="SVGID_1_" gradientUnits="userSpaceOnUse" x1="553.563" y1="158.7242" x2="332.6686" y2="158.7242" gradientTransform="matrix(1 0 0 -1 0 250)">
		<stop  offset="0" style="stop-color:#F4A44E"/>
		<stop  offset="0.35" style="stop-color:#E6483B"/>
		<stop  offset="0.6989" style="stop-color:#C30F7A"/>
		<stop  offset="1" style="stop-color:#A7178C"/>
	</linearGradient>
	<path class="st0" d="M553.6,51.9H405h-7c-6.2,0-11.2-5-11.2-11.1l0,0v-2.5V12.2c0-4-3.3-7.3-7.3-7.3l0,0l0,0c-4,0-7.3,3.3-7.3,7.3
		v139v10.9v4.4c0,6.1-5,11.1-11.2,11.1l0,0h0.3c-16.8,0.5-18.1-8.1-25.2-19.3"/>
	
		<linearGradient id="SVGID_2_" gradientUnits="userSpaceOnUse" x1="541.2171" y1="166.3805" x2="541.2171" y2="52.1154" gradientTransform="matrix(1 0 0 -1 0 250)">
		<stop  offset="0" style="stop-color:#F4A44E"/>
		<stop  offset="0.35" style="stop-color:#E6483B"/>
		<stop  offset="0.6989" style="stop-color:#C30F7A"/>
		<stop  offset="1" style="stop-color:#A7178C"/>
	</linearGradient>
	<path class="st1" d="M635.9,83.6v18.9v9.6c0,3.5-2.9,6.4-6.5,6.4l0,0c-3.6,0-6.5-2.9-6.5-6.4v-7.7c0-2.7-2.9-5.6-6.5-5.6l0,0
		c-3.6,0-6.5,2.9-6.5,6.4v33.6c0,3.5-2.9,6.4-6.5,6.4l0,0h-2.8h-58.4h-3.4h-3.7c-3.6,0-6.5-2.9-6.5-6.4l0,0v-6.5v-14.8
		c0-3.5-2.9-6.4-6.5-6.4l0,0h-4.9h-42.2c-3.6,0-6.5,2.9-6.5,6.4l0,0c0,3.5,2.9,6.4,5.6,6.4h20.9h2.4h2.7c2.7,0,5.6,2.9,5.6,6.4l0,0
		c0,3.5-2.9,6.4-6.5,6.4H458h-5l0,0c-3.6,0-6.5,2.9-6.5,6.4v55"/>
	
		<linearGradient id="SVGID_3_" gradientUnits="userSpaceOnUse" x1="770.747" y1="167.2301" x2="770.747" y2="48.5442" gradientTransform="matrix(1 0 0 -1 0 250)">
		<stop  offset="0.1935" style="stop-color:#F4A44E"/>
		<stop  offset="0.4038" style="stop-color:#E6483B"/>
		<stop  offset="0.6989" style="stop-color:#C30F7A"/>
		<stop  offset="1" style="stop-color:#A7178C"/>
	</linearGradient>
	<path class="st2" d="M866.2,201.5v-62.3l0,0c0-3.5-2.9-6.4-6.5-6.4H723.6c-3.6,0-6.5-2.9-6.5-6.4l0,0c0-3.5,2.9-6.4,6.5-6.4h86.1
		c3.6,0,6.5-2.9,6.5-6.4l0,0c0-3.5-2.9-6.4-6.5-6.4H681.8c-3.6,0-6.5-2.9-6.5-6.4l0,0V82.8"/>
	<g>
		<polygon class="st3" points="328.2,154 334.4,165.3 343.1,160.7 337,149.3 		"/>
		<polygon class="st3" points="317.2,141.2 325,155.7 340.2,147.6 332.4,133.2 		"/>
	</g>
	<g>
		<rect x="549" y="47.7" class="st4" width="11.2" height="8.4"/>
		<rect x="560.1" y="44.6" class="st4" width="14.2" height="14.5"/>
	</g>
	
		<linearGradient id="SVGID_4_" gradientUnits="userSpaceOnUse" x1="667.3634" y1="167.9503" x2="667.3635" y2="46.9764" gradientTransform="matrix(1 0 0 -1 0 250)">
		<stop  offset="0.1935" style="stop-color:#F4A44E"/>
		<stop  offset="0.4038" style="stop-color:#E6483B"/>
		<stop  offset="0.6989" style="stop-color:#C30F7A"/>
		<stop  offset="1" style="stop-color:#A7178C"/>
	</linearGradient>
	<path class="st5" d="M655.6,82v24v2.3l0,0c0,3.5,2.9,6.4,6.5,6.4h3.7c3.6,0,6.5,2.9,6.5,6.4l0,0c0,3.5-2.9,6.4-6.5,6.4h-2.7h-3.2
		h-10.1c-2.7,0-5.6,2.9-5.6,6.4l0,0c0,3.5,2.9,6.4,6.5,6.4h33.5c3.5,0,6.5,2.9,6.5,6.4l0,0v4V164v39"/>
	
		<linearGradient id="SVGID_5_" gradientUnits="userSpaceOnUse" x1="3431.6255" y1="115.1334" x2="3503.0747" y2="186.5826" gradientTransform="matrix(1 0 0 -1 -3429.4883 250)">
		<stop  offset="0" style="stop-color:#F4A44E"/>
		<stop  offset="0.35" style="stop-color:#E6483B"/>
		<stop  offset="0.6989" style="stop-color:#C30F7A"/>
		<stop  offset="1" style="stop-color:#A7178C"/>
	</linearGradient>
	<path class="st6" d="M37.9,77.8c-11.8,0-21.3,9.6-21.3,21.4c0,11.8,9.6,21.4,21.3,21.4c11.8,0,21.3-9.6,21.3-21.4
		C59.2,87.4,49.6,77.8,37.9,77.8z M37.9,113.9c-8.1,0-14.8-6.6-14.8-14.8c0-8.1,6.6-14.8,14.8-14.8S52.6,91,52.6,99.1
		C52.6,107.3,46,113.9,37.9,113.9z M60.7,71.6c-2.5,0-4.6,2.1-4.6,4.6c0,2.5,2.1,4.6,4.6,4.6s4.6-2.1,4.6-4.6
		C65.4,73.7,63.3,71.6,60.7,71.6z M56.3,56.2h-3.5l0,0H21.1l0,0h-1.7C5.9,56.2-5,67.2-5,80.7v37C-5,131.1,5.9,142,19.4,142h36.9
		c13.5,0,24.4-11,24.4-24.4v-37C80.7,67.2,69.8,56.2,56.3,56.2z M39.1,61.6c-0.4,0-0.8,0-1.3,0c-0.4,0-0.8,0-1.3,0H39.1z
		 M74.1,117.6c0,9.8-8,17.8-17.8,17.8H19.4c-9.8,0-17.8-8-17.8-17.8v-37c0-9.8,8-17.8,17.8-17.8h36.9c9.8,0,17.8,8,17.8,17.8V117.6z
		"/>
	<g>
		<g>
			<rect x="633.2" y="79.5" class="st4" width="5.2" height="6.5"/>
			<rect x="631.3" y="71.6" class="st4" width="9.1" height="8"/>
		</g>
		<g>
			<rect x="653" y="79.5" class="st4" width="5.2" height="6.5"/>
			<rect x="651" y="71.6" class="st4" width="9.1" height="8"/>
		</g>
		<g>
			<rect x="672.7" y="79.5" class="st4" width="5.2" height="6.5"/>
			<rect x="670.8" y="71.6" class="st4" width="9.1" height="8"/>
		</g>
	</g>
	<g>
		<path class="st7" d="M315.4,62.8h-36.9c-9.8,0-17.8,8-17.8,17.8v37c0,9.8,8,17.8,17.8,17.8h36.9c9.8,0,17.8-8,17.8-17.8v-37
			C333.2,70.8,325.2,62.8,315.4,62.8z M296.9,120.5c-11.8,0-21.3-9.6-21.3-21.4c0-11.8,9.6-21.4,21.3-21.4
			c11.8,0,21.3,9.6,21.3,21.4C318.3,110.9,308.7,120.5,296.9,120.5z M319.8,80.9c-2.5,0-4.6-2.1-4.6-4.6c0-2.6,2.1-4.6,4.6-4.6
			c2.5,0,4.6,2.1,4.6,4.6C324.4,78.8,322.4,80.9,319.8,80.9z"/>
		<path class="st7" d="M296.9,84.4c-8.1,0-14.7,6.6-14.7,14.8c0,8.1,6.6,14.8,14.7,14.8c8.1,0,14.8-6.6,14.8-14.8
			C311.7,91,305.1,84.4,296.9,84.4z"/>
		<path class="st8" d="M296.9,60c4.9,0,8.4-2,10.8-5l-4.1-2.7c-1.4,1.8-3.9,3-6.7,3c-2.9,0-5.3-1.2-6.7-3l-4.1,2.7
			C288.5,58,292.1,60,296.9,60z"/>
		<path class="st8" d="M291.9,51.2c1,1.4,2.9,2.3,5,2.3c2.1,0,4-0.9,5-2.3l-2.8-1.9h-4.3L291.9,51.2z"/>
		<path class="st8" d="M344.4,82.3h-4.6v-1.7c0-13.5-10.9-24.4-24.4-24.4H310c-3.1,3.4-7.9,5.4-13.1,5.4c-5.3,0-10.1-2.1-13.1-5.4
			h-5.3c-13.5,0-24.4,11-24.4,24.4v1.7h-4.6c-2.1,0-3.8,1.7-3.8,3.8v26.3c0,2.1,1.7,3.8,3.8,3.8h4.6v1.4c0,13.5,10.9,24.4,24.4,24.4
			h36.9c13.5,0,24.4-11,24.4-24.4v-1.4h4.6c2.1,0,3.8-1.7,3.8-3.8V86.1C348.1,84,346.4,82.3,344.4,82.3z M333.2,117.6
			c0,9.8-8,17.8-17.8,17.8h-36.9c-9.8,0-17.8-8-17.8-17.8v-37c0-9.8,8-17.8,17.8-17.8h36.9c9.8,0,17.8,8,17.8,17.8V117.6z"/>
		<ellipse class="st8" cx="319.8" cy="76.2" rx="4.6" ry="4.6"/>
		<path class="st8" d="M296.9,77.8c-11.8,0-21.3,9.6-21.3,21.4c0,11.8,9.6,21.4,21.3,21.4c11.8,0,21.3-9.6,21.3-21.4
			C318.3,87.4,308.7,77.8,296.9,77.8z M296.9,113.9c-8.1,0-14.7-6.6-14.7-14.8c0-8.1,6.6-14.8,14.7-14.8c8.1,0,14.8,6.6,14.8,14.8
			C311.7,107.3,305.1,113.9,296.9,113.9z"/>
		<path class="st8" d="M296.9,28.3c-1.2,0-2.1,1-2.1,2.1v18.9h4.3V30.4C299.1,29.2,298.1,28.3,296.9,28.3z"/>
	</g>
	<g>
		<g>
			<g>
				<path class="st4" d="M542.7,242.1v-52.7c0-2.4-2-4.4-4.5-4.4h-98.5c-2.5,0-4.5,2-4.5,4.4v52.7H542.7z"/>
				<path class="st4" d="M428.1,239.1c0,0.2,0,0.5,0,0.7c0,2.6,1.4,4.7,3.1,4.7h115.5c1.7,0,3.1-2.1,3.1-4.7c0-0.3,0-0.5,0-0.7
					H428.1z"/>
				<rect x="439.3" y="189.3" class="st4" width="99.3" height="47.5"/>
			</g>
			<path class="st9" d="M466.3,167.3c-1,2.8-1.9,4.8-2.3,10c-0.1,0.9,0,3.3,0.1,4.2"/>
			<path class="st9" d="M511,163c-4.6-7.1-12.4-11.8-21.4-11.8c-5.8,0-11.1,2-15.4,5.3"/>
			<path class="st9" d="M515.1,180.8c0.1-0.9,0.1-2.6,0.1-3.5c0-5.3-1.5-10.2-4.2-14.4"/>
			<path class="st9" d="M477.7,196.7c-6,0-7.2-3.2-9.4-5.7"/>
			<path class="st4" d="M508.6,175.1l0.7-14.1c0,0-1.4-1.8-4.8-3.6c-4.3-2.3-12.6-4.5-22.9-2.9c-8.1,1.2-11.7,4.3-11.7,4.3
				c4.5-1.1,1.2,1.2-1.7,2.8c-3.5,1.9-5.3,0.3-5.3,0.3s0.3,3.7,3.4,5.5c4.4,2.5,4.6,2.2,4.6,2.1c0,0.1,0.1,3.9,0.3,6.9l-1.7,2.8
				l3.4,11.7c2.3,5.2,9.2,10.3,17,10.3c7.9,0,14.6-4.9,16.8-10.3l2-13.2L508.6,175.1z"/>
			<g>
				<path class="st4" d="M508.6,176l2.9,0.3c1.8,0.2,3.1,1.8,2.8,3.6l-0.1,1.2l0.6,0.1c0.7,0.1,1.3,0.7,1.2,1.5l-0.4,3.5
					c-0.1,0.7-0.8,1.2-1.5,1.1l-0.6-0.1l-0.1,1.2c-0.2,1.8-1.8,3-3.6,2.8l-2.9-0.3L508.6,176z"/>
				<path class="st4" d="M471.2,176l-2.9,0.3c-1.8,0.2-3.1,1.8-2.8,3.6l0.1,1.2l-0.6,0.1c-0.7,0.1-1.3,0.7-1.2,1.5l0.4,3.5
					c0.1,0.7,0.8,1.2,1.5,1.1l0.6-0.1l0.1,1.2c0.2,1.8,1.8,3,3.6,2.8l2.9-0.3L471.2,176z"/>
			</g>
			<path class="st4" d="M508,246.7l2.4-19.7c0,0,6.8,18.4,12.7,19.5c3.6,0.7,6.9-1.1,7.9-4.4c1-3.3-1.6-9.7-4-16
				c-2.4-6.3-7.9-18.1-12.2-20.3c-4.3-2.2-15.3-4.8-15.3-4.8c-2,1.4-6.7,2.6-9.1,2.6c-2.6,0-8.2-1-10.3-2.6c0,0-10.9,2.5-15.3,4.8
				c-4.3,2.2-9.8,14-12.2,20.3c-2.4,6.4-5,12.7-4,16c1,3.3,4.2,5.1,7.9,4.4c6-1.1,12.7-19.5,12.7-19.5l2.4,19.7"/>
			<path class="st9" d="M464.3,247.7c7.4-0.7,15.9-1.2,25-1.2c9.8,0,18.9,0.5,26.8,1.3"/>
		</g>
		<g>
			<g>
				<path class="st4" d="M708.7,242.1v-52.7c0-2.4-2-4.4-4.5-4.4h-98.5c-2.5,0-4.5,2-4.5,4.4v52.7H708.7z"/>
				<path class="st4" d="M594.2,239.1c0,0.2,0,0.5,0,0.7c0,2.6,1.4,4.7,3.1,4.7h115.5c1.7,0,3.1-2.1,3.1-4.7c0-0.3,0-0.5,0-0.7
					H594.2z"/>
				<rect x="605.4" y="189.3" class="st4" width="99.3" height="47.5"/>
			</g>
			<path class="st9" d="M632.4,167.3c-1,2.8-1.9,4.8-2.3,10c-0.1,0.9,0,3.3,0.1,4.2"/>
			<path class="st9" d="M677.1,163c-4.6-7.1-12.4-11.8-21.4-11.8c-5.8,0-11.1,2-15.4,5.3"/>
			<path class="st9" d="M681.1,180.8c0.1-0.9,0.1-2.6,0.1-3.5c0-5.3-1.5-10.2-4.2-14.4"/>
			<path class="st9" d="M643.7,196.7c-6,0-7.2-3.2-9.4-5.7"/>
			<path class="st4" d="M674.7,175.1l0.7-14.1c0,0-1.4-1.8-4.8-3.6c-4.3-2.3-12.6-4.5-22.9-2.9c-8.1,1.2-11.7,4.3-11.7,4.3
				c4.5-1.1,1.2,1.2-1.7,2.8c-3.5,1.9-5.3,0.3-5.3,0.3s0.3,3.7,3.4,5.5c4.4,2.5,4.6,2.2,4.6,2.1c0,0.1,0.1,3.9,0.3,6.9l-1.7,2.8
				l3.4,11.7c2.3,5.2,9.2,10.3,17,10.3c7.9,0,14.6-4.9,16.8-10.3l2-13.2L674.7,175.1z"/>
			<g>
				<path class="st4" d="M674.6,176l2.9,0.3c1.8,0.2,3.1,1.8,2.8,3.6l-0.1,1.2l0.6,0.1c0.7,0.1,1.3,0.7,1.2,1.5l-0.4,3.5
					c-0.1,0.7-0.8,1.2-1.5,1.1l-0.6-0.1l-0.1,1.2c-0.2,1.8-1.8,3-3.6,2.8l-2.9-0.3L674.6,176z"/>
				<path class="st4" d="M637.2,176l-2.9,0.3c-1.8,0.2-3.1,1.8-2.8,3.6l0.1,1.2l-0.6,0.1c-0.7,0.1-1.3,0.7-1.2,1.5l0.4,3.5
					c0.1,0.7,0.8,1.2,1.5,1.1l0.6-0.1l0.2,1.2c0.2,1.8,1.8,3,3.6,2.8l2.9-0.3L637.2,176z"/>
			</g>
			<path class="st4" d="M674.1,246.7l2.4-19.7c0,0,6.8,18.4,12.7,19.5c3.6,0.7,6.9-1.1,7.9-4.4c1-3.3-1.6-9.7-4-16
				c-2.4-6.3-7.9-18.1-12.2-20.3c-4.3-2.2-15.3-4.8-15.3-4.8c-2,1.4-6.7,2.6-9.1,2.6c-2.6,0-8.2-1-10.3-2.6c0,0-10.9,2.5-15.3,4.8
				c-4.3,2.2-9.8,14-12.2,20.3c-2.4,6.4-5,12.7-4,16c1,3.3,4.2,5.1,7.9,4.4c6-1.1,12.7-19.5,12.7-19.5l2.4,19.7"/>
			<path class="st9" d="M630.4,247.7c7.4-0.7,15.9-1.2,25-1.2c9.8,0,18.9,0.5,26.8,1.3"/>
		</g>
		<g>
			<g>
				<path class="st4" d="M875.8,242.1v-52.7c0-2.4-2-4.4-4.5-4.4h-98.5c-2.5,0-4.5,2-4.5,4.4v52.7H875.8z"/>
				<path class="st4" d="M761.3,239.1c0,0.2,0,0.5,0,0.7c0,2.6,1.4,4.7,3.1,4.7h115.5c1.7,0,3.1-2.1,3.1-4.7c0-0.3,0-0.5,0-0.7
					H761.3z"/>
				<rect x="772.4" y="189.3" class="st4" width="99.3" height="47.5"/>
			</g>
			<path class="st9" d="M799.5,167.3c-1,2.8-1.9,4.8-2.3,10c-0.1,0.9,0,3.3,0.1,4.2"/>
			<path class="st9" d="M844.1,163c-4.6-7.1-12.4-11.8-21.4-11.8c-5.8,0-11.1,2-15.4,5.3"/>
			<path class="st9" d="M848.2,180.8c0.1-0.9,0.1-2.6,0.1-3.5c0-5.3-1.5-10.2-4.2-14.4"/>
			<path class="st9" d="M810.8,196.7c-6,0-7.2-3.2-9.4-5.7"/>
			<path class="st4" d="M841.7,175.1l0.7-14.1c0,0-1.4-1.8-4.8-3.6c-4.3-2.3-12.6-4.5-22.9-2.9c-8.1,1.2-11.7,4.3-11.7,4.3
				c4.5-1.1,1.2,1.2-1.7,2.8c-3.5,1.9-5.3,0.3-5.3,0.3s0.3,3.7,3.4,5.5c4.4,2.5,4.6,2.2,4.6,2.1c0,0.1,0.1,3.9,0.3,6.9l-1.7,2.8
				l3.4,11.7c2.3,5.2,9.2,10.3,17,10.3c7.9,0,14.6-4.9,16.8-10.3l2-13.2L841.7,175.1z"/>
			<g>
				<path class="st4" d="M841.7,176l2.9,0.3c1.8,0.2,3.1,1.8,2.8,3.6l-0.2,1.2l0.6,0.1c0.7,0.1,1.3,0.7,1.2,1.5l-0.4,3.5
					c-0.1,0.7-0.8,1.2-1.5,1.1l-0.6-0.1l-0.1,1.2c-0.2,1.8-1.8,3-3.6,2.8l-2.9-0.3L841.7,176z"/>
				<path class="st4" d="M804.3,176l-2.9,0.3c-1.8,0.2-3.1,1.8-2.8,3.6l0.1,1.2l-0.6,0.1c-0.7,0.1-1.3,0.7-1.2,1.5l0.4,3.5
					c0.1,0.7,0.8,1.2,1.5,1.1l0.6-0.1l0.1,1.2c0.2,1.8,1.8,3,3.6,2.8l2.9-0.3L804.3,176z"/>
			</g>
			<path class="st4" d="M841.1,246.7l2.4-19.7c0,0,6.8,18.4,12.7,19.5c3.6,0.7,6.9-1.1,7.9-4.4c1-3.3-1.6-9.7-4-16
				c-2.4-6.3-7.9-18.1-12.2-20.3c-4.3-2.2-15.3-4.8-15.3-4.8c-2,1.4-6.7,2.6-9.1,2.6c-2.6,0-8.2-1-10.3-2.6c0,0-10.9,2.5-15.3,4.8
				c-4.3,2.2-9.8,14-12.2,20.3c-2.4,6.4-5,12.7-4,16c1,3.3,4.2,5.1,7.9,4.4c6-1.1,12.7-19.5,12.7-19.5l2.4,19.7"/>
			<path class="st9" d="M797.4,247.7c7.4-0.7,15.9-1.2,25-1.2c9.8,0,18.9,0.5,26.8,1.3"/>
		</g>
	</g>
	
		<linearGradient id="SVGID_6_" gradientUnits="userSpaceOnUse" x1="96.9082" y1="150.8582" x2="155.38" y2="150.8582" gradientTransform="matrix(1 0 0 -1 0 250)">
		<stop  offset="0" style="stop-color:#F4A44E"/>
		<stop  offset="0.35" style="stop-color:#E6483B"/>
		<stop  offset="0.6989" style="stop-color:#5E8BCE"/>
		<stop  offset="1" style="stop-color:#5E8BCE"/>
	</linearGradient>
	<path class="st10" d="M108.1,85.6c-0.9,0.7-1.1,2-0.4,2.9c2.4,3.1,3.6,6.8,3.6,10.7c0,3.9-1.2,7.6-3.6,10.7
		c-0.7,0.9-0.5,2.2,0.4,2.9c0.8,0.6,2,0.5,2.7-0.2c0.1-0.1,0.1-0.1,0.2-0.2c2.9-3.8,4.4-8.3,4.4-13.1c0-4.8-1.5-9.3-4.4-13.1
		C110.3,85.1,109,84.9,108.1,85.6z M97.7,93.2c-0.9,0.7-1.1,2-0.4,2.9c0.7,0.9,1.1,2,1.1,3.1c0,1.1-0.4,2.2-1.1,3.1
		c-0.7,0.9-0.5,2.2,0.4,2.9c0.8,0.6,2,0.5,2.7-0.2c0.1-0.1,0.1-0.1,0.2-0.2c1.2-1.6,1.9-3.5,1.9-5.5c0-2-0.7-3.9-1.9-5.5
		C99.9,92.7,98.6,92.5,97.7,93.2z M121.4,78.9c-0.7-0.9-2-1.1-2.9-0.4c-0.9,0.7-1.1,2-0.4,2.9c3.9,5.2,6,11.3,6,17.8
		c0,6.5-2.1,12.6-6,17.8c-0.7,0.9-0.5,2.2,0.4,2.9c0.8,0.6,2,0.5,2.7-0.2c0.1-0.1,0.1-0.1,0.2-0.2c4.5-5.9,6.8-12.9,6.8-20.2
		C128.2,91.8,125.9,84.8,121.4,78.9z M131.8,71.6c-0.7-0.9-2-1.1-2.9-0.4c-0.9,0.7-1.1,2-0.4,2.9c5.5,7.3,8.5,16,8.5,25.1
		c0,9.1-2.9,17.8-8.5,25.1c-0.7,0.9-0.5,2.2,0.4,2.9c0.8,0.6,2,0.5,2.7-0.2c0.1-0.1,0.1-0.1,0.2-0.2c6.1-8,9.3-17.5,9.3-27.5
		C141.1,89.1,137.9,79.6,131.8,71.6z M142.4,64.9c-0.5,0-0.9,0.1-1.3,0.4c-0.9,0.7-1.1,2-0.4,2.9c6.8,9,10.4,19.7,10.4,30.9
		s-3.6,21.9-10.4,30.9c-0.7,0.9-0.5,2.2,0.4,2.9c0.4,0.3,0.8,0.4,1.3,0.4c0.6,0,1.1-0.2,1.5-0.6c0.1-0.1,0.1-0.1,0.2-0.2
		c7.4-9.7,11.3-21.3,11.3-33.4c0-12.2-3.9-23.7-11.3-33.4C143.7,65.2,143.1,64.9,142.4,64.9z"/>
	
		<linearGradient id="SVGID_7_" gradientUnits="userSpaceOnUse" x1="169.834" y1="150.8582" x2="228.3049" y2="150.8582" gradientTransform="matrix(1 0 0 -1 0 250)">
		<stop  offset="0" style="stop-color:#F4A44E"/>
		<stop  offset="0.35" style="stop-color:#E6483B"/>
		<stop  offset="0.6989" style="stop-color:#5E8BCE"/>
		<stop  offset="1" style="stop-color:#5E8BCE"/>
	</linearGradient>
	<path class="st11" d="M174.1,99.1c0-11.3,3.6-21.9,10.4-30.9c0.7-0.9,0.5-2.2-0.4-2.9c-0.4-0.3-0.8-0.4-1.3-0.4
		c-0.7,0-1.3,0.3-1.7,0.8c-7.4,9.7-11.3,21.3-11.3,33.4c0,12.2,3.9,23.7,11.3,33.4c0.1,0.1,0.1,0.2,0.2,0.2c0.4,0.4,0.9,0.6,1.5,0.6
		c0.5,0,0.9-0.1,1.3-0.4c0.9-0.7,1.1-2,0.4-2.9C177.7,121.1,174.1,110.4,174.1,99.1z M188.3,99.1c0-9.1,2.9-17.8,8.5-25.1
		c0.7-0.9,0.5-2.2-0.4-2.9c-0.9-0.7-2.2-0.5-2.9,0.4c-6.1,8-9.3,17.5-9.3,27.5c0,10,3.2,19.5,9.3,27.5c0.1,0.1,0.1,0.2,0.2,0.2
		c0.7,0.7,1.9,0.8,2.7,0.2c0.9-0.7,1.1-2,0.4-2.9C191.2,116.9,188.3,108.3,188.3,99.1z M217.1,85.6c-0.9-0.7-2.2-0.5-2.9,0.4
		c-2.9,3.8-4.4,8.3-4.4,13.1c0,4.8,1.5,9.3,4.4,13.1c0.1,0.1,0.1,0.2,0.2,0.2c0.7,0.7,1.9,0.8,2.7,0.2c0.9-0.7,1.1-2,0.4-2.9
		c-2.4-3.1-3.6-6.8-3.6-10.7c0-3.9,1.2-7.6,3.6-10.7C218.2,87.6,218,86.3,217.1,85.6z M206.7,78.5c-0.9-0.7-2.2-0.5-2.9,0.4
		c-4.5,5.9-6.8,12.9-6.8,20.2c0,7.4,2.4,14.4,6.8,20.2c0.1,0.1,0.1,0.2,0.2,0.2c0.7,0.7,1.9,0.8,2.7,0.2c0.9-0.7,1.1-2,0.4-2.9
		c-3.9-5.2-6-11.3-6-17.8c0-6.5,2.1-12.6,6-17.8C207.8,80.4,207.6,79.2,206.7,78.5z M226.8,99.1c0-1.1,0.4-2.2,1.1-3.1
		c0.7-0.9,0.5-2.2-0.4-2.9c-0.9-0.7-2.2-0.5-2.9,0.4c-1.2,1.6-1.9,3.5-1.9,5.5c0,2,0.7,3.9,1.9,5.5c0.1,0.1,0.1,0.1,0.2,0.2
		c0.7,0.7,1.9,0.8,2.7,0.2c0.9-0.7,1.1-2,0.4-2.9C227.2,101.3,226.8,100.3,226.8,99.1z"/>
	<rect x="573.9" y="5.9" class="st4" width="163.4" height="65.7"/>
	<ellipse class="st12" cx="724.7" cy="18.3" rx="3.3" ry="3.3"/>
	<line class="st13" x1="574.5" y1="17.9" x2="582.8" y2="17.9"/>
	<line class="st13" x1="574.5" y1="23.2" x2="582.8" y2="23.2"/>
	<line class="st13" x1="574.5" y1="28.4" x2="582.8" y2="28.4"/>
</g>
</svg>
