<svg xmlns="http://www.w3.org/2000/svg" viewBox="0 0 98.17 74.62"><defs><style>.cls-1{font-size:16px;font-family:SFUIDisplay-Light, SFUIDisplay Light;}.cls-1,.cls-6{fill:#fff;}.cls-2{letter-spacing:0em;}.cls-3{letter-spacing:-0.02em;}.cls-4{letter-spacing:0em;}.cls-5{letter-spacing:-0.01em;}</style></defs><title>Ресурс 1</title><g id="Слой_2" data-name="Слой 2"><g id="content"><text class="cls-1" transform="translate(0 13.39)">и<tspan class="cls-2" x="8.86" y="0">н</tspan><tspan class="cls-3" x="17.55" y="0">т</tspan><tspan class="cls-4" x="23.81" y="0">е</tspan><tspan class="cls-5" x="31.82" y="0">г</tspan><tspan x="37.87" y="0">рирован</tspan></text><path class="cls-6" d="M56.8,34.92,38.12,42.24s-.88.3-.81.86.79.81.79.81l4.7,1.58s1.42,4.65,1.7,5.53.5.9.5.9a.53.53,0,0,0,.5-.07l3-2.77,4.73,3.63a1.23,1.23,0,0,0,1.74-.6l3.33-16.76C58.33,34.24,56.8,34.92,56.8,34.92Zm-2.33,3.81c-.35.33-8.86,8-8.86,8l-.45,3.8L43.51,45l10.56-6.71s.65-.4.63,0C54.7,38.33,54.82,38.4,54.47,38.73Z"/><path class="cls-6" d="M49.09,61.72a18.5,18.5,0,1,1,18.5-18.5A18.52,18.52,0,0,1,49.09,61.72Zm0-34.53a16,16,0,1,0,16,16A16.05,16.05,0,0,0,49.09,27.19Z"/><path class="cls-6" d="M33.52,72.84h-.65V66.61H30.59V66H35.8v.59H33.52Z"/><path class="cls-6" d="M39,71.4h.62A1.65,1.65,0,0,1,39,72.48a2.32,2.32,0,0,1-1.4.42,2.15,2.15,0,0,1-1.68-.7,2.73,2.73,0,0,1-.62-1.89,2.79,2.79,0,0,1,.62-1.9,2.08,2.08,0,0,1,1.65-.71,2,2,0,0,1,1.6.67,2.62,2.62,0,0,1,.6,1.81v.27H35.9v0a2,2,0,0,0,.46,1.36,1.57,1.57,0,0,0,1.22.5,1.69,1.69,0,0,0,1-.26A1.16,1.16,0,0,0,39,71.4Zm-1.52-3.15a1.49,1.49,0,0,0-1.13.47,1.86,1.86,0,0,0-.48,1.23h3.17a1.77,1.77,0,0,0-.44-1.23A1.45,1.45,0,0,0,37.51,68.25Z"/><path class="cls-6" d="M40.64,72.84V65.72h.63v7.12Z"/><path class="cls-6" d="M46,71.4h.62a1.65,1.65,0,0,1-.69,1.08,2.33,2.33,0,0,1-1.4.42,2.15,2.15,0,0,1-1.68-.7,2.73,2.73,0,0,1-.62-1.89,2.79,2.79,0,0,1,.62-1.9,2.08,2.08,0,0,1,1.65-.71,2,2,0,0,1,1.6.67,2.62,2.62,0,0,1,.6,1.81v.27H42.83v0a2,2,0,0,0,.46,1.36,1.57,1.57,0,0,0,1.22.5,1.69,1.69,0,0,0,1-.26A1.17,1.17,0,0,0,46,71.4Zm-1.52-3.15a1.48,1.48,0,0,0-1.13.47,1.86,1.86,0,0,0-.48,1.23H46a1.77,1.77,0,0,0-.44-1.23A1.45,1.45,0,0,0,44.44,68.25Z"/><path class="cls-6" d="M49.56,74.62a2.54,2.54,0,0,1-1.4-.36,1.36,1.36,0,0,1-.65-.94h.65a.9.9,0,0,0,.48.55,2,2,0,0,0,1,.21,1.78,1.78,0,0,0,1.14-.34,1.13,1.13,0,0,0,.43-.93v-1h0a1.8,1.8,0,0,1-.68.8,2,2,0,0,1-2.62-.41,3.24,3.24,0,0,1,0-3.75A2.07,2.07,0,0,1,50.5,68a1.85,1.85,0,0,1,.7.81h0V67.75h.6v5a1.68,1.68,0,0,1-.6,1.37A2.49,2.49,0,0,1,49.56,74.62Zm0-2.31a1.47,1.47,0,0,0,1.2-.56,2.23,2.23,0,0,0,.46-1.46,2.25,2.25,0,0,0-.46-1.47,1.47,1.47,0,0,0-1.2-.57,1.44,1.44,0,0,0-1.17.56,2.65,2.65,0,0,0,0,2.94A1.44,1.44,0,0,0,49.52,72.31Z"/><path class="cls-6" d="M52.92,72.84V67.75h.59v.9h0a1.3,1.3,0,0,1,.47-.71,1.33,1.33,0,0,1,.82-.25,1.36,1.36,0,0,1,.38.05v.62a1.14,1.14,0,0,0-.46-.07,1.07,1.07,0,0,0-.86.38,1.5,1.5,0,0,0-.32,1v3.16Z"/><path class="cls-6" d="M57.31,72.9a1.82,1.82,0,0,1-1.23-.41,1.34,1.34,0,0,1-.47-1.07,1.23,1.23,0,0,1,.48-1A2.56,2.56,0,0,1,57.47,70l1.56-.1v-.44a1.11,1.11,0,0,0-.34-.87,1.37,1.37,0,0,0-1-.31,1.44,1.44,0,0,0-.88.26,1.1,1.1,0,0,0-.44.71h-.6a1.45,1.45,0,0,1,.58-1.1,2.11,2.11,0,0,1,1.34-.43,2,2,0,0,1,1.39.45,1.54,1.54,0,0,1,.52,1.22v3.47h-.6v-1h0a1.66,1.66,0,0,1-.68.75A2,2,0,0,1,57.31,72.9Zm.12-.55a1.66,1.66,0,0,0,1.15-.41,1.3,1.3,0,0,0,.46-1v-.56l-1.49.1a1.86,1.86,0,0,0-1,.29.79.79,0,0,0-.33.67.81.81,0,0,0,.33.67A1.37,1.37,0,0,0,57.43,72.35Z"/><path class="cls-6" d="M60.76,72.84V67.75h.59v.95h0a1.48,1.48,0,0,1,.56-.73,1.57,1.57,0,0,1,.93-.27,1.53,1.53,0,0,1,.93.29,1.46,1.46,0,0,1,.54.78h0a1.6,1.6,0,0,1,.62-.77,1.72,1.72,0,0,1,1-.29,1.59,1.59,0,0,1,1.2.46,1.68,1.68,0,0,1,.45,1.23v3.46H67V69.53a1.32,1.32,0,0,0-.31-.94,1.13,1.13,0,0,0-.87-.34,1.2,1.2,0,0,0-.93.4,1.44,1.44,0,0,0-.36,1v3.18h-.62V69.47a1.21,1.21,0,0,0-.33-.88,1.14,1.14,0,0,0-.85-.34,1.19,1.19,0,0,0-.93.42,1.56,1.56,0,0,0-.37,1.07v3.11Z"/></g></g></svg>