<svg xmlns="http://www.w3.org/2000/svg" viewBox="0 0 37 49.9"><defs><style>.cls-1{fill:#fff;}</style></defs><title>Ресурс 2</title><g id="Слой_2" data-name="Слой 2"><g id="content"><path class="cls-1" d="M26.21,10.2,7.54,17.52s-.88.3-.81.86.79.81.79.81l4.7,1.58s1.42,4.65,1.7,5.53.5.9.5.9a.53.53,0,0,0,.5-.07l3-2.77L22.67,28a1.23,1.23,0,0,0,1.74-.6l3.33-16.76C27.74,9.52,26.21,10.2,26.21,10.2ZM23.88,14c-.35.33-8.86,8-8.86,8l-.45,3.8-1.65-5.46,10.56-6.71s.65-.4.63,0C24.12,13.61,24.23,13.68,23.88,14Z"/><path class="cls-1" d="M18.5,37A18.5,18.5,0,1,1,37,18.5,18.52,18.52,0,0,1,18.5,37Zm0-34.53a16,16,0,1,0,16,16A16.05,16.05,0,0,0,18.5,2.47Z"/><path class="cls-1" d="M2.93,48.12H2.29V41.89H0V41.3H5.21v.59H2.93Z"/><path class="cls-1" d="M8.45,46.68h.62a1.65,1.65,0,0,1-.69,1.08,2.32,2.32,0,0,1-1.4.42,2.15,2.15,0,0,1-1.68-.7,2.73,2.73,0,0,1-.62-1.89,2.79,2.79,0,0,1,.62-1.9A2.08,2.08,0,0,1,6.94,43a2,2,0,0,1,1.6.67,2.62,2.62,0,0,1,.6,1.81v.27H5.31v0a2,2,0,0,0,.46,1.36,1.57,1.57,0,0,0,1.22.5,1.69,1.69,0,0,0,1-.26A1.16,1.16,0,0,0,8.45,46.68ZM6.93,43.53A1.49,1.49,0,0,0,5.8,44a1.86,1.86,0,0,0-.48,1.23H8.48A1.77,1.77,0,0,0,8,44,1.45,1.45,0,0,0,6.93,43.53Z"/><path class="cls-1" d="M10.05,48.12V41h.63v7.12Z"/><path class="cls-1" d="M15.37,46.68H16a1.65,1.65,0,0,1-.69,1.08,2.33,2.33,0,0,1-1.4.42,2.15,2.15,0,0,1-1.68-.7,2.73,2.73,0,0,1-.62-1.89,2.79,2.79,0,0,1,.62-1.9A2.08,2.08,0,0,1,13.86,43a2,2,0,0,1,1.6.67,2.62,2.62,0,0,1,.6,1.81v.27H12.24v0a2,2,0,0,0,.46,1.36,1.57,1.57,0,0,0,1.22.5,1.69,1.69,0,0,0,1-.26A1.17,1.17,0,0,0,15.37,46.68Zm-1.52-3.15a1.48,1.48,0,0,0-1.13.47,1.86,1.86,0,0,0-.48,1.23h3.17A1.77,1.77,0,0,0,15,44,1.45,1.45,0,0,0,13.85,43.53Z"/><path class="cls-1" d="M19,49.9a2.54,2.54,0,0,1-1.4-.36,1.36,1.36,0,0,1-.65-.94h.65a.9.9,0,0,0,.48.55,2,2,0,0,0,1,.21A1.78,1.78,0,0,0,20.16,49a1.13,1.13,0,0,0,.43-.93V47h0a1.8,1.8,0,0,1-.68.8,2,2,0,0,1-2.62-.41,3.24,3.24,0,0,1,0-3.75,2.07,2.07,0,0,1,2.64-.41,1.85,1.85,0,0,1,.7.81h0V43h.6v5a1.68,1.68,0,0,1-.6,1.37A2.49,2.49,0,0,1,19,49.9Zm0-2.31a1.47,1.47,0,0,0,1.2-.56,2.23,2.23,0,0,0,.46-1.46,2.25,2.25,0,0,0-.46-1.47,1.47,1.47,0,0,0-1.2-.57,1.44,1.44,0,0,0-1.17.56,2.65,2.65,0,0,0,0,2.94A1.44,1.44,0,0,0,18.93,47.58Z"/><path class="cls-1" d="M22.34,48.12V43h.59v.9h0a1.3,1.3,0,0,1,.47-.71,1.33,1.33,0,0,1,.82-.25,1.36,1.36,0,0,1,.38.05v.62a1.14,1.14,0,0,0-.46-.07,1.07,1.07,0,0,0-.86.38A1.5,1.5,0,0,0,23,45v3.16Z"/><path class="cls-1" d="M26.72,48.18a1.82,1.82,0,0,1-1.23-.41A1.34,1.34,0,0,1,25,46.7a1.23,1.23,0,0,1,.48-1,2.56,2.56,0,0,1,1.39-.44l1.56-.1v-.44a1.11,1.11,0,0,0-.34-.87,1.37,1.37,0,0,0-1-.31,1.44,1.44,0,0,0-.88.26,1.1,1.1,0,0,0-.44.71h-.6a1.45,1.45,0,0,1,.58-1.1A2.11,2.11,0,0,1,27.16,43a2,2,0,0,1,1.39.45,1.54,1.54,0,0,1,.52,1.22v3.47h-.6v-1h0a1.66,1.66,0,0,1-.68.75A2,2,0,0,1,26.72,48.18Zm.12-.55A1.66,1.66,0,0,0,28,47.22a1.3,1.3,0,0,0,.46-1v-.56l-1.49.1A1.86,1.86,0,0,0,26,46a.79.79,0,0,0-.33.67.81.81,0,0,0,.33.67A1.37,1.37,0,0,0,26.84,47.63Z"/><path class="cls-1" d="M30.17,48.12V43h.59V44h0a1.48,1.48,0,0,1,.56-.73,1.57,1.57,0,0,1,.93-.27,1.53,1.53,0,0,1,.93.29,1.46,1.46,0,0,1,.54.78h0a1.6,1.6,0,0,1,.62-.77,1.72,1.72,0,0,1,1-.29,1.59,1.59,0,0,1,1.2.46A1.68,1.68,0,0,1,37,44.67v3.46h-.63V44.81a1.32,1.32,0,0,0-.31-.94,1.13,1.13,0,0,0-.87-.34,1.2,1.2,0,0,0-.93.4,1.44,1.44,0,0,0-.36,1v3.18h-.62V44.75a1.21,1.21,0,0,0-.33-.88,1.14,1.14,0,0,0-.85-.34,1.19,1.19,0,0,0-.93.42A1.56,1.56,0,0,0,30.79,45v3.11Z"/></g></g></svg>