<svg id="Слой_3" data-name="Слой 3" xmlns="http://www.w3.org/2000/svg" viewBox="0 0 128.56 40"><defs><style>.cls-1,.cls-2,.cls-3,.cls-4{fill:#5e8bce;}.cls-2{fill-rule:evenodd;}.cls-3{font-size:12.11px;}.cls-3,.cls-4{font-family:HelveticaNeue-Bold, Helvetica Neue;font-weight:700;}.cls-4{font-size:7.45px;}</style></defs><title>_telegram-01</title><g id="AppleBGbtn"><path class="cls-1" d="M123.08,1a4.32,4.32,0,0,1,4.32,4.32V34.68A4.32,4.32,0,0,1,123.08,39H5.15A4.32,4.32,0,0,1,.84,34.68V5.32A4.32,4.32,0,0,1,5.15,1H123.08m0-1H5.15A5.32,5.32,0,0,0-.16,5.32V34.68A5.32,5.32,0,0,0,5.15,40H123.08a5.32,5.32,0,0,0,5.32-5.32V5.32A5.32,5.32,0,0,0,123.08,0Z" transform="translate(0.16)"/></g><g id="Telegram"><path class="cls-2" d="M32.24,10.77,12,18.58a.58.58,0,0,0,0,1.09l4.94,1.84,1.91,6.14a.58.58,0,0,0,.92.28l2.75-2.24a.82.82,0,0,1,1,0l5,3.6a.58.58,0,0,0,.91-.35L33,11.43A.58.58,0,0,0,32.24,10.77Zm-3.87,4.09-8,7.39a1.65,1.65,0,0,0-.51,1l-.27,2a.25.25,0,0,1-.49,0l-1-3.66a1,1,0,0,1,.42-1.09l9.66-5.94A.17.17,0,0,1,28.37,14.86Z" transform="translate(0.16)"/></g><text class="cls-3" transform="translate(42.68 29.05)">TELEGRAM</text><text class="cls-4" transform="translate(42.6 16.07)">Bots Market</text></svg>