<?xml version="1.0" encoding="utf-8"?>
<!-- Generator: Adobe Illustrator 20.1.0, SVG Export Plug-In . SVG Version: 6.00 Build 0)  -->
<svg version="1.1" id="Layer_1" xmlns="http://www.w3.org/2000/svg" xmlns:xlink="http://www.w3.org/1999/xlink" x="0px" y="0px"
	 viewBox="0 0 40 40" style="enable-background:new 0 0 40 40;" xml:space="preserve">
<style type="text/css">
	.st0{fill:#FFFFFF;}
</style>
<g id="XMLID_1_">
	<g>
		<path class="st0" d="M40,34c0,0.6,0.1,1.5-0.1,2c-0.2,1-0.7,2.2-1.4,2.7c-0.7,0.5-1.3,0.9-2.2,1.2c-0.7,0.2-1.7,0.1-2.5,0.1H5.7
			c-0.7,0-1.6,0-2.2-0.1c-1.4-0.4-2.3-1.3-3-2.4C-0.1,36.6,0,35.2,0,33.8V6c0-1.3,0-2.4,0.4-3.3c0.4-1,1.3-1.9,2.3-2.3
			C3,0.3,3.3,0.2,3.6,0.1C3.7,0,4,0.1,4.1,0h29.2c2.2,0,3.5-0.1,4.8,0.9c0.9,0.6,1.5,1.6,1.8,2.7C40,4.2,40,5,40,5.7V34z M32.4,19.8
			c2.4-3.1,5.6-7.1,2.8-7.1c-0.5,0-0.1,0-5.3,0c-1.1,0-1.1,0.6-1.5,1.5c-1.3,3.2-3.8,7.2-4.8,6.6S23,18,23,14.2c0-1.1,0-1.7-1.5-2.1
			c-4.1-1-7.8,0.9-6.3,1.2c2.1,0.4,1.9,4.5,1.4,6.5c-0.9,3.4-4.1-2.7-5.4-5.7c-0.4-0.7-0.5-1.3-1.6-1.3H5.4c-0.9,0-1.3,0.4-1,1.2
			c0.3,0.7,3.6,8.2,7.7,12.4c3.6,4,7.3,3.6,9.8,3.6c0.8,0,1.1-0.5,1.1-1.2c-0.1-2.5,0.9-3.9,2.7-2.1c2,2,2.4,3.4,4.8,3.4h4.3
			c3.4,0,0.4-3.3-2-5.7C30.6,22.4,30.5,22.3,32.4,19.8z"/>
	</g>
	<g>
	</g>
</g>
</svg>
