<?xml version="1.0" encoding="utf-8"?>
<!-- Generator: Adobe Illustrator 20.1.0, SVG Export Plug-In . SVG Version: 6.00 Build 0)  -->
<svg version="1.1" id="Layer_2" xmlns="http://www.w3.org/2000/svg" xmlns:xlink="http://www.w3.org/1999/xlink" x="0px" y="0px"
	 viewBox="0 0 50 50" style="enable-background:new 0 0 50 50;" xml:space="preserve">
<g>
	<path d="M34.8,50H15.2C6.8,50,0,43.2,0,34.8V15.2C0,6.8,6.8,0,15.2,0h19.6C43.2,0,50,6.8,50,15.2v19.6C50,43.2,43.2,50,34.8,50z
		 M15.2,4.2c-6,0-11,4.9-11,11v19.6c0,6,4.9,11,11,11h19.6c6,0,11-4.9,11-11V15.2c0-6-4.9-11-11-11C34.8,4.2,15.2,4.2,15.2,4.2z"/>
	<path d="M25,37.9c-7.1,0-12.9-5.8-12.9-12.9c0-7.1,5.8-12.9,12.9-12.9S37.9,17.9,37.9,25C37.9,32.1,32.1,37.9,25,37.9z M25,16.3
		c-4.8,0-8.7,3.9-8.7,8.7c0,4.8,3.9,8.7,8.7,8.7c4.8,0,8.7-3.9,8.7-8.7S29.8,16.3,25,16.3z"/>
	<circle cx="38.4" cy="11.6" r="3"/>
</g>
</svg>
