<?xml version="1.0" encoding="utf-8"?>
<!-- Generator: Adobe Illustrator 20.1.0, SVG Export Plug-In . SVG Version: 6.00 Build 0)  -->
<svg version="1.1" id="Layer_2" xmlns="http://www.w3.org/2000/svg" xmlns:xlink="http://www.w3.org/1999/xlink" x="0px" y="0px"
	 viewBox="0 0 50 50" style="enable-background:new 0 0 50 50;" xml:space="preserve">
<style type="text/css">
	.st0{fill:#FFFFFF;}
</style>
<g>
	<g id="XMLID_1_">
		<g>
			<path class="st0" d="M50,15.2v19.6C50,43.2,43.2,50,34.8,50H15.2C6.8,50,0,43.2,0,34.8V15.2C0,6.8,6.8,0,15.2,0h19.6
				C43.2,0,50,6.8,50,15.2z M45.8,34.8V15.2c0-6-4.9-10.9-10.9-10.9H15.2c-6,0-10.9,4.9-10.9,10.9v19.6c0,6,4.9,10.9,10.9,10.9h19.6
				C40.8,45.8,45.8,40.8,45.8,34.8z"/>
			<circle class="st0" cx="38.4" cy="11.6" r="3"/>
			<path class="st0" d="M25,12.1c7.1,0,12.9,5.8,12.9,12.9S32.1,37.9,25,37.9S12.1,32.1,12.1,25S17.9,12.1,25,12.1z M33.7,25
				c0-4.8-3.9-8.7-8.7-8.7s-8.7,3.9-8.7,8.7s3.9,8.7,8.7,8.7S33.7,29.8,33.7,25z"/>
		</g>
		<g>
		</g>
	</g>
</g>
</svg>
