<?xml version="1.0" encoding="utf-8"?>
<!-- Generator: Adobe Illustrator 20.1.0, SVG Export Plug-In . SVG Version: 6.00 Build 0)  -->
<svg version="1.1" id="Layer_1" xmlns="http://www.w3.org/2000/svg" xmlns:xlink="http://www.w3.org/1999/xlink" x="0px" y="0px"
	 viewBox="0 0 40 40" style="enable-background:new 0 0 40 40;" xml:space="preserve">
<style type="text/css">
	.st0{fill:#FFFFFF;}
	.st1{display:none;}
	.st2{display:inline;}
	.st3{fill:#FF0000;}
</style>
<g id="XMLID_1_">
	<g>
		<path class="st0" d="M40,34c0,0.6,0.1,1.5-0.1,2c-0.2,1-0.7,2.2-1.4,2.7c-0.7,0.5-1.3,0.9-2.2,1.2c-0.7,0.2-1.7,0.1-2.5,0.1H5.7
			c-0.7,0-1.6,0-2.2-0.1c-1.4-0.4-2.3-1.3-3-2.4C-0.1,36.6,0,35.2,0,33.8V6c0-1.3,0-2.4,0.4-3.3c0.4-1,1.3-1.9,2.3-2.3
			C3,0.3,3.3,0.2,3.6,0.1C3.7,0,4,0.1,4.1,0h29.2c2.2,0,3.5-0.1,4.8,0.9c0.9,0.6,1.5,1.6,1.8,2.7C40,4.2,40,5,40,5.7V34z M27.5,6.3
			c-2-0.1-4.1-0.4-6.1,0.1c-1.7,0.5-3.1,1.6-3.9,3.2c-0.7,1.6-0.6,4.1-0.6,6.1v1h-4.5v5.1h4.5V35h5.3V21.6h4.3l0.7-5.1h-4
			c-0.2,0-1,0-1,0s-0.2-2.6,0-3.9c0.2-1.1,0.7-1.6,1.8-1.8c1.1-0.1,2.3,0,3.4,0c0-1.5,0-1.5,0-3C27.4,6.9,27.4,7.8,27.5,6.3z"/>
	</g>
	<g>
	</g>
</g>
<g id="Layer_2" class="st1">
	<g class="st2">
		<path class="st3" d="M803.8,49.2v896h-1436v-896L803.8,49.2 M805.8,47.2h-1440v900h1440V47.2L805.8,47.2z"/>
	</g>
	<g class="st2">
		<path class="st3" d="M-933.9,48.9v1330.5h-746.5V48.9H-933.9 M-932.2,47.2h-750v1334h750L-932.2,47.2L-932.2,47.2z"/>
	</g>
</g>
</svg>
