<?xml version="1.0" encoding="utf-8"?>
<!-- Generator: Adobe Illustrator 16.0.0, SVG Export Plug-In . SVG Version: 6.00 Build 0)  -->
<!DOCTYPE svg PUBLIC "-//W3C//DTD SVG 1.1//EN" "http://www.w3.org/Graphics/SVG/1.1/DTD/svg11.dtd">
<svg version="1.1" xmlns="http://www.w3.org/2000/svg" xmlns:xlink="http://www.w3.org/1999/xlink" x="0px" y="0px" width="170px"
	 height="41.313px" viewBox="0 0 170 41.313" enable-background="new 0 0 170 41.313" xml:space="preserve">
<g id="bgr">
	<path fill="#FFFFFF" d="M30.563,5.404c1.435,0.19,2.811,0.36,4.129,0.515c1.317,0.149,2.563,0.227,3.741,0.227
		c0.335,0,0.636-0.079,0.899-0.241c0.262-0.158,0.472-0.375,0.629-0.646c0.155-0.27,0.26-0.567,0.311-0.889
		c0.053-0.318,0.034-0.65-0.057-0.989c-0.12-0.451-0.382-0.86-0.78-1.23c-0.397-0.369-0.98-0.624-1.752-0.768
		c-3.307-0.521-6.442-0.885-9.41-1.084C25.306,0.1,22.489,0,19.829,0c-1.98,0-3.889,0.045-5.725,0.129
		c-1.835,0.086-3.531,0.249-5.092,0.494C7.454,0.867,6.055,1.209,4.816,1.646C3.581,2.084,2.57,2.637,1.782,3.311
		c-0.787,0.672-1.319,1.49-1.596,2.445c-0.278,0.957-0.245,2.077,0.101,3.363c0.176,0.555,0.45,1.045,0.827,1.469
		c0.315,0.368,0.75,0.705,1.31,1.012c0.558,0.307,1.271,0.459,2.137,0.459c0.866,0,1.491-0.154,1.877-0.467
		c0.386-0.314,0.636-0.658,0.753-1.031c0.116-0.376,0.148-0.723,0.099-1.045c-0.05-0.321-0.08-0.498-0.086-0.528
		C7.039,8.38,7.066,7.85,7.286,7.4c0.221-0.443,0.582-0.829,1.077-1.15c0.497-0.318,1.073-0.584,1.728-0.795
		c0.651-0.208,1.351-0.379,2.102-0.517c0.752-0.136,1.533-0.243,2.346-0.324c0.811-0.079,1.615-0.151,2.409-0.214
		c-0.131,2.991-0.595,6.832-0.694,9.275c-0.063,1.612-0.127,1.936-0.258,4.841c-0.086,1.972-0.127,2.65-0.193,4.588
		c-0.107,3.23-0.208,4.716-0.192,5.55c0.028,1.477-0.076,3.456-0.051,4.805c0.026,1.352,0.053,2.701,0.077,4.049
		c0.002,0.352,0.048,0.873,0.127,1.162c0.245,0.918,0.732,1.483,1.431,1.896c0.507,0.298,1.258,0.55,2.066,0.486
		c0.3-0.024,0.819-0.105,1.13-0.26c0.452-0.227,0.658-0.395,0.912-0.697c0.38-0.465,0.435-0.689,0.582-1.115
		c0.146-0.429,0.227-1.193,0.217-1.703c-0.01-1.136-0.029-2.201-0.041-3.787c-0.013-1.58-0.025-3.309-0.04-5.18
		c-0.015-1.868-0.028-3.824-0.047-5.867c-0.015-2.039,0.05-3.426,0.032-5.472c-0.016-2.046-0.086-4.183-0.13-6.132
		c-0.063-2.776-0.146-4.447-0.402-6.434c1.586,0.094,3.139,0.237,4.658,0.426C27.649,5.023,29.127,5.214,30.563,5.404z
		 M168.77,28.799c-0.008-0.014-0.013-0.025-0.021-0.035c-0.134-0.344-0.217-0.77-0.26-1.276c-0.027-0.298-0.027-0.673,0.013-1.119
		c0.027-0.455,0.091-1.024,0.187-1.724c0.091-0.695,0.162-1.264,0.191-1.695c0.031-0.436,0.035-0.774,0.021-1.011
		c-0.025-0.316-0.108-0.598-0.245-0.843c-0.134-0.247-0.305-0.461-0.511-0.631c-0.207-0.17-0.443-0.299-0.709-0.396
		c-0.265-0.091-0.531-0.137-0.802-0.137c-0.783,0-1.455,0.209-2.02,0.63c-0.563,0.419-1.049,0.938-1.467,1.549
		c-0.416,0.616-0.797,1.38-1.145,2.307c-0.349,0.923-0.639,1.673-0.873,2.239h-0.236c-0.094-0.727-0.146-1.574-0.159-2.545
		c-0.016-0.967-0.043-1.709-0.086-2.238c-0.038-0.439-0.083-0.787-0.129-1.045c-0.042-0.257-0.118-0.455-0.231-0.586
		c-0.113-0.138-0.275-0.224-0.479-0.259c-0.211-0.034-0.501-0.054-0.872-0.054c-0.327,0-0.601,0.02-0.819,0.054
		c-0.217,0.035-0.398,0.104-0.537,0.213c-0.141,0.106-0.257,0.251-0.352,0.438c-0.102,0.188-0.192,0.434-0.28,0.748
		c-0.142,0.467-0.277,1.068-0.401,1.796c-0.121,0.727-0.265,1.632-0.424,2.722c-0.161,1.086-0.282,2.11-0.357,3.07
		c-0.081,0.963-0.14,1.908-0.182,2.83c-0.006,0.131-0.008,0.254-0.013,0.383c-0.269,0.234-0.551,0.473-0.86,0.717
		c-0.743,0.593-1.543,1.139-2.393,1.642c-0.857,0.501-1.742,0.919-2.66,1.251c-0.919,0.338-1.808,0.506-2.66,0.506
		c-0.275,0-0.529-0.021-0.775-0.084c-0.236-0.053-0.469-0.152-0.698-0.291c-0.224-0.137-0.451-0.338-0.683-0.582
		c-0.229-0.254-0.469-0.565-0.716-0.941c1.215-0.337,2.327-0.799,3.336-1.396c1.011-0.602,1.868-1.281,2.572-2.049
		c0.703-0.768,1.299-1.687,1.784-2.758c0.482-1.068,0.691-2.039,0.61-2.902c-0.072-0.808-0.274-1.539-0.617-2.194
		c-0.341-0.653-0.789-1.213-1.336-1.673c-0.548-0.459-1.171-0.822-1.879-1.076c-0.709-0.254-1.46-0.383-2.257-0.383
		c-0.981,0-1.852,0.172-2.625,0.516c-0.77,0.342-1.452,0.807-2.046,1.389c-0.595,0.582-1.099,1.254-1.513,2.02
		c-0.416,0.766-0.744,1.572-0.991,2.415c-0.245,0.845-0.475,1.806-0.671,2.899c-0.202,1.089-0.268,2.023-0.199,2.81
		c0.022,0.254,0.057,0.505,0.093,0.754c-0.075,0.032-0.145,0.069-0.221,0.1c-0.543,0.22-1.024,0.329-1.453,0.329
		c-0.585,0-1.069-0.08-1.452-0.236c-0.389-0.155-0.693-0.366-0.936-0.629c-0.229-0.265-0.405-0.56-0.522-0.887
		c-0.116-0.326-0.188-0.658-0.214-1.002c-0.038-0.326-0.041-0.645-0.013-0.95c0.025-0.306,0.061-0.579,0.108-0.822
		c0.063-0.271,0.126-0.533,0.188-0.789c0.066-0.239,0.347-1.13,0.857-2.668c0.068-0.199,0.261-0.657,0.563-1.386
		c0.138-0.339,0.246-0.727,0.324-1.174c0.083-0.353,0.106-0.73,0.073-1.133c-0.045-0.523-0.335-0.955-0.859-1.288
		c-0.53-0.337-1.206-0.503-2.03-0.503c-0.315,0-0.605,0.042-0.878,0.129c-0.27,0.084-0.512,0.195-0.729,0.33
		c-0.217,0.134-0.383,0.295-0.514,0.479c-0.126,0.186-0.199,0.378-0.227,0.58l-4.585,14.237l-0.146,0.024l-0.833-14.156
		c-0.048-0.367-0.176-0.695-0.404-0.984c-0.224-0.283-0.521-0.424-0.88-0.424h-0.231l-0.199,0.041l-2.686,0.407
		c-0.479,0.071-0.754,0.515-0.827,1.335c-0.076,0.813-0.028,2.172,0.139,4.065c0.048,0.567,0.103,1.122,0.166,1.665
		c0.063,0.539,0.142,1.127,0.229,1.77c0.091,0.639,0.194,1.354,0.306,2.145c0.049,0.35,0.103,0.73,0.157,1.133
		c-0.154,0.129-0.313,0.26-0.48,0.391c-0.741,0.593-1.54,1.141-2.395,1.642c-0.857,0.502-1.743,0.92-2.661,1.251
		c-0.915,0.338-1.806,0.506-2.66,0.506c-0.271,0-0.527-0.021-0.769-0.083c-0.24-0.053-0.475-0.152-0.701-0.292
		c-0.228-0.137-0.449-0.335-0.684-0.582c-0.229-0.254-0.469-0.565-0.714-0.941c1.211-0.336,2.325-0.799,3.337-1.396
		c1.008-0.601,1.868-1.281,2.569-2.048c0.706-0.769,1.299-1.688,1.784-2.759c0.482-1.068,0.691-2.039,0.616-2.902
		c-0.068-0.807-0.275-1.539-0.62-2.194c-0.34-0.653-0.786-1.212-1.331-1.672c-0.547-0.46-1.175-0.822-1.882-1.076
		c-0.705-0.255-1.459-0.383-2.256-0.383c-0.979,0-1.852,0.171-2.623,0.516c-0.77,0.341-1.453,0.806-2.048,1.388
		c-0.592,0.582-1.1,1.254-1.511,2.02c-0.418,0.766-0.748,1.572-0.993,2.416c-0.247,0.844-0.475,1.805-0.674,2.898
		c-0.199,1.09-0.27,2.023-0.196,2.811c0.037,0.422,0.102,0.834,0.178,1.243c-0.365,0.312-0.724,0.606-1.075,0.882
		c-0.323,0.246-0.653,0.484-0.996,0.721c-0.343,0.238-0.684,0.449-1.023,0.635c-0.341,0.19-0.666,0.336-0.976,0.445
		c-0.311,0.107-0.603,0.16-0.873,0.16c-0.28,0-0.52-0.085-0.721-0.256c-0.21-0.176-0.376-0.404-0.51-0.701
		c-0.139-0.295-0.247-0.631-0.331-1.007c-0.081-0.373-0.141-0.767-0.177-1.187c-0.029-0.332-0.037-0.672-0.025-1.025
		c0.016-0.354,0.041-0.701,0.078-1.039c0.038-0.337,0.082-0.65,0.129-0.939c0.051-0.286,0.104-0.535,0.161-0.73
		c0.261-0.922,0.896-2.672,1.914-5.247c0.669-1.682,1.215-3.388,1.642-5.104c0.426-1.719,0.857-3.459,1.291-5.221
		c0.438-1.758,0.587-3.662,0.451-5.706c-0.043-0.536-0.081-1.056-0.128-1.565c-0.068-0.812-0.205-1.599-0.399-2.362
		c-0.191-0.761-0.464-1.432-0.813-2.009c-0.34-0.574-0.762-1.04-1.263-1.39c-0.499-0.349-1.085-0.522-1.755-0.522
		c-0.916,0-1.78,0.279-2.59,0.843c-0.81,0.562-1.552,1.342-2.222,2.337c-0.673,0.997-1.269,2.178-1.785,3.545
		c-0.52,1.366-0.907,2.86-1.17,4.482c-0.263,1.623-0.505,3.139-0.734,4.548c-0.224,1.409-0.279,3.039-0.158,4.888
		c-1.074,0.102-2.07,0.354-2.989,0.758c-0.92,0.404-1.797,1.005-2.632,1.801c-0.834,0.793-1.484,1.676-1.946,2.643
		c-0.464,0.966-0.881,1.896-1.252,2.785c-0.372,0.893-0.631,1.808-0.785,2.752c-0.151,0.946-0.188,1.879-0.107,2.805
		c0.007,0.072,0.019,0.144,0.026,0.216c-0.484,0.32-0.744,0.477-0.777,0.465c-0.028-0.015-0.335,0.222-0.919,0.704
		c-0.119,0.129-0.403,0.277-0.858,0.449c-0.302,0.127-0.54,0.191-0.71,0.191c-0.471,0-0.841-0.285-1.111-0.852
		c-0.271-0.568-0.442-1.294-0.521-2.18c-0.045-0.524-0.063-1.104-0.056-1.728c0.01-0.634,0.036-1.264,0.081-1.903
		c0.041-0.645,0.089-1.367,0.14-2.18c0.05-0.814,0.102-1.474,0.157-1.986c0.054-0.512,0.101-0.949,0.131-1.322
		c0.031-0.37,0.04-0.634,0.026-0.791c-0.093-1.051-0.374-1.879-0.847-2.477c-0.474-0.598-1.063-0.897-1.778-0.897
		c-0.711,0-1.347,0.144-1.905,0.427c-0.561,0.287-1.034,0.812-1.422,1.584c-0.085,0.168-0.211,0.432-0.381,0.785
		c-0.168,0.353-0.354,0.766-0.554,1.229c-0.201,0.46-0.417,0.941-0.653,1.447c-0.232,0.511-0.441,1.087-0.626,1.74
		c-0.188,0.66-0.355,1.158-0.512,1.508c-0.152,0.351-0.268,0.604-0.34,0.76h-0.426c-0.011-0.1-0.007-0.291,0.013-0.587
		c0.016-0.288,0.03-0.733,0.043-1.319c0.013-0.593,0.033-1.125,0.066-1.586c0.029-0.457,0.058-0.91,0.084-1.344
		s0.044-0.836,0.055-1.198c0.012-0.358,0.008-0.648-0.012-0.865c-0.068-0.78-0.272-1.407-0.613-1.878
		c-0.34-0.469-0.894-0.705-1.663-0.705c-0.771,0-1.36,0.221-1.77,0.662c-0.409,0.438-0.665,0.986-0.764,1.643
		c-0.126,0.839-0.244,1.852-0.354,3.031c-0.109,1.181-0.187,2.51-0.227,3.983c-0.03,1.036-0.051,2.009-0.063,2.924
		c-0.253,0.22-0.518,0.443-0.807,0.671c-0.745,0.593-1.545,1.14-2.399,1.642c-0.854,0.501-1.741,0.919-2.656,1.251
		c-0.92,0.338-1.807,0.506-2.659,0.506c-0.274,0-0.528-0.021-0.77-0.084c-0.239-0.053-0.475-0.152-0.702-0.291
		c-0.226-0.137-0.453-0.338-0.683-0.583c-0.229-0.253-0.469-0.564-0.716-0.94c1.214-0.336,2.323-0.8,3.336-1.396
		c1.012-0.602,1.868-1.281,2.572-2.048c0.703-0.768,1.297-1.688,1.781-2.759c0.483-1.069,0.69-2.039,0.615-2.901
		c-0.071-0.809-0.279-1.54-0.622-2.195c-0.343-0.653-0.789-1.213-1.333-1.672c-0.547-0.46-1.174-0.822-1.881-1.075
		c-0.706-0.256-1.46-0.384-2.259-0.384c-0.978,0-1.854,0.173-2.623,0.517c-0.768,0.34-1.45,0.805-2.043,1.387
		c-0.596,0.582-1.101,1.254-1.514,2.021c-0.417,0.765-0.745,1.571-0.99,2.414c-0.245,0.844-0.47,1.805-0.67,2.898
		c-0.017,0.084-0.026,0.162-0.04,0.245c-0.184,0.09-0.361,0.183-0.556,0.269c-0.657,0.285-1.307,0.426-1.948,0.426
		c-0.23,0-0.449-0.045-0.665-0.129c-0.213-0.088-0.41-0.234-0.593-0.439c-0.181-0.206-0.338-0.479-0.466-0.824
		c-0.131-0.34-0.219-0.769-0.264-1.28c-0.024-0.296-0.021-0.669,0.01-1.116c0.03-0.45,0.096-1.022,0.191-1.723
		c0.095-0.699,0.157-1.265,0.193-1.695c0.031-0.437,0.039-0.771,0.017-1.012c-0.026-0.314-0.108-0.598-0.244-0.842
		c-0.138-0.247-0.308-0.459-0.516-0.631c-0.207-0.172-0.442-0.301-0.708-0.395c-0.264-0.091-0.533-0.137-0.802-0.137
		c-0.785,0-1.455,0.209-2.018,0.629c-0.562,0.42-1.05,0.934-1.466,1.547c-0.42,0.613-0.799,1.379-1.146,2.309
		c-0.346,0.92-0.636,1.672-0.871,2.237h-0.234c-0.093-0.724-0.146-1.572-0.16-2.54c-0.012-0.969-0.043-1.714-0.09-2.244
		c-0.038-0.436-0.079-0.791-0.122-1.043c-0.043-0.258-0.122-0.453-0.233-0.587c-0.111-0.137-0.272-0.222-0.481-0.257
		c-0.208-0.037-0.498-0.054-0.869-0.054c-0.328,0-0.602,0.019-0.819,0.054c-0.217,0.035-0.396,0.105-0.535,0.211
		c-0.14,0.107-0.259,0.252-0.357,0.439c-0.096,0.187-0.189,0.435-0.275,0.748c-0.146,0.469-0.279,1.066-0.399,1.793
		c-0.121,0.727-0.263,1.632-0.424,2.722c-0.161,1.089-0.281,2.115-0.36,3.075c-0.08,0.96-0.14,1.904-0.18,2.83
		s-0.06,1.801-0.057,2.635c0,0.835,0.027,1.565,0.084,2.191c0.049,0.567,0.13,1.119,0.237,1.649c0.111,0.53,0.282,1.009,0.512,1.427
		c0.228,0.424,0.531,0.758,0.908,1.004c0.379,0.244,0.858,0.373,1.443,0.373c0.257,0,0.488-0.045,0.693-0.135
		s0.392-0.251,0.556-0.48c0.166-0.227,0.322-0.521,0.467-0.888c0.148-0.362,0.296-0.817,0.448-1.374l2.891-10.652h0.342
		c0.192,0.898,0.421,1.778,0.683,2.658c0.261,0.873,0.613,1.664,1.062,2.371c0.446,0.701,1.017,1.271,1.71,1.703
		c0.694,0.437,1.576,0.65,2.643,0.65c0.6,0,1.179-0.081,1.741-0.264c0.433-0.137,0.847-0.309,1.25-0.497
		c0.118,0.44,0.252,0.876,0.419,1.3c0.427,1.095,1.011,2.056,1.749,2.889c0.735,0.828,1.626,1.494,2.667,1.986
		c1.04,0.495,2.226,0.741,3.555,0.741c0.856,0,1.693-0.097,2.51-0.302c0.816-0.197,1.598-0.463,2.346-0.79
		c0.745-0.33,1.454-0.708,2.123-1.132c0.609-0.39,1.176-0.783,1.707-1.184c0.033,0.204,0.065,0.408,0.105,0.608
		c0.111,0.532,0.281,1.012,0.512,1.429c0.227,0.422,0.53,0.756,0.91,1.006c0.378,0.244,0.856,0.369,1.44,0.369
		c0.473,0,0.877-0.104,1.214-0.316c0.324-0.203,0.61-0.601,0.857-1.199l4.624-11.103h0.343c-0.069,1.14-0.119,2.202-0.146,3.19
		c-0.027,0.992-0.004,1.918,0.071,2.769c0.191,2.179,0.604,3.835,1.237,4.962c0.633,1.132,1.342,1.698,2.125,1.698
		s1.522-0.112,2.214-0.343c0.263-0.071,0.929-0.352,1.997-0.853c0.386-0.175,1.282-0.653,2.679-1.435
		c0.116,0.179,0.238,0.351,0.369,0.516c0.505,0.639,1.111,1.15,1.823,1.535c0.709,0.385,1.528,0.576,2.452,0.576
		c0.657,0,1.304-0.111,1.934-0.328c0.63-0.219,1.25-0.516,1.853-0.875c0.604-0.363,1.181-0.791,1.731-1.281
		c0.552-0.489,1.066-1.006,1.545-1.553c0.429,0.881,0.903,1.582,1.42,2.112c0.521,0.53,1.033,0.93,1.53,1.211
		c0.499,0.277,0.954,0.464,1.365,0.556c0.408,0.096,0.713,0.135,0.915,0.135c0.348,0,0.724-0.063,1.13-0.188
		c0.405-0.134,0.819-0.303,1.243-0.505c0.423-0.206,0.85-0.438,1.283-0.703c0.433-0.262,0.842-0.529,1.232-0.805
		c0.697-0.487,1.396-1.027,2.099-1.619c0.253,0.393,0.526,0.768,0.835,1.113c0.732,0.828,1.623,1.494,2.664,1.986
		c1.042,0.495,2.227,0.741,3.559,0.741c0.854,0,1.691-0.097,2.511-0.302c0.813-0.197,1.597-0.463,2.346-0.79
		c0.746-0.33,1.453-0.708,2.123-1.132c0.663-0.426,1.286-0.857,1.861-1.298c0.022-0.019,0.044-0.037,0.065-0.054
		c0.131,0.564,0.308,1.098,0.539,1.594c0.287,0.638,0.698,1.168,1.224,1.592c0.517,0.416,1.221,0.625,2.105,0.625
		c0.454,0,0.94-0.232,1.455-0.695c0.509-0.463,1.013-1.055,1.513-1.78c0.502-0.725,0.974-1.54,1.423-2.438
		c0.448-0.894,0.842-1.771,1.181-2.622c0.058,0.539,0.231,1.059,0.511,1.559c0.278,0.496,0.644,0.939,1.1,1.344
		c0.457,0.393,0.995,0.709,1.622,0.947c0.628,0.232,1.323,0.351,2.093,0.351c0.913,0,1.855-0.179,2.829-0.532
		c0.294-0.107,0.581-0.23,0.867-0.359c0.278,0.449,0.59,0.873,0.936,1.264c0.736,0.828,1.626,1.494,2.668,1.986
		c1.041,0.495,2.226,0.741,3.555,0.741c0.854,0,1.692-0.097,2.512-0.302c0.813-0.197,1.596-0.463,2.342-0.79
		c0.752-0.33,1.458-0.708,2.126-1.132c0.605-0.387,1.169-0.778,1.697-1.176c0.032,0.201,0.064,0.403,0.105,0.601
		c0.108,0.532,0.279,1.009,0.507,1.427c0.234,0.422,0.535,0.755,0.913,1.006c0.378,0.245,0.856,0.373,1.442,0.373
		c0.255,0,0.489-0.047,0.693-0.139c0.202-0.09,0.391-0.248,0.557-0.479c0.165-0.231,0.318-0.52,0.467-0.889
		c0.144-0.361,0.296-0.823,0.443-1.373l2.896-10.656h0.34v-0.008l0.01,0.001c0.194,0.897,0.421,1.78,0.682,2.661
		c0.244,0.83,0.585,1.576,0.995,2.248C167.436,34.728,172.241,31.653,168.77,28.799z M48.951,30.912
		c-0.028-0.304-0.047-0.675-0.051-1.112c-0.011-0.433,0.073-0.976,0.251-1.646c0.176-0.669,0.336-1.228,0.475-1.683
		c0.137-0.451,0.339-0.858,0.601-1.211c0.264-0.354,0.604-0.643,1.019-0.864c0.418-0.224,0.932-0.337,1.546-0.337
		c0.345,0,0.651,0.201,0.922,0.607c0.272,0.401,0.435,0.92,0.49,1.543c0.039,0.448-0.16,1.011-0.603,1.691
		c-0.442,0.686-0.904,1.229-1.392,1.631c-0.486,0.406-1.022,0.734-1.607,0.997C50.016,30.779,49.465,30.912,48.951,30.912z
		 M90.4,34.33c-0.151,0.258-0.314,0.496-0.504,0.732c-0.188,0.229-0.386,0.436-0.599,0.621c-0.214,0.186-0.438,0.332-0.678,0.445
		c-0.237,0.113-0.486,0.173-0.743,0.173c-0.497,0-0.908-0.06-1.231-0.168c-0.324-0.114-0.576-0.256-0.766-0.438
		c-0.187-0.18-0.321-0.376-0.404-0.602c-0.081-0.22-0.134-0.444-0.154-0.668c-0.062-0.719-0.005-1.52,0.175-2.408
		c0.178-0.893,0.46-1.953,0.843-3.188c0.385-1.235,0.907-2.229,1.576-2.98c0.668-0.754,1.452-1.364,2.353-1.82
		c0.016-0.013,0.04,0.127,0.075,0.436c0.041,0.301,0.086,0.689,0.137,1.163c0.047,0.472,0.104,0.996,0.169,1.571
		c0.065,0.572,0.146,1.31,0.236,2.206c0.094,0.9,0.175,1.565,0.242,2.005c0.063,0.438,0.132,0.754,0.192,0.953
		C91.054,33.097,90.748,33.757,90.4,34.33z M95.56,25.172l-0.02-0.218c-0.019-0.218-0.048-0.527-0.082-0.933
		c-0.032-0.406-0.067-0.879-0.1-1.418c-0.033-0.543-0.056-1.14-0.079-1.794c-0.018-0.655-0.027-1.337-0.025-2.047
		c0-0.345,0-0.929,0.006-1.751c0.002-0.823,0.02-1.746,0.056-2.77c0.032-1.025,0.139-2.072,0.314-3.141
		c0.171-1.066,0.335-2.058,0.484-2.968c0.151-0.905,0.388-1.651,0.711-2.227c0.327-0.576,0.724-0.866,1.185-0.866
		c0.26,0,0.472,0.152,0.636,0.45c0.164,0.3,0.28,0.831,0.351,1.604c0.048,0.582,0.078,1.37,0.075,2.369
		c-0.007,0.756-0.064,1.551-0.176,2.396c-0.111,0.834-0.271,1.686-0.459,2.543c-0.188,0.854-0.385,1.72-0.58,2.59
		c-0.196,0.87-0.396,1.71-0.603,2.512C96.75,21.385,96.186,23.271,95.56,25.172z M108.796,30.912
		c-0.025-0.304-0.043-0.675-0.056-1.112c-0.008-0.433,0.075-0.976,0.252-1.646c0.182-0.669,0.336-1.228,0.477-1.683
		c0.139-0.451,0.341-0.858,0.601-1.211c0.265-0.354,0.603-0.643,1.019-0.864c0.416-0.224,0.934-0.337,1.549-0.337
		c0.34,0,0.647,0.201,0.92,0.607c0.272,0.401,0.437,0.92,0.489,1.543c0.038,0.448-0.161,1.011-0.603,1.691
		c-0.438,0.686-0.902,1.225-1.39,1.631c-0.489,0.406-1.021,0.734-1.608,0.997C109.859,30.779,109.31,30.912,108.796,30.912z
		 M143.326,30.912c-0.027-0.304-0.045-0.675-0.053-1.112c-0.01-0.433,0.073-0.976,0.249-1.646c0.18-0.669,0.338-1.228,0.475-1.683
		c0.142-0.451,0.341-0.858,0.603-1.211c0.262-0.354,0.6-0.643,1.018-0.864c0.419-0.224,0.931-0.337,1.547-0.337
		c0.343,0,0.653,0.201,0.923,0.607c0.27,0.401,0.434,0.92,0.486,1.543c0.044,0.448-0.159,1.011-0.601,1.691
		c-0.441,0.686-0.905,1.229-1.392,1.631c-0.486,0.406-1.021,0.734-1.606,0.997C144.388,30.779,143.841,30.912,143.326,30.912z"/>
</g>
<g id="content">
</g>
<g id="device">
</g>
</svg>
