<?xml version="1.0" encoding="utf-8"?>
<!-- Generator: Adobe Illustrator 16.0.0, SVG Export Plug-In . SVG Version: 6.00 Build 0)  -->
<!DOCTYPE svg PUBLIC "-//W3C//DTD SVG 1.1//EN" "http://www.w3.org/Graphics/SVG/1.1/DTD/svg11.dtd">
<svg version="1.1" id="Layer_1" xmlns="http://www.w3.org/2000/svg" xmlns:xlink="http://www.w3.org/1999/xlink" x="0px" y="0px"
	 width="133.557px" height="32px" viewBox="0 0 133.557 32" enable-background="new 0 0 133.557 32" xml:space="preserve">
<path fill="#1EA503" d="M98.382,32c-0.604,0-1.146-0.212-1.32-0.354c-0.386-0.311-0.688-0.702-0.897-1.168
	c-0.157-0.343-0.283-0.732-0.398-1.227l-0.092-0.396l-0.363,0.318c-0.441,0.339-0.928,0.678-1.447,1.008
	c-0.524,0.332-1.078,0.627-1.645,0.878c-0.584,0.255-1.192,0.46-1.808,0.608c-0.609,0.153-1.253,0.232-1.917,0.232
	c-1.011,0-1.918-0.189-2.7-0.563c-0.785-0.37-1.466-0.877-2.024-1.506c-0.253-0.282-0.463-0.594-0.634-0.86l-0.149-0.234
	l-0.213,0.178c-0.631,0.531-1.151,0.937-1.639,1.277c-0.307,0.213-0.621,0.421-0.958,0.625c-0.32,0.196-0.645,0.375-0.993,0.544
	c-0.321,0.154-0.642,0.284-0.948,0.384c-0.106,0.032-0.396,0.091-0.783,0.091c-0.448,0-1.105-0.08-1.697-0.458
	c-0.384-0.216-0.771-0.522-1.164-0.92c-0.388-0.397-0.749-0.937-1.073-1.603l-0.161-0.329l-0.241,0.274
	c-0.365,0.417-0.769,0.822-1.198,1.205c-0.424,0.377-0.871,0.708-1.328,0.982c-0.47,0.281-0.946,0.506-1.415,0.668
	c-0.473,0.163-0.959,0.245-1.445,0.245c-0.69,0-1.302-0.143-1.816-0.424c-0.525-0.282-0.984-0.668-1.364-1.147
	c-0.064-0.081-0.118-0.168-0.172-0.254l-0.217-0.336l-0.198,0.11c-1.371,0.768-1.904,1.04-2.11,1.135
	c-1.067,0.501-1.42,0.628-1.535,0.659c-0.525,0.175-1.087,0.262-1.683,0.262c-0.521,0-1.013-0.409-1.463-1.215
	c-0.481-0.858-0.799-2.143-0.945-3.815c-0.058-0.652-0.076-1.377-0.055-2.154c0.007-0.255,0.011-0.549,0.016-0.859
	c0.01-0.635,0.02-1.355,0.057-1.955l0.094-1.567l-0.983,2.551L51.9,30.857c-0.173,0.42-0.372,0.707-0.579,0.834
	c-0.231,0.145-0.502,0.215-0.83,0.215c-0.405,0-0.743-0.086-1.003-0.254c-0.268-0.176-0.476-0.407-0.636-0.704
	c-0.17-0.311-0.298-0.668-0.379-1.062c-0.018-0.087-0.029-0.18-0.04-0.272c-0.009-0.069-0.018-0.139-0.028-0.206l-0.063-0.401
	l-0.325,0.245c-0.445,0.337-0.885,0.642-1.343,0.934c-0.512,0.326-1.063,0.621-1.643,0.878c-0.579,0.255-1.188,0.459-1.807,0.606
	c-0.61,0.154-1.256,0.231-1.923,0.231c-1.01,0-1.918-0.188-2.698-0.56c-0.788-0.372-1.47-0.879-2.025-1.508
	c-0.562-0.631-1.011-1.373-1.335-2.204c-0.133-0.338-0.229-0.688-0.316-1.019l-0.074-0.283l-0.265,0.125
	c-0.334,0.157-0.636,0.295-0.958,0.396c-0.414,0.133-0.839,0.197-1.301,0.197c-0.795,0-1.452-0.159-1.954-0.475
	c-0.512-0.319-0.939-0.745-1.271-1.268c-0.263-0.417-0.736-1.227-0.957-1.965c-0.209-0.702-0.376-1.459-0.516-2.113l-0.228-1.065
	l-0.337,1.442l-2.328,8.198c-0.126,0.457-0.239,0.802-0.345,1.058c-0.106,0.27-0.221,0.487-0.34,0.651
	c-0.104,0.146-0.219,0.246-0.339,0.3c-0.133,0.058-0.285,0.086-0.448,0.086c-0.405,0-0.743-0.086-1.005-0.255
	c-0.265-0.174-0.479-0.41-0.635-0.703c-0.17-0.31-0.298-0.667-0.381-1.063c-0.084-0.408-0.146-0.836-0.183-1.268
	c-0.044-0.494-0.066-1.067-0.066-1.705c-0.002-0.646,0.013-1.322,0.045-2.067c0.034-0.767,0.081-1.514,0.141-2.221
	c0.065-0.776,0.16-1.588,0.283-2.412c0.127-0.857,0.238-1.568,0.333-2.14c0.093-0.556,0.196-1.021,0.308-1.381
	c0.063-0.229,0.13-0.413,0.202-0.553c0.06-0.113,0.129-0.2,0.212-0.264c0.076-0.058,0.182-0.099,0.313-0.12
	c0.166-0.026,0.369-0.04,0.606-0.04c0.276,0,0.492,0.014,0.644,0.04c0.107,0.019,0.184,0.055,0.231,0.115
	c0.046,0.054,0.103,0.152,0.135,0.351c0.032,0.193,0.063,0.466,0.093,0.806c0.038,0.416,0.062,1.004,0.07,1.747
	c0.01,0.787,0.091,1.674,0.163,2.239l0.126,0.983l0.472-1.272l0.179-0.426c0.141-0.334,0.289-0.688,0.43-1.058
	c0.224-0.504,0.654-1.441,0.979-1.914c0.321-0.474,0.681-0.854,1.099-1.16c0.393-0.282,0.934-0.451,1.446-0.451
	c0.185,0,0.371,0.032,0.553,0.095c0.184,0.065,0.342,0.153,0.482,0.27c0.137,0.112,0.251,0.253,0.348,0.428
	c0.092,0.165,0.145,0.349,0.164,0.565c0.016,0.173,0.012,0.422-0.014,0.762c-0.027,0.332-0.077,0.774-0.151,1.32
	c-0.079,0.583-0.129,1.031-0.152,1.373c-0.025,0.36-0.028,0.67-0.007,0.919c0.037,0.423,0.112,0.785,0.225,1.075
	c0.11,0.295,0.249,0.539,0.412,0.723c0.163,0.187,0.351,0.326,0.556,0.41c0.202,0.08,0.408,0.119,0.617,0.119
	c0.533,0,1.083-0.119,1.634-0.355c0.113-0.049,0.22-0.102,0.327-0.155l0.242-0.119c0,0,0.035-0.274,0.041-0.307
	c0.154-0.837,0.33-1.597,0.523-2.259c0.188-0.65,0.444-1.274,0.761-1.855c0.313-0.582,0.699-1.098,1.149-1.536
	c0.442-0.437,0.96-0.788,1.54-1.046c0.574-0.257,1.236-0.388,1.968-0.388c0.598,0,1.169,0.098,1.699,0.288
	c0.525,0.188,0.998,0.46,1.407,0.808c0.406,0.342,0.74,0.76,0.993,1.244c0.255,0.488,0.411,1.041,0.464,1.64
	c0.055,0.835-0.115,1.651-0.506,2.422c-0.37,0.818-0.77,1.252-1.32,1.853c-0.54,0.588-1.186,1.101-1.973,1.571
	c-0.771,0.453-1.636,0.815-2.571,1.075l-0.322,0.089l0.184,0.28c0.192,0.293,0.39,0.554,0.588,0.771
	c0.211,0.227,0.404,0.39,0.593,0.503c0.196,0.123,0.408,0.212,0.626,0.26c0.191,0.047,0.409,0.071,0.66,0.071
	c0.7,0,1.435-0.14,2.18-0.413c0.729-0.265,1.448-0.603,2.134-1.005c0.67-0.393,1.316-0.834,1.921-1.311
	c0.234-0.187,0.441-0.366,0.646-0.543l0.083-0.071l0.001-0.109c0.01-0.724,0.023-1.478,0.049-2.295
	c0.03-1.128,0.09-2.179,0.179-3.124c0.086-0.929,0.179-1.728,0.276-2.375c0.071-0.465,0.253-0.858,0.54-1.167
	c0.278-0.3,0.676-0.445,1.217-0.445c0.527,0,0.893,0.148,1.115,0.456c0.24,0.332,0.388,0.79,0.438,1.358
	c0.015,0.161,0.017,0.381,0.008,0.652c-0.009,0.284-0.022,0.599-0.042,0.937c-0.118,1.678-0.024,4.029-0.023,4.054l0.041,0.998
	l0.423-0.905c0.022-0.047,0.202-0.498,0.426-1.06c0.349-0.875,0.826-2.072,0.937-2.315c0.185-0.397,0.357-0.781,0.518-1.144
	c0.156-0.363,0.303-0.688,0.432-0.963c0.146-0.302,0.236-0.49,0.299-0.614c0.277-0.555,0.619-0.939,1.015-1.143
	c0.44-0.271,0.741-0.325,1.09-0.325c0.091,0,0.186,0.005,0.286,0.011c0.549,0.035,0.903,0.215,1.226,0.622
	c0.389,0.487,0.572,1.029,0.615,1.812c0.008,0.086,0.01,0.249-0.021,0.59c-0.024,0.294-0.06,0.638-0.103,1.04
	c-0.044,0.406-0.085,0.932-0.125,1.578l-0.109,1.716c-0.036,0.496-0.058,1.004-0.065,1.511c-0.007,0.51,0.009,0.977,0.044,1.386
	c0.065,0.737,0.207,1.327,0.435,1.803c0.318,0.67,0.771,0.811,1.096,0.811c0.17,0,0.385-0.055,0.654-0.168
	c0.338-0.129,1.473-0.719,2.097-1.333l0.085-0.083c0,0-0.035-0.251-0.037-0.273c-0.062-0.7-0.034-1.424,0.081-2.155
	c0.111-0.679,0.284-1.349,0.543-2.106c0.226-0.663,0.504-1.395,1.008-2.261c0.363-0.707,1.144-1.662,1.604-2.05
	c0.584-0.557,1.138-0.921,1.92-1.265c0.97-0.4,1.51-0.506,2.282-0.58l0.217-0.02l0.003-0.218c0.057-3.516,0.416-5.68,0.631-6.973
	l0.071-0.434c0.204-1.263,0.51-2.436,0.91-3.486c0.399-1.052,0.864-1.976,1.382-2.744c0.511-0.756,1.079-1.355,1.689-1.779
	c0.595-0.413,1.234-0.622,1.901-0.622c0.484,0,0.891,0.12,1.243,0.367c0.367,0.255,0.679,0.598,0.929,1.02
	c0.264,0.438,0.468,0.949,0.606,1.521c0.15,0.588,0.254,1.201,0.309,1.827c0.032,0.335,0.059,0.673,0.086,1.018l0.018,0.215
	c0.101,1.547-0.233,3.731-0.446,4.777c-0.147,0.725-0.515,2.322-0.921,3.752c-0.334,1.348-0.766,2.691-1.285,4.001
	c-0.816,2.063-1.313,3.425-1.521,4.162c-0.046,0.16-0.089,0.364-0.13,0.602c-0.04,0.232-0.073,0.484-0.104,0.757
	c-0.03,0.27-0.052,0.55-0.063,0.835c-0.011,0.306-0.004,0.58,0.02,0.839c0.031,0.343,0.08,0.669,0.145,0.967
	c0.07,0.314,0.163,0.598,0.275,0.843c0.121,0.265,0.273,0.473,0.466,0.636c0.204,0.174,0.448,0.262,0.726,0.262
	c0.238,0,0.497-0.046,0.767-0.138c0.267-0.097,0.529-0.217,0.809-0.37c0.269-0.146,0.548-0.319,0.828-0.513
	c0.273-0.188,0.54-0.378,0.796-0.576c0.284-0.221,0.576-0.461,0.872-0.713l0.107-0.091l-0.025-0.139
	c-0.053-0.283-0.229-2.762,0.524-5.366c0.185-0.637,0.441-1.262,0.761-1.855c0.315-0.581,0.701-1.099,1.147-1.535
	c0.446-0.438,0.967-0.79,1.544-1.046c0.575-0.257,1.238-0.388,1.969-0.388c0.596,0,1.167,0.098,1.696,0.288
	c0.528,0.19,1.002,0.461,1.408,0.807c0.406,0.343,0.74,0.761,0.994,1.245c0.253,0.482,0.408,1.033,0.462,1.64
	c0.056,0.631-0.101,1.36-0.463,2.167c-0.374,0.819-0.832,1.529-1.362,2.107c-0.528,0.577-1.192,1.105-1.974,1.571
	c-0.766,0.452-1.631,0.813-2.57,1.075l-0.321,0.089l0.183,0.28c0.194,0.298,0.392,0.557,0.585,0.771
	c0.216,0.229,0.409,0.393,0.595,0.503c0.195,0.124,0.407,0.212,0.626,0.26c0.192,0.047,0.408,0.071,0.658,0.071
	c0.704,0,1.438-0.14,2.181-0.413c0.729-0.263,1.447-0.601,2.134-1.005c0.684-0.401,1.331-0.844,1.922-1.313
	c0.089-0.071,0.17-0.14,0.25-0.209l0.237-0.2l-0.142-1.018l-0.241-1.69c-0.072-0.505-0.132-0.967-0.182-1.391
	c-0.048-0.424-0.091-0.86-0.13-1.306c-0.131-1.511-0.167-2.546-0.109-3.163c0.071-0.776,0.354-0.819,0.446-0.834l2.118-0.32
	l0.17-0.036l0.134,0.006c0.211,0,0.371,0.077,0.503,0.242c0.146,0.188,0.232,0.403,0.266,0.657l0.764,12.624l4.096-12.663
	c0.024-0.164,0.069-0.278,0.149-0.396c0.084-0.12,0.193-0.222,0.33-0.306c0.159-0.098,0.334-0.177,0.521-0.234
	c0.188-0.061,0.396-0.091,0.618-0.091c0.608,0,1.091,0.117,1.473,0.359c0.352,0.222,0.536,0.494,0.565,0.831
	c0.022,0.289,0.005,0.565-0.052,0.817c-0.063,0.338-0.145,0.633-0.246,0.888c-0.242,0.575-0.394,0.945-0.449,1.105
	c-0.381,1.155-0.621,1.906-0.68,2.118l-0.15,0.632c-0.039,0.206-0.07,0.433-0.091,0.682c-0.022,0.261-0.019,0.53,0.009,0.798
	c0.021,0.272,0.081,0.551,0.183,0.844c0.099,0.287,0.253,0.55,0.459,0.782c0.226,0.243,0.495,0.426,0.829,0.56
	c0.326,0.135,0.742,0.204,1.234,0.204c0.367,0,0.783-0.093,1.238-0.277c0.046-0.02,0.084-0.039,0.122-0.06
	c0.024-0.013,0.049-0.027,0.075-0.038l0.17-0.075l-0.026-0.183c-0.021-0.169-0.046-2.83,0.588-4.978
	c0.192-0.659,0.449-1.283,0.761-1.856c0.315-0.584,0.701-1.101,1.149-1.536c0.442-0.437,0.961-0.788,1.541-1.046
	c0.576-0.257,1.239-0.388,1.971-0.388c0.595,0,1.165,0.098,1.696,0.289c0.521,0.186,0.993,0.457,1.407,0.807
	c0.406,0.341,0.741,0.76,0.995,1.244c0.251,0.478,0.405,1.03,0.46,1.64c0.064,0.686-0.101,1.543-0.439,2.298
	c-0.35,0.771-0.79,1.328-1.386,1.977c-0.53,0.578-1.194,1.106-1.973,1.571c-0.763,0.452-1.629,0.813-2.571,1.075l-0.323,0.089
	l0.185,0.28c0.196,0.299,0.395,0.558,0.588,0.771c0.21,0.224,0.408,0.391,0.595,0.503c0.2,0.126,0.405,0.212,0.623,0.26
	c0.197,0.049,0.41,0.071,0.663,0.071c0.7,0,1.435-0.14,2.182-0.413c0.73-0.265,1.447-0.603,2.131-1.005
	c0.681-0.398,1.326-0.84,1.919-1.313c0.254-0.199,0.481-0.394,0.701-0.586l0.077-0.069l0.012-0.388
	c0.035-0.794,0.081-1.521,0.141-2.224c0.061-0.746,0.156-1.557,0.282-2.407c0.125-0.856,0.238-1.567,0.332-2.14
	c0.091-0.539,0.195-1.006,0.309-1.385c0.07-0.242,0.136-0.421,0.202-0.548c0.059-0.112,0.128-0.201,0.213-0.268
	c0.074-0.056,0.178-0.097,0.312-0.119c0.166-0.025,0.37-0.039,0.607-0.039c0.267,0,0.491,0.014,0.649,0.04
	c0.102,0.018,0.178,0.058,0.229,0.119c0.045,0.051,0.1,0.147,0.131,0.344c0.038,0.204,0.07,0.469,0.1,0.807
	c0.031,0.386,0.052,0.943,0.065,1.751c0.015,0.81,0.116,1.927,0.185,2.461l0.136,1.072l0.337-1.027
	c0.005-0.012,0.402-1.22,0.811-2.176c0.269-0.716,0.564-1.311,0.882-1.78c0.314-0.461,0.685-0.853,1.101-1.162
	c0.398-0.297,0.885-0.448,1.443-0.448c0.19,0,0.37,0.03,0.552,0.094c0.186,0.069,0.352,0.161,0.49,0.272
	c0.135,0.113,0.251,0.256,0.344,0.424c0.09,0.165,0.144,0.353,0.162,0.57c0.012,0.176,0.007,0.439-0.016,0.759
	c-0.024,0.344-0.082,0.802-0.149,1.322c-0.082,0.599-0.131,1.035-0.153,1.374c-0.028,0.358-0.031,0.669-0.007,0.922
	c0.035,0.422,0.107,0.773,0.219,1.07l0.021,0.055l0.007,0.006l0.008,0.021l0.052,0.047c0.745,0.611,1.032,1.293,0.809,1.919
	c-0.231,0.646-0.995,1.152-1.738,1.152l0,0c-0.313,0-0.75-0.091-1.061-0.521c-0.472-0.59-0.663-0.963-0.937-1.822
	c-0.194-0.605-0.505-2.222-0.508-2.236l-0.197-1.028l-2.668,9.709c-0.108,0.402-0.227,0.768-0.342,1.06
	c-0.105,0.263-0.218,0.476-0.34,0.648c-0.102,0.139-0.219,0.241-0.34,0.296c-0.13,0.058-0.281,0.086-0.447,0.086
	c-0.408,0-0.745-0.086-1.004-0.255c-0.266-0.177-0.475-0.408-0.637-0.705c-0.17-0.309-0.297-0.666-0.377-1.06
	c-0.021-0.099-0.034-0.198-0.047-0.3l-0.024-0.181l-0.062-0.403l-0.326,0.246c-0.447,0.337-0.887,0.641-1.344,0.928
	c-0.514,0.33-1.065,0.625-1.642,0.88c-0.58,0.255-1.188,0.459-1.807,0.606c-0.617,0.156-1.245,0.231-1.92,0.231
	c-1.011,0-1.919-0.188-2.698-0.56c-0.788-0.372-1.47-0.879-2.027-1.508c-0.254-0.284-0.488-0.602-0.717-0.975l-0.113-0.182
	l-0.354,0.161c-0.166,0.078-0.331,0.155-0.503,0.217c-0.735,0.27-1.457,0.405-2.146,0.405c-0.575,0-1.102-0.087-1.565-0.26
	c-0.465-0.178-0.869-0.414-1.203-0.705c-0.343-0.302-0.609-0.627-0.813-0.994c-0.207-0.365-0.334-0.748-0.378-1.138l-0.108-0.973
	l-0.36,0.909c-0.259,0.654-0.568,1.345-0.919,2.052c-0.375,0.75-0.82,1.514-1.19,2.045c-0.375,0.545-0.588,0.793-0.991,1.157
	C99.242,31.923,98.738,32,98.382,32z M70.792,18.498c-0.623,0.323-1.279,0.873-1.952,1.634c-0.465,0.596-0.935,1.461-1.236,2.271
	c-0.467,1.273-0.56,1.644-0.705,2.374c-0.151,0.749-0.207,1.477-0.156,2.05c0.021,0.23,0.134,0.557,0.182,0.687
	c0.078,0.21,0.203,0.395,0.38,0.563c0.174,0.168,0.4,0.299,0.69,0.4c0.285,0.096,0.639,0.144,1.053,0.144
	c0.239,0,0.471-0.054,0.691-0.158c0.203-0.095,0.396-0.223,0.589-0.388c0.174-0.148,0.338-0.319,0.502-0.521
	c0.162-0.204,0.298-0.402,0.418-0.609c0.277-0.456,0.528-0.993,0.742-1.594l0.027-0.076l-0.023-0.077
	c-0.032-0.105-0.083-0.315-0.144-0.715c-0.052-0.347-0.116-0.867-0.188-1.571c-0.072-0.708-0.135-1.288-0.188-1.743
	c-0.05-0.449-0.095-0.861-0.133-1.234c-0.038-0.377-0.074-0.688-0.107-0.926c-0.037-0.34-0.061-0.551-0.3-0.551h-0.094
	L70.792,18.498z M115.691,18.526c-0.482,0-0.838,0.041-1.23,0.251c-0.359,0.191-0.658,0.445-0.885,0.752
	c-0.239,0.323-0.504,0.907-0.612,1.264c-0.38,1.252-0.464,3.057-0.44,3.355l0.018,0.224h0.226c0.437,0,0.895-0.104,1.398-0.319
	c0.494-0.224,0.927-0.492,1.326-0.822c0.403-0.337,0.789-0.788,1.146-1.341c0.396-0.612,0.49-1.372,0.458-1.732
	c-0.044-0.524-0.127-0.722-0.37-1.087C116.499,18.729,116.112,18.526,115.691,18.526z M88.406,18.526
	c-0.542,0-0.816,0.059-1.176,0.251c-0.354,0.19-0.65,0.443-0.882,0.751c-0.087,0.118-0.849,1.207-1.023,3.583
	c-0.025,0.382-0.048,0.801-0.028,1.038l0.019,0.223h0.225c0.436,0,0.893-0.104,1.397-0.319c0.507-0.229,0.938-0.498,1.328-0.822
	c0.402-0.335,0.788-0.786,1.144-1.342c0.422-0.652,0.726-1.963,0.08-2.829C89.226,18.668,88.74,18.526,88.406,18.526z
	 M41.084,18.499c-0.431,0-0.727,0.112-1.038,0.279c-0.356,0.19-0.653,0.443-0.883,0.75c-0.229,0.31-0.482,0.866-0.576,1.151
	c-0.104,0.303-0.373,1.104-0.457,2.306c-0.05,0.386-0.057,0.771-0.02,1.165l0.021,0.222h0.222c0.432,0,0.901-0.107,1.397-0.319
	c0.5-0.228,0.932-0.495,1.327-0.822c0.401-0.334,0.787-0.785,1.146-1.341c0.372-0.575,0.529-1.291,0.492-1.701
	c-0.045-0.519-0.066-0.757-0.381-1.156c-0.223-0.283-0.716-0.5-1.036-0.524C41.224,18.501,41.152,18.499,41.084,18.499z
	 M77.038,3.488c-0.457,0-0.843,0.271-1.147,0.806c-0.297,0.53-0.554,1.553-0.651,1.968c-0.228,1.138-0.365,1.948-0.424,2.485
	c-0.012,0.182-0.027,0.376-0.044,0.586c-0.039,0.494-0.084,1.075-0.104,1.644l-0.024,0.693c-0.02,0.504-0.037,0.951-0.038,1.406
	c-0.003,0.416,0.005,0.795,0.01,1.085c0.003,0.16,0.006,0.292,0.006,0.389c-0.003,0.562,0.006,1.102,0.021,1.62
	c0.016,0.52,0.035,0.993,0.062,1.422c0.027,0.427,0.055,0.802,0.078,1.123l0.187,2.082l0.369-1.12c0.49-1.487,0.94-2.995,1.34-4.48
	c0.164-0.636,0.321-1.3,0.478-1.989l0.458-2.042c0.156-0.709,0.278-1.392,0.363-2.026c0.088-0.677,0.136-1.321,0.142-1.918
	c0.003-0.738-0.017-1.375-0.061-1.892c-0.06-0.662-0.156-1.094-0.305-1.361C77.534,3.571,77.243,3.488,77.038,3.488z M14.739,31.89
	c-0.44,0-0.915-0.13-1.304-0.357c-0.538-0.317-0.851-0.733-1.015-1.346c-0.057-0.211-0.092-0.602-0.093-0.858l-0.061-3.193
	c-0.01-0.516,0.005-1.148,0.02-1.796c0.016-0.685,0.031-1.392,0.02-1.992c-0.006-0.365,0.016-0.888,0.052-1.752
	c0.028-0.659,0.063-1.507,0.101-2.613c0.034-1.008,0.061-1.583,0.094-2.304l0.059-1.308c0.056-1.225,0.096-1.866,0.129-2.394
	c0.028-0.459,0.052-0.832,0.075-1.425c0.037-0.918,0.141-2.087,0.25-3.326c0.119-1.354,0.242-2.754,0.295-3.986l0.013-0.274
	l-0.275,0.021c-0.626,0.051-1.262,0.107-1.902,0.171c-0.656,0.065-1.284,0.152-1.869,0.258C8.726,3.522,8.158,3.663,7.639,3.828
	c-0.529,0.167-1.007,0.386-1.42,0.651C5.791,4.756,5.476,5.094,5.282,5.483C5.083,5.893,5.055,6.371,5.199,6.907
	c0.006,0.027,0.027,0.16,0.063,0.39c0.033,0.218,0.01,0.452-0.07,0.715c-0.077,0.247-0.25,0.481-0.514,0.694
	C4.421,8.914,3.974,9.021,3.352,9.021c-0.639,0-1.166-0.112-1.567-0.332C1.372,8.464,1.048,8.214,0.819,7.947
	C0.544,7.637,0.342,7.275,0.215,6.874c-0.257-0.955-0.284-1.802-0.078-2.512c0.204-0.705,0.602-1.314,1.182-1.81
	c0.594-0.508,1.373-0.935,2.316-1.269c0.962-0.339,2.061-0.605,3.265-0.795C8.101,0.3,9.443,0.17,10.888,0.103
	C12.357,0.034,13.872,0,15.39,0c2.09,0,4.325,0.08,6.644,0.235c2.304,0.153,4.793,0.441,7.396,0.854
	c0.554,0.102,0.978,0.283,1.255,0.541c0.283,0.265,0.462,0.544,0.546,0.857c0.062,0.23,0.075,0.458,0.039,0.676
	c-0.037,0.228-0.109,0.435-0.216,0.616c-0.103,0.179-0.241,0.32-0.411,0.424c-0.168,0.104-0.364,0.156-0.583,0.156
	c-0.904,0-1.888-0.061-2.923-0.179c-1.037-0.12-2.121-0.255-3.251-0.403c-1.133-0.15-2.299-0.301-3.496-0.452
	c-1.213-0.15-2.454-0.265-3.688-0.337l-0.294-0.018l0.037,0.291c0.205,1.596,0.267,2.953,0.315,5.047l0.033,1.321
	c0.029,1.153,0.061,2.351,0.069,3.511c0.007,0.832-0.002,1.524-0.012,2.221c-0.009,0.655-0.019,1.314-0.013,2.094l0.068,8.711
	c0.005,0.719,0.013,1.303,0.02,1.839l0.013,1.145c0.007,0.369-0.052,0.955-0.158,1.262l-0.026,0.077
	c-0.095,0.285-0.143,0.427-0.392,0.729c-0.163,0.196-0.294,0.314-0.639,0.488c-0.185,0.09-0.543,0.158-0.8,0.177
	C14.861,31.887,14.8,31.89,14.739,31.89z"/>
</svg>
