<svg id="Слой_1" data-name="Слой 1" xmlns="http://www.w3.org/2000/svg" viewBox="0 0 129 40.14"><defs><style>.cls-1,.cls-2{fill:#5e8bce;}.cls-2{fill-rule:evenodd;}</style></defs><title>app_store-01</title><g id="AppleBGbtn"><path class="cls-1" d="M123.66,1A4.34,4.34,0,0,1,128,5.34V34.8a4.34,4.34,0,0,1-4.34,4.34H5.34A4.34,4.34,0,0,1,1,34.8V5.34A4.34,4.34,0,0,1,5.34,1H123.66m0-1H5.34A5.34,5.34,0,0,0,0,5.34V34.8a5.34,5.34,0,0,0,5.34,5.34H123.66A5.34,5.34,0,0,0,129,34.8V5.34A5.34,5.34,0,0,0,123.66,0Z" transform="translate(0 0)"/></g><g id="Apple_logo" data-name="Apple logo"><path class="cls-2" d="M28.82,20.72a5.8,5.8,0,0,1,2.77-4.88,6,6,0,0,0-4.69-2.54c-2-.2-3.9,1.18-4.91,1.18s-2.58-1.15-4.23-1.11a6.28,6.28,0,0,0-5.31,3.22c-2.26,3.93-.58,9.75,1.63,12.93,1.08,1.56,2.36,3.31,4.05,3.25s2.24-1.05,4.2-1.05,2.52,1.05,4.24,1,2.86-1.59,3.93-3.15a14.17,14.17,0,0,0,1.78-3.65A5.67,5.67,0,0,1,28.82,20.72Zm-3.23-9.54a5.65,5.65,0,0,0,1.33-4.1A5.76,5.76,0,0,0,23.14,9a5.37,5.37,0,0,0-1.36,4A4.76,4.76,0,0,0,25.59,11.18Z" transform="translate(0 0)"/></g><path class="cls-1" d="M45.39,17.53,40.86,30.87h2.08l1.35-4.1h4.39l1.39,4.1H52.2L47.65,17.53Zm1.08,2.19c.15.6.32,1.21.53,1.88l1.22,3.54H44.74l1.2-3.56C46.13,21,46.3,20.39,46.47,19.73Z" transform="translate(0 0)"/><path class="cls-1" d="M58.06,21a3.78,3.78,0,0,0-3.21,1.54l-.08-1.33H52.93v.17c.05.83.08,1.74.08,3V34.7h2V29.9a3.54,3.54,0,0,0,2.76,1.19,4.16,4.16,0,0,0,3.06-1.3A5.51,5.51,0,0,0,62.2,25.9,5.37,5.37,0,0,0,61,22.36,3.84,3.84,0,0,0,58.06,21Zm-.5,1.67c1.8,0,2.6,1.67,2.6,3.32,0,2.13-1,3.45-2.68,3.45a2.45,2.45,0,0,1-2.38-1.87,2.57,2.57,0,0,1-.07-.65V25.29a3,3,0,0,1,.06-.5l0-.16A2.56,2.56,0,0,1,57.56,22.66Z" transform="translate(0 0)"/><path class="cls-1" d="M68.46,21a3.78,3.78,0,0,0-3.21,1.54l-.08-1.33H63.32v.17c.05.83.08,1.74.08,3V34.7h2V29.9a3.54,3.54,0,0,0,2.76,1.19,4.17,4.17,0,0,0,3.06-1.3A5.52,5.52,0,0,0,72.6,25.9a5.37,5.37,0,0,0-1.17-3.54A3.84,3.84,0,0,0,68.46,21ZM68,22.66c1.8,0,2.6,1.67,2.6,3.32,0,2.13-1,3.45-2.68,3.45a2.45,2.45,0,0,1-2.38-1.87,2.58,2.58,0,0,1-.07-.65V25.29a3,3,0,0,1,.06-.5l0-.16A2.55,2.55,0,0,1,68,22.66Z" transform="translate(0 0)"/><path class="cls-1" d="M81.48,23.19c-1.88-.73-2.49-1.3-2.49-2.36,0-.89.71-1.79,2.29-1.79a4.59,4.59,0,0,1,2.37.59l.17.11L84.39,18,84.28,18a5.85,5.85,0,0,0-2.94-.66C78.77,17.32,77,18.84,77,21c0,1.75,1.13,3,3.54,3.86,1.71.64,2.35,1.3,2.35,2.42s-1,2.06-2.57,2.06a5.52,5.52,0,0,1-2.91-.82l-.18-.11-.54,1.72.1.07a6.91,6.91,0,0,0,3.41.88c3.47,0,4.7-2.12,4.7-3.93S83.9,24.14,81.48,23.19Z" transform="translate(0 0)"/><path class="cls-1" d="M88.51,18.91l-2,.62V21.2H85.09v1.61h1.45v4.94a3.78,3.78,0,0,0,.7,2.56,2.59,2.59,0,0,0,2,.77,4.75,4.75,0,0,0,1.56-.24l.11,0-.1-1.62-.19.06a3,3,0,0,1-.94.11c-.78,0-1.12-.49-1.12-1.66V22.82h2.43V21.2H88.51Z" transform="translate(0 0)"/><path class="cls-1" d="M96,21c-2.82,0-4.8,2.11-4.8,5.12s1.91,5,4.64,5h0a4.76,4.76,0,0,0,4.8-5.14,5.1,5.1,0,0,0-1.29-3.57A4.49,4.49,0,0,0,96,21Zm-.06,1.59c1.82,0,2.64,1.77,2.64,3.42,0,2-1.13,3.49-2.68,3.49h0c-1.53,0-2.64-1.44-2.64-3.43C93.19,24.33,94,22.59,95.89,22.59Z" transform="translate(0 0)"/><path class="cls-1" d="M106.79,21.09l-.12,0a1.94,1.94,0,0,0-.5-.06,2.88,2.88,0,0,0-2.53,1.62l-.06-1.41h-1.81v.17c.05.8.08,1.7.08,2.91l0,6.59h2V25.73a5.2,5.2,0,0,1,.06-.78,2.23,2.23,0,0,1,2.12-2,5.15,5.15,0,0,1,.54,0l.22,0Z" transform="translate(0 0)"/><path class="cls-1" d="M111.33,21c-2.69,0-4.56,2.15-4.56,5.22a4.51,4.51,0,0,0,4.76,4.87,7.74,7.74,0,0,0,3.2-.61l.12-.05-.39-1.5-.17.07a6.25,6.25,0,0,1-2.53.45,2.81,2.81,0,0,1-3-2.93l6.51,0,0-.13a4.49,4.49,0,0,0,.06-.84C115.33,23.43,114.29,21,111.33,21Zm-.13,1.54a2,2,0,0,1,1.48.57,2.87,2.87,0,0,1,.7,1.88h-4.6A2.58,2.58,0,0,1,111.2,22.51Z" transform="translate(0 0)"/><path class="cls-1" d="M40.86,8.42a14.71,14.71,0,0,1,1.94-.13,4.32,4.32,0,0,1,2.84.78,2.76,2.76,0,0,1,1,2.28,3.2,3.2,0,0,1-1,2.45,4.68,4.68,0,0,1-3.11.91,14,14,0,0,1-1.66-.08ZM41.77,14a6.53,6.53,0,0,0,.92,0c1.94,0,3-1,3-2.68,0-1.51-.93-2.44-2.84-2.44A5.75,5.75,0,0,0,41.77,9Z" transform="translate(0 0)"/><path class="cls-1" d="M49.88,14.75a2.28,2.28,0,0,1-2.41-2.33A2.34,2.34,0,0,1,50,10a2.26,2.26,0,0,1,2.43,2.32,2.35,2.35,0,0,1-2.5,2.42Zm0-.62a1.61,1.61,0,0,0,1.53-1.77,1.54,1.54,0,1,0-3,0,1.59,1.59,0,0,0,1.51,1.74Z" transform="translate(0 0)"/><path class="cls-1" d="M53.84,10.12l.68,2.3c.14.51.27,1,.36,1.45h0c.11-.46.28-.95.45-1.44l.82-2.3H57l.78,2.27c.19.53.33,1,.45,1.48h0a12.54,12.54,0,0,1,.39-1.47l.72-2.28h.91L58.6,14.65h-.83L57,12.49a14.88,14.88,0,0,1-.45-1.5h0a12.48,12.48,0,0,1-.46,1.51l-.81,2.15h-.83L52.9,10.12Z" transform="translate(0 0)"/><path class="cls-1" d="M61.14,11.34c0-.48,0-.85,0-1.23h.81l.05.74h0A1.91,1.91,0,0,1,63.64,10a1.72,1.72,0,0,1,1.78,1.93v2.71h-.92V12c0-.73-.3-1.35-1.17-1.35a1.31,1.31,0,0,0-1.23.84,1.11,1.11,0,0,0-.06.38v2.74h-.92Z" transform="translate(0 0)"/><path class="cls-1" d="M66.91,8h.92v6.65h-.92Z" transform="translate(0 0)"/><path class="cls-1" d="M71.4,14.75A2.28,2.28,0,0,1,69,12.42,2.34,2.34,0,0,1,71.48,10a2.26,2.26,0,0,1,2.42,2.32,2.35,2.35,0,0,1-2.5,2.42Zm0-.62A1.61,1.61,0,0,0,73,12.36a1.54,1.54,0,1,0-3,0,1.59,1.59,0,0,0,1.51,1.74Z" transform="translate(0 0)"/><path class="cls-1" d="M78.61,13.56a6.85,6.85,0,0,0,.07,1.09h-.82l-.08-.57h0a1.94,1.94,0,0,1-1.54.67,1.37,1.37,0,0,1-1.54-1.3c0-1.1,1.08-1.7,3-1.69v-.09c0-.37-.11-1.06-1.14-1a2.63,2.63,0,0,0-1.32.34L75,10.41A3.55,3.55,0,0,1,76.69,10a1.69,1.69,0,0,1,1.93,1.85Zm-.89-1.23c-1,0-2.13.14-2.13,1a.77.77,0,0,0,.85.79,1.27,1.27,0,0,0,1.24-.76.75.75,0,0,0,0-.26Z" transform="translate(0 0)"/><path class="cls-1" d="M84.43,8v5.48c0,.4,0,.86,0,1.17h-.82l0-.79h0a1.89,1.89,0,0,1-1.71.89,2.16,2.16,0,0,1-2.17-2.3A2.26,2.26,0,0,1,82,10a1.73,1.73,0,0,1,1.52.68h0V8Zm-.92,4a1.37,1.37,0,0,0,0-.36,1.32,1.32,0,0,0-1.32-.95,1.55,1.55,0,0,0-1.51,1.74,1.5,1.5,0,0,0,1.49,1.69,1.36,1.36,0,0,0,1.34-1,1.28,1.28,0,0,0,0-.36Z" transform="translate(0 0)"/><path class="cls-1" d="M90.21,14.75a2.28,2.28,0,0,1-2.41-2.33A2.34,2.34,0,0,1,90.29,10a2.26,2.26,0,0,1,2.43,2.32,2.35,2.35,0,0,1-2.5,2.42Zm0-.62a1.61,1.61,0,0,0,1.53-1.77,1.54,1.54,0,1,0-3,0,1.59,1.59,0,0,0,1.51,1.74Z" transform="translate(0 0)"/><path class="cls-1" d="M93.87,11.34c0-.48,0-.85,0-1.23h.81l.05.74h0A1.91,1.91,0,0,1,96.38,10a1.72,1.72,0,0,1,1.78,1.93v2.71h-.92V12c0-.73-.3-1.35-1.17-1.35a1.31,1.31,0,0,0-1.23.84,1.12,1.12,0,0,0-.06.38v2.74h-.92Z" transform="translate(0 0)"/><path class="cls-1" d="M103,9v1.09h1.31v.63H103v2.45c0,.56.18.88.69.88a1.89,1.89,0,0,0,.53-.06l0,.63a2.75,2.75,0,0,1-.81.11,1.39,1.39,0,0,1-1-.35,1.65,1.65,0,0,1-.35-1.19V10.74h-.78v-.63h.78V9.28Z" transform="translate(0 0)"/><path class="cls-1" d="M105.3,8h.92v2.83h0a1.55,1.55,0,0,1,.66-.58,1.93,1.93,0,0,1,.94-.23A1.72,1.72,0,0,1,109.59,12v2.7h-.92V12c0-.74-.3-1.35-1.17-1.35a1.32,1.32,0,0,0-1.23.82.91.91,0,0,0-.06.39v2.74h-.92Z" transform="translate(0 0)"/><path class="cls-1" d="M111.6,12.52a1.54,1.54,0,0,0,1.72,1.57,3.82,3.82,0,0,0,1.4-.23l.17.58a4.5,4.5,0,0,1-1.69.29,2.23,2.23,0,0,1-2.48-2.29A2.31,2.31,0,0,1,113.09,10a2,2,0,0,1,2.07,2.14,1.91,1.91,0,0,1,0,.39Zm2.68-.59A1.22,1.22,0,0,0,113,10.59a1.43,1.43,0,0,0-1.41,1.34Z" transform="translate(0 0)"/></svg>