<?xml version="1.0" encoding="utf-8"?>
<!-- Generator: Adobe Illustrator 16.0.0, SVG Export Plug-In . SVG Version: 6.00 Build 0)  -->
<!DOCTYPE svg PUBLIC "-//W3C//DTD SVG 1.1//EN" "http://www.w3.org/Graphics/SVG/1.1/DTD/svg11.dtd">
<svg version="1.1" id="Layer_1" xmlns="http://www.w3.org/2000/svg" xmlns:xlink="http://www.w3.org/1999/xlink" x="0px" y="0px"
	 width="50px" height="50px" viewBox="0 0 50 50" enable-background="new 0 0 50 50" xml:space="preserve">
<g>
	<path d="M26.48,0.044c-0.064-0.003-0.131-0.009-0.195-0.011c-0.056-0.003-0.111-0.004-0.167-0.007C25.748,0.01,25.375,0,25,0
		C11.192,0,0,11.193,0,25c0,0.113,0.002,0.226,0.005,0.337c0,0.104,0,0.21,0.004,0.314c0,0.097,0.007,0.192,0.009,0.29
		c0.007,0.122,0.009,0.244,0.016,0.366c0.005,0.089,0.011,0.176,0.018,0.264c0.007,0.129,0.014,0.26,0.024,0.39
		c0.007,0.081,0.016,0.161,0.022,0.243c0.011,0.135,0.022,0.271,0.038,0.406c0.006,0.073,0.016,0.148,0.024,0.222
		c0.016,0.141,0.03,0.284,0.051,0.424c0.009,0.067,0.018,0.133,0.026,0.2c0.022,0.148,0.042,0.296,0.064,0.443
		c0.011,0.061,0.021,0.119,0.029,0.178c0.026,0.155,0.053,0.309,0.079,0.462c0.012,0.051,0.021,0.102,0.031,0.153
		c0.029,0.161,0.063,0.321,0.096,0.482c0.009,0.043,0.018,0.085,0.026,0.128c0.038,0.169,0.076,0.338,0.115,0.506
		c0.007,0.032,0.016,0.064,0.024,0.098c0.043,0.178,0.087,0.355,0.134,0.532c0.007,0.022,0.013,0.043,0.018,0.065
		c0.051,0.188,0.104,0.376,0.16,0.563c0.002,0.011,0.004,0.021,0.009,0.029c0.108,0.368,0.229,0.731,0.353,1.092
		c0.016,0.058,0.038,0.122,0.066,0.2c0.021,0.049,0.038,0.1,0.056,0.148c0.035,0.091,0.069,0.185,0.103,0.275
		c1.429,4.041,1.713,6.754,0.972,9.71c-0.333,1.324-1.05,3.458-1.31,4.118c-0.23,0.586-0.024,2.203,2.242,1.154
		c0.004-0.001,2.639-1.366,5.661-1.533c2.828-0.155,5.751,0.756,7.793,1.411c0.014,0.004,0.026,0.01,0.04,0.015
		c0.02,0.006,0.042,0.014,0.06,0.021c0.091,0.034,0.167,0.057,0.231,0.074c1.495,0.487,3.054,0.837,4.658,1.034
		c0.026,0.003,0.054,0.005,0.08,0.009c0.202,0.024,0.406,0.045,0.61,0.064c0.062,0.006,0.122,0.012,0.182,0.016
		c0.176,0.016,0.349,0.029,0.526,0.04c0.071,0.005,0.142,0.01,0.213,0.014c0.176,0.011,0.349,0.018,0.526,0.024
		c0.064,0.002,0.128,0.005,0.195,0.007C24.521,49.995,24.758,50,24.998,50c4.623,0,8.951-1.255,12.666-3.442
		c4.262-2.508,7.713-6.241,9.87-10.718C49.114,32.56,50,28.884,50,25C50,11.69,39.598,0.813,26.48,0.044z M25.005,46.875
		c-12.088,0-21.88-9.795-21.88-21.875c0-12.082,9.792-21.875,21.88-21.875c12.075,0,21.87,9.793,21.87,21.875
		C46.875,37.08,37.08,46.875,25.005,46.875z"/>
	<path d="M25.005,6.253c-10.35,0-18.769,8.407-18.769,18.75c0,10.338,8.412,18.747,18.769,18.747
		c10.349,0,18.765-8.409,18.765-18.747C43.77,14.66,35.354,6.253,25.005,6.253z M25.005,40.625C16.38,40.625,9.366,33.613,9.366,25
		c0-8.618,7.014-15.627,15.639-15.627c8.62,0,15.629,7.011,15.629,15.627C40.639,33.609,33.625,40.625,25.005,40.625z"/>
	<path d="M25.005,12.5c-6.903,0-12.519,5.604-12.519,12.5s5.622,12.499,12.519,12.499c6.894,0,12.504-5.604,12.504-12.499
		S31.896,12.5,25.005,12.5z M25.005,34.374c-5.176,0-9.387-4.207-9.387-9.374c0-5.169,4.211-9.378,9.387-9.378
		c5.173,0,9.381,4.205,9.381,9.378C34.386,30.167,30.178,34.374,25.005,34.374z"/>
	<path d="M25.005,18.745c-3.456,0-6.253,2.802-6.253,6.25c0,3.454,2.797,6.25,6.253,6.25c3.446,0,6.245-2.796,6.245-6.25
		C31.25,21.547,28.451,18.745,25.005,18.745z M25.005,28.125c-1.729,0-3.128-1.4-3.128-3.125c0-1.726,1.398-3.125,3.128-3.125
		c1.722,0,3.122,1.399,3.122,3.125C28.127,26.725,26.727,28.125,25.005,28.125z"/>
</g>
</svg>
