<?xml version="1.0" encoding="utf-8"?>
<!-- Generator: Adobe Illustrator 16.0.0, SVG Export Plug-In . SVG Version: 6.00 Build 0)  -->
<!DOCTYPE svg PUBLIC "-//W3C//DTD SVG 1.1//EN" "http://www.w3.org/Graphics/SVG/1.1/DTD/svg11.dtd">
<svg version="1.1" id="Layer_1" xmlns="http://www.w3.org/2000/svg" xmlns:xlink="http://www.w3.org/1999/xlink" x="0px" y="0px"
	 width="50px" height="50px" viewBox="0 0 50 50" enable-background="new 0 0 50 50" xml:space="preserve">
<g>
	<g>
		<path fill="#1EA503" d="M26.479,0.044c-0.063-0.001-0.13-0.007-0.195-0.01c-0.054-0.004-0.11-0.005-0.166-0.007
			C25.747,0.01,25.376,0,25,0C11.191,0,0,11.192,0,25c0,0.113,0.002,0.226,0.005,0.337c0,0.105,0,0.21,0.005,0.315
			c0,0.096,0.005,0.192,0.01,0.29c0.005,0.121,0.008,0.244,0.015,0.366c0.005,0.088,0.01,0.176,0.017,0.264
			c0.008,0.129,0.013,0.259,0.025,0.389c0.007,0.082,0.017,0.16,0.021,0.244c0.01,0.134,0.021,0.271,0.039,0.404
			c0.005,0.074,0.015,0.149,0.024,0.223c0.015,0.142,0.029,0.283,0.049,0.425c0.01,0.065,0.02,0.132,0.029,0.2
			c0.02,0.146,0.039,0.295,0.063,0.441c0.01,0.062,0.02,0.12,0.029,0.179c0.024,0.156,0.054,0.308,0.078,0.462
			c0.01,0.051,0.02,0.102,0.031,0.153c0.027,0.161,0.062,0.322,0.096,0.483c0.01,0.041,0.02,0.086,0.027,0.127
			c0.036,0.168,0.075,0.337,0.114,0.506c0.007,0.031,0.015,0.065,0.024,0.098c0.044,0.178,0.088,0.355,0.132,0.534
			c0.01,0.02,0.015,0.042,0.02,0.063c0.052,0.188,0.103,0.376,0.161,0.564c0,0.01,0.005,0.02,0.008,0.029
			c0.109,0.365,0.227,0.729,0.354,1.091c0.015,0.056,0.037,0.122,0.066,0.2c0.02,0.049,0.036,0.098,0.056,0.148
			c0.034,0.091,0.068,0.184,0.103,0.276c1.428,4.04,1.714,6.753,0.972,9.71c-0.332,1.322-1.05,3.457-1.312,4.115
			c-0.231,0.586-0.021,2.205,2.244,1.155c0.005,0,2.637-1.367,5.659-1.533c2.827-0.153,5.752,0.757,7.793,1.411
			c0.015,0.005,0.029,0.01,0.039,0.015c0.022,0.007,0.044,0.015,0.063,0.02c0.088,0.036,0.166,0.059,0.229,0.075
			c1.494,0.488,3.052,0.838,4.658,1.035c0.026,0.003,0.054,0.003,0.078,0.008c0.205,0.024,0.407,0.044,0.61,0.066
			c0.063,0.004,0.122,0.01,0.186,0.014c0.174,0.018,0.347,0.029,0.522,0.039c0.073,0.006,0.144,0.01,0.215,0.016
			c0.176,0.01,0.347,0.017,0.527,0.023c0.063,0.003,0.127,0.006,0.195,0.008c0.239,0.005,0.476,0.01,0.716,0.01
			c4.623,0,8.949-1.255,12.666-3.442c4.262-2.507,7.712-6.24,9.87-10.718C49.113,32.559,50,28.885,50,25
			C50,11.689,39.598,0.813,26.479,0.044z M25.005,46.875c-12.087,0-21.88-9.795-21.88-21.875s9.793-21.874,21.88-21.874
			c12.075,0,21.87,9.794,21.87,21.874S37.08,46.875,25.005,46.875z"/>
		<path fill="#1EA503" d="M25.005,6.252c-10.352,0-18.77,8.408-18.77,18.75c0,10.339,8.413,18.748,18.77,18.748
			c10.349,0,18.765-8.408,18.765-18.748C43.77,14.661,35.354,6.252,25.005,6.252z M25.005,40.625c-8.626,0-15.64-7.012-15.64-15.625
			c0-8.618,7.014-15.627,15.64-15.627c8.62,0,15.63,7.012,15.63,15.627C40.637,33.608,33.625,40.625,25.005,40.625z"/>
		<path fill="#1EA503" d="M25.005,12.5c-6.904,0-12.52,5.605-12.52,12.5c0,6.896,5.625,12.5,12.52,12.5
			c6.892,0,12.505-5.604,12.505-12.5C37.51,18.105,31.896,12.5,25.005,12.5z M25.005,34.375c-5.176,0-9.385-4.207-9.385-9.375
			c0-5.168,4.209-9.377,9.385-9.377c5.173,0,9.382,4.206,9.382,9.377C34.387,30.168,30.178,34.375,25.005,34.375z"/>
		<path fill="#1EA503" d="M25.005,18.745c-3.457,0-6.253,2.803-6.253,6.25c0,3.454,2.796,6.25,6.253,6.25
			c3.447,0,6.245-2.796,6.245-6.25C31.25,21.548,28.452,18.745,25.005,18.745z M25.005,28.125c-1.729,0-3.128-1.401-3.128-3.125
			c0-1.726,1.399-3.125,3.128-3.125c1.722,0,3.122,1.399,3.122,3.125C28.127,26.724,26.727,28.125,25.005,28.125z"/>
	</g>
</g>
</svg>
