<svg id="Слой_2" data-name="Слой 2" xmlns="http://www.w3.org/2000/svg" viewBox="0 0 128.9 40.11"><defs><style>.cls-1{fill:#5e8bce;}</style></defs><title>google_play-01</title><path class="cls-1" d="M81.93,25.43c.34-.13.52-.23.52-.48a1.77,1.77,0,0,0-1.76-1.53,2.2,2.2,0,0,0-2,2.48c0,.3,0,.62.06.94l3.24-1.41Zm2.53,4.5-.85.8c-.19.11-.39.23-.59.32a4.14,4.14,0,0,1-1.73.34,3.8,3.8,0,0,1-2.37-.69,4.6,4.6,0,0,1-1.82-3.75,4,4,0,0,1,4.08-4.11,3.46,3.46,0,0,1,1.83.5,3,3,0,0,1,1.25,1.76l-4.18,1.69-1.37.11c.45,2.26,2,3.57,3.66,3.57a4.39,4.39,0,0,0,2-.56s.11-.06,0,0Z" transform="translate(-0.1 0)"/><path class="cls-1" d="M75.71,29.79c0,.69.12.8.71.85l.91.09-.66.39H73.53c.41-.53.48-.59.48-.94v-11H72.62L74,18.57H76.5a1.24,1.24,0,0,0-.79,1.14V29.79Z" transform="translate(-0.1 0)"/><path class="cls-1" d="M70.09,28.23a1.79,1.79,0,0,0,.45-1.3c0-1.28-.76-3.27-2.24-3.27a1.65,1.65,0,0,0-1.25.59,2,2,0,0,0-.39,1.31c0,1.19.69,3.17,2.22,3.17a1.82,1.82,0,0,0,1.21-.5Zm-.51,3.38a2.54,2.54,0,0,0-.41,0,7.09,7.09,0,0,0-1.87.29,2,2,0,0,0-1.53,1.83c0,1.26,1.23,2.17,3.13,2.17,1.71,0,2.61-.82,2.61-1.92,0-.91-.59-1.38-1.94-2.35Zm1.26-7.9a2.9,2.9,0,0,1-.23,4.93,1.24,1.24,0,0,0-.5.87,1,1,0,0,0,.46.77l.64.5a3.1,3.1,0,0,1,1.49,2.49c0,1.68-1.62,3.36-4.68,3.36-2.58,0-3.83-1.23-3.83-2.54a2.56,2.56,0,0,1,1.37-2.17,7.65,7.65,0,0,1,3.4-.81,1.88,1.88,0,0,1-.53-1.21,1.59,1.59,0,0,1,.18-.69,5.63,5.63,0,0,1-.57,0,2.82,2.82,0,0,1-3-2.79A3.2,3.2,0,0,1,66.24,24a4.87,4.87,0,0,1,3.18-1h3.67l-1.14.64Z" transform="translate(-0.1 0)"/><path class="cls-1" d="M62,29.91a3.19,3.19,0,0,0,.54-2c0-1.57-.75-4.55-3-4.55A2.47,2.47,0,0,0,58,24a2.68,2.68,0,0,0-.82,2.17c0,1.76.87,4.66,3,4.66A2.27,2.27,0,0,0,62,29.91Zm-2.23,1.44a4.2,4.2,0,0,1-4.34-4.19,4.41,4.41,0,0,1,4.61-4.32A4.16,4.16,0,0,1,64.33,27a4.34,4.34,0,0,1-4.52,4.32Z" transform="translate(-0.1 0)"/><path class="cls-1" d="M52.57,29.91a3.22,3.22,0,0,0,.53-2c0-1.57-.75-4.55-3-4.55a2.45,2.45,0,0,0-1.6.6,2.68,2.68,0,0,0-.82,2.17c0,1.76.87,4.66,3,4.66a2.27,2.27,0,0,0,1.81-.91Zm-2.23,1.44A4.19,4.19,0,0,1,46,27.16a4.41,4.41,0,0,1,4.61-4.32A4.16,4.16,0,0,1,54.87,27a4.34,4.34,0,0,1-4.52,4.32Z" transform="translate(-0.1 0)"/><path class="cls-1" d="M44.88,30.74l-2.38.55a17.29,17.29,0,0,1-2.75.29,5.93,5.93,0,0,1-6.36-6c0-3.24,2.48-6.24,6.74-6.24a9.82,9.82,0,0,1,2.56.35,6.48,6.48,0,0,1,2.2,1L43.49,22l-.59.13.42-.66a4.76,4.76,0,0,0-3.57-1.57,4.6,4.6,0,0,0-4.62,4.92A5.9,5.9,0,0,0,41,30.9a5,5,0,0,0,2.11-.42V27.8l-2.52.13L42,27.22h3.53l-.43.42a.39.39,0,0,0-.16.27c0,.15,0,.64,0,.8v2Z" transform="translate(-0.1 0)"/><path class="cls-1" d="M95.25,27.17c0-2-1.06-3.56-2.92-3.56a3.56,3.56,0,0,0-2.75,1.71V29a3.6,3.6,0,0,0,2.75,1.74c1.86,0,2.92-1.55,2.92-3.57ZM89.58,30v4.53h-.9V23h.9v1.31a3.57,3.57,0,0,1,2.9-1.52c2.23,0,3.73,1.69,3.73,4.37s-1.5,4.39-3.73,4.39A3.56,3.56,0,0,1,89.58,30Z" transform="translate(-0.1 0)"/><polygon class="cls-1" points="97.34 31.35 97.34 19.82 98.24 19.82 98.24 31.35 97.34 31.35"/><path class="cls-1" d="M108.44,33.79a2.1,2.1,0,0,0,.73.14c.55,0,.93-.23,1.27-1l.66-1.49L107.56,23h1l3,7.29,3-7.29h1l-4.32,10.18a2.21,2.21,0,0,1-2.12,1.55,3.64,3.64,0,0,1-.9-.12l.15-.83Z" transform="translate(-0.1 0)"/><path class="cls-1" d="M102.62,30.67a3.39,3.39,0,0,0,1.88-.51,2.56,2.56,0,0,0,1.14-1.3v-1.6h-2.11a3.48,3.48,0,0,0-2,.54,1.56,1.56,0,0,0-.79,1.3,1.44,1.44,0,0,0,.5,1.14,2.06,2.06,0,0,0,1.38.43Zm3.19.65c-.06-.29-.1-.55-.14-.76a5.73,5.73,0,0,1,0-.65,3.83,3.83,0,0,1-3.12,1.57,2.94,2.94,0,0,1-2-.65,2.28,2.28,0,0,1-.73-1.78,2.1,2.1,0,0,1,1.06-1.82,4.87,4.87,0,0,1,2.74-.7h2.09v-1a1.74,1.74,0,0,0-.61-1.41,2.61,2.61,0,0,0-1.72-.51,2.69,2.69,0,0,0-1.65.46,1.4,1.4,0,0,0-.63,1.17h-.92l0,0a2,2,0,0,1,.87-1.66,3.79,3.79,0,0,1,2.39-.71,3.74,3.74,0,0,1,2.38.71,2.42,2.42,0,0,1,.9,2v4.12a6.69,6.69,0,0,0,.05.86,5.69,5.69,0,0,0,.18.83Z" transform="translate(-0.1 0)"/><path class="cls-1" d="M33.43,10.36a2.83,2.83,0,0,1,3-2.91,2.64,2.64,0,0,1,2.26,1.17l-.8.46a1.81,1.81,0,0,0-1.46-.75,1.92,1.92,0,0,0-1.94,2,1.93,1.93,0,0,0,1.94,2,2,2,0,0,0,1.33-.5V11H36v-.87h2.67v2.1a3,3,0,0,1-2.32,1,2.84,2.84,0,0,1-3-2.92Z" transform="translate(-0.1 0)"/><polygon class="cls-1" points="39.81 13.18 39.81 7.54 43.67 7.54 43.67 8.42 40.8 8.42 40.8 9.87 43.61 9.87 43.61 10.73 40.8 10.73 40.8 12.31 43.67 12.31 43.67 13.17 39.81 13.18"/><polygon class="cls-1" points="46.4 13.18 46.4 8.42 44.69 8.42 44.69 7.55 49.09 7.55 49.09 8.42 47.38 8.42 47.38 13.18 46.4 13.18"/><polygon class="cls-1" points="52.52 13.18 52.52 7.54 53.51 7.54 53.51 13.18 52.52 13.18"/><polygon class="cls-1" points="56.26 13.18 56.26 8.42 54.55 8.42 54.55 7.55 58.95 7.55 58.95 8.42 57.24 8.42 57.24 13.18 56.26 13.18"/><path class="cls-1" d="M67,10.36a1.87,1.87,0,1,0-3.73,0,1.87,1.87,0,1,0,3.73,0Zm-4.74,0a2.88,2.88,0,1,1,5.75,0,2.88,2.88,0,1,1-5.75,0Z" transform="translate(-0.1 0)"/><polygon class="cls-1" points="72.97 13.18 70.03 9.15 70.03 13.18 69.05 13.18 69.05 7.54 70.06 7.54 72.93 11.44 72.93 7.54 73.92 7.54 73.92 13.18 72.97 13.18"/><path class="cls-1" d="M24.08,23.57l-10.8-5.94h0L21.64,26Zm4.3,2.36L25,24.06,22.32,26.7,25,29.36l3.4-1.87C29.15,27.06,29.15,26.36,28.38,25.93ZM12,17.79a1.21,1.21,0,0,0-.18.68V35a1.23,1.23,0,0,0,.17.66L21,26.7Zm1.16,18,.07,0,10.82-6-2.46-2.46Z" transform="translate(-0.1 0)"/><g id="AppleBGbtn"><path class="cls-1" d="M123.67,1A4.34,4.34,0,0,1,128,5.33V34.77a4.34,4.34,0,0,1-4.33,4.33H5.43A4.34,4.34,0,0,1,1.1,34.77V5.33A4.34,4.34,0,0,1,5.43,1H123.67m0-1H5.43A5.33,5.33,0,0,0,.1,5.33V34.77a5.33,5.33,0,0,0,5.33,5.33H123.67A5.33,5.33,0,0,0,129,34.77V5.33A5.33,5.33,0,0,0,123.67,0Z" transform="translate(-0.1 0)"/></g></svg>