<svg id="Слой_1" data-name="Слой 1" xmlns="http://www.w3.org/2000/svg" viewBox="0 0 9.56 9.85"><defs><style>.cls-1{fill-rule:evenodd;}</style></defs><title>icon_phone</title><path class="cls-1" d="M2,.08a1.8,1.8,0,0,1,.47.32c.4.52.78,1.06,1.13,1.61a.84.84,0,0,1-.24,1.27c-.53.42-.58.58-.31,1.21A4.39,4.39,0,0,0,5.84,7.15a.57.57,0,0,0,.66-.2c.72-.83.88-.86,1.78-.25.43.29.84.63,1.24,1a.68.68,0,0,1,.18.89A2.91,2.91,0,0,1,8.62,9.77a1.14,1.14,0,0,1-1.09.05A11.6,11.6,0,0,1,1.3,4.44C.94,3.76.64,3,.33,2.34a1.12,1.12,0,0,1,.1-1.11A3,3,0,0,1,1.62.18,2.34,2.34,0,0,1,2,.08Z" transform="translate(-0.23 -0.08)"/></svg>