<?xml version="1.0" encoding="utf-8"?>
<!-- Generator: Adobe Illustrator 16.0.0, SVG Export Plug-In . SVG Version: 6.00 Build 0)  -->
<!DOCTYPE svg PUBLIC "-//W3C//DTD SVG 1.1//EN" "http://www.w3.org/Graphics/SVG/1.1/DTD/svg11.dtd">
<svg version="1.1" id="Layer_1" xmlns="http://www.w3.org/2000/svg" xmlns:xlink="http://www.w3.org/1999/xlink" x="0px" y="0px"
	 width="8.752px" height="22px" viewBox="0 0 8.752 22" enable-background="new 0 0 8.752 22" xml:space="preserve">
<g>
	<path fill="#FFFFFF" d="M4.406,4.584c1.266-0.03,2.268-1.079,2.24-2.346C6.615,0.975,5.568-0.029,4.301,0.001
		C3.036,0.03,2.033,1.079,2.062,2.345C2.092,3.609,3.141,4.611,4.406,4.584z"/>
	<path fill="#FFFFFF" d="M7.244,17.647c-0.412,0.373-0.83,0.692-1.248,0.958c-0.415,0.268-0.811,0.402-1.179,0.412
		c-0.317,0.007-0.541-0.125-0.678-0.392c-0.137-0.269-0.237-0.633-0.294-1.09c-0.061-0.471-0.056-0.993,0.02-1.571
		C3.938,15.39,4.74,9.07,4.792,8.658c0.053-0.414,0.065-0.731,0.036-0.955C4.794,7.437,4.69,7.226,4.521,7.07
		C4.348,6.917,4.054,6.845,3.63,6.854C3.399,6.86,3.145,6.894,2.864,6.958C2.586,7.021,2.32,7.115,2.068,7.239
		c-0.25,0.124-0.469,0.282-0.655,0.472C1.208,7.922,1.097,8.159,1.08,8.419c-0.045,0.369-0.184,1.167-0.415,2.396
		c-0.226,1.504-0.584,4.136-0.651,5.916c-0.032,0.859-0.006,1.611,0.076,2.256c0.057,0.457,0.16,0.877,0.305,1.258
		c0.147,0.379,0.352,0.703,0.61,0.961c0.258,0.262,0.58,0.461,0.963,0.6c0.382,0.14,0.838,0.205,1.369,0.193
		c0.595-0.015,1.208-0.135,1.839-0.366c0.633-0.229,1.245-0.511,1.838-0.847c0.592-0.337,1.139-0.703,1.637-1.096
		C9.153,19.294,7.658,17.274,7.244,17.647z"/>
</g>
</svg>
