<?xml version="1.0" encoding="utf-8"?>
<!-- Generator: Adobe Illustrator 16.0.0, SVG Export Plug-In . SVG Version: 6.00 Build 0)  -->
<!DOCTYPE svg PUBLIC "-//W3C//DTD SVG 1.1//EN" "http://www.w3.org/Graphics/SVG/1.1/DTD/svg11.dtd">
<svg version="1.1" id="Layer_1" xmlns="http://www.w3.org/2000/svg" xmlns:xlink="http://www.w3.org/1999/xlink" x="0px" y="0px"
	 width="40px" height="40px" viewBox="0 0 40 40" enable-background="new 0 0 40 40" xml:space="preserve">
<path d="M26.275,6.712H13.724c-3.867,0-7.013,3.146-7.013,7.013v12.551c0,3.867,3.146,7.014,7.013,7.014h12.552
	c3.865,0,7.014-3.146,7.014-7.014V13.724C33.286,9.858,30.143,6.712,26.275,6.712z M20,28.259c-4.556,0-8.262-3.704-8.262-8.258
	c0-4.555,3.706-8.26,8.262-8.26c4.552,0,8.257,3.705,8.257,8.26C28.256,24.555,24.552,28.259,20,28.259z M28.584,13.313
	c-1.048,0-1.898-0.851-1.898-1.898s0.853-1.897,1.898-1.897c1.049,0,1.898,0.85,1.898,1.897S29.634,13.313,28.584,13.313z
	 M20,14.453c-3.059,0-5.548,2.488-5.548,5.547s2.491,5.546,5.548,5.546s5.546-2.487,5.546-5.546
	C25.547,16.941,23.057,14.453,20,14.453z M39.959,33.984V5.683c0-0.709,0.066-1.509-0.094-2.092
	c-0.315-1.146-0.926-2.104-1.777-2.715C36.771-0.066,35.486,0,33.25,0.001H4.087C3.95,0.088,3.729,0.048,3.557,0.097
	c-0.28,0.093-0.562,0.187-0.842,0.28c-1.002,0.435-1.902,1.339-2.34,2.34C0.003,3.573,0.002,4.688,0.002,5.963v27.773
	c0,1.439-0.056,2.813,0.467,3.714c0.667,1.149,1.596,1.985,2.995,2.403c0.626,0.186,1.49,0.123,2.277,0.123h28.137
	c0.815,0,1.786,0.094,2.463-0.095c0.913-0.25,1.534-0.661,2.185-1.151c0.688-0.519,1.166-1.685,1.404-2.685
	C40.068,35.452,39.959,34.639,39.959,33.984z M35.999,26.275c0,5.361-4.362,9.725-9.724,9.725H13.724C8.36,36,4,31.639,4,26.275
	V13.724C3.999,8.363,8.36,4,13.723,4h12.551c5.361,0,9.726,4.362,9.726,9.724V26.275L35.999,26.275z"/>
</svg>
