<?xml version="1.0" encoding="utf-8"?>
<!-- Generator: Adobe Illustrator 16.0.0, SVG Export Plug-In . SVG Version: 6.00 Build 0)  -->
<!DOCTYPE svg PUBLIC "-//W3C//DTD SVG 1.1//EN" "http://www.w3.org/Graphics/SVG/1.1/DTD/svg11.dtd">
<svg version="1.1" id="Layer_2" xmlns="http://www.w3.org/2000/svg" xmlns:xlink="http://www.w3.org/1999/xlink" x="0px" y="0px"
	 width="50px" height="50px" viewBox="0 0 50 50" enable-background="new 0 0 50 50" xml:space="preserve">
<g>
	<path d="M34.806,50H15.193C6.814,50,0,43.184,0,34.806V15.193C0,6.815,6.814,0,15.193,0h19.613C43.184,0,50,6.815,50,15.193v19.613
		C50,43.184,43.184,50,34.806,50z M15.193,4.237c-6.041,0-10.956,4.915-10.956,10.956v19.613c0,6.041,4.915,10.957,10.956,10.957
		h19.613c6.041,0,10.957-4.916,10.957-10.957V15.193c0-6.041-4.916-10.956-10.957-10.956H15.193z"/>
	<path d="M25,37.905c-7.116,0-12.906-5.789-12.906-12.905c0-7.117,5.79-12.906,12.906-12.906c7.116,0,12.905,5.789,12.905,12.906
		C37.905,32.116,32.116,37.905,25,37.905z M25,16.332c-4.779,0-8.668,3.889-8.668,8.668c0,4.78,3.89,8.668,8.668,8.668
		c4.78,0,8.668-3.888,8.668-8.668C33.668,20.22,29.78,16.332,25,16.332z"/>
	<circle cx="38.417" cy="11.583" r="2.966"/>
</g>
</svg>
