<svg id="Слой_3" data-name="Слой 3" xmlns="http://www.w3.org/2000/svg" viewBox="0 0 128.56 40"><defs><style>.cls-1{fill:#5e8bce;}.cls-2{isolation:isolate;}</style></defs><title>telegram_icon</title><g id="AppleBGbtn"><path class="cls-1" d="M123.24,1a4.32,4.32,0,0,1,4.32,4.32V34.68A4.32,4.32,0,0,1,123.24,39H5.31A4.32,4.32,0,0,1,1,34.68V5.32A4.32,4.32,0,0,1,5.31,1H123.24m0-1H5.31A5.32,5.32,0,0,0,0,5.32V34.68A5.32,5.32,0,0,0,5.31,40H123.24a5.32,5.32,0,0,0,5.32-5.32h0V5.32A5.32,5.32,0,0,0,123.24,0Z"/></g><g id="Telegram"><path class="cls-1" d="M32.4,10.77,12.16,18.58a.58.58,0,0,0,0,1.09l4.94,1.84L19,27.65a.58.58,0,0,0,.92.28l2.75-2.24a.82.82,0,0,1,1,0l5,3.6a.58.58,0,0,0,.91-.35l3.57-17.51a.58.58,0,0,0-.76-.66Zm-3.87,4.09-8,7.39a1.65,1.65,0,0,0-.51,1l-.27,2a.25.25,0,0,1-.49,0l-1-3.66a1,1,0,0,1,.42-1.09l9.66-5.94a.18.18,0,0,1,.19.3Z"/></g><g class="cls-2"><path class="cls-1" d="M45.51,29v-7.2H42.94V20.38h6.89v1.47H47.26V29Z"/><path class="cls-1" d="M51,29V20.38h6.43v1.47H52.71v1.92h4.35v1.46H52.71v2.36h4.84V29Z"/><path class="cls-1" d="M59.08,29v-8.6h1.75v7.14h4.35V29Z"/><path class="cls-1" d="M66.43,29V20.38h6.43v1.47H68.18v1.92h4.35v1.46H68.18v2.36H73V29Z"/><path class="cls-1" d="M78.54,25.86V24.4h3.77v3.45a4.75,4.75,0,0,1-1.59.94,5.81,5.81,0,0,1-2.11.4,4.74,4.74,0,0,1-2.37-.57A3.62,3.62,0,0,1,74.72,27a5.28,5.28,0,0,1-.51-2.31,5,5,0,0,1,.57-2.41,3.83,3.83,0,0,1,1.66-1.61,4.48,4.48,0,0,1,2.08-.43,4.14,4.14,0,0,1,2.52.68,3.06,3.06,0,0,1,1.17,1.87l-1.74.33a1.84,1.84,0,0,0-.69-1,2.08,2.08,0,0,0-1.26-.37,2.37,2.37,0,0,0-1.82.73A3.06,3.06,0,0,0,76,24.62a3.39,3.39,0,0,0,.69,2.31,2.29,2.29,0,0,0,1.8.77,3,3,0,0,0,1.1-.22,3.78,3.78,0,0,0,.95-.52v-1.1Z"/><path class="cls-1" d="M83.94,29V20.38h3.68a6.29,6.29,0,0,1,2,.23,2,2,0,0,1,1,.83A2.49,2.49,0,0,1,91,22.81a2.32,2.32,0,0,1-.57,1.61,2.76,2.76,0,0,1-1.71.8,4.12,4.12,0,0,1,.94.73,9.87,9.87,0,0,1,1,1.41L91.73,29H89.64l-1.27-1.89a12.23,12.23,0,0,0-.92-1.27,1.35,1.35,0,0,0-.53-.36,2.91,2.91,0,0,0-.88-.1h-.36V29Zm1.75-5H87a6.67,6.67,0,0,0,1.57-.11.94.94,0,0,0,.49-.37,1.13,1.13,0,0,0,.18-.65,1,1,0,0,0-.23-.71,1.08,1.08,0,0,0-.66-.34q-.21,0-1.28,0H85.69Z"/><path class="cls-1" d="M100.49,29h-1.9l-.76-2H94.37l-.71,2H91.79l3.38-8.67H97Zm-3.22-3.43L96.08,22.4,94.9,25.62Z"/><path class="cls-1" d="M101.4,29V20.38H104l1.57,5.91,1.56-5.91h2.63V29h-1.63V22.23L106.42,29h-1.69L103,22.23V29Z"/></g><g class="cls-2"><path class="cls-1" d="M43.15,10.74h2.13a6.16,6.16,0,0,1,.94.05,1.38,1.38,0,0,1,.56.22,1.36,1.36,0,0,1,.41.45,1.21,1.21,0,0,1,.16.62,1.26,1.26,0,0,1-.75,1.16,1.4,1.4,0,0,1,.75.48,1.29,1.29,0,0,1,.26.8,1.58,1.58,0,0,1-.17.71,1.43,1.43,0,0,1-.46.55,1.53,1.53,0,0,1-.72.25q-.27,0-1.3,0H43.15Zm1.08.89v1.23h.71q.63,0,.78,0a.71.71,0,0,0,.43-.19.56.56,0,0,0,.16-.42.58.58,0,0,0-.14-.4.61.61,0,0,0-.41-.19q-.16,0-.92,0Zm0,2.12v1.43h1a4.75,4.75,0,0,0,.74,0,.63.63,0,0,0,.54-.67.69.69,0,0,0-.12-.41.65.65,0,0,0-.34-.24,3.67,3.67,0,0,0-1-.08Z"/><path class="cls-1" d="M48.28,14.08a2.09,2.09,0,0,1,.25-1,1.72,1.72,0,0,1,.71-.73,2.1,2.1,0,0,1,1-.25,1.93,1.93,0,0,1,1.44.57,2,2,0,0,1,.56,1.44,2,2,0,0,1-.57,1.45,1.91,1.91,0,0,1-1.42.58,2.25,2.25,0,0,1-1-.24,1.65,1.65,0,0,1-.73-.7A2.34,2.34,0,0,1,48.28,14.08Zm1,.05a1.28,1.28,0,0,0,.27.88.89.89,0,0,0,1.34,0,1.29,1.29,0,0,0,.27-.89,1.27,1.27,0,0,0-.27-.87.89.89,0,0,0-1.34,0A1.28,1.28,0,0,0,49.33,14.14Z"/><path class="cls-1" d="M54.84,12.21V13h-.7v1.56a3.89,3.89,0,0,0,0,.55.22.22,0,0,0,.09.13.29.29,0,0,0,.17.05,1.32,1.32,0,0,0,.41-.1l.09.79a2,2,0,0,1-.81.15,1.27,1.27,0,0,1-.5-.09.73.73,0,0,1-.33-.24,1,1,0,0,1-.14-.4,4.94,4.94,0,0,1,0-.72V13h-.47v-.81h.47v-.77l1-.6v1.36Z"/><path class="cls-1" d="M55.19,15l1-.16a.75.75,0,0,0,.27.45.9.9,0,0,0,.56.15,1,1,0,0,0,.6-.15.32.32,0,0,0,.13-.27.27.27,0,0,0-.07-.19.82.82,0,0,0-.34-.13,5.53,5.53,0,0,1-1.57-.5,1,1,0,0,1-.46-.87,1.07,1.07,0,0,1,.4-.84A1.85,1.85,0,0,1,57,12.12a2.15,2.15,0,0,1,1.18.26,1.32,1.32,0,0,1,.53.76l-1,.18a.6.6,0,0,0-.23-.35.86.86,0,0,0-.49-.12,1.11,1.11,0,0,0-.58.11.24.24,0,0,0-.12.21.23.23,0,0,0,.1.19,3.89,3.89,0,0,0,1,.29,2.84,2.84,0,0,1,1.14.46.94.94,0,0,1,.32.76,1.17,1.17,0,0,1-.44.91,2,2,0,0,1-1.31.38,2.16,2.16,0,0,1-1.25-.32A1.47,1.47,0,0,1,55.19,15Z"/><path class="cls-1" d="M61.75,16.07V10.74h1.61l1,3.64,1-3.64H66.9v5.33h-1v-4.2l-1.06,4.2h-1l-1.06-4.2v4.2Z"/><path class="cls-1" d="M68.73,13.39l-.93-.17a1.45,1.45,0,0,1,.54-.83,2,2,0,0,1,1.14-.27,2.46,2.46,0,0,1,1,.16,1,1,0,0,1,.47.41,2.11,2.11,0,0,1,.14.92V14.8a4.1,4.1,0,0,0,0,.75,2.17,2.17,0,0,0,.18.52h-1c0-.07-.06-.17-.1-.3l0-.12a1.84,1.84,0,0,1-.56.38,1.6,1.6,0,0,1-.64.13,1.32,1.32,0,0,1-.94-.32A1.08,1.08,0,0,1,67.7,15a1.1,1.1,0,0,1,.16-.58,1,1,0,0,1,.44-.39,3.37,3.37,0,0,1,.81-.24,5.63,5.63,0,0,0,1-.25v-.1A.53.53,0,0,0,70,13a.87.87,0,0,0-.55-.12A.74.74,0,0,0,69,13,.75.75,0,0,0,68.73,13.39Zm1.37.83a6.33,6.33,0,0,1-.62.16,1.88,1.88,0,0,0-.56.18.43.43,0,0,0-.2.36.5.5,0,0,0,.16.37.56.56,0,0,0,.41.16.88.88,0,0,0,.53-.18.64.64,0,0,0,.24-.34,2,2,0,0,0,0-.5Z"/><path class="cls-1" d="M73.09,16.07h-1V12.21H73v.55a1.65,1.65,0,0,1,.44-.51.81.81,0,0,1,.44-.12,1.29,1.29,0,0,1,.67.19l-.32.89a.9.9,0,0,0-.48-.17.57.57,0,0,0-.36.12.81.81,0,0,0-.23.43,6.08,6.08,0,0,0-.09,1.29Z"/><path class="cls-1" d="M75,16.07V10.74h1v2.83l1.2-1.36h1.26l-1.32,1.41,1.42,2.45h-1.1l-1-1.74-.48.5v1.24Z"/><path class="cls-1" d="M81.39,14.84l1,.17a1.68,1.68,0,0,1-.62.85,1.83,1.83,0,0,1-1.06.29,1.73,1.73,0,0,1-1.49-.66,2.22,2.22,0,0,1-.38-1.33,2.13,2.13,0,0,1,.5-1.5,1.65,1.65,0,0,1,1.27-.54,1.72,1.72,0,0,1,1.36.57,2.52,2.52,0,0,1,.48,1.74H79.9a1,1,0,0,0,.25.71.77.77,0,0,0,.59.25.63.63,0,0,0,.4-.13A.8.8,0,0,0,81.39,14.84Zm.06-1a1,1,0,0,0-.23-.67.74.74,0,0,0-1.08,0,.94.94,0,0,0-.21.66Z"/><path class="cls-1" d="M85.07,12.21V13h-.7v1.56a4,4,0,0,0,0,.55.22.22,0,0,0,.09.13.29.29,0,0,0,.17.05,1.32,1.32,0,0,0,.41-.1l.09.79a2,2,0,0,1-.81.15,1.27,1.27,0,0,1-.5-.09.73.73,0,0,1-.33-.24.94.94,0,0,1-.14-.4,4.85,4.85,0,0,1,0-.72V13h-.47v-.81h.47v-.77l1-.6v1.36Z"/></g></svg>