<?xml version="1.0" encoding="utf-8"?>
<!-- Generator: Adobe Illustrator 20.1.0, SVG Export Plug-In . SVG Version: 6.00 Build 0)  -->
<svg version="1.1" id="Слой_3" xmlns="http://www.w3.org/2000/svg" xmlns:xlink="http://www.w3.org/1999/xlink" x="0px" y="0px"
	 viewBox="0 0 128.6 26.1" style="enable-background:new 0 0 128.6 26.1;" xml:space="preserve">
<style type="text/css">
	.st0{fill:#5E8BCE;}
	.st1{enable-background:new    ;}
</style>
<title>_telegram-01</title>
<g id="Telegram">
	<g>
		<path class="st0" d="M27.6,1.4L1.5,11.5c-0.4,0.1-0.6,0.5-0.4,0.9c0.1,0.3,0.3,0.4,0.4,0.4l6.3,2.3l2.5,7.9
			c0.1,0.4,0.5,0.6,0.9,0.5c0.1,0,0.1-0.1,0.3-0.1l3.6-2.8c0.4-0.3,0.9-0.3,1.3,0l6.5,4.6c0.4,0.3,0.8,0.1,1-0.1
			c0-0.1,0.1-0.1,0.1-0.3l4.6-22.6c0.1-0.4-0.1-0.8-0.6-0.9C27.9,1.3,27.7,1.3,27.6,1.4z M22.6,6.7l-10.3,9.6
			c-0.4,0.4-0.6,0.8-0.6,1.3l-0.4,2.6c0,0.1-0.3,0.3-0.4,0.3c-0.1,0-0.3-0.1-0.3-0.3l-1.3-4.8c-0.1-0.5,0.1-1.2,0.5-1.4l12.5-7.6
			c0.1-0.1,0.3,0,0.3,0.1C22.7,6.4,22.7,6.6,22.6,6.7z"/>
	</g>
</g>
<g class="st1">
	<path class="st0" d="M44.5,24.9v-9.3h-3.4v-1.9h8.9v1.9h-3.4v9.3H44.5z"/>
	<path class="st0" d="M51.6,24.9V13.7h8.3v1.9h-6.1v2.5h5.7V20h-5.7v3.1H60v1.8H51.6z"/>
	<path class="st0" d="M62.1,24.9V13.8h2.3V23h5.7v1.9H62.1z"/>
	<path class="st0" d="M71.5,24.9V13.7h8.3v1.9h-6.1v2.5h5.7V20h-5.7v3.1H80v1.8H71.5z"/>
	<path class="st0" d="M87.1,20.9V19H92v4.5c-0.5,0.5-1.2,0.9-2.1,1.2c-0.9,0.4-1.8,0.5-2.7,0.5c-1.2,0-2.2-0.3-3.1-0.8
		c-0.9-0.5-1.5-1.2-1.9-2.1c-0.4-0.9-0.6-1.9-0.6-3c0-1.2,0.3-2.2,0.8-3.1c0.5-0.9,1.2-1.5,2.2-2.1c0.8-0.4,1.5-0.5,2.7-0.5
		c1.4,0,2.5,0.3,3.2,0.9c0.8,0.6,1.3,1.4,1.5,2.5l-2.2,0.4c-0.1-0.5-0.5-1-0.9-1.3c-0.4-0.3-1-0.5-1.7-0.5c-1,0-1.8,0.3-2.3,0.9
		c-0.6,0.6-0.9,1.5-0.9,2.8s0.3,2.3,0.9,3s1.4,1,2.3,1c0.5,0,0.9-0.1,1.4-0.3s0.9-0.4,1.2-0.6V21h-2.7V20.9z"/>
	<path class="st0" d="M94.1,24.9V13.7h4.8c1.2,0,2.1,0.1,2.6,0.3c0.5,0.3,1,0.5,1.3,1c0.4,0.5,0.5,1.2,0.5,1.8
		c0,0.9-0.3,1.5-0.8,2.1s-1.3,0.9-2.2,1c0.5,0.3,0.9,0.6,1.2,0.9c0.3,0.4,0.8,0.9,1.3,1.8l1.4,2.2h-2.7l-1.7-2.5
		c-0.5-0.9-1-1.4-1.2-1.7c-0.3-0.3-0.4-0.4-0.6-0.5C97.7,20,97.3,20,96.8,20h-0.5v4.9H94.1z M96.4,18.4h1.7c1,0,1.8,0,2.1-0.1
		c0.3-0.1,0.5-0.3,0.6-0.5c0.1-0.3,0.3-0.5,0.3-0.9c0-0.4-0.1-0.6-0.3-0.9c-0.3-0.3-0.5-0.4-0.9-0.4c-0.1,0-0.8,0-1.7,0h-1.8V18.4z"
		/>
	<path class="st0" d="M115.5,24.9h-2.5l-1-2.6h-4.5l-0.9,2.6h-2.5l4.4-11.2h2.5L115.5,24.9z M111.4,20.5l-1.5-4.1l-1.5,4.1H111.4z"
		/>
	<path class="st0" d="M116.7,24.9V13.7h3.4l2.1,7.6l2.1-7.6h3.4v11.2h-2.1v-8.8l-2.2,8.8h-2.2l-2.2-8.8v8.8H116.7z"/>
</g>
<g class="st1">
	<path class="st0" d="M41.6,1.3H47v6.8h-1.4V2.4h-2.7v5.7h-1.4V1.3H41.6z"/>
	<path class="st0" d="M48.1,5.7c0-0.4,0.1-0.9,0.4-1.3s0.5-0.8,0.9-0.9c0.4-0.3,0.8-0.4,1.3-0.4c0.8,0,1.4,0.3,1.8,0.8
		c0.5,0.5,0.8,1.2,0.8,1.8c0,0.8-0.3,1.4-0.8,1.9c-0.5,0.5-1.2,0.8-1.8,0.8c-0.5,0-0.9-0.1-1.3-0.3c-0.4-0.3-0.8-0.5-0.9-0.9
		C48.1,6.7,48.1,6.2,48.1,5.7z M49.4,5.7c0,0.5,0.1,0.9,0.4,1.2s0.5,0.4,0.9,0.4s0.6-0.1,0.9-0.4S52,6.2,52,5.7s-0.1-0.9-0.4-1.2
		c-0.3-0.3-0.5-0.4-0.9-0.4s-0.6,0.1-0.9,0.4C49.6,4.9,49.4,5.3,49.4,5.7z"/>
	<path class="st0" d="M58.2,8.2h-3.7v1.3h-1V7.1H54c0.3-0.3,0.4-0.6,0.5-1.2s0.3-1.4,0.3-2.7h4v3.9h0.6v2.5h-1V8.2H58.2z M57.4,7.1
		V4.2h-1.5c0,1.4-0.3,2.3-0.6,2.8H57.4z"/>
	<path class="st0" d="M60.2,3.2h1.3v2.1c0.3,0,0.4-0.1,0.5-0.3c0.1-0.1,0.3-0.4,0.4-0.8c0.1-0.5,0.4-0.8,0.5-0.9
		c0.1-0.1,0.5-0.3,0.8-0.3c0.1,0,0.3,0,0.5,0V4c-0.4,0-0.5,0-0.6,0.1c-0.1,0.1-0.3,0.4-0.3,0.6c-0.1,0.5-0.4,0.8-0.6,0.9
		c0.4,0.1,0.8,0.5,1,1c0,0,0,0,0,0.1l0.8,1.4H63l-0.6-1.4c-0.1-0.3-0.3-0.5-0.4-0.5c-0.1-0.1-0.3-0.1-0.4-0.1v2.1h-1.3v-5H60.2z"/>
	<path class="st0" d="M65.6,3.2H70v5h-1.3V4.4h-1.8v2.2c0,0.5-0.1,1-0.3,1.2c-0.1,0.3-0.3,0.4-0.4,0.5c-0.1,0.1-0.4,0.1-0.8,0.1
		c-0.3,0-0.5,0-0.8-0.1v-1c0,0,0.1,0,0.3,0c0.1,0,0.3,0,0.3,0c0.1,0,0.3,0,0.4-0.1c0-0.1,0-0.4,0-1V3.2z"/>
	<path class="st0" d="M71.3,3.2h1.3v2.1h1c0.1-0.6,0.3-1.2,0.8-1.5c0.4-0.4,1-0.6,1.7-0.6s1.3,0.3,1.7,0.6c0.4,0.4,0.6,1.2,0.6,1.9
		c0,0.5-0.1,0.9-0.3,1.3s-0.4,0.6-0.8,0.9c-0.4,0.3-0.8,0.4-1.3,0.4c-0.8,0-1.4-0.3-1.8-0.6c-0.4-0.4-0.6-0.9-0.6-1.4h-1v1.9h-1.3
		C71.3,8.1,71.3,3.2,71.3,3.2z M76,4.1c-0.4,0-0.6,0.1-0.8,0.4S75,5.1,75,5.7c0,0.6,0.1,1.2,0.3,1.3c0.1,0.3,0.5,0.4,0.8,0.4
		c0.4,0,0.6-0.1,0.8-0.4c0.1-0.3,0.3-0.6,0.3-1.2c0-0.6-0.1-1-0.3-1.3C76.6,4.2,76.3,4.1,76,4.1z"/>
	<path class="st0" d="M79,3.2h1.3v1.2c0,0.3,0,0.5,0.1,0.6c0,0.1,0.1,0.3,0.3,0.4c0.1,0.1,0.4,0.1,0.6,0.1s0.5,0,0.8-0.1V3.3h1.3v5
		h-1.3V6.4c-0.5,0.1-0.9,0.3-1.2,0.3c-0.4,0-0.8-0.1-1-0.3c-0.4-0.1-0.5-0.4-0.6-0.6s-0.1-0.6-0.1-1V3.2H79z"/>
	<path class="st0" d="M84.7,3.2H86v3.1L88,3.2h1.3v5H88V5L86,8.2h-1.3V3.2z"/>
	<path class="st0" d="M90,3.2h4.5v1H93v3.9h-1.3V4.2h-1.5v-1H90z"/>
	<path class="st0" d="M95.4,3.2h1.3v2.1H98c0.5,0,0.9,0,1.2,0.1s0.5,0.3,0.6,0.5c0.1,0.3,0.3,0.5,0.3,0.9c0,0.5-0.1,0.9-0.5,1
		c-0.4,0.3-0.8,0.4-1.5,0.4h-2.8v-5H95.4z M96.7,7.3H98c0.4,0,0.6,0,0.8-0.1c0.1-0.1,0.1-0.3,0.1-0.4c0-0.3-0.1-0.4-0.3-0.5
		c-0.1-0.1-0.5-0.1-1-0.1h-0.9V7.3z"/>
	<path class="st0" d="M107.7,1.1h0.9c0,0.4-0.1,0.6-0.3,0.9c-0.1,0.3-0.6,0.3-1.3,0.3c-0.1,0-0.1,0-0.3,0h-0.1c-0.4,0-0.8,0-1,0.1
		S105.1,2.7,105,3c-0.1,0.3-0.3,0.6-0.3,1.3c0.3-0.4,0.4-0.6,0.8-0.8c0.4-0.1,0.6-0.3,1.2-0.3c0.6,0,1.2,0.3,1.7,0.8
		c0.5,0.5,0.6,1.2,0.6,1.8s-0.3,1.3-0.8,1.8s-1.2,0.8-1.8,0.8c-0.5,0-1-0.1-1.4-0.4c-0.4-0.3-0.6-0.6-0.9-1
		c-0.1-0.4-0.3-1.2-0.3-2.2c0-1.2,0.3-2.1,0.6-2.6s1.2-0.8,2.3-0.8h0.6C107.5,1.4,107.7,1.3,107.7,1.1z M105,5.8
		c0,0.5,0.1,0.8,0.4,1c0.3,0.3,0.5,0.4,0.8,0.4c0.4,0,0.6-0.1,0.9-0.4s0.4-0.6,0.4-1s-0.1-0.8-0.4-1c-0.3-0.3-0.5-0.4-0.9-0.4
		c-0.4,0-0.6,0.1-0.9,0.4C105.1,4.9,105,5.3,105,5.8z"/>
	<path class="st0" d="M109.6,5.7c0-0.4,0.1-0.9,0.4-1.3c0.3-0.4,0.5-0.8,0.9-0.9c0.4-0.3,0.8-0.4,1.3-0.4c0.8,0,1.4,0.3,1.8,0.8
		c0.5,0.5,0.8,1.2,0.8,1.8c0,0.8-0.3,1.4-0.8,1.9s-1.2,0.8-1.8,0.8c-0.5,0-0.9-0.1-1.3-0.3c-0.4-0.3-0.8-0.5-0.9-0.9
		C109.7,6.7,109.6,6.2,109.6,5.7z M110.9,5.7c0,0.5,0.1,0.9,0.4,1.2c0.3,0.3,0.5,0.4,0.9,0.4c0.4,0,0.6-0.1,0.9-0.4
		c0.3-0.3,0.4-0.6,0.4-1.2s-0.1-0.9-0.4-1.2c-0.3-0.3-0.5-0.4-0.9-0.4c-0.4,0-0.6,0.1-0.9,0.4C111,4.9,110.9,5.3,110.9,5.7z"/>
	<path class="st0" d="M114.9,3.2h4.5v1h-1.5v3.9h-1.3V4.2h-1.7V3.2z"/>
	<path class="st0" d="M121.2,4.8l-1.2-0.3c0.1-0.5,0.4-0.9,0.6-1c0.4-0.3,0.8-0.4,1.4-0.4s1,0.1,1.3,0.3c0.3,0.1,0.5,0.3,0.6,0.5
		s0.1,0.6,0.1,1.2v1.5c0,0.4,0,0.8,0,1s0.1,0.4,0.3,0.6h-1.3c0-0.1-0.1-0.3-0.1-0.4c0-0.1,0-0.1,0-0.1c-0.3,0.3-0.5,0.4-0.8,0.5
		s-0.5,0.1-0.8,0.1c-0.5,0-0.9-0.1-1.2-0.4s-0.4-0.6-0.4-1c0-0.3,0.1-0.5,0.3-0.8c0.1-0.3,0.4-0.4,0.5-0.5c0.3-0.1,0.6-0.3,1-0.3
		c0.6-0.1,1-0.3,1.3-0.4V4.9c0-0.3,0-0.4-0.1-0.5c-0.1-0.1-0.4-0.1-0.6-0.1s-0.4,0-0.5,0.1C121.4,4.4,121.2,4.5,121.2,4.8z M123,5.8
		c-0.1,0-0.4,0.1-0.8,0.3c-0.4,0.1-0.6,0.1-0.8,0.3c-0.1,0.1-0.3,0.3-0.3,0.5c0,0.1,0.1,0.4,0.3,0.5c0.1,0.1,0.3,0.3,0.5,0.3
		c0.3,0,0.5-0.1,0.6-0.3c0.1-0.1,0.3-0.3,0.3-0.4s0-0.4,0-0.6V5.8H123z"/>
</g>
</svg>
