<svg id="Слой_1" data-name="Слой 1" xmlns="http://www.w3.org/2000/svg" viewBox="0 0 12.22 9.17"><title>wallet-icon</title><path d="M12.39,3.64h-.16V1.77A.22.22,0,0,0,12,1.56H10.9V.63a.22.22,0,0,0-.22-.22H1.56A1.17,1.17,0,0,0,.39,1.58a.22.22,0,0,0,0,.09.22.22,0,0,0,0,.09V9.37a.22.22,0,0,0,.22.22H12a.22.22,0,0,0,.22-.22V7.5h.16a.22.22,0,0,0,.22-.22V3.86A.22.22,0,0,0,12.39,3.64ZM1.56.85h8.91v.7H.83A.73.73,0,0,1,1.56.85ZM11.79,9.15H.83V2h11V3.64H8.61a1.93,1.93,0,1,0,0,3.85h3.18Zm.38-2.09H8.61a1.49,1.49,0,1,1,0-3h3.56ZM8,5.57a.79.79,0,1,0,.79-.79A.79.79,0,0,0,8,5.57Zm.79-.35a.35.35,0,1,1-.35.35A.35.35,0,0,1,8.78,5.22Z" transform="translate(-0.39 -0.42)"/></svg>