<?xml version="1.0" encoding="utf-8"?>
<!-- Generator: Adobe Illustrator 16.0.0, SVG Export Plug-In . SVG Version: 6.00 Build 0)  -->
<!DOCTYPE svg PUBLIC "-//W3C//DTD SVG 1.1//EN" "http://www.w3.org/Graphics/SVG/1.1/DTD/svg11.dtd">
<svg version="1.1" xmlns="http://www.w3.org/2000/svg" xmlns:xlink="http://www.w3.org/1999/xlink" x="0px" y="0px"
	 width="794.944px" height="550.506px" viewBox="0 0 794.944 550.506" enable-background="new 0 0 794.944 550.506"
	 xml:space="preserve">
<g id="bgr">
	<g>
		<g opacity="0.85">
			<path fill-rule="evenodd" clip-rule="evenodd" fill="#FFFFFF" d="M760.245,19.178c9.268-4.95,18.581-9.814,27.874-14.716
				c2.287-1.208,4.552-2.465,6.825-3.698c-0.153-0.256-0.303-0.51-0.452-0.764C751.74,21.3,708.993,42.601,666.21,63.919
				c-0.567-0.954-0.757-1.76-1.188-1.916c-2.36-0.858-4.784-1.557-7.187-2.311c-0.266,1.645-0.857,3.32-0.719,4.929
				c0.197,2.296-0.279,3.652-2.562,4.688c-12.71,5.784-25.35,11.729-37.912,17.574c-1.328-1.512-2.554-2.903-4.077-4.632
				c-2.068,6.973-5.158,9.948-10.541,10.572c0.302-0.962,0.721-1.824,0.831-2.722c0.293-2.45-1.62-4.372-3.825-3.961
				c-3.254,0.606-5.533,3.902-4.926,7.139c0.209,1.132,0.452,2.258,0.707,3.513c-1.635,0.688-3.026,1.272-4.622,1.942
				c-1.16-3.385-3.866-4.064-6.133-2.835c-1.125,0.609-0.961,3.592-1.591,6.452c-6.993,2.992-14.985,6.409-22.949,9.815
				c-2.288-3.85-2.991-8.982-1.451-10.238c0.135-0.107,0.614,0.215,0.981,0.354c-0.093,1.057-0.182,2.061-0.27,3.062
				c0.379,0.169,0.759,0.34,1.137,0.511c0.392-0.782,1.01-1.529,1.141-2.352c0.399-2.533-1.291-3.542-3.375-3.542
				c-0.692,0-2.037,1.504-1.972,2.222c0.324,3.54,1.021,7.046,1.642,10.897c-8.392,3.361-16.959,6.574-24.633,11.833
				c-4.9,3.357-10.846,5.202-15.701,8.605c-3.101,2.171-5.979,3.705-9.708,3.808c-3.069,0.084-6.136,0.327-9.164,0.498
				c-0.411-1.454-0.816-2.888-1.223-4.323c-0.299,0.048-0.599,0.097-0.898,0.143c-0.191,1.58-0.384,3.158-0.6,4.941
				c-3.351-0.71-5.16-0.021-3.354,3.688c0.095,0.199,0.034,0.475,0.056,0.713c1.537,18.147,3.003,36.301,1.423,54.523
				c-0.111,1.269-1.441,2.405-2.091,3.662c-0.541,1.063-1.169,2.182-1.312,3.331c-0.213,1.705,0.656,3.945-0.157,5.093
				c-1.89,2.667-1.483,4.518,0.345,6.422c0.777,13.321,2.419,26.58,1.248,39.976c-1.183,13.525-1.535,27.122-2.253,40.689
				c-6.108-46.86-15.99-93.151-18.896-140.69c7.619-1.162,14.542-2.218,21.465-3.276c-0.07-0.507-0.134-1.019-0.202-1.53
				c-7.724,0.891-15.453,1.779-23.31,2.684c0.564,7.822,0.864,15.107,1.662,22.334c1.176,10.685,2.641,21.34,4.094,31.993
				c1.522,11.109,3.333,22.178,4.718,33.303c0.677,5.421,1.071,10.875,1.46,16.333c0.429,2.947,0.919,5.87,1.462,8.776
				c0.21-0.028,0.415-0.054,0.627-0.082c-0.222,1.526,0.774,2.978,0.297,4.909c0.646,3.264,1.314,6.532,1.967,9.836
				c0.021-0.028,0.041-0.05,0.066-0.078c0.031,0.303,0.054,0.57,0.083,0.848c0.583,2.98,1.154,5.987,1.666,9.053
				c-0.512-3.066-1.083-6.073-1.666-9.053c0.149,1.531,0.251,2.756,0.425,3.95c1.918,13.303,4.724,26.557,2.114,40.104
				c-0.136,0.699-0.077,1.434-0.119,2.153c-1.046,18.536-2.077,37.072-3.149,55.607c-0.284,4.999-0.688,9.991-1.033,14.953
				c-5.813,0.084-6.35,0.506-6.044,3.77c1.655-0.771,3.516-1.64,6.118-2.855c-0.353,5.718-0.585,10.37-0.984,15.006
				c-0.07,0.758-0.895,1.451-1.365,2.172c-0.585-0.403-1.438-0.674-1.699-1.228c-1.12-2.339-2.965-1.67-4.645-1.172
				c-10.195,3.022-20.364,6.148-30.561,9.169c-3.704,1.098-7.465,2-10.504,2.805c-2.556-40.261-4.265-80.132-7.835-119.837
				c-3.573-39.779-9.001-79.391-13.698-119.78c8.274,0.817,16.562,1.575,24.823,2.544c0.828,0.098,2.023,1.398,2.173,2.287
				c2.496,14.734,4.84,29.495,7.249,44.245c2.305,14.125,4.673,28.24,6.961,42.369c0.78,4.81,1.429,9.581,1.405,14.443
				c1.659,5.771,3.076,11.546,3.443,17.319c2.988,16.198,4.68,32.582,10.1,48.151c0.173-1.566-0.759-2.796-1.078-4.172
				c-0.862-3.717-1.628-7.477-2.041-11.264c-0.088-0.817,1.445-2.564,2.299-2.611c4.954-0.266,9.929-0.088,14.893-0.229
				c0.97-0.028,1.924-0.795,2.882-1.222c-0.798-0.515-1.621-1.503-2.392-1.463c-3.333,0.174-4.579-2.063-4.989-4.569
				c-0.225-1.389,0.818-3.052,1.494-4.494c0.556-1.179,1.604-2.136,2.091-3.33c0.887-2.167-0.379-3.449-2.669-3.145
				c-1.117,0.149-2.298-0.283-3.451-0.303c-1.328-0.025-3.265-0.386-3.841,0.307c-0.764,0.924-0.908,2.862-0.518,4.113
				c0.438,1.391,1.525,2.948,2.771,3.636c2.888,1.595,3.772,4.028,4.083,7.288c-4.392,0.425-8.682,0.842-12.884,1.25
				c-0.208-0.606-0.329-0.825-0.355-1.054c-2.311-21.029-4.461-42.076-6.964-63.082c-2.419-20.283-5.354-40.505-7.779-60.787
				c-2.202-18.431-4.047-36.902-6.01-55.361c-0.872-8.218-2.106-7.543,6.696-7.571c10.297-0.036,20.6,0.625,30.901,0.923
				c1.107,0.033,2.224-0.341,3.335-0.527c-0.033-0.373-0.067-0.748-0.103-1.122c-1.835-0.106-3.678-0.154-5.504-0.34
				c-0.906-0.094-1.85-0.313-2.661-0.714c-1.471-0.727-2.792-2.216-4.284-2.376c-12.717-1.369-25.451-2.536-38.188-3.673
				c-1.114-0.1-2.294,0.441-3.064,0.605c3.597,6.927,2.476,14.121,3.998,20.738c-3.646,1.189-6.753,2.09-9.777,3.218
				c-4.601,1.712-4.558,1.771-6.558-2.6c-0.209-0.446-0.827-0.705-1.258-1.05c-0.222,0.116-0.442,0.23-0.663,0.345
				c0.507,1.651,1.017,3.307,1.646,5.353c-7.123,2.13-14.015,4.194-21.846,6.536c2.236-4.166,0.78-6.249-2.542-8.303
				c0.268,1.517,0.416,2.396,0.575,3.27c0.965,5.294,0.969,5.3-4.149,6.692c-12,3.273-24.006,6.524-35.998,9.833
				c-1.238,0.343-2.385,1.018-3.572,1.535c0.121,0.37,0.242,0.74,0.365,1.11c8.896,0.2,17.135-3.167,25.586-5.507
				c-2.72,0.565-5.442,1.131-8.162,1.695c-0.062-0.338-0.123-0.678-0.186-1.017c9.016-2.495,18.032-4.987,27.392-7.576
				c1.847,10.246,3.597,19.929,5.348,29.612c0.324-0.056,0.647-0.11,0.969-0.166c-1.452-8.583-2.701-17.207-4.462-25.728
				c-0.711-3.42,0.144-4.964,3.408-5.464c5.254-0.809,10.494-1.694,15.764-2.372c1.443-0.185,2.97,0.253,4.748,0.435
				c0.368-0.421,1.106-2.068,2.192-2.35c3.748-0.964,7.614-1.45,11.994-2.214c0.943,6.016,1.916,12.184,2.928,18.622
				c-5.938-0.655-11.247-1.297-16.573-1.807c-3.211-0.305-6.867,0.471-9.544-0.835c-2.801-1.367-3.844,0.4-5.793,0.804
				c1.304,1.507,3.092,2.621,3.299,3.974c1.195,7.882,2.02,15.818,2.991,23.93c-7.426-0.515-14.391-0.992-22.074-1.523
				c-1.836,4.507,1.139,10.11-0.545,15.538c-0.483,0.045-1.062,0.195-1.621,0.133c-8.188-0.915-16.387-1.782-24.558-2.862
				c-1.349-0.179-2.574-1.317-4.353-2.277c-2.824,1.134-0.582,3.809-0.548,5.865c0.585,33.09,1.302,66.177,1.887,99.267
				c0.395,22.42,0.617,44.84,0.949,67.26c0.025,1.816,0.312,3.626,0.5,5.703c6.851-4.119,13.302-7.321,20.739-8.079
				c2.622-0.268,3.57,0.637,3.189,3.178c-0.811,5.399-1.593,10.803-2.459,16.697c4.418-0.469,8.874-1.083,13.347-1.391
				c8.359-0.574,16.732-0.988,25.102-1.433c2.16-0.113,2.914,1.019,2.792,3.139c-0.206,3.59-0.048,7.207-0.385,10.781
				c-0.203,2.146-1.056,4.231-1.796,7.005c0.463,0.704,1.449,2.197,2.954,4.483c0.277-1.972,0.17-3.224,0.665-4.151
				c0.507-0.948,1.978-2.403,2.387-2.218c4.075,1.836,7.348-0.896,10.938-1.644c8.877-1.852,17.743-3.779,26.626-5.631
				c5.564-1.163,11.16-2.188,16.703-3.439c0.65-0.146,1.436-1.307,1.516-2.065c0.309-2.899,2.354-2.84,4.216-2.399
				c1.208,0.289,2.209,1.453,3.081,2.072c0.517-0.264,1.721-1.449,2.829-1.364c9.425,0.721,18.832,1.683,28.248,2.54
				c0.789,0.071,1.601-0.1,2.401-0.159c0.016-0.44,0.031-0.88,0.051-1.319c-13.739-1.391-27.477-2.779-40.678-4.116
				c3.892-75.904,7.754-151.37,11.619-226.759c0.764,7.644,1.562,15.427,2.314,23.213c1.868,19.291,3.843,38.57,5.522,57.876
				c1.235,14.195,2.055,28.426,3.085,42.638c1.127,15.529,2.313,31.053,3.422,46.585c1.031,14.465,2.018,28.934,2.971,43.404
				c0.18,2.729,1.274,3.48,3.963,2.769c2.247-0.594,4.647-0.612,6.981-0.872c1.889-0.212,3.778-0.406,5.671-0.605
				c-0.042-0.499-0.083-0.994-0.121-1.492c-4.63-3.039-9.61,1.201-14.402,0.05c-0.273-2.622-0.605-4.993-0.759-7.377
				c-0.812-12.788-1.49-25.585-2.382-38.368c-1.313-18.859-2.749-37.711-4.158-56.564c-1.249-16.711-2.512-33.422-3.806-50.13
				c-1.369-17.672-2.963-35.326-4.119-53.011c-1.029-15.745-1.604-31.521-2.319-47.286c-0.032-0.693,0.549-1.415,0.845-2.121
				c0.322,0.626,0.713,1.229,0.944,1.887c0.172,0.493,0.14,1.056,0.219,1.788c1.137-0.232,1.983-0.405,3.378-0.687
				c-1.109-0.586-1.658-0.875-2.92-1.541c6.988-2.438,13.289,0.387,19.55-0.046c6.333-0.438,12.709-0.187,19.063-0.307
				c6.34-0.122,12.685-0.333,19.026-0.503c-0.009-0.477-0.014-0.956-0.02-1.434c-19.996-0.621-40.107,1.688-59.991-1.849
				c20.497-2.526,40.997-3.059,61.554-0.687c-14.323-4.071-29.092-3.085-44.258-3.251c1.867-1.52,3.076-2.923,4.601-3.676
				c11.772-5.831,23.587-11.579,35.461-17.197c1.038-0.491,2.616,0.151,3.354,0.215c1.028-0.938,1.862-2.252,3.01-2.648
				c4.528-1.564,9.155-2.831,13.739-4.229c1.031-0.313,2.011-0.775,3.044-1.06c1.773-0.486,3.57-0.888,5.389-1.33
				c0,2.729,0,4.975,0,7.218c0.071,0,0.145,0,0.219,0c0.126-1.438,0.255-2.876,0.381-4.316c0.227-0.012,0.453-0.023,0.675-0.034
				c0.627,2.667,1.255,5.332,1.928,8.198c-7.085-0.872-13.478-1.765-19.897-2.399c-2.823-0.277-5.591-0.006-5.699,4.009
				c-0.152,5.812-0.528,11.618-0.679,17.427c-0.113,4.386-0.024,8.779-0.024,12.882c-17.073,1.853-33.618,3.646-49.882,5.41
				c1.405,5.679,3.184,10.298,3.61,15.04c1.206,13.352,1.677,26.768,2.774,40.132c1.107,13.479,2.694,26.917,3.924,40.389
				c0.446,4.872,0.467,9.784,0.682,14.675l-0.091-0.034c0.74,3.521,1.797,7.01,2.163,10.57c1.312,12.769,2.431,25.555,3.504,38.345
				c0.144,1.706-0.4,3.471-0.627,5.21l0.104-0.037c0.059,1.317,0.067,2.637,0.182,3.947c1.372,16.085,2.869,32.163,4.105,48.259
				c0.698,9.063,1.027,18.158,1.435,27.244c0.394,8.712,0.912,17.429,0.918,26.144c0.002,5.639-0.371,5.53,5.315,5.437
				c33.327-0.547,66.658-1.304,99.992-1.407c11.651-0.035,23.309,1.625,34.967,2.404c0.962,0.066,1.985-0.698,3.205-1.165
				c-3.002-2.876-3.72-29.096-1.46-34.738c15.648,0,31.218,0.054,46.786-0.035c4.352-0.023,8.817-1.162,12.567,2.176
				c0.056,0.051,0.382-0.205,0.582-0.322c-0.074-0.991-0.116-1.982-0.226-2.966c-0.115-1.059-0.142-2.161-0.473-3.156
				c-0.606-1.823-2.091-3.612-2.012-5.361c0.486-10.88,1.079-21.762,2.064-32.606c1.649-18.213,5.815-36.105,7.127-54.379
				c0.419-5.834,1.55-11.618,2.388-17.418c3.233-22.398,6.618-44.771,9.67-67.191c2.6-19.074,4.901-38.189,7.158-57.308
				c0.488-4.121,0.31-8.332,0.243-12.498c-0.014-0.72-1.01-1.424-1.552-2.134c-0.732,0.674-1.76,1.223-2.116,2.058
				c-0.369,0.854-0.082,1.989-0.082,3.671c0.804-1.463,1.268-2.305,1.731-3.146c0.431,0.121,0.859,0.241,1.289,0.363
				c-10.339,81.254-19.791,162.637-37.258,242.856c0.529,0.099,1.057,0.197,1.586,0.297c2.099-9.145,4.194-18.287,6.292-27.43
				c0.193,0.041,0.385,0.08,0.577,0.122c-0.546,10.566-1.091,21.133-1.637,31.671c-49.812,2.961-99.59-3.235-150.144-5.424
				c1.723-3.711,3.149-6.775,4.572-9.841c-3.513,2.663-3.206,8.08-7.971,10.043c-0.2-0.865-0.334-1.206-0.351-1.552
				c-1.232-26.214-2.275-52.442-3.745-78.643c-0.84-14.938-2.526-29.83-3.544-44.76c-1.758-25.696-3.679-51.391-4.788-77.119
				c-0.84-19.443-0.49-38.935-0.751-58.404c-0.045-3.275,1.437-4.219,4.402-3.708c2.736,0.472,5.477,1.043,8.237,1.262
				c2.118,0.169,4.319-0.458,6.412-0.192c11.494,1.463,23,2.872,34.435,4.735c8.552,1.394,16.993,3.462,25.495,5.183
				c0.621,0.125,1.316-0.136,1.972-0.219c0.085-0.314,0.171-0.627,0.257-0.941c-1.688-0.555-3.34-1.336-5.07-1.632
				c-11.891-2.033-23.771-4.186-35.719-5.867c-12.081-1.701-24.237-2.861-36.345-4.39c-1.117-0.143-2.113-1.241-3.167-1.896
				c1.167-0.734,2.412-2.196,3.491-2.081c5.584,0.595,11.138,1.523,16.672,2.497c1.306,0.23,2.496,1.083,3.739,1.648
				c1.898-0.629,3.922-0.938,5.818-0.58c15.616,2.936,31.211,6.005,46.816,9.011c20.856,4.019,41.677,8.245,62.589,11.946
				c16.02,2.838,32.159,5.008,48.251,7.446c0.94,0.143,1.922,0.019,2.887,0.019c0.03-0.368,0.058-0.737,0.087-1.106
				c-1.536-0.292-3.064-0.674-4.613-0.857c-2.961-0.355-5.971-0.41-8.906-0.913c-20.275-3.486-40.541-7.046-60.804-10.608
				c-3.768-0.662-7.622-1.117-11.229-2.293c-2.634-0.856-5.971-1.105-6.087-5.609c-0.402-15.443-1.254-30.873-1.861-46.311
				c-0.232-5.896-0.108-5.818,5.499-8.144c15.244-6.324,30.491-12.64,45.67-19.114c14.847-6.333,29.635-12.803,44.397-19.327
				c4.863-2.148,9.565-4.661,13.13-6.411c-0.982-1.776-1.968-3.022-2.397-4.437c-1.209-3.953-3.918-4.36-7.333-3.481
				c-0.969,0.25-1.949,0.461-2.928,0.687c-0.042,0.038-0.079,0.083-0.121,0.12c-0.095,0.031-0.195,0.056-0.29,0.087
				c-0.779,0.549-1.569,1.086-2.332,1.659c-0.701,0.524-1.361,1.098-2.044,1.648c0.149,0.285,0.301,0.572,0.449,0.859
				c1.732-0.696,3.447-1.426,5.192-2.082c6.175-2.321,6.175-2.313,9.455,4.701c-34.906,15.3-69.791,30.588-104.748,45.912
				c-2.076-6.23-1.992-6.309,3.061-8.821c27.743-13.774,55.456-27.61,83.231-41.326c2.407-1.191,5.135-1.74,7.735-2.55
				c0.074-0.053,0.15-0.109,0.227-0.164c0.062-0.013,0.122-0.029,0.185-0.043C758.641,20.581,759.328,19.667,760.245,19.178z
				 M474.746,327.907c-1.136,0.054-2.396-2.629-3.604-4.083c0.399-0.448,0.796-0.897,1.197-1.344c1.42,0.803,2.84,1.606,4.564,2.581
				c0.482-0.344,1.367-0.969,2.252-1.595c0.331,0.453,0.663,0.905,0.998,1.357C478.354,325.944,476.591,327.82,474.746,327.907z
				 M442.743,143.732c10.155,1.124,20.046,2.22,29.935,3.317c0,0.469-0.002,0.937-0.004,1.404c-0.92,0.077-1.842,0.237-2.759,0.211
				c-8.147-0.228-16.292-0.626-24.437-0.662C442.683,147.993,442.158,146.94,442.743,143.732z M422.269,170.417
				c-0.113-0.368-0.225-0.734-0.336-1.099c4.19-1.347,8.377-2.694,12.566-4.04c0.145,0.471,0.287,0.944,0.432,1.417
				C430.71,167.935,426.486,169.174,422.269,170.417z M437.663,171.239c-0.144-0.921-0.079-1.875-0.095-2.815
				c-0.011-0.992-0.002-1.984-0.002-3.782c-0.075,0.045,0.755-0.45,1.716-1.017c-0.333-0.387-0.583-0.887-0.765-0.864
				c-2.034,0.266-2.341-1.233-2.527-2.588c-0.706-5.192-1.306-10.396-2-16.04c2.119,0,4.026,0,5.775,0
				c5.285,44.774,10.557,89.424,15.829,134.076c-0.272,0.036-0.545,0.076-0.815,0.114c-4.696-29.127-9.391-58.256-14.112-87.577
				c1.333,0.216,2.145,0.348,3.098,0.501c-0.047-0.625,0.027-1.215-0.108-1.271c-3.963-1.557-3.918-5.056-4.314-8.462
				C438.944,178.07,438.196,174.668,437.663,171.239z M363.665,397.878c-0.379-20.526-0.754-40.569-1.122-60.615
				c0.307,0.039,0.612,0.077,0.92,0.115c0.978,18.706,1.958,37.411,2.938,56.189c2.564-0.339,4.98-0.663,7.398-0.984
				c0.088,0.268,0.174,0.537,0.261,0.809C370.811,394.793,367.563,396.196,363.665,397.878z M382.933,391.645
				c-3.933-1.731-7.842-1.627-11.863-0.643c-2.667,0.651-3.271-0.753-3.378-3.098c-0.663-14.833-1.427-29.664-2.137-44.495
				c-1.462-30.516-2.972-61.029-4.327-91.549c-0.321-7.301-0.09-14.626-0.159-21.939c-0.022-1.814,0.407-3.167,2.548-2.979
				c8.899,0.788,17.796,1.622,26.881,2.457c0,4.152,0.05,7.363-0.014,10.576c-0.143,7.309-0.602,14.623-0.415,21.921
				c0.039,1.496-0.225,2.552-0.736,3.313c0,0.789,0,1.573,0,2.378c0.197-0.016,0.382-0.033,0.583-0.051
				c0,6.884,0.107,13.811-0.021,20.733c-0.429,23.732-0.919,47.461-1.441,71.191c-0.12,5.391-0.413,10.778-0.764,16.157
				c-0.059,0.904-0.606,2.198-1.299,2.521c-0.763,0.36-2.204,0.138-2.908-0.406c-1.604-1.249-2.954-3.375-4.876-0.625
				c-1.253,1.782,0.054,5.355,2.255,6.468c0.658,0.336,1.49,0.323,2.832,0.583c-1.674-1.461-3.095-2.317-3.904-3.567
				c-0.455-0.698,0.121-2.058,0.233-3.12c0.875,0.449,1.89,0.748,2.586,1.391c0.566,0.527,0.753,1.465,1.152,2.313
				c0.936-0.533,1.903-1.086,3.182-1.814c0,3.763,0.12,7.177-0.037,10.573C386.764,392.87,384.479,392.327,382.933,391.645z
				 M418.859,408.509c-10.717,0.697-21.44,1.201-32.296,1.77c4.385-41.362,5.229-83.02,5.574-124.864
				c0.15,0.78,0.401,1.557,0.433,2.342c0.59,16.034,1.302,32.066,1.702,48.107c0.567,22.748,0.891,45.501,1.343,68.255
				c0.095,4.848,0.207,4.82,4.952,3.684c7.309-1.747,14.724-2.38,22.195-2.12c0.114,0.346,0.225,0.693,0.335,1.039
				C421.687,407.343,420.306,408.417,418.859,408.509z M424.78,402.679c0.01,0.224-1.161,0.662-1.804,0.713
				c-8.313,0.66-16.634,1.269-24.704,1.87c-2.056-62.893-4.133-126.34-6.216-190.043c7.409,0,13.915,0,20.985,0
				c2.001,16.621,3.987,33.116,6.063,50.333c0.054-0.281,0.12-0.563,0.211-0.845c-0.091,0.282-0.157,0.564-0.211,0.845
				c0.022,0.188,0.043,0.375,0.069,0.565c-0.055-0.011-0.104-0.023-0.155-0.033c-0.146,1.263,0.017,2.525,0.127,3.79
				c0.276,0.808,0.444,1.782,0.515,2.955c1.187,19.855,2.371,39.708,3.346,59.576c0.767,15.562,1.257,31.137,1.751,46.71
				c0.049,1.519-0.506,3.167-1.164,4.579c-1.355,2.905-1.19,5.223,0.267,8.349C425.273,395.086,424.648,399.09,424.78,402.679z
				 M427.741,427.104c-1.354-40.839-2.705-81.528-4.038-121.699c1.219,16.342,2.695,33.344,3.688,50.378
				c0.992,16.974,1.504,33.977,2.207,50.969c0.245,5.864,0.425,11.731,0.661,17.596
				C430.345,426.472,429.597,427.563,427.741,427.104z M461.27,421.774c-0.098-0.335-0.195-0.666-0.292-0.999
				c4.891-1.448,9.775-2.896,14.665-4.345c0.123,0.428,0.249,0.855,0.374,1.283C471.1,419.067,466.184,420.419,461.27,421.774z
				 M493.035,215.164c-2.448-1.19-3.712-1.908-2.205-4.477c0.843-1.436,0.526-3.554,0.735-5.364
				c0.116-1.031,0.234-2.061,0.355-3.091c0.369,0.041,0.744,0.082,1.114,0.124C493.035,206.467,493.035,210.579,493.035,215.164z
				 M493.976,143.437c2.448,1.702,3.697,13.988,2.329,19.279c-0.354,0.065-0.706,0.134-1.06,0.201
				C494.829,156.525,494.413,150.134,493.976,143.437z M496.906,178.954c-0.436-4.576-0.875-9.151-1.31-13.728
				c0.426-0.042,0.852-0.084,1.274-0.127c0.349,4.583,0.7,9.167,1.047,13.753C497.58,178.886,497.243,178.92,496.906,178.954z
				 M517.239,156.489c6.402-0.785,12.805-1.572,19.211-2.355c0.04,0.249,0.082,0.499,0.123,0.749
				c-5.724,1.462-11.432,2.999-17.19,4.285c-0.647,0.145-1.61-1.13-2.425-1.748C517.053,157.109,517.146,156.798,517.239,156.489z
				 M583.343,389.61c7.454,0.263,14.905,0.631,22.356,0.954c0.023,0.373,0.04,0.746,0.059,1.118
				c-9.426,1.166-18.85,2.334-28.459,3.522C578.243,389.877,578.671,389.447,583.343,389.61z M566.462,253.909
				c-0.152-0.024-0.304-0.046-0.451-0.068c1.405,8.924,2.315,17.852,2.464,26.775c0.098,0.049,0.184,0.092,0.287,0.141
				c2.194,34.816,4.43,70.29,6.695,106.195c-4.593,0.253-8.489,0.424-12.379,0.698c-1.78,0.126-3.61,0.253-5.293,0.777
				c-0.899,0.282-1.537,1.405-2.29,2.151c0.998,0.429,1.997,1.216,2.998,1.216c2.116-0.002,4.232-0.415,6.478-0.674
				c2.37-3.827,6.241-0.793,9.526-1.585c-0.634,1.83-1.169,3.373-1.69,4.881c-1.773,0.611-3.555,1.229-5.337,1.842
				c0.058,0.416,0.118,0.833,0.178,1.249c1.427,0,2.872,0.145,4.276-0.022c12.689-1.521,25.469-2.549,38.022-4.823
				c10.493-1.899,20.688,0.029,31.003,0.428c9.81,0.38,19.606,1.104,29.41,1.675c0.928,0.054,1.863,0.09,2.841,0.135
				c0,11.092,0,21.956,0,33.096c-45.769-3.031-91.244,0.335-136.811,0.002c0-5.42,0.234-10.534-0.04-15.625
				c-1.253-23.079-2.447-46.167-4.063-69.224c-1.311-18.736-3.192-37.433-4.817-56.147c-1.273-14.669-2.683-29.328-3.748-44.013
				c-0.42-5.774-0.069-11.603-0.636-17.415c0,2.819,0,5.639,0,8.458c-0.43,0.027-0.861,0.054-1.296,0.081
				c-1.873-23.44-3.75-46.884-5.639-70.486c6.413-3.853,34.201-9.908,44.945-9.613C562.878,187.168,564.658,220.341,566.462,253.909
				z M611.5,91.356c0.967-0.499,2.275-0.332,4.25-0.522c3.807-4.714,10.57-6.171,16.417-9.125
				c7.762-3.921,15.728-7.436,23.612-11.106c0.407-0.19,0.884-0.231,1.532-0.39c1.302,4.083,0.211,6.139-3.688,7.61
				c-13.054,4.921-25.944,10.264-38.911,15.423c-1.079,0.429-2.233,0.669-4.112,1.22C610.982,93.013,610.958,91.635,611.5,91.356z
				 M608.968,92.244c0,1.426,0.261,2.848-0.041,2.978c-3.608,1.563-7.304,2.935-10.973,4.358c-0.224-0.529-0.447-1.058-0.671-1.587
				C600.892,96.217,604.498,94.444,608.968,92.244z M600.765,88.618c-1.974,1.908,0.948,6.274-3.628,6.946
				C595.256,90.312,595.871,88.966,600.765,88.618z M604.692,121.133c-4.358-0.767-8.712-1.587-13.011-2.632
				c-0.978-0.237-2.136-1.336-2.474-2.298c-0.945-2.684-1.514-5.503-2.215-8.274c-0.473-1.87-0.143-3.185,2.038-3.798
				c2.377-0.668,4.651-1.691,7.388-2.717c1.874,6.142,3.636,11.921,5.396,17.699c0.354-0.063,0.707-0.124,1.063-0.188
				c-0.161-1.404-0.148-2.859-0.514-4.207c-1.072-3.92-2.438-7.766-3.35-11.718c-0.207-0.911,0.656-2.705,1.5-3.109
				c2.771-1.328,5.755-2.201,9.323-3.491c1.422,8.813,2.747,17.009,4.195,25.978C610.45,121.91,607.554,121.636,604.692,121.133z
				 M658.911,126.608c-0.284,0.008-0.745,0.353-0.81,0.614c-1.025,4.401-4.156,3.33-7.082,2.751
				c-10.769-2.132-21.511-4.399-32.311-6.348c-2.866-0.516-3.399-1.718-3.706-4.422c-0.782-6.976-2.072-13.9-3.335-20.814
				c-0.34-1.864-0.011-2.877,1.788-3.583c14.777-5.784,29.529-11.62,44.299-17.43c0.426-0.169,0.9-0.208,1.833-0.414
				c0.593,12.534,1.164,24.712,1.744,36.89c0.128,2.631,0.228,5.262,0.425,7.885C661.935,124.053,662.495,126.498,658.911,126.608z
				 M660.123,67.07c-0.321-0.229-0.643-0.457-0.966-0.686c-0.165-1.364-0.325-2.729-0.603-5.045
				c1.922,0.884,3.331,1.534,4.738,2.182C662.235,64.705,661.182,65.887,660.123,67.07z"/>
			<path fill-rule="evenodd" clip-rule="evenodd" fill="#FFFFFF" d="M554.85,367.071c-0.013,0-0.02,0.002-0.033,0.002
				c0,0,0,0.004,0,0.006c0,0.004,0.005,0.008,0.005,0.011C554.828,367.085,554.842,367.077,554.85,367.071z"/>
			<path fill-rule="evenodd" clip-rule="evenodd" fill="#FFFFFF" d="M757.452,21.535c0.095-0.031,0.195-0.056,0.29-0.087
				c0.042-0.037,0.079-0.082,0.121-0.12c-0.063,0.014-0.123,0.03-0.185,0.043C757.603,21.425,757.526,21.482,757.452,21.535z"/>
			<path fill-rule="evenodd" clip-rule="evenodd" fill="#FFFFFF" d="M148.962,197.857c2.47,0.137,4.963,0.193,7.434,0.44
				c2.117,0.21,2.914-0.759,3.368-2.709c0.579-2.5,1.522-4.916,2.405-7.675c3.043,1.747,2.637,4.347,2.653,6.54
				c0.022,2.762,0.813,3.663,3.774,3.579c8.86-0.249,17.729-0.09,25.367-0.09c8.559-10.05,16.005-19.204,30.117-14.025
				c1.654-5.939-4.457-10.886-0.611-16.313c-1.313-0.595-2.82-1.278-4.327-1.961c0.201-0.399,0.403-0.8,0.607-1.201
				c10.099,3.164,19.168,8.325,27.896,14.147c-0.203,0.427-0.404,0.854-0.604,1.277c-1.117-0.47-2.267-0.869-3.345-1.42
				c-4.146-2.122-8.194-4.451-12.431-6.364c-1.603-0.721-3.617-0.524-5.447-0.743c-0.121,1.943-0.514,3.92-0.273,5.817
				c0.168,1.315,1.215,2.518,1.986,3.996c2.388-1.531,4.398-1.607,6.297,0.647c0.574,0.684,2.147,0.97,3.146,0.791
				c10.816-1.936,21.606-4.007,32.408-6.024c1.447-0.269,2.912-0.441,4.367-0.658c0.187,0.368,0.377,0.736,0.566,1.104
				c-0.846,0.701-1.597,1.826-2.551,2.031c-5.324,1.142-10.697,2.081-16.057,3.053c-3.842,0.695-7.691,1.337-11.48,2.292
				c17.825,1.447,35.652,2.895,53.873,4.374c-0.22-1.364-0.167-2.104-0.459-2.66c-2-3.808-5.443-5.755-9.27-7.383
				c-8.79-3.741-17.397-7.926-26.268-11.468c-10.201-4.077-20.594-7.674-30.919-11.434c-2.874-1.049-5.781-2.043-8.729-2.849
				c-1.012-0.28-2.246-0.077-3.302,0.195c-7.724,2-15.405,4.135-23.147,6.056c-1.174,0.292-2.566-0.309-3.855-0.497
				c-0.016-0.318-0.031-0.637-0.047-0.957c0.816-0.271,1.618-0.606,2.453-0.803c7.631-1.799,15.34-3.326,22.868-5.487
				c2.728-0.782,4.816-1.398,7.726-0.252c12.451,4.905,25.193,9.085,37.578,14.149c11.727,4.798,23.149,10.352,34.686,15.617
				c1.8,0.824,4.035,1.446,1.82,4.364c-0.406,0.538,1.592,2.897,2.813,4.987c-5.7,1.077-11.549-0.284-17.518-0.019
				c0.13,1.354,0.24,2.5,0.364,3.83c1.923,0.096,3.724,0.188,5.524,0.279c0.038,0.468,0.078,0.937,0.116,1.406
				c-1.47,0.256-2.94,0.514-5.223,0.912c7.241,54.81,14.521,109.89,21.839,165.259c-1.729,0.279-4.231,0.872-6.767,1.067
				c-14.214,1.092-28.431,2.125-42.654,3.096c-4.663,0.317-9.342,0.511-14.013,0.51c-2.052-0.001-2.981,0.721-3.564,2.613
				c-3.596,11.633-7.184,23.27-10.963,34.845c-2.329,7.128-4.958,14.162-7.518,21.212c-1.992,5.48-2.576,10.974-1.572,16.812
				c1.428,8.289,2.357,16.664,3.427,25.011c0.351,2.726,0.47,5.479,0.712,8.221c0.926,10.444-2.937,20.271-3.941,30.469
				c-0.281,2.853-0.84,5.679-1.203,8.523c-0.631,4.975-2.008,9.629-6.033,13.915c-1.26-20.014-0.402-39.768-3.938-59.194
				c-3.336,14.954-7.676,29.691-7.766,45.14c-0.053,8.784-0.012,17.572-0.41,26.417c0.555-4.512,1.103-9.022,1.658-13.533
				c0.314,0.039,0.631,0.08,0.944,0.12c-0.86,6.193-1.536,12.424-2.729,18.555c-0.283,1.455-2.313,2.57-4.371,4.699
				c-0.359-2.554-0.799-4.093-0.754-5.618c0.406-13.648,1.139-27.292,1.22-40.943c0.028-4.653-1.642-9.299-2.289-13.983
				c-0.364-2.627-0.724-5.425-0.218-7.97c2.322-11.591,4.965-23.116,7.441-34.674c0.187-0.881,0.316-2.448-0.092-2.676
				c-2.906-1.615-2.051-4.566-2.852-6.943c-2.273-6.742-4.592-13.487-7.29-20.066c-1.89-4.599-4.778-8.791-6.608-13.407
				c-4.433-11.188-8.61-22.478-12.641-33.816c-0.996-2.8-2.215-3.866-5.287-3.786c-8.863,0.236-17.738,0.084-27.118,0.084
				c-1.035,4.777-2.055,9.485-3.072,14.195c-0.245,0.066-0.489,0.132-0.731,0.196c-0.884-4.866-1.762-9.729-2.642-14.592
				c-0.102,0.073-0.202,0.145-0.304,0.218c0.135-2.231,0.563-4.49,0.369-6.691c-1.791-19.8-3.893-39.572-5.484-59.389
				c-1.125-13.967-1.631-27.987-2.338-41.988c-0.146-2.934-0.846-4.614-4.086-5.966c-6.807-2.84-13.182-6.718-19.732-10.169
				c-0.82-0.434-1.639-0.864-2.945-1.553c4.957,48.736,12.914,96.572,20.458,144.623c1.193,0,2.222-0.248,3.013,0.079
				c0.618,0.255,1.473,1.425,1.312,1.842c-0.833,2.178-1.956,4.244-3.449,7.314c-1.093-2.625-1.784-4.287-2.565-6.169
				c-29.187,7.969-58.342,15.934-87.513,23.846c-0.158,0.042-0.511-0.635-1.228-1.565c20.016-5.388,39.589-10.569,59.106-15.952
				c9.081-2.504,18.021-5.512,27.099-8.039c2.527-0.703,2.422-1.939,2.1-3.932c-1.602-9.906-3.146-19.822-4.611-29.75
				c-2.66-17.977-5.285-35.96-7.852-53.954c-2.279-15.989-4.474-31.992-6.671-47.992c-0.438-3.184-0.538-6.424-1.159-9.567
				c-0.251-1.285-1.202-2.851-2.298-3.468c-2.99-1.677-5.212-5.081-9.347-4.452c-0.392,0.06-1.209-0.609-1.32-1.065
				c-0.865-3.537-3.781-3.059-6.217-3.062c-3.417-0.003-6.838,0.385-11.322,0.675c-0.894-1.104-2.862-3.064-4.256-5.373
				c-1.85-3.061-4.59-3.66-7.732-3.745c-2.548-0.065-5.094-0.176-7.639-0.269c-14.928-0.545-29.857-1.091-45.297-1.654
				c0.836,0.548,1.381,0.904,2,1.31c-3.383,1.931-1.829,5.308-1.461,7.93c2.404,17.136,4.839,34.281,7.85,51.318
				c4.43,25.06,9.332,50.031,14.058,75.036c2.954,15.625,5.923,31.247,8.964,46.854c0.377,1.925,1.234,3.756,2.087,6.273
				c-1.19,1.317-1.854,0.107-2.267-1.65c-1.365-5.815-2.852-11.609-4.009-17.466c-3.339-16.891-6.611-33.796-9.784-50.72
				c-4.068-21.714-8.136-43.43-11.967-65.188c-2.305-13.083-4.336-26.222-6.118-39.389c-0.915-6.768-1.021-13.65-0.94-20.79
				c0.979,4.899,4.691,4.522,7.922,4.648c13.767,0.543,27.537,1.039,41.309,1.355c1.292,0.029,2.615-1.31,3.925-2.014
				c-0.732-1.095-1.302-2.364-2.234-3.248c-1.751-1.655-2.589-3.167-1.144-5.566c1.579-2.625,2.756-5.487,3.913-7.84
				c5.757,1.191,10.974,2.27,16.466,3.404c0.936-4,1.801-7.714,2.666-11.43c0.492,0.003,0.984,0.008,1.475,0.011
				c0.343,1.844,0.904,3.678,0.986,5.533c0.323,7.268-0.174,14.645,2.975,21.492c0.379,0.83,1.613,1.787,2.457,1.795
				c4.834,0.04,9.671-0.27,14.504-0.232c0.661,0.006,1.87,1.279,1.865,1.959c-0.014,2.702-0.405,5.4-1.136,8.426
				c-0.754-2.415-1.505-4.831-2.368-7.599c-4.305-0.265-8.802-0.544-13.443-0.832c-0.15,2.504,0.639,3.025,2.779,3.71
				c4.928,1.581,9.525,4.157,14.325,6.165c3.685,1.541,7.472,2.831,11.483,3.88c-8.273-8.701-10.189-19.351-10.076-30.646
				c-0.59,0.136-0.727,0.129-0.811,0.192c-5.961,4.335-6.219,4.552-11.143-1.403c-2.66-3.219-4.361-7.263-6.288-11.039
				c-0.882-1.727,0.077-2.837,1.895-3.466c4.177-1.439,8.603-2.513,12.357-4.708c3.506-2.046,6.63-5.042,9.293-8.157
				c6.143-7.183,11.845-14.739,17.853-22.036c1.635-1.985,1.752-3.707,1.069-6.168c-1.913-6.885-3.389-13.892-5.056-20.847
				c-0.335-1.399-0.757-2.78-1.412-5.16c-1.006,1.915-1.461,2.779-1.911,3.632c-6.524-2.423-7.034-3.877-3.987-7.563
				c-0.553-3.462-1.939-6.413-1.119-8.49c1.014-2.561,5.628-1.799,9.76,1.027c4.643-5.3,9.143-10.722,14.006-15.792
				c1.287-1.343,3.707-2.277,5.592-2.25c8.375,0.119,16.748,0.656,25.077,1.041c0-1.167,0-2.417,0-3.877
				c1.813,1.236,3.147,2.146,5.177,3.528c-0.674-3.529-5.359-4.375-2.941-7.516c0.953-1.232,3.361-1.339,5.102-1.961
				c0.822,2.365,1.648,4.73,2.712,7.795c1.157,0.119,3.396,0.268,5.609,0.595c2.413,0.359,3.257,1.454,1.384,3.575
				c-1.13,1.278-3.322,2.904-3.074,3.875c0.757,2.997,2.145,5.973,3.895,8.542c1.654,2.438,4.096,4.34,6.164,6.506
				c1.561,1.636,3.184,3.077,2.123,5.926c-0.328,0.882,1.213,2.674,2.186,3.796c5.924,6.848,10.871,14.282,13.988,22.827
				c0.521,1.427,0.683,2.983,1.012,4.479c-0.326,0.103-0.654,0.204-0.975,0.306c-1.634-2.341-3.265-4.683-5.389-7.731
				c1.273,0.71,1.805,1.003,2.785,1.55c-3.701-8.648-8.732-15.905-14.902-22.236c-1.736-1.783-5.195-1.908-3.373-5.934
				c0.883,0.5,1.745,0.99,2.604,1.478c0.229-0.206,0.455-0.413,0.681-0.616c-2.679-2.801-5.357-5.6-8.633-9.021
				c-0.214,3.005-0.517,5.301-0.433,7.579c0.018,0.539,1.332,1.033,2.055,1.54c0.811,0.563,2.366,1.184,2.322,1.658
				c-0.398,4.161,2.806,6.445,4.719,9.313c2.033,3.042,3.592,5.659,1.207,9.411c-1.764,2.78-2.715,6.096-3.877,9.231
				c-1.947,5.259-1.012,6.825,4.709,7.823c0.524,4.433,2.186,8.929-0.477,13.36c-0.414,0.686-0.665,1.785-1.248,2.004
				c-4.62,1.731-8.557,6.222-14.285,3.63c-3.088-1.397-4.566-5.515-3.352-10.269c-4.6,0.636-9.266,0.638-13.4,2.122
				c-2.111,0.756-4.115,3.974-4.691,6.425C151.443,182.006,150.365,189.821,148.962,197.857z M284.636,210.246
				c-0.222-4.384-0.445-8.768-0.695-13.747c-9.758,1.029-18.684,1.751-27.545,2.967c-8.77,1.203-17.46,2.969-26.213,4.317
				c-1.316,0.202-3.672-0.121-4.018-0.888c-1.247-2.782-3.415-3.299-5.955-3.493c-2.508-0.191-5.098-0.038-7.506-0.628
				c-3.621-0.888-5.924,0.477-7.996,3.231c-1.575,2.098-3.477,3.948-5.234,5.912c-0.449-0.22-0.899-0.442-1.347-0.661
				c0.443-2.587,0.886-5.174,1.349-7.881c-0.564-0.1-1.143-0.332-1.697-0.284c-10.875,0.94-21.83-0.106-32.732,1.838
				c-3.406,0.609-6.576,0.589-9.753,2.91c0.265-1.136,0.532-2.273,0.913-3.898c-9.568,1.895-19.262,0.02-28.82,1.129
				c0.211,1.661,0.634,2.885,0.451,4.015c-0.309,1.924-1.416,3.78-1.446,5.677c-0.138,8.625-0.069,17.252,0.079,25.878
				c0.021,1.269,0.865,2.523,1.435,4.069c-2.455,3.184-1.983,6.845,1.374,10.195c0.475,0.471,0.328,2.499-0.195,2.876
				c-2.397,1.719-2.12,4.064-2,6.436c0.51,9.928,0.973,19.858,1.561,29.782c0.426,7.283,0.928,14.566,1.559,21.834
				c1.074,12.382,2.228,24.755,3.455,37.123c0.521,5.276,1.311,10.524,1.979,15.785c0.318,0.07,0.638,0.139,0.957,0.209
				c0.948-1.271,1.899-2.54,3.246-4.34c0,1.734,0,2.77,0,4.13c9.86,0,19.559,0.022,29.254-0.05c0.646-0.005,1.287-0.735,2.141-1.257
				c7.9,4.218,116.656,1.984,129.069-2.937c0-0.972,0-2.008,0-3.582c0.304,0.867,0.323,1.303,0.552,1.52
				c0.887,0.836,1.839,1.602,2.768,2.394c0.442-1.154,1.346-2.35,1.246-3.454c-0.33-3.667-1.08-7.295-1.567-10.951
				c-2.079-15.629-4.146-31.259-6.171-46.894c-1.307-10.062-2.525-20.134-3.813-30.198c-1.379-10.774-2.67-21.565-4.227-32.315
				c-1.298-8.956-2.924-17.863-4.408-26.792L284.636,210.246z M160.419,149.607c9.326-7.261,14.158-16.694,16.271-27.655
				c1.104-5.718,2.297-11.531-1.648-16.844c-0.465-0.63-0.255-1.763-0.368-2.752c0.706,0.44,1.263,0.785,1.823,1.133
				c-0.104-1.263-0.504-2.44-1.28-2.793c-3.019-1.373-6.091-3.264-9.265-3.54c-8.07-0.699-16.204-0.71-24.317-0.829
				c-2.229-0.031-4.468,0.524-7.023,0.854c-3.884,4.358-8.152,9.149-12.421,13.944c0.168,0.238,0.334,0.474,0.502,0.712
				c0.934-0.103,1.868-0.203,2.867-0.311c-0.69,3.283-3.707,5.991-7.836,6.371c2.266,10.781,4.508,21.446,6.817,32.434
				c1.337-0.545,1.751-0.767,2.191-0.872c0.337-0.082,0.71-0.018,1.063-0.018c0.238,0.333,0.475,0.666,0.713,0.998
				c-14.453,15.862-24.848,35.515-45.189,46.656c2.971,3.481,5.871,6.877,8.943,10.479c3.395-2.479,6.421-4.687,9.955-7.267
				c0.143,1.4,0.465,2.224,0.256,2.879c-3.191,10.134-0.721,19.277,4.705,27.953c1.454,2.327,3.707,2.412,5.654,1.479
				c1.107-0.53,1.657-2.395,2.25-3.752c0.324-0.751,0.217-1.689,0.305-2.544c1.082,4.415,1.279,8.563-4.348,10.693
				c0.269,0.261,0.539,0.525,0.807,0.788c4.13,0.796,8.263,1.595,12.836,2.479c0-13.484,0-26.435,0-39.403
				c-1.965-0.227-3.622-0.419-5.277-0.611c-0.016-0.396-0.035-0.789-0.051-1.183c1.697-0.301,3.396-0.598,5.273-0.93
				c0.34-2.569,0.688-5.202,1.031-7.833c0.372,0.033,0.741,0.065,1.113,0.099c0.139,1.852,0.016,3.78,0.518,5.53
				c0.297,1.023,1.551,2.473,2.431,2.511c4.901,0.218,9.825,0.14,14.733-0.04c0.815-0.032,2.178-0.957,2.304-1.648
				c1.441-7.93,3.025-15.856,3.868-23.859c0.482-4.581,2.369-7.303,6.922-7.556c3.221-0.176,6.443-0.478,9.639-0.929
				c1.358-0.191,2.648-0.905,3.967-1.379c-0.004-0.506-0.013-1.009-0.018-1.512c-5.129-1.32-10.309-2.496-15.377-4.021
				c-2.531-0.761-5.022-1.935-7.207-3.407c-0.777-0.524-0.589-2.479-0.987-4.537c2.611,1.552,4.157,2.552,5.776,3.412
				c1.742,0.924,3.48,2,5.354,2.503c3.805,1.021,7.693,1.747,11.563,2.501c4.946,0.964,9.226-1.458,11.138-4.78
				c2.725-4.72,4.738-9.854,6.951-14.858c0.463-1.049,1.07-2.677,0.611-3.39c-2.792-4.322-5.873-8.456-8.859-12.653
				c-0.379,0.177-0.758,0.357-1.141,0.535c-0.255,0.876-0.523,1.751-0.767,2.631c-2.782,10.176-7.447,19.117-16.181,25.572
				c-2.179,1.611-4.486,1.691-5.535-0.301c-1.869-3.557-4.676-2.851-7.568-2.819c-3.594,0.037-7.188,0.02-10.781-0.121
				c-1.207-0.048-2.398-0.543-3.6-0.837c0.016-0.306,0.029-0.614,0.042-0.921c7.53-0.596,15.058-1.192,22.262-1.762
				C157.915,145.894,159.052,147.579,160.419,149.607z M214.93,367.317c-0.33,1.894-0.603,3.466-0.878,5.035
				c-0.517,0.182-1.031,0.363-1.548,0.543c1.54-5.675-1.47-5.72-5.047-5.55c-4.181,0.201-8.381,0.014-12.573,0.011
				c-6.765-0.009-13.529-0.003-20.778-0.003c2.61,12.128,8.286,23.039,12.782,34.521c10.476-3.799,20.662-7.495,30.848-11.188
				c0.193,0.532,0.381,1.064,0.569,1.594c-8.341,3.044-16.684,6.084-25.025,9.124c0.103,0.427,0.204,0.849,0.312,1.276
				c8.426-1.314,16.85-2.627,25.282-3.943c0.457-2.27,0.866-4.299,1.272-6.328c0.408-0.126,0.813-0.252,1.221-0.379
				c-3.287,6.824-0.613,10.396,6.069,12.175c3.774-12.196,7.578-24.486,11.413-36.888
				C230.542,367.317,222.579,367.317,214.93,367.317z M188.427,405.192c3.542,8.179,7.084,16.254,10.536,24.368
				c1.31,3.074,1.648,6.993,3.806,9.165c2.558,2.578,1.826,4.825,1.311,7.306c-2.484,12.039-5.193,24.032-7.641,36.08
				c-1.257,6.195,1.252,11.671,3.494,17.427c3.883-16.985,7.726-33.475,11.353-50.011c0.515-2.328,1.352-5.126-1.423-7.279
				c2.557-3.517,4.707-7.053,4.954-11.786c0.511-9.676,1.775-19.312,2.731-28.98C208.065,402.688,198.422,403.917,188.427,405.192z
				 M214.856,519.061c0.321,0.008,0.64,0.017,0.961,0.024c0.189-0.517,0.477-1.018,0.559-1.552c1.152-7.422,2.256-14.85,3.412-22.27
				c1.152-7.38,3.371-14.547,2.026-22.286c-1.49-8.559-2.006-17.285-3.052-25.927c-0.328-2.738-0.99-5.436-1.502-8.152
				c-0.31-0.019-0.627-0.037-0.938-0.057c-1.418,5.516-3.023,10.993-4.188,16.563c-0.75,3.571-1.64,7.399-1.1,10.902
				c2.068,13.385,3.246,26.8,3.217,40.34C214.244,510.786,214.646,514.922,214.856,519.061z M282.599,189.489
				c-15.295-1.111-30.209-2.195-45.398-3.296c1.114,5.557,1.114,5.572-3.809,6.044c-2.229,0.214-4.464,0.348-6.917,0.535
				c0.058,0.867,0.136,2.101,0.19,3.025c9.615,0,18.811,0.103,27.998-0.027c9.271-0.132,18.534-0.493,27.936-0.759
				C282.599,192.693,282.599,191.425,282.599,189.489z M69.229,205.203c-4.833,3.561-4.927,12.967-14.703,7.752
				c2.619,3.117,4.309,5.114,5.981,7.122c1.691,2.021,3.331,4.086,5.063,6.065c0.531,0.605,1.287,1.388,1.966,1.417
				c3.526,0.143,7.06,0.066,10.59,0.066c0.2-0.383,0.397-0.763,0.599-1.144c-0.922-1.252-1.85-2.505-2.771-3.758
				c0.152-0.004,0.308-0.01,0.464-0.015C74.069,216.987,71.719,211.263,69.229,205.203z M201.8,202.138
				c1.674-1.852,3.26-3.787,5.059-5.505c0.652-0.621,1.836-1.067,2.725-0.99c3.649,0.323,7.268,1.066,10.919,1.298
				c3.439,0.217,4.456-1.212,3.813-4.632c-0.618-3.289,0.733-5.069,3.995-5.254c-0.088-0.214-0.154-0.604-0.267-0.617
				c-5.376-0.62-10.755-1.254-16.149-1.739c-0.697-0.062-1.547,0.566-2.189,1.054C204.333,189.813,203.467,196.182,201.8,202.138z
				 M90.524,233.136c11.424,7.335,22.244,13.997,34.246,18.41c0.184-0.285,0.371-0.572,0.555-0.858
				c-2.088-1.559-4.184-3.12-6.273-4.681c0.108-0.174,0.219-0.348,0.324-0.524c1.778,0.946,3.557,1.892,5.704,3.032
				c0-2.471,0-4.301,0-5.229C113.542,239.895,102.511,236.656,90.524,233.136z M181.538,167.361
				c-3.317,1.844-4.476-3.501-7.471-2.052c0.668,1.001,1.292,1.934,1.969,2.945c-0.781-0.047-1.539-0.092-2.295-0.139
				c-0.186,0.329-0.369,0.659-0.552,0.989c1.636,1.055,3.319,3.029,4.894,2.944c2.246-0.121,4.446-1.685,6.581-2.801
				c0.353-0.185,0.418-1.24,0.347-1.86c-0.245-2.085-0.652-4.145-0.914-6.228c-0.225-1.79-0.324-3.596-0.479-5.393
				c-0.269-0.027-0.537-0.054-0.806-0.081c-1.162,1.865-2.32,3.729-3.342,5.373c-1.73,0-3.209,0-5.48,0
				C176.61,163.251,178.544,164.865,181.538,167.361z M216.911,428.259c0.32,0.04,0.641,0.083,0.962,0.123
				c0.771-3.577,1.545-7.155,2.315-10.734c0.148,0.03,0.293,0.061,0.44,0.091c-0.187,1.608-0.376,3.219-0.564,4.827
				c0.246,0.07,0.491,0.138,0.736,0.207c1.791-5.056,3.58-10.115,5.515-15.583c-2.695-0.706-4.807-1.259-7.541-1.976
				C218.12,413.313,217.514,420.787,216.911,428.259z M225.819,200.469c8.487,2.646,15.65-1.521,23.156-2.154
				C236.67,197.154,228.181,197.829,225.819,200.469z M54.888,210.039c0.135,0.364,0.269,0.73,0.403,1.093
				c6.571,1.48,6.571,1.48,7.843-3.723C60.128,208.368,57.509,209.204,54.888,210.039z M82.219,193.22
				c0.28,0.455,0.56,0.911,0.836,1.365c3.383-2.091,6.767-4.187,10.149-6.281c-0.152-0.25-0.303-0.501-0.456-0.75
				C89.313,189.565,84.732,189.689,82.219,193.22z M52.49,208.537c0.231,0.245,0.466,0.49,0.698,0.738
				c1.91-1.562,3.82-3.121,6.171-5.041c-1.739-0.392-2.851-0.643-3.964-0.894C54.348,205.214,53.419,206.874,52.49,208.537z
				 M200.099,501.168c-0.363-0.013-0.726-0.024-1.089-0.036c0,5.764,0,11.527,0,16.026
				C199.312,512.677,199.708,506.921,200.099,501.168z"/>
			<path fill-rule="evenodd" clip-rule="evenodd" fill="#FFFFFF" d="M340.702,199.495c0.863-0.584,1.73-1.166,1.863-1.256
				c2.551,1.098,4.458,2.129,6.492,2.758c7.423,2.296,14.897,4.432,22.329,6.701c1.153,0.356,2.188,1.095,3.029,2.087
				c-9.979-2.685-19.953-5.367-30.612-8.233c-0.258,2.789-0.709,5.099-0.648,7.395c0.586,22.283,1.102,44.571,1.953,66.844
				c0.514,13.52,1.583,27.016,2.381,40.521c0.082,1.368,0.014,2.743-0.65,4.129c-3.029-30.717-4.246-61.514-5.644-92.374
				c-0.306,2.103-0.788,4.199-0.883,6.312c-0.581,12.682-1.251,25.364-1.499,38.055c-0.092,4.731,1.012,9.476,1.285,14.23
				c0.116,1.996-0.498,4.034-1.325,6c-1.771-15.485-1.005-30.918-0.015-46.352c0.988-15.423,1.91-30.85,2.86-46.274
				C341.313,199.857,341.006,199.676,340.702,199.495z"/>
			<path fill-rule="evenodd" clip-rule="evenodd" fill="#FFFFFF" d="M598.856,138.325c-6.59-1.586-13.144-3.162-19.695-4.738
				c0.029-0.608,0.06-1.213,0.09-1.82c2.308-0.253,4.656-0.884,6.919-0.667c2.94,0.286,5.797,1.341,8.724,1.887
				C597.648,133.501,599.508,134.579,598.856,138.325z"/>
			<path fill-rule="evenodd" clip-rule="evenodd" fill="#FFFFFF" d="M627.501,383.273c-4.459-0.66-8.358-1.238-12.451-1.842
				c-0.209-0.848-0.597-2.255-0.908-3.677c-0.772-3.503,1.3-6.914,4.453-7.385c2.959-0.444,5.234,1.683,5.864,5.338
				c0.237,1.388,0.602,2.781,1.118,4.091C626.04,380.97,626.794,382.025,627.501,383.273z M623.234,379.861
				c-0.328-2.02-0.455-3.793-0.93-5.467c-0.626-2.192-2.696-2.932-4.206-1.802c-1.338,1-2.354,3.169-2.449,4.88
				c-0.096,1.671,1.195,3.007,3.528,1.946C620.057,379.019,621.397,379.623,623.234,379.861z"/>
			<path fill-rule="evenodd" clip-rule="evenodd" fill="#FFFFFF" d="M527.421,319.318c-1.501-6.456-3.563-12.846-4.361-19.388
				c-1.154-9.425-1.485-18.959-1.937-28.459c-0.097-2.045,0.805-4.137,1.245-6.208l-0.091-0.034
				c0.008,0.958,0.039,1.917,0.019,2.874c-0.227,11.738-0.193,23.455,2.121,35.046c1.073,5.381,1.941,10.802,2.9,16.205
				L527.421,319.318z"/>
			<path fill-rule="evenodd" clip-rule="evenodd" fill="#FFFFFF" d="M643.363,376.494c0.303-1.343,0.495-2.202,0.688-3.059
				c0.262-0.075,0.519-0.147,0.776-0.222c0.963,2.162,1.922,4.323,3.008,6.764c-2.343,0.404-4.272,0.737-6.543,1.127
				c0.253-1.048,0.438-1.798,0.723-2.974c-2.338-0.566-4.669-1.131-7.604-1.839c0.35,3.09,0.617,5.475,0.886,7.86
				c-0.366,0.078-0.73,0.156-1.097,0.235c-0.541-2.523-1.388-5.028-1.53-7.573c-0.1-1.89,3.22-3.167,5.445-2.347
				C639.776,375.077,641.415,375.739,643.363,376.494z"/>
			<path fill-rule="evenodd" clip-rule="evenodd" fill="#FFFFFF" d="M607.342,374.459c0.012,3.077-4.277,8.196-7.218,8.611
				c-2.345,0.331-7.704-3.709-8.502-6.408c-0.747-2.512,1.457-4.726,4.683-4.884c2.254-0.113,4.516-0.35,6.744-0.703
				C605.664,370.665,607.332,371.896,607.342,374.459z M600.303,374.762c-1.167-0.492-2.258-1.313-3.351-1.317
				c-1.203,0-2.509,0.591-3.553,1.259c-0.391,0.251-0.521,1.875-0.184,2.143c1.833,1.473,3.753,3.61,5.827,3.835
				c3.217,0.349,6.488-2.945,6.754-5.682c0.204-2.097-0.938-2.938-2.85-2.257C602.009,373.076,601.279,373.989,600.303,374.762z"/>
			<path fill-rule="evenodd" clip-rule="evenodd" fill="#FFFFFF" d="M444.593,402.996c1.587-0.491,3.146-1.187,4.772-1.399
				c1.167-0.153,2.816-0.061,3.52,0.649c0.683,0.686,0.797,2.402,0.492,3.476c-0.37,1.326-1.299,2.57-2.224,3.648
				c-3.684,4.3-7.63,3.846-10.48-1.12C439.037,405.399,440.936,402.382,444.593,402.996z M446.737,411.411
				c1.892-2.179,3.599-3.935,5.004-5.905c0.366-0.511-0.202-1.686-0.341-2.557c-0.753,0.193-1.524,0.333-2.259,0.589
				c-1.043,0.364-2.029,0.929-3.093,1.196c-1.378,0.345-2.822,0.428-4.196,0.795c-0.137,0.037-0.227,1.534,0.128,1.883
				C443.295,408.715,444.802,409.822,446.737,411.411z"/>
			<path fill-rule="evenodd" clip-rule="evenodd" fill="#FFFFFF" d="M464.61,157.686c-0.956,1.128-1.938,3.243-2.889,3.233
				c-3.364-0.042-6.725-0.791-10.064-1.406c-0.094-0.016-0.24-1.84,0.189-2.296C453.729,155.236,461.71,155.43,464.61,157.686z"/>
			<path fill-rule="evenodd" clip-rule="evenodd" fill="#FFFFFF" d="M507.05,397.911c-1.54,2.361-2.75,6.153-4.481,6.407
				c-2.605,0.382-6.034-1.13-8.265-2.907c-2.448-1.951,0.321-3.135,1.894-3.33c2.318-0.287,4.244-0.69,5.721-2.747
				c0.415-0.581,2.08-0.839,2.793-0.483C505.582,395.289,506.054,396.525,507.05,397.911z M500.669,399.344
				c-1.704,0.155-3.416,0.311-5.123,0.465c0,0.344-0.005,0.691-0.005,1.037c2.222,1.13,4.282,3.804,7.072,1.536
				c1.744-1.421,2.908-3.671,0.976-6.68C502.433,397.144,501.52,398.283,500.669,399.344z"/>
			<path fill-rule="evenodd" clip-rule="evenodd" fill="#FFFFFF" d="M477.751,159.43c4.727,0,8.249,0,12.057,0
				c-2.211,4.117-4.967,5.42-9.469,4.117C479.226,163.224,478.67,160.977,477.751,159.43z"/>
			<path fill-rule="evenodd" clip-rule="evenodd" fill="#FFFFFF" d="M471.948,407.622c-1.896,0.234-3.863,0.464-5.819,0.725
				c-3.119,0.417-4.884-1.53-5.485-4.017c-0.354-1.485,0.307-4.231,1.369-4.798c1.553-0.827,3.892-0.344,5.854-0.104
				c0.582,0.071,1.191,1.133,1.521,1.863C470.311,403.355,471.095,405.48,471.948,407.622z M468.84,405.817
				c-0.434-1.323-0.57-2.417-1.117-3.246c-0.651-0.991-1.529-2.22-2.529-2.477c-0.861-0.219-2.546,0.533-2.936,1.317
				c-0.488,0.971-0.391,2.609,0.12,3.625C464.022,408.308,466.53,406.208,468.84,405.817z"/>
			<path fill-rule="evenodd" clip-rule="evenodd" fill="#FFFFFF" d="M505.09,150.285c2.295-2.594,6.777-3.9,9.461-2.729
				c1.716,0.748,2.479,1.942,0.699,3.493C513.015,153.001,507.375,152.656,505.09,150.285z"/>
			<path fill-rule="evenodd" clip-rule="evenodd" fill="#FFFFFF" d="M526.351,391.887c-1.567-1.504-3.195-2.66-4.233-4.21
				c-0.657-0.978-0.889-2.744-0.442-3.779c0.3-0.684,2.131-0.75,3.294-0.991c0.726-0.15,1.548,0.05,2.229-0.186
				c2.741-0.956,3.792-0.31,3.715,2.565C530.831,388.409,529.628,390.843,526.351,391.887z M524.202,383.74
				c-0.547,0.234-1.092,0.466-1.641,0.7c0.506,1.26,0.712,2.822,1.6,3.689c0.83,0.809,3.28,1.461,3.462,1.178
				c0.946-1.458,1.39-3.241,2.008-4.909c-0.506-0.3-1.006-0.601-1.509-0.901c-0.444,1.077-0.888,2.156-1.61,3.913
				C525.31,385.5,524.757,384.62,524.202,383.74z"/>
			<path fill-rule="evenodd" clip-rule="evenodd" fill="#FFFFFF" d="M207.558,166.177c-2.268,4.141-19.873,14.171-22.252,13.225
				C192.513,175.119,199.956,170.695,207.558,166.177z"/>
			<path fill-rule="evenodd" clip-rule="evenodd" fill="#FFFFFF" d="M421.127,194.81c4.448-2.799,9.237-2.222,12.863,2.479
				c-4.323-0.395-8.646-0.791-12.966-1.186C421.06,195.671,421.093,195.242,421.127,194.81z"/>
			<path fill-rule="evenodd" clip-rule="evenodd" fill="#FFFFFF" d="M180.647,180.404c-3.588,0-7.184,0-11.026,0
				c0.317-0.905,0.647-1.842,0.812-2.31c3.488,0.387,6.836,0.758,10.184,1.131C180.629,179.62,180.64,180.012,180.647,180.404z"/>
			<path fill-rule="evenodd" clip-rule="evenodd" fill="#FFFFFF" d="M742.823,154.964c1.516,0.482,3.03,0.963,4.545,1.444
				c-0.244,0.554-0.576,1.605-0.724,1.582c-1.496-0.256-2.965-0.688-4.437-1.072C742.411,156.267,742.617,155.615,742.823,154.964z"
				/>
			<path fill-rule="evenodd" clip-rule="evenodd" fill="#FFFFFF" d="M523.078,173.466c2.353-6.758,6.563-7.857,16.326-4.224
				C533.508,170.768,528.558,172.049,523.078,173.466z"/>
			<path fill-rule="evenodd" clip-rule="evenodd" fill="#FFFFFF" d="M410.074,383.595c2.262-0.112,4.527-0.323,6.789-0.309
				c2.196,0.016,2.757,1.496,2.638,3.423c-0.218,3.669-5.251,8.814-8.468,7.482c-2.517-1.041-4.729-4.5-5.599-7.338
				C404.673,384.376,407.61,383.354,410.074,383.595z M413.187,386.947c0.039,0.065-0.175-0.315-0.402-0.69
				c-1.313-2.169-3.446-2.181-4.789-0.729c-0.69,0.751-0.301,3.361,0.507,4.467c1.833,2.5,5.611,2.63,7.445,0.281
				c1.001-1.282,1.075-3.292,1.565-4.972C416.176,385.812,414.84,386.319,413.187,386.947z"/>
			<path fill-rule="evenodd" clip-rule="evenodd" fill="#FFFFFF" d="M398.838,220.253c4.329-2.726,7.281-2.215,10.854,1.879
				C405.479,223.861,401.35,223.147,398.838,220.253z"/>
			<path fill-rule="evenodd" clip-rule="evenodd" fill="#FFFFFF" d="M376.013,238.69c-2.722-0.461-5.443-0.922-8.166-1.384
				c-0.002-0.393-0.007-0.787-0.01-1.179c1.209-0.452,2.418-0.904,3.902-1.458c-0.994-0.927-1.835-1.713-2.673-2.496
				c0.204-0.232,0.406-0.466,0.609-0.699c2.261,2.043,4.519,4.087,6.783,6.133C376.308,237.968,376.159,238.329,376.013,238.69z"/>
			<path fill-rule="evenodd" clip-rule="evenodd" fill="#FFFFFF" d="M183.148,344.815c0.28,2.854,0.447,5.727,0.919,8.549
				c0.148,0.872,1.141,1.604,2.248,3.063c-4.189-0.527-7.598-0.601-10.762-1.525c-1.303-0.383-2.982-2.679-2.867-3.955
				c0.183-1.995,1.354-4.27,2.816-5.687c2.154-2.077,5.03-1.355,7.68-0.424C183.204,344.846,183.148,344.815,183.148,344.815z
				 M181.09,353.125c-0.165-2.864,1.636-6.48-2.876-6.956c-2.42-0.255-4.091,1.813-3.953,4.207
				C174.536,355.19,178.134,353.117,181.09,353.125z"/>
			<path fill-rule="evenodd" clip-rule="evenodd" fill="#FFFFFF" d="M165.456,349.021c-0.32,0.471-0.797,1.591-1.626,2.302
				c-0.876,0.751-2.049,1.21-3.154,1.628c-5.423,2.058-8.949,0.089-9.761-5.654c-0.146-1.068,0.517-2.87,1.346-3.305
				c1.168-0.611,3.082-0.767,4.234-0.208c1.719,0.83,2.992,1.752,5.17,1.047C163.817,344.137,165.528,346.039,165.456,349.021z
				 M158.634,348.733c-0.557-0.914-0.83-1.98-1.457-2.257c-1.268-0.562-2.73-0.698-4.111-1.01c0.035,1.166-0.292,2.504,0.167,3.465
				c1.702,3.57,7.874,3.813,10.158,0.462c0.331-0.481,0.486-1.569,0.196-1.87c-0.475-0.493-1.494-0.922-2.076-0.736
				C160.565,347.09,159.789,347.911,158.634,348.733z"/>
			<path fill-rule="evenodd" clip-rule="evenodd" fill="#FFFFFF" d="M132.772,212.144c2.618-5.135,12.172-5.147,17.104-1.368
				C144.163,214.358,138.548,211.102,132.772,212.144z"/>
			<path fill-rule="evenodd" clip-rule="evenodd" fill="#FFFFFF" d="M284.683,210.223c-4.152,0.293-8.306,0.588-12.457,0.882
				c-0.158-0.396-0.315-0.791-0.471-1.188c1.402-1.923,2.812-3.848,4.406-6.031c1.234,1.064,2.172,1.88,3.137,2.715
				c0.492-0.589,0.947-1.134,0.821-0.984c1.612,1.673,3.042,3.163,4.495,4.64C284.636,210.246,284.683,210.223,284.683,210.223z"/>
			<path fill-rule="evenodd" clip-rule="evenodd" fill="#FFFFFF" d="M291.657,348.248c-0.402-1.502-0.809-3.003-1.21-4.505
				c1.151-0.187,2.307-0.374,3.46-0.559c0,1.597,0,3.19,0,4.786C293.157,348.061,292.408,348.153,291.657,348.248z"/>
			<path fill-rule="evenodd" clip-rule="evenodd" fill="#FFFFFF" d="M179.061,147.424c-1.504,1.609-2.917,3.322-4.571,4.761
				c-0.481,0.42-1.645,0.056-2.5,0.052c0.202-0.835,0.129-2.042,0.662-2.44c1.73-1.296,3.68-2.296,5.546-3.411
				C178.487,146.733,178.774,147.079,179.061,147.424z"/>
			<path fill-rule="evenodd" clip-rule="evenodd" fill="#FFFFFF" d="M203.173,348.232c0.304-1.345,0.496-2.203,0.689-3.059
				c0.26-0.074,0.52-0.147,0.779-0.222c0.958,2.161,1.918,4.321,3.004,6.764c-2.342,0.403-4.27,0.734-6.541,1.126
				c0.254-1.05,0.436-1.797,0.719-2.976c-2.336-0.564-4.665-1.129-7.602-1.839c0.35,3.092,0.617,5.477,0.886,7.86
				c-0.366,0.081-0.729,0.157-1.096,0.236c-0.543-2.521-1.386-5.027-1.528-7.572c-0.104-1.892,3.215-3.167,5.443-2.348
				C199.586,346.815,201.226,347.476,203.173,348.232z"/>
		</g>
		<g>
			<path fill-rule="evenodd" clip-rule="evenodd" fill="#FFDE1E" d="M453.975,299.314c-1.045,6.852-2.652,13.911-0.332,20.922
				c0.347,1.051,0.652,2.271,0.452,3.314c-0.508,2.653-1.313,5.252-2.02,7.942c-1.787,0-3.798,0.089-5.798-0.016
				c-5.404-0.288-9.428,2.086-11.639,6.815c-2.407,5.158-2.614,10.741,1.129,15.301c2.213,2.696,3.885,5.438,5.422,8.528
				c2.787,5.612,8.074,7.794,14.792,8.374c-0.771,1.144-1.1,2.2-1.787,2.551c-3.799,1.939-5.278,4.536-5.127,8.842
				c0.052,1.469-0.501,2.96-0.835,4.732c3.243,2.021,6.698-0.451,10.173-1.204c6.648-1.436,13.22-3.241,19.783-5.022
				c1.042-0.284,1.896-1.252,2.841-1.903c-0.212-0.271-0.424-0.543-0.63-0.813c-0.979,0.579-1.885,1.432-2.937,1.7
				c-8.095,2.045-16.207,4.028-24.353,5.844c-0.57,0.126-1.979-1.136-2.145-1.935c-1.19-5.683,0.404-7.972,5.658-9.096
				c0.354-2.287,0.677-4.4,0.996-6.47c-7.711,1.891-14.935-2.138-16.486-9.384c0.603-0.04,1.249,0.087,1.726-0.145
				c0.921-0.451,1.75-1.101,2.617-1.669c-1.098-0.46-2.464-1.578-3.239-1.259c-2.208,0.92-3.388-0.198-4.671-1.513
				c-4.918-5.044-4.158-14.766,1.575-18.842c1.235-0.883,2.825-1.27,4.661-2.061c-0.053,3.472,0.712,5.97,3.929,5.057
				c1.235-0.352,1.901-2.725,2.822-4.175c0.87-0.97,4.261,1.572,3.809-2.459c-0.547-4.935,2.127-9.298,0.63-14.737
				c-1.667-6.047-0.072-12.993,0.104-19.544c1.097,4.332,1.991,8.697,2.799,13.075c-0.367-5.773-1.784-11.548-3.443-17.319
				C454.442,294.913,454.312,297.098,453.975,299.314z"/>
			<g>
				<path fill-rule="evenodd" clip-rule="evenodd" fill="#FFDE1E" d="M481.935,273.136c-1.331,2.005,0.701,6.237,1.29,9.847
					c0.654-0.776,0.949-1.126,1.445-1.711c-0.652-3.304-1.32-6.572-1.967-9.836C482.572,271.965,482.341,272.527,481.935,273.136z"
					/>
				<path fill-rule="evenodd" clip-rule="evenodd" fill="#FFDE1E" d="M480.712,263.273c0.132,1.739-0.337,2.863-2.659,2.74
					c-7.896-0.417-12.313,6.08-9.104,13.335c0.854,1.926,2.241,3.617,2.975,4.771c-0.849,2.714-1.755,4.938-2.191,7.253
					c-0.291,1.545,0.193,3.223,0.146,4.835c-0.103,3.36,2.118,7.139,5.104,8.444c3.607,1.578,7.095,0.851,9.791-2.044
					c-9.007,2.849-13.446,0.572-13.189-6.561c1.098-0.7,2.101-1.337,3.101-1.978c-0.55-0.687-1.055-1.919-1.666-1.976
					c-4.461-0.405-2.225-2.66-1.175-4.316c0.66-1.036,1.853-1.733,2.825-2.601c-3.56-4.354-7.653-8.39-4.464-14.167
					c1.919,0.334,3.377,0.59,4.835,0.847c-0.198-1.432-0.395-2.862-0.593-4.301c2.222-0.285,4.711-0.607,7.333-0.946
					c-0.543-2.906-1.033-5.83-1.462-8.776C480.446,259.646,480.572,261.46,480.712,263.273z"/>
			</g>
			<path fill-rule="evenodd" clip-rule="evenodd" fill="#FFDE1E" d="M562.183,259.234c0.825,3.356,1.639,6.738,2.819,9.978
				c0.851,2.329,0.251,3.698-1.845,4.571c-1.661,0.692-1.916,1.626-1.966,3.521c-0.105,4.146-1.029,8.273-2.152,12.41
				c0-1.56,0-3.119,0-4.677c-0.317-0.02-0.641-0.04-0.959-0.061c-0.333,3.491-0.708,6.977-0.991,10.472
				c-0.962,11.925-2.094,23.839-2.764,35.781c-0.584,10.519-0.69,21.064-0.854,31.601c-0.021,1.408,0.871,2.831,1.345,4.249
				c0-0.002,0-0.005,0-0.005c0.014-0.001,0.021-0.003,0.033-0.003c0.345-0.255,0.935-0.492,0.954-0.771
				c0.39-5.579,0.711-11.162,0.572-16.793c-0.19,1.775-0.383,3.551-0.572,5.326c-0.341-0.021-0.681-0.043-1.021-0.063
				c0.454-8.929,0.907-17.858,1.358-26.788c0.464-0.003,0.929-0.009,1.393-0.013c0,3.344-0.143,6.695,0.035,10.028
				c0.25,4.747,0.681,9.486,1.146,14.217c0.313,3.208,0.877,6.391,1.223,9.596c0.409,3.845-0.985,5.237-5.088,5.26
				c-0.008,0.006-0.021,0.014-0.028,0.019c0-0.003-0.005-0.007-0.005-0.011c-0.938,5.016-0.741,5.189,4.628,4.896
				c3.231-0.178,6.469-0.168,9.692-0.398c1.224-0.087,2.418-0.608,3.622-0.93c0.045-0.345,0.086-0.688,0.129-1.033
				c-1.651-0.644-3.307-1.286-4.956-1.929c-1.89,2.253-5.848,2.893-11.446,1.593c8.621-2.832,4.637-9.01,4.396-13.999
				c-0.707-14.699-2.548-29.396-2.307-44.069c0.186-11.24,2.86-22.442,4.372-33.292c1.847,0.901,3.309,1.618,5.528,2.698
				c-0.148-8.924-1.059-17.852-2.464-26.775c-1.461-0.227-2.863-0.441-4.861-0.75C561.501,255.258,561.699,257.282,562.183,259.234z
				 M565.199,263.447c-0.719-2.558-1.435-5.115-2.311-8.248C566.985,256.035,567.274,257.119,565.199,263.447z"/>
			<path fill-rule="evenodd" clip-rule="evenodd" fill="#FFDE1E" d="M385.358,266.91c-1.871,0.11-3.752,0.018-6.21,0.018
				c2.811,12.671,5.528,24.926,8.246,37.181c0.314-0.058,0.63-0.118,0.944-0.176c-2.493-11.823-4.985-23.646-7.499-35.585
				c2.838-0.255,5.515-0.495,8.492-0.761c0-0.806,0-1.589,0-2.378C388.56,266.348,387.216,266.8,385.358,266.91z"/>
			<path fill-rule="evenodd" clip-rule="evenodd" fill="#FFDE1E" d="M410.571,270.292c1.781,11.336,3.229,22.749,5.646,33.95
				c1.41,6.513-0.035,11.768-3.755,16.758c-1.423,1.912-1.376,3.364,0.44,4.824c0.091,0.072,0.127,0.223,0.225,0.277
				c6.37,3.652,6.232,9.13,4.658,15.325c-1.023,4.034-1.361,8.253-1.867,12.407c-0.138,1.139-0.043,3.208,0.421,3.353
				c1.546,0.492,3.309,0.308,4.991,0.381c0.03-0.435,0.065-0.871,0.097-1.306c-1.178-0.346-2.354-0.692-4.103-1.205
				c1.238-8.374,2.493-16.835,3.723-25.148c-1.446-0.824-3.14-1.524-4.516-2.627c-3.836-3.077-3.92-3.755-1.489-8.019
				c2.628-4.602,4.282-8.755,2.754-14.751c-2.961-11.648-4.205-23.737-6.139-35.646c-0.111-0.664-0.016-1.358-0.016-2.005
				c4.362-0.479,6.576,0.285,7.503,3.014c-0.11-1.265-0.273-2.527-0.127-3.79c-3.183-0.676-5.648-1.197-8.842-1.878
				C410.298,266.238,410.255,268.293,410.571,270.292z"/>
			<path fill-rule="evenodd" clip-rule="evenodd" fill="#FFDE1E" d="M652.659,218.705c5.273-1.816,9.717-3.141,13.965-4.935
				c1.152-0.488,2.284-2.311,2.459-3.646c1.523-11.845,2.737-23.733,4.254-35.58c0.798-6.273,1.944-12.507,3.125-18.723
				c0.196-1.039,1.354-1.897,2.065-2.84c0.264,1.014,0.728,2.023,0.754,3.042c0.368,14.463,0.686,28.926,0.991,43.39
				c0.056,2.626,0.007,5.254,0.007,7.882c0.351-0.158,0.701-0.316,1.053-0.471c0.817,0.864,2.165,1.618,2.381,2.613
				c3.116,14.347,5.961,28.754,9.118,43.092c2.279,10.375,4.6,20.762,7.476,30.982c5.758,20.455,11.904,40.798,17.897,61.187
				c1.351,4.595,1.28,4.395-3.331,6.23c-2.165,0.86-3.881,2.781-5.936,3.997c-11.974,7.096-25.017,11.479-38.634,13.727
				c-10.578,1.747-21.353,2.304-32.045,3.361c-0.567,0.056-1.162-0.162-2.631-0.394c-1.195-21.528,1.459-42.968,2.483-64.447
				c0.59-12.444,1.739-24.876,1.923-37.323c0.075-4.898-1.783-9.826-2.786-14.734c-1.055-5.151-2.225-10.282-3.121-15.461
				c-0.163-0.94,0.494-2.311,1.21-3.068c2.953-3.128,5.989-6.192,9.159-9.098c3.304-3.029,3.673-5.391,1.535-9.272
				c-2.247-4.078-4.14-8.349-6.31-12.472c-4.285-8.157-3.981-16.629-1.646-25.158c1.767-6.462,4.09-12.77,5.762-19.252
				c0.649-2.517,0.1-5.329,0.262-7.998c0.086-1.378,0.538-2.733,0.825-4.1c0.33,0.065,0.656,0.13,0.988,0.196
				c0.636,11.41,0.928,22.853,2.005,34.223C649.003,195.111,649.318,206.732,652.659,218.705z M643.585,362.474
				c0.916-0.682,1.909-1.602,3.052-2.255c11.571-6.592,21.614-14.762,29.324-25.87c4.343-6.257,9.675-11.873,14.887-17.476
				c3.386-3.641,4.596-3.498,7.138,0.581c5.177,8.305,10.034,16.806,15.058,25.206c1.063,1.779,2.283,3.467,3.429,5.198
				c0.289-0.134,0.573-0.266,0.863-0.399c-16.149-44.431-25.066-90.729-35.901-136.835c-1.065,0.375-2.17,0.74-3.259,1.153
				c-1.02,0.387-2.021,0.823-3.031,1.237c-0.452-1.157-1.323-2.324-1.292-3.468c0.196-7.304,0.571-14.602,0.928-21.9
				c0.192-3.896,0.466-7.787,0.702-11.681c-0.31-0.033-0.622-0.065-0.936-0.099c-1.367,11.134-2.784,22.263-4.01,33.417
				c-0.098,0.895,1.133,1.937,2.045,3.383c-1.853,1.955-3.636,4.598-6.085,6.269c-6.333,4.321-6.449,4.149-8.7,3.144
				c2.23-1.313,4.285-2.52,6.338-3.729c-0.104-0.225-0.204-0.45-0.306-0.675c-3.818,1.171-7.642,2.342-11.521,3.534
				c-0.813-1.377-1.626-2.74-2.78-4.688c-0.28,1.15-0.524,1.589-0.469,1.988c0.728,5.357-0.545,9.649-5.65,12.518
				c-0.928,0.519-1.09,2.914-1.104,4.447c-0.023,2.793,0.505,5.587,0.485,8.379c-0.064,9.43-0.564,18.869-0.278,28.283
				c0.123,4.032,1.779,8.017,2.741,12.021c-0.216,0.061-0.43,0.121-0.646,0.179c-0.913-2.978-1.827-5.957-2.742-8.935
				c-0.208,0.071-0.418,0.142-0.63,0.213c-1.624,30.196-3.252,60.394-4.879,90.664c3.474,0.485,6.234,0.848,8.992,1.278
				c0.687,0.106,1.344,0.424,2.011,0.651c1.433,0.492,2.925,1.543,4.283,1.387c6.52-0.747,13.048-1.594,19.496-2.825
				c12.99-2.478,25.508-6.435,37.022-13.105c2.161-1.251,4.124-2.846,6.18-4.28c-0.14-0.26-0.281-0.519-0.42-0.777
				c-1.141-0.145-2.282-0.29-3.425-0.434c-0.009-0.208-0.017-0.414-0.023-0.622c0.815-0.297,1.633-0.593,2.444-0.891
				c-2.142-5.141-13.767-18.642-17.846-20.151c2.524,2.762,4.588,5.016,6.651,7.275c-2.265-0.983-4.13-2.335-5.587-4.037
				c-1.791-2.086-3.235-2.2-5.358-0.414c-3.758,3.157-7.802,5.963-11.594,9.077c-4.614,3.783-9.354,7.473-13.548,11.688
				c-3.783,3.799-6.873,8.282-10.345,12.397c-0.517,0.612-1.504,1.268-2.211,1.208C649.981,363.443,646.903,362.93,643.585,362.474z
				 M644.864,164.128c-9.43,18.875-8.097,43.352,2.561,52.425C646.579,199.245,645.737,182.048,644.864,164.128z M691.798,321.57
				c6.676,2.997,10.554,8.807,15.671,13.313c-3.219-5.689-6.8-11.102-10.302-16.565c-1.597-2.49-3.354-2.503-5.16-0.424
				c-6.441,7.433-12.825,14.918-19.229,22.387c0.253,0.249,0.506,0.497,0.762,0.744c5.344-4.105,10.621-8.302,16.062-12.271
				C692.151,326.895,694.194,325.201,691.798,321.57z M640.104,258.802c0.14,0.016,0.271,0.031,0.407,0.048
				c0.381-6.806,0.76-13.612,1.139-20.421c-0.29-0.034-0.581-0.068-0.871-0.102c-0.311,0.954-0.612,1.91-0.831,2.592
				c-0.158-1-0.363-2.258-0.563-3.515c-0.365-0.166-0.731-0.332-1.096-0.496c-0.729,1.402-2.271,2.943-2.058,4.179
				C637.261,247.04,638.767,252.905,640.104,258.802z M678.439,179.581c-0.523-0.041-1.051-0.082-1.576-0.121
				c-0.412,10.046-0.823,20.092-1.231,30.139c0.439,0.139,0.877,0.273,1.317,0.411c0.498-1.051,1.413-2.097,1.426-3.154
				C678.489,197.765,678.439,188.672,678.439,179.581z M660.311,354.426c-0.185-0.199-0.367-0.397-0.548-0.594
				c-3.576,2.364-7.146,4.729-10.719,7.095c0.065,0.311,0.131,0.621,0.194,0.931c1.391,0,3.275,0.58,4.073-0.106
				C655.863,359.563,658.008,356.903,660.311,354.426z"/>
			<g>
				<path fill-rule="evenodd" clip-rule="evenodd" fill="#FFDE1E" d="M185.153,302.196c-3.779,0.339-6.387-0.611-7.597-3.96
					c-0.939-2.611,0.55-5.444,3.712-7.238c2.932-1.665,8.158-1.102,10.411,1.125c2.978,2.94,1.288,8.266-3.128,9.615
					C187.321,302.114,185.97,302.093,185.153,302.196z M185.158,293.514c1.317,2.023,2.514,3.862,3.794,5.831
					c1.908-1.087,2.994-2.493,1.84-4.595C189.452,292.31,187.458,292.005,185.158,293.514z"/>
				<path fill-rule="evenodd" clip-rule="evenodd" fill="#FFDE1E" d="M213.599,326.321c0.625-0.364,1.4-0.606,1.881-1.126
					c2.955-3.191,7.266-4.118,10.096-1.397c1.596,1.536,3.095,4.416,2.758,6.363c-0.34,1.951-2.725,4.259-4.742,5.03
					c-2.641,1.009-5.48-0.269-7.069-2.907C215.313,330.281,214.444,328.075,213.599,326.321z M220.987,331.305
					c0.085,0.303,0.166,0.606,0.25,0.912c1.615-0.482,3.522-0.606,4.731-1.588c0.649-0.522,0.63-2.973-0.032-3.763
					c-1.139-1.354-3.016-2.088-4.581-3.083c-0.169,0.298-0.335,0.599-0.503,0.898C224.386,328.26,224.395,328.603,220.987,331.305z"
					/>
				<path fill-rule="evenodd" clip-rule="evenodd" fill="#FFDE1E" d="M252.46,321.981c0.057,3.054-1.521,4.49-5.018,4.558
					c-3.51,0.072-5.703-1.787-5.771-4.893c-0.071-3.278,2.308-5.818,5.458-5.83C250.468,315.805,252.388,318.021,252.46,321.981z
					 M247.253,315.976c-2.032,2.512-4.037,3.905-4.301,5.576c-0.355,2.263,1.854,3.46,4.047,3.499
					c2.588,0.043,4.173-1.718,3.881-4.071C250.702,319.546,249.018,318.302,247.253,315.976z"/>
				<path fill-rule="evenodd" clip-rule="evenodd" fill="#FFDE1E" d="M240.302,305.384c-1.684,0.954-3.273,2.248-5.084,2.734
					c-1.088,0.295-3.021-0.292-3.648-1.157c-0.627-0.855-0.564-2.872,0.059-3.806c0.736-1.1,2.337-1.738,3.688-2.238
					c0.391-0.146,1.433,0.761,1.754,1.398c0.223,0.43-0.112,1.451-0.537,1.806c-0.348,0.292-1.189-0.027-1.813-0.037
					c-0.685-0.016-1.575-0.243-1.987,0.097c-0.352,0.287-0.431,1.458-0.125,1.857c0.417,0.55,1.455,1.181,1.965,1.007
					c1.824-0.615,3.537-1.556,5.293-2.374C240.009,304.91,240.155,305.147,240.302,305.384z"/>
				<path fill-rule="evenodd" clip-rule="evenodd" fill="#FFDE1E" d="M161.66,329.593c-3.011-4.045-1.765-6.146,0.951-7.712
					c0.575-0.332,1.626-0.292,2.222,0.021c0.443,0.235,0.887,1.405,0.674,1.787C164.433,325.586,163.146,327.362,161.66,329.593z"/>
				<path fill-rule="evenodd" clip-rule="evenodd" fill="#FFDE1E" d="M232.229,311.093c-2.038,2.466-3.391,2.819-5.17,0.941
					c-1.062-1.121-2.496-1.889-3.68-2.756c1.835-0.142,4.105-0.321,6.559-0.511C231.261,309.137,227.563,312.687,232.229,311.093z"
					/>
				<path fill-rule="evenodd" clip-rule="evenodd" fill="#FFDE1E" d="M178.991,325.846c-1.414,0.799-2.33,1.719-3.182,1.66
					c-0.611-0.04-1.75-1.636-1.563-2.102c0.353-0.88,1.407-1.756,2.338-2.005C177.017,323.282,177.844,324.636,178.991,325.846z"/>
				<path fill-rule="evenodd" clip-rule="evenodd" fill="#FFDE1E" d="M270.933,321.944c-1.627-0.865-2.742-1.223-3.545-1.931
					c-2.422-2.138-4.701-4.437-7.075-6.63c-13.282-12.268-26.593-24.504-39.855-36.796c-2.563-2.373-3.973-5.343-3.919-8.932
					c0.094-6.416,1.014-12.605,4.496-18.197c1.26-2.03,2.098-4.338,3.463-6.286c4.197-6.002,8.553-11.894,12.984-18.015
					c-1.537-2.306-3.229-5.373-5.436-8.002c-2.138-2.544-7.012-1.216-8.565-5.67c1.372,0.482,2.376,0.833,3.644,1.277
					c-1.892-4.116-6.713-7.038-10.848-6.793c1.85,2.281,3.673,4.534,5.502,6.788c-0.074,0.402-0.148,0.806-0.223,1.21
					c-14.564,1.611-29.131,3.222-44.289,4.897c1.257-5.63,2.255-10.091,3.251-14.552l-0.76-0.566c-0.438,0.653-0.927,1.275-1.3,1.96
					c-4.467,8.134-8.795,16.346-13.426,24.383c-1.816,3.159-0.658,4.951,1.951,6.384c3.024,1.661,6.221,3.012,9.225,4.709
					c1.38,0.779,3.581,1.253,2.623,3.905c-0.16,0.453,0.892,1.813,1.604,2.031c3.453,1.054,4.64,3.657,5.151,6.838
					c0.474,2.952,0.673,5.981,1.495,8.829c0.58,1.987,2.019,3.723,3.441,6.221c-5.291,7.683-11.035,16.47-17.247,24.914
					c-5.271,7.162-9.649,15.194-17.88,19.765c-3.345,1.856-6.414,4.197-9.68,6.199c-1.982,1.214-2.378,2.621-0.887,4.38
					c2.219,2.62,4.686,5.048,6.76,7.773c3.055,4.002,7.275,5.446,10.951,6.092c-4.176-3.289-8.984-7.08-13.795-10.87
					c0.242-0.316,0.479-0.634,0.719-0.952c4.055,2.433,8.027,5.016,12.182,7.268c7.126,3.865,14.363,7.524,21.559,11.27
					l-0.056-0.031c2.364,1.022,4.731,2.042,7.064,3.048c-0.009,0.059-0.009,0.109-0.018,0.167c0.838,0.322,1.747,0.667,2.702,1.023
					c1.121-0.464,2.748,0.152,4.169,1.502c1.024,0.354,2.036,0.694,2.997,0.998c0.41-0.204,0.814-0.406,1.226-0.611
					c-0.062,0.292-0.122,0.584-0.179,0.876c0.466,0.128,0.934,0.29,1.403,0.458c1.065,0.291,1.994,0.498,2.707,0.588
					c0.58,0.072,1.095,0.172,1.56,0.291c6.245-0.328,12.473,1.804,18.729-0.106c13.122-4.005,25.558-9.628,36.945-17.161
					C267.228,332.731,272.82,328.812,270.933,321.944z M188.834,262.827c-0.746-7.679-2.179-14.219-7.817-20.095
					c6.759-1.517,12.483-2.893,18.254-4.05c2.57-0.516,5.242-0.532,7.844-0.91c0.504-0.072,1.246-0.757,1.279-1.203
					c0.031-0.441-0.63-1.28-1.092-1.364c-5.391-0.969-10.799-1.861-16.217-2.674c-0.539-0.08-1.168,0.486-1.759,0.752
					c0.499,0.54,0.907,1.395,1.505,1.561c1.831,0.505,3.74,0.742,5.812,1.806c-4.747,1.466-9.481,2.983-14.257,4.351
					c-0.779,0.224-1.846,0.016-2.606-0.355c-3.217-1.569-6.356-3.292-9.546-4.931c-3.917-2.013-4.342-4.217-1.349-7.646
					c1.019-1.167,2.352-2.074,3.273-3.3c0.81-1.075,1.245-2.43,2.104-4.192c0.44,1.456,0.713,2.354,0.983,3.253
					c0.718-3.401,3.28-3.125,5.813-3.414c12.594-1.431,25.162-3.077,37.754-4.503c1.248-0.141,2.777,0.431,3.859,1.148
					c1.286,0.854,2.238,2.222,3.748,3.071c-0.361-0.694-0.72-1.388-1.1-2.124c3.114-0.527,3.114-0.527,9.764,7.038
					c-5.184,7.491-10.586,14.794-19.357,18.897c0.223,0.366,0.442,0.731,0.666,1.099c1.701-0.327,3.397-0.653,5.076-0.978
					c-3.523,7.628-7.111,15.395-10.701,23.163c0.428,0.211,0.85,0.422,1.276,0.633c0.813-1.156,1.628-2.314,2.444-3.471
					c0.279,0.167,0.559,0.333,0.838,0.497c-0.674,1.129-1.164,3.006-2.063,3.23c-1.795,0.445-3.811-0.019-5.836-0.111
					c1.1-2.224,1.82-3.563,2.35-4.974c0.037-0.099-1.479-1.192-1.992-1.013c-1.757,0.607-3.393,1.576-4.949,2.345
					c-0.133-2.143-0.256-5.24-4.615-4.59c-0.102,0.015-0.221-0.077-0.338-0.117c-1.695-0.582-2.145-4.231-4.766-2.252
					C191.661,258.506,190.755,260.334,188.834,262.827z M214.919,274.272c-2.641,2.226-5.277,4.455-8.221,6.942
					c-1.146-3.154-2.139-5.889-3.133-8.624c0.223-0.242,0.448-0.482,0.675-0.726c0.7,0.42,1.786,0.681,2.044,1.29
					c1.215,2.862,2.494,3.151,4.97,1.13c0.812-0.661,1.997-0.862,3.009-1.276C214.482,273.431,214.7,273.85,214.919,274.272z
					 M197.854,262.793c1.1,1.389,1.801,2.277,2.588,3.275c-3.533,3.428-6.129-0.255-9.748-0.614
					c1.361-2.594,2.385-4.553,3.919-7.486c1.116,3.119,1.894,5.284,2.671,7.449c0.227-0.071,0.457-0.144,0.683-0.215
					C197.94,264.606,197.911,264.011,197.854,262.793z M261.19,334.59c-8.318,6.251-18.055,9.653-27.572,13.547
					c-5.518,2.257-11.143,2.779-16.926,2.977c-1.184,0.04-2.414,0.651-3.529,0.461c-0.367-0.063-0.733-0.139-1.101-0.204
					c-0.856,0.208-1.739,0.231-2.645-0.007c-1.62-0.422-3.708-1.063-5.953-1.791c-0.578-0.127-1.151-0.254-1.749-0.382
					c0.031-0.062,0.056-0.108,0.087-0.167c-3.017-1.005-6.172-2.113-8.773-3.044c-0.857-0.078-1.727-0.287-2.612-0.645
					c-13.758-5.576-27.314-11.553-39.375-20.419c-0.817-0.599-1.881-0.862-2.836-1.269c-0.652-0.279-1.316-0.537-1.975-0.805
					c0.389-0.643,0.632-1.515,1.199-1.892c4.283-2.843,8.74-5.437,12.931-8.408c3.933-2.786,7.614-5.922,11.364-8.955
					c0.383-0.309,0.469-0.982,0.695-1.484c-0.202-0.142-0.404-0.282-0.605-0.423c-0.793,0.612-1.587,1.225-2.379,1.835
					c-0.218-0.128-0.434-0.255-0.648-0.381c0.517-0.89,0.966-1.827,1.561-2.662c5.613-7.894,11.268-15.76,16.886-23.653
					c1.703-2.392,11.161-5.075,13.37-3.218c1.68,1.419,2.535,3.895,3.566,5.993c0.604,1.232,0.839,2.647,1.45,4.68
					c2.233-1.806,3.959-3.181,5.664-4.584c1.74-1.434,3.458-2.899,5.193-4.358c8.817,8.412,17.375,16.753,26.136,24.878
					c6.586,6.108,13.396,11.978,20.167,17.883c4.4,3.839,4.595,6.427,0.138,9.976c-4.292,3.419-8.822,6.536-13.233,9.81
					c-0.603,0.446-1.108,1.024-1.411,1.874c7.635-2.311,12.916-8.295,19.276-12.566c0.219,0.244,0.439,0.488,0.659,0.733
					C265.884,330.156,263.753,332.662,261.19,334.59z"/>
			</g>
		</g>
	</g>
</g>
<g id="content">
</g>
<g id="device">
</g>
</svg>
