<?xml version="1.0" encoding="utf-8"?>
<!-- Generator: Adobe Illustrator 19.0.0, SVG Export Plug-In . SVG Version: 6.00 Build 0)  -->
<svg version="1.1" id="Layer_1" xmlns="http://www.w3.org/2000/svg" xmlns:xlink="http://www.w3.org/1999/xlink" x="0px" y="0px"
	 viewBox="0 0 195 195" style="enable-background:new 0 0 195 195;" xml:space="preserve">
<style type="text/css">
	.st0{fill:#ECECEC;}
</style>
<path class="st0" d="M103.6,1.9c-0.3,0-0.5,0-0.7,0c-0.2,0-0.4,0-0.6,0c-1.4,0-2.8-0.1-4.3-0.1c-52.5,0-95,42.5-95,95
	c0,0.4,0,0.9,0,1.3c0,0.4,0,0.8,0,1.2c0,0.4,0,0.7,0,1.1c0,0.5,0,0.9,0,1.4c0,0.3,0,0.7,0.1,1c0,0.5,0.1,1,0.1,1.5
	c0,0.3,0.1,0.6,0.1,0.9c0.1,0.5,0.1,1,0.1,1.5c0,0.3,0.1,0.6,0.1,0.8c0.1,0.5,0.1,1.1,0.2,1.6c0,0.3,0.1,0.5,0.1,0.8
	c0.1,0.6,0.2,1.1,0.3,1.7c0,0.2,0.1,0.5,0.1,0.7c0.1,0.6,0.2,1.2,0.3,1.7c0,0.2,0.1,0.4,0.1,0.6c0.1,0.6,0.2,1.2,0.4,1.8
	c0,0.2,0.1,0.3,0.1,0.5c0.1,0.6,0.3,1.3,0.4,1.9c0,0.1,0.1,0.3,0.1,0.4c0.2,0.7,0.3,1.3,0.5,2c0,0.1,0,0.2,0.1,0.3
	c0.2,0.7,0.4,1.4,0.6,2.2c0,0,0,0.1,0,0.1c0.4,1.4,0.9,2.8,1.3,4.1c0.1,0.2,0.1,0.5,0.3,0.8c0.1,0.2,0.1,0.4,0.2,0.6
	c0.1,0.3,0.3,0.7,0.4,1c5.4,15.4,6.5,25.7,3.7,36.9c-1.3,5-4,13.1-5,15.6c-0.9,2.2-0.1,8.4,8.5,4.4c0,0,10-5.2,21.5-5.8
	c10.8-0.6,21.8,2.9,29.6,5.4c0,0,0.1,0,0.2,0.1c0.1,0,0.1,0,0.2,0.1c0.4,0.1,0.6,0.2,0.9,0.3c5.7,1.9,11.6,3.2,17.7,3.9
	c0.1,0,0.2,0,0.3,0c0.8,0.1,1.5,0.2,2.3,0.3c0.2,0,0.5,0,0.7,0.1c0.7,0,1.3,0.1,2,0.1c0.3,0,0.5,0,0.8,0.1c0.7,0,1.3,0,2,0.1
	c0.2,0,0.5,0,0.7,0c0.9,0,1.8,0,2.7,0c17.6,0,34-4.8,48.1-13.1c16.2-9.5,29.3-23.7,37.5-40.7c6-12.5,9.4-26.4,9.4-41.2
	C193,46.2,153.5,4.9,103.6,1.9z M98,179.9c-45.9,0-83.1-37.2-83.1-83.1c0-45.9,37.2-83.1,83.1-83.1c45.9,0,83.1,37.2,83.1,83.1
	C181.1,142.7,143.9,179.9,98,179.9z M98,25.5c-39.3,0-71.3,32-71.3,71.3c0,39.3,32,71.2,71.3,71.2s71.3-32,71.3-71.2
	C169.3,57.5,137.3,25.5,98,25.5z M98,156.1c-32.8,0-59.4-26.6-59.4-59.4C38.6,64,65.2,37.4,98,37.4c32.8,0,59.4,26.6,59.4,59.4
	C157.4,129.5,130.8,156.1,98,156.1z M98,49.3c-26.2,0-47.6,21.3-47.6,47.5c0,26.2,21.4,47.5,47.6,47.5c26.2,0,47.5-21.3,47.5-47.5
	C145.5,70.6,124.2,49.3,98,49.3z M98,132.4c-19.7,0-35.7-16-35.7-35.6c0-19.6,16-35.6,35.7-35.6c19.7,0,35.7,16,35.7,35.6
	C133.7,116.4,117.7,132.4,98,132.4z M98,73c-13.1,0-23.7,10.6-23.7,23.8c0,13.1,10.6,23.7,23.7,23.7c13.1,0,23.7-10.6,23.7-23.7
	C121.8,83.6,111.1,73,98,73z M98,108.7c-6.6,0-11.9-5.3-11.9-11.9c0-6.5,5.3-11.9,11.9-11.9c6.6,0,11.9,5.3,11.9,11.9
	C109.9,103.3,104.6,108.7,98,108.7z"/>
</svg>
